<svg width="39" height="41" viewBox="0 0 39 41" fill="none" xmlns="http://www.w3.org/2000/svg">
<path d="M34.569 8.74792L4.45127 39.7463C4.02082 40.1894 3.51117 40.4198 2.92234 40.4374C2.33351 40.4552 1.80668 40.2248 1.34185 39.7463C0.876971 39.2679 0.644531 38.7345 0.644531 38.1462C0.644531 37.5579 0.876971 37.0245 1.34185 36.546L31.4596 5.54758H15.0294C14.4251 5.54758 13.9047 5.32279 13.4682 4.87321C13.0318 4.42362 12.8136 3.88759 12.8136 3.26509C12.8136 2.64255 13.0318 2.10713 13.4682 1.65884C13.9047 1.2105 14.4251 0.986328 15.0294 0.986328H35.9585C36.7969 0.986328 37.5136 1.29244 38.1085 1.90466C38.7033 2.51693 39.0007 3.25454 39.0007 4.11749V25.6586C39.0007 26.2806 38.7823 26.8162 38.3455 27.2654C37.9087 27.7146 37.3879 27.9392 36.7831 27.9392C36.1782 27.9392 35.658 27.7146 35.2224 27.2654C34.7868 26.8162 34.569 26.2806 34.569 25.6586V8.74792Z" fill="#2567B2"/>
</svg>
