<svg width="88" height="88" viewBox="0 0 88 88" fill="none" xmlns="http://www.w3.org/2000/svg">
<path fill-rule="evenodd" clip-rule="evenodd" d="M25.6614 87.9999H0.91793C0.791703 88.0003 0.666766 87.9745 0.55097 87.9243C0.435175 87.874 0.331023 87.8004 0.245061 87.7079C0.159098 87.6155 0.0931827 87.5063 0.0514565 87.3872C0.00973038 87.268 -0.0069046 87.1415 0.0025969 87.0157C0.20209 83.8359 1.3747 80.7943 3.36142 78.3035C5.34814 75.8127 8.05282 73.9932 11.1087 73.0917C14.1646 72.1902 17.4238 72.2503 20.4443 73.2639C23.4649 74.2776 26.1006 76.1956 27.9941 78.758C26.5663 81.2222 25.7339 83.9858 25.563 86.8287C25.5411 87.2185 25.5742 87.6095 25.6614 87.9901V87.9999ZM49.6176 7.6573C50.4189 7.93428 51.2014 8.26305 51.96 8.64153L57.4914 4.61604C57.692 4.46231 57.942 4.38743 58.1941 4.40557C58.4462 4.4237 58.6829 4.5336 58.8595 4.71446L63.8791 9.72418C64.0576 9.90163 64.1668 10.1372 64.1866 10.3882C64.2065 10.6391 64.1358 10.8889 63.9873 11.0923L59.9225 16.6236C60.3051 17.3838 60.634 18.1698 60.9067 18.9759L67.6782 20.0094C67.9247 20.0417 68.1518 20.1603 68.3194 20.344C68.4869 20.5277 68.584 20.7648 68.5935 21.0133V28.1096C68.594 28.3619 68.5038 28.6061 68.3394 28.7976C68.1751 28.989 67.9474 29.1151 67.6979 29.1529L60.9264 30.1371C60.657 30.954 60.328 31.7501 59.9421 32.5189L63.9873 38.0798C64.1365 38.2847 64.2076 38.5361 64.1877 38.7888C64.1679 39.0414 64.0584 39.2787 63.8791 39.4577L58.8595 44.4576C58.6808 44.6347 58.4446 44.742 58.1937 44.7601C57.9427 44.7781 57.6936 44.7058 57.4914 44.556L52.0093 40.501C51.228 40.8893 50.4186 41.2183 49.588 41.4852L48.6038 48.2469C48.5661 48.4964 48.44 48.7241 48.2485 48.8885C48.057 49.0529 47.8129 49.143 47.5605 49.1426H40.4446C40.1913 49.1407 39.947 49.0484 39.7558 48.8824C39.5645 48.7164 39.4388 48.4875 39.4013 48.2371L38.417 41.4951C37.5858 41.2299 36.7763 40.9008 35.9958 40.5109L30.5038 44.5659C30.3017 44.7156 30.0525 44.788 29.8016 44.7699C29.5506 44.7519 29.3145 44.6446 29.1358 44.4675L24.1162 39.4676C23.9369 39.2885 23.8274 39.0513 23.8075 38.7986C23.7877 38.546 23.8588 38.2945 24.0079 38.0897L28.0826 32.5878C27.6927 31.8107 27.3636 31.0045 27.0984 30.1765L20.3466 29.1922C20.0768 29.172 19.8255 29.0478 19.6455 28.8459C19.4656 28.6439 19.3711 28.3799 19.3821 28.1096V21.0231C19.3774 20.7696 19.4661 20.5233 19.6312 20.3309C19.7963 20.1386 20.0264 20.0136 20.2777 19.9798L27.0492 18.9956C27.3202 18.1793 27.6491 17.3833 28.0334 16.6138L23.9686 11.0824C23.8201 10.8791 23.7494 10.6293 23.7693 10.3783C23.7891 10.1273 23.8982 9.89179 24.0768 9.71434L29.0964 4.70462C29.2752 4.51984 29.5165 4.40838 29.7732 4.392C30.0298 4.37562 30.2833 4.4555 30.4842 4.61604L36.0155 8.67106C36.7742 8.29258 37.5567 7.96381 38.358 7.68683L39.4013 0.89565C39.439 0.646126 39.5651 0.418449 39.7566 0.254065C39.9481 0.0896818 40.1922 -0.000476872 40.4446 1.89703e-06H47.5409C47.7835 0.0113461 48.0146 0.107023 48.1943 0.270529C48.374 0.434036 48.491 0.65512 48.5251 0.89565L49.5684 7.66715L49.6176 7.6573ZM38.2104 25.9246L41.4583 29.1725C41.7347 29.446 42.1078 29.5994 42.4967 29.5994C42.8855 29.5994 43.2586 29.446 43.535 29.1725C45.5822 27.1254 47.8656 24.2022 49.8243 21.9483C49.9503 21.8042 50.0467 21.6367 50.108 21.4553C50.1692 21.2739 50.1942 21.0823 50.1814 20.8912C50.1686 20.7002 50.1183 20.5136 50.0334 20.342C49.9485 20.1705 49.8306 20.0173 49.6865 19.8913C49.5424 19.7652 49.3748 19.6688 49.1935 19.6076C49.0121 19.5463 48.8204 19.5213 48.6294 19.5341C48.4384 19.5469 48.2518 19.5972 48.0802 19.6821C47.9086 19.7671 47.7555 19.8849 47.6294 20.0291L42.4229 25.9935L40.2871 23.8577C40.009 23.6026 39.6432 23.4645 39.2659 23.4721C38.8885 23.4798 38.5287 23.6327 38.2612 23.8989C37.9937 24.1651 37.8391 24.5243 37.8296 24.9016C37.8202 25.2789 37.9565 25.6453 38.2104 25.9246ZM43.9878 12.1454C41.5402 12.1435 39.1469 12.867 37.1104 14.2246C35.0738 15.5822 33.4853 17.5129 32.5455 19.7729C31.6057 22.0329 31.3568 24.5207 31.8303 26.922C32.3037 29.3234 33.4783 31.5306 35.2055 33.2647C36.9328 34.9988 39.1353 36.1821 41.5347 36.6651C43.9342 37.1481 46.423 36.9091 48.6867 35.9783C50.9504 35.0475 52.8874 33.4666 54.2531 31.4355C55.6187 29.4043 56.3518 27.0139 56.3595 24.5664C56.3608 22.9408 56.0418 21.331 55.4206 19.8289C54.7995 18.3267 53.8884 16.9617 52.7394 15.8118C51.5905 14.662 50.2262 13.7498 48.7245 13.1274C47.2229 12.5051 45.6133 12.1848 43.9878 12.1848V12.1454ZM43.9878 52.8826C45.7397 52.8826 47.4524 53.4021 48.9091 54.3755C50.3658 55.3488 51.5011 56.7322 52.1716 58.3508C52.842 59.9694 53.0174 61.7505 52.6756 63.4688C52.3339 65.1871 51.4902 66.7654 50.2514 68.0043C49.0126 69.2431 47.4342 70.0867 45.7159 70.4285C43.9976 70.7703 42.2166 70.5949 40.598 69.9245C38.9794 69.254 37.5959 68.1187 36.6226 66.6619C35.6492 65.2053 35.1297 63.4926 35.1297 61.7407C35.1297 59.3914 36.063 57.1383 37.7242 55.4771C39.3854 53.8159 41.6385 52.8826 43.9878 52.8826ZM58.5642 87.9999H29.4114C29.2847 88.0018 29.1591 87.977 29.0425 87.9273C28.926 87.8775 28.8213 87.8039 28.735 87.7112C28.6487 87.6184 28.5829 87.5086 28.5417 87.3888C28.5006 87.269 28.485 87.1419 28.496 87.0157C28.7396 83.0723 30.4778 79.3703 33.3563 76.6641C36.2348 73.9579 40.0369 72.4513 43.9878 72.4513C47.9386 72.4513 51.7408 73.9579 54.6193 76.6641C57.4978 79.3703 59.236 83.0723 59.4795 87.0157C59.4906 87.1419 59.475 87.269 59.4338 87.3888C59.3927 87.5086 59.3268 87.6184 59.2406 87.7112C59.1543 87.8039 59.0495 87.8775 58.933 87.9273C58.8165 87.977 58.6909 88.0018 58.5642 87.9999ZM72.4714 52.922C74.2233 52.922 75.9359 53.4415 77.3926 54.4148C78.8493 55.3882 79.9847 56.7716 80.6552 58.3902C81.3256 60.0088 81.501 61.7899 81.1592 63.5082C80.8174 65.2265 79.9738 66.8048 78.735 68.0436C77.4961 69.2825 75.9178 70.1261 74.1995 70.4679C72.4812 70.8097 70.7001 70.6343 69.0815 69.9638C67.4629 69.2934 66.0795 68.158 65.1062 66.7013C64.1328 65.2446 63.6133 63.532 63.6133 61.78C63.6133 59.4307 64.5466 57.1777 66.2078 55.5165C67.869 53.8552 70.1221 52.922 72.4714 52.922ZM15.5042 52.922C17.2562 52.922 18.9688 53.4415 20.4255 54.4148C21.8822 55.3882 23.0175 56.7716 23.688 58.3902C24.3584 60.0088 24.5338 61.7899 24.1921 63.5082C23.8503 65.2265 23.0066 66.8048 21.7678 68.0436C20.529 69.2825 18.9506 70.1261 17.2323 70.4679C15.514 70.8097 13.733 70.6343 12.1144 69.9638C10.4958 69.2934 9.11233 68.158 8.13899 66.7013C7.16566 65.2446 6.64614 63.532 6.64614 61.78C6.64614 59.4307 7.5794 57.1777 9.24061 55.5165C10.9018 53.8552 13.1549 52.922 15.5042 52.922ZM87.0576 87.9999H62.3141C62.4014 87.6193 62.4345 87.2283 62.4125 86.8385C62.2417 83.9957 61.4092 81.2321 59.9815 78.7678C61.875 76.2055 64.5107 74.2874 67.5313 73.2738C70.5518 72.2602 73.811 72.2 76.8669 73.1015C79.9228 74.0031 82.6274 75.8226 84.6142 78.3134C86.6009 80.8042 87.7735 83.8457 87.973 87.0255C87.9811 87.1506 87.9634 87.276 87.921 87.394C87.8786 87.5119 87.8125 87.6199 87.7267 87.7113C87.6409 87.8026 87.5372 87.8754 87.4221 87.925C87.307 87.9747 87.183 88.0002 87.0576 87.9999Z" fill="#2567B2"/>
</svg>
