<svg width="24" height="42" viewBox="0 0 24 42" fill="none" xmlns="http://www.w3.org/2000/svg">
<path d="M20.9834 24.1829C21.4962 20.0859 21.0682 15.9259 19.7319 12.0191C18.3957 8.1123 16.1864 4.56156 13.2719 1.63674L11.6329 0L9.98741 1.63674C7.07524 4.56323 4.86729 8.1141 3.53082 12.0204C2.19435 15.9266 1.76441 20.0858 2.27359 24.1829C0.986229 25.9156 0.211438 27.9752 0.0374839 30.1268C-0.13647 32.2784 0.297407 34.4357 1.28968 36.3527L2.57968 38.8247V35.9973C2.5842 34.2418 3.1014 32.5259 4.06773 31.0603C4.49825 32.1133 4.99527 33.1377 5.55578 34.1276L5.75442 34.4761H17.5194L17.7181 34.1276C18.2753 33.136 18.7722 32.1117 19.2061 31.0603C20.1735 32.531 20.6906 34.252 20.6942 36.0124L20.5536 39.1377L21.9842 36.3591C22.9786 34.4403 23.4122 32.2802 23.2353 30.1263C23.0584 27.9724 22.2781 25.912 20.984 24.1811L20.9834 24.1829ZM10.955 2.60438L11.6329 1.92657L12.3107 2.59625C13.8704 4.15769 15.221 5.91479 16.3288 7.8236H6.93696C8.04697 5.91876 9.39742 4.16462 10.955 2.60438ZM1.59752 33.2111C1.44497 32.5019 1.36711 31.7787 1.36519 31.0534C1.36219 29.3589 1.78287 27.6905 2.58897 26.2001C2.5961 26.2424 2.60719 26.284 2.62208 26.3243C2.83817 27.3797 3.11983 28.4207 3.46542 29.441C3.47742 29.4644 3.48584 29.4895 3.4904 29.5154C2.62057 30.6095 1.97712 31.8658 1.59752 33.2111ZM19.3961 25.4978C19.3798 25.5803 19.363 25.6547 19.3467 25.7377C19.2805 26.0862 19.2061 26.4347 19.1237 26.771C19.1074 26.8291 19.0987 26.8953 19.0824 26.9528C18.8786 27.7859 18.633 28.6082 18.3465 29.4166L18.3303 29.466C17.8896 30.7231 17.3476 31.9423 16.7098 33.1118H6.5484C5.90521 31.9341 5.35786 30.7065 4.91165 29.441L4.90352 29.4247C4.62241 28.6226 4.3744 27.8043 4.16763 26.9691L4.11826 26.7704C4.03578 26.4312 3.96144 26.0926 3.89523 25.7453L3.84586 25.4973C3.77151 25.1087 3.7053 24.712 3.65593 24.3147C3.65593 24.2985 3.6478 24.2735 3.6478 24.2566C2.95945 19.0945 3.84403 13.8447 6.18597 9.19316H17.0577C19.4053 13.8636 20.2872 19.1344 19.5877 24.3147C19.5285 24.712 19.4704 25.1006 19.3961 25.4978ZM21.6612 33.2035C21.2849 31.8569 20.6409 30.5999 19.7678 29.5078C19.7747 29.4852 19.7831 29.4631 19.7928 29.4416C20.1345 28.4201 20.4161 27.3794 20.6361 26.3249C20.6442 26.2837 20.6611 26.2425 20.6692 26.1925C21.4816 27.6838 21.9052 29.3557 21.9011 31.0539C21.8969 31.7767 21.8166 32.497 21.6618 33.203L21.6612 33.2035Z" fill="#2567B2"/>
<path d="M11.6328 13.9559C10.686 13.9559 9.76047 14.2367 8.97323 14.7627C8.186 15.2887 7.57242 16.0364 7.2101 16.9111C6.84777 17.7858 6.75298 18.7483 6.93769 19.6769C7.1224 20.6055 7.57832 21.4585 8.24781 22.128C8.91729 22.7975 9.77027 23.2534 10.6989 23.4381C11.6275 23.6228 12.59 23.528 13.4647 23.1657C14.3395 22.8034 15.0871 22.1898 15.6131 21.4026C16.1391 20.6154 16.4199 19.6898 16.4199 18.743C16.4177 17.4741 15.9127 16.2577 15.0154 15.3604C14.1181 14.4631 12.9018 13.9581 11.6328 13.9559ZM11.6328 22.1658C10.9558 22.1658 10.2941 21.965 9.73121 21.5889C9.16834 21.2128 8.72964 20.6783 8.47058 20.0528C8.21152 19.4274 8.14374 18.7392 8.27581 18.0753C8.40788 17.4113 8.73386 16.8014 9.21254 16.3228C9.69122 15.8441 10.3011 15.5181 10.965 15.386C11.629 15.254 12.3172 15.3218 12.9426 15.5808C13.568 15.8399 14.1026 16.2786 14.4787 16.8414C14.8548 17.4043 15.0555 18.0661 15.0555 18.743C15.0545 19.6505 14.6935 20.5204 14.0519 21.1621C13.4102 21.8037 12.5402 22.1647 11.6328 22.1658Z" fill="#2567B2"/>
<path d="M12.3114 35.1626H10.947V39.9497H12.3114V35.1626Z" fill="#2567B2"/>
<path d="M15.734 37.213H14.3696V42.0001H15.734V37.213Z" fill="#2567B2"/>
<path d="M8.89656 37.213H7.53223V42.0001H8.89656V37.213Z" fill="#2567B2"/>
</svg>
