<svg width="44" height="42" viewBox="0 0 44 42" fill="none" xmlns="http://www.w3.org/2000/svg">
<g clip-path="url(#clip0_188_2035)">
<path d="M2.94295 32.9675C3.08983 32.9682 3.23245 32.9181 3.34651 32.8255C3.46058 32.733 3.53904 32.6037 3.56855 32.4598C3.59805 32.3159 3.57678 32.1663 3.50834 32.0363C3.43991 31.9063 3.32855 31.8041 3.19321 31.747C3.05788 31.6899 2.90693 31.6814 2.76608 31.7231C2.62522 31.7648 2.50316 31.854 2.42066 31.9755C2.33817 32.0971 2.30035 32.2434 2.31364 32.3897C2.32693 32.536 2.3905 32.6732 2.49354 32.7779C2.61232 32.8981 2.77394 32.9663 2.94295 32.9675Z" fill="#2567B2"/>
<path d="M42.257 16.9615H38.4873C38.2071 16.962 37.9385 17.0736 37.7404 17.2717C37.5422 17.4699 37.4307 17.7385 37.4302 18.0187V18.3202H35.6022C35.3219 18.3204 35.0532 18.4319 34.855 18.6301C34.6568 18.8283 34.5453 19.097 34.5451 19.3773V20.6866H24.6004C24.3301 20.686 24.0623 20.739 23.8127 20.8427C23.563 20.9464 23.3364 21.0986 23.1461 21.2906L22.8777 21.5599L22.8104 21.4925C22.2939 21.0072 21.622 20.7207 20.9142 20.6838H8.76903V19.3764C8.76853 19.0961 8.65699 18.8276 8.45885 18.6294C8.26071 18.4313 7.99211 18.3197 7.7119 18.3192H5.88395V18.0177C5.8832 17.7377 5.77155 17.4693 5.57344 17.2714C5.37532 17.0735 5.10687 16.962 4.82682 16.9615H1.05811C0.777731 16.962 0.508993 17.0737 0.310823 17.2721C0.112654 17.4704 0.00122712 17.7392 0.000976562 18.0196L0.000976563 34.3118C0.00147784 34.592 0.113015 34.8606 0.311158 35.0588C0.5093 35.2569 0.777896 35.3685 1.05811 35.369H4.82682C5.10703 35.3685 5.37563 35.2569 5.57377 35.0588C5.77191 34.8606 5.88345 34.592 5.88395 34.3118V34.0103H7.7119C7.99211 34.0098 8.26071 33.8983 8.45885 33.7002C8.65699 33.502 8.76853 33.2334 8.76903 32.9532V32.4412L9.52751 32.9864C9.50034 33.3011 9.54188 33.6181 9.64927 33.9152C9.75666 34.2123 9.92733 34.4825 10.1495 34.7072C10.3511 34.9092 10.5909 35.0692 10.8549 35.1777C11.1189 35.2863 11.4018 35.3413 11.6873 35.3396H11.7328C11.724 35.629 11.7736 35.9172 11.8787 36.187C11.9838 36.4568 12.1421 36.7027 12.3443 36.91C12.5466 37.1172 12.7885 37.2816 13.0556 37.3933C13.3227 37.505 13.6097 37.5617 13.8992 37.56H13.9447C13.9356 37.8502 13.9853 38.1391 14.0907 38.4096C14.1962 38.68 14.3552 38.9264 14.5583 39.1338C14.7614 39.3412 15.0043 39.5054 15.2724 39.6165C15.5406 39.7277 15.8285 39.7834 16.1187 39.7805H16.1642C16.1554 40.0699 16.2051 40.3581 16.3101 40.6279C16.4152 40.8978 16.5736 41.1436 16.7758 41.3509C16.978 41.5581 17.2199 41.7225 17.487 41.8342C17.7542 41.9459 18.0411 42.0026 18.3306 42.0009C18.6306 42.0005 18.9275 41.9407 19.2041 41.8248C19.4808 41.7089 19.7317 41.5394 19.9424 41.3259L20.0922 41.1751C20.5362 41.4344 21.0535 41.5394 21.5634 41.4737C22.0733 41.408 22.5472 41.1754 22.9109 40.812L23.1005 40.6224C23.3897 40.3345 23.5977 39.9754 23.7035 39.5814C24.1436 39.8154 24.6472 39.9021 25.1402 39.8287C25.6333 39.7554 26.0897 39.5258 26.4426 39.1737L26.6322 38.9841C26.9074 38.7086 27.1086 38.3682 27.2172 37.9943C27.6635 38.2758 28.1923 38.3972 28.7167 38.3386C29.2411 38.28 29.73 38.0449 30.1032 37.6719L30.2929 37.4823C30.6047 37.1702 30.8208 36.7754 30.9158 36.3446C31.338 36.5119 31.8001 36.5522 32.245 36.4604C32.6898 36.3686 33.0982 36.1487 33.4197 35.8278L33.6093 35.6382C33.9885 35.2565 34.2243 34.7556 34.277 34.2201C34.3297 33.6847 34.196 33.1474 33.8985 32.6991L34.5385 32.3379V32.9665C34.5387 33.2468 34.6502 33.5155 34.8484 33.7137C35.0466 33.9119 35.3153 34.0234 35.5956 34.0236H37.4235V34.3251C37.424 34.6053 37.5356 34.8739 37.7337 35.0721C37.9319 35.2702 38.2005 35.3817 38.4807 35.3822H42.2494C42.5296 35.3817 42.7982 35.2702 42.9963 35.0721C43.1945 34.8739 43.306 34.6053 43.3065 34.3251V18.0196C43.3063 17.7393 43.1948 17.4706 42.9966 17.2724C42.7984 17.0742 42.5297 16.9628 42.2494 16.9625L42.257 16.9615ZM4.61539 34.1032H1.26954V18.2311H4.61539V34.1032ZM11.692 34.0729C11.5737 34.0742 11.4563 34.052 11.3466 34.0076C11.2369 33.9631 11.1371 33.8974 11.053 33.8141C10.8786 33.6267 10.7852 33.3781 10.7932 33.1222C10.8012 32.8663 10.9099 32.624 11.0957 32.4479L11.3801 32.1634C11.4738 32.0682 11.5855 31.9925 11.7087 31.9407C11.8319 31.889 11.9642 31.8622 12.0978 31.8619C12.2162 31.8606 12.3336 31.8828 12.4433 31.9273C12.553 31.9717 12.6528 32.0375 12.7368 32.1208C12.9115 32.308 13.0051 32.5567 12.9971 32.8127C12.9891 33.0686 12.8802 33.311 12.6942 33.487L12.4097 33.7714C12.3161 33.8668 12.2044 33.9426 12.0812 33.9943C11.958 34.0461 11.8257 34.0728 11.692 34.0729ZM13.904 36.2915C13.7856 36.2929 13.6681 36.2707 13.5584 36.2263C13.4487 36.1818 13.349 36.116 13.2649 36.0326C13.0903 35.8454 12.9967 35.5967 13.0047 35.3407C13.0127 35.0848 13.1216 34.8424 13.3076 34.6664L13.592 34.382C13.6857 34.2867 13.7974 34.211 13.9206 34.1592C14.0438 34.1075 14.1761 34.0807 14.3097 34.0805C14.4279 34.0793 14.5452 34.1015 14.6547 34.1459C14.7643 34.1904 14.8639 34.2561 14.9478 34.3393C15.1223 34.5267 15.2156 34.7753 15.2077 35.0312C15.1997 35.2871 15.0909 35.5294 14.9052 35.7055L14.6207 35.99C14.5273 36.0854 14.4158 36.1613 14.2927 36.2132C14.1697 36.2651 14.0375 36.2921 13.904 36.2924V36.2915ZM16.1187 38.511C16.0004 38.5123 15.8829 38.4901 15.7732 38.4457C15.6635 38.4013 15.5638 38.3355 15.4797 38.2521C15.3053 38.0648 15.2119 37.8161 15.2199 37.5603C15.2278 37.3044 15.3366 37.062 15.5224 36.8859L15.8068 36.6015C15.9003 36.5063 16.0119 36.4306 16.1349 36.3788C16.258 36.3271 16.3901 36.3003 16.5236 36.3C16.6419 36.2986 16.7594 36.3208 16.8691 36.3653C16.9788 36.4097 17.0785 36.4755 17.1626 36.5588C17.337 36.7462 17.4304 36.9949 17.4224 37.2507C17.4144 37.5066 17.3057 37.7489 17.1199 37.925L16.8355 38.2095C16.742 38.3047 16.6304 38.3804 16.5074 38.4322C16.3843 38.484 16.2522 38.5107 16.1187 38.511ZM19.0484 40.429C18.9548 40.5242 18.8433 40.5999 18.7202 40.6516C18.5972 40.7034 18.4651 40.7302 18.3316 40.7305C18.2132 40.7319 18.0958 40.7097 17.9861 40.6653C17.8764 40.6208 17.7766 40.555 17.6926 40.4716C17.5181 40.2843 17.4247 40.0356 17.4327 39.7798C17.4407 39.5239 17.5494 39.2815 17.7352 39.1054L18.0197 38.821C18.1133 38.7257 18.225 38.6499 18.3482 38.5982C18.4715 38.5464 18.6037 38.5197 18.7374 38.5195C18.8557 38.5181 18.9732 38.5403 19.0829 38.5847C19.1926 38.6291 19.2924 38.695 19.3764 38.7783C19.5508 38.9657 19.6442 39.2144 19.6362 39.4702C19.6283 39.7261 19.5195 39.9684 19.3337 40.1446L19.0484 40.429ZM32.72 34.7309L32.5304 34.9205C32.3324 35.1176 32.0645 35.2282 31.7852 35.2282C31.5058 35.2282 31.2379 35.1176 31.04 34.9205L26.0738 29.9506C25.955 29.8314 25.7937 29.7643 25.6254 29.764C25.4571 29.7637 25.2956 29.8303 25.1764 29.9491C25.0572 30.0679 24.9901 30.2292 24.9899 30.3975C24.9896 30.5658 25.0562 30.7273 25.175 30.8465L29.395 35.0817C29.5932 35.2812 29.7044 35.5509 29.7044 35.8321C29.7044 36.1133 29.5932 36.3831 29.395 36.5825L29.2054 36.7722C29.0074 36.9692 28.7395 37.0799 28.4602 37.0799C28.1809 37.0799 27.9129 36.9692 27.715 36.7722L22.8379 31.8799C22.7191 31.7608 22.5578 31.6936 22.3895 31.6934C22.2212 31.6931 22.0597 31.7597 21.9405 31.8785C21.8214 31.9973 21.7542 32.1586 21.754 32.3269C21.7537 32.4952 21.8203 32.6567 21.9391 32.7759L25.7126 36.5617L25.7334 36.5825C25.9316 36.782 26.0428 37.0518 26.0428 37.333C26.0428 37.6141 25.9316 37.8839 25.7334 38.0834L25.5438 38.273C25.3459 38.4701 25.0779 38.5807 24.7986 38.5807C24.5193 38.5807 24.2513 38.4701 24.0534 38.273L18.7374 32.9399C18.6786 32.8809 18.6087 32.8341 18.5317 32.802C18.4548 32.77 18.3723 32.7535 18.289 32.7534C18.2057 32.7532 18.1231 32.7695 18.0461 32.8013C17.969 32.833 17.899 32.8797 17.84 32.9385C17.781 32.9973 17.7341 33.0672 17.7021 33.1441C17.6701 33.2211 17.6536 33.3036 17.6534 33.3869C17.6533 33.4702 17.6696 33.5528 17.7014 33.6298C17.7331 33.7068 17.7797 33.7769 17.8386 33.8359L22.2065 38.218C22.4047 38.4175 22.5159 38.6873 22.5159 38.9684C22.5159 39.2496 22.4047 39.5194 22.2065 39.7189L22.0169 39.9085C21.8589 40.0644 21.6558 40.1666 21.4364 40.2006C21.2171 40.2347 20.9926 40.1988 20.7948 40.0981C20.9193 39.7149 20.9364 39.305 20.8441 38.9128C20.7518 38.5206 20.5537 38.1613 20.2714 37.8739C20.0698 37.6721 19.8302 37.5123 19.5663 37.4039C19.3025 37.2955 19.0198 37.2406 18.7345 37.2424H18.689C18.698 36.953 18.6484 36.6647 18.5434 36.3948C18.4384 36.1249 18.28 35.879 18.0778 35.6717C17.8755 35.4644 17.6336 35.3001 17.3664 35.1884C17.0992 35.0768 16.8122 35.0202 16.5226 35.022H16.4771C16.486 34.7325 16.4365 34.4442 16.3315 34.1743C16.2265 33.9045 16.0681 33.6585 15.8659 33.4513C15.6636 33.244 15.4217 33.0796 15.1545 32.968C14.8873 32.8563 14.6003 32.7997 14.3107 32.8015H14.2604C14.2694 32.512 14.2198 32.2238 14.1148 31.9539C14.0098 31.684 13.8514 31.4381 13.6492 31.2308C13.447 31.0235 13.205 30.8591 12.9378 30.7475C12.6706 30.6359 12.3836 30.5793 12.094 30.581C11.7941 30.5813 11.4972 30.6411 11.2205 30.757C10.9438 30.8729 10.6929 31.0425 10.4823 31.2561L10.1978 31.5405C10.1301 31.6085 10.0668 31.6807 10.0082 31.7567L8.77093 30.8712V29.3627C8.77093 29.1945 8.7041 29.0332 8.58515 28.9142C8.4662 28.7953 8.30487 28.7284 8.13665 28.7284C7.96842 28.7284 7.80709 28.7953 7.68814 28.9142C7.56919 29.0332 7.50237 29.1945 7.50237 29.3627V32.7323H5.89059V19.5897H7.50237V26.3288C7.50237 26.497 7.56919 26.6584 7.68814 26.7773C7.80709 26.8963 7.96842 26.9631 8.13665 26.9631C8.30487 26.9631 8.4662 26.8963 8.58515 26.7773C8.7041 26.6584 8.77093 26.497 8.77093 26.3288V21.9543H20.9171C21.2859 21.9919 21.6337 22.1441 21.9116 22.3894L21.9818 22.4596L17.4802 26.9754C17.01 27.4444 16.7404 28.0777 16.7284 28.7417C16.7193 29.0647 16.7754 29.3861 16.8932 29.6869C17.011 29.9878 17.1882 30.2618 17.4141 30.4927C17.6401 30.7236 17.9102 30.9067 18.2084 31.031C18.5066 31.1553 18.8267 31.2183 19.1498 31.2163C19.4869 31.2163 19.8206 31.1493 20.1315 31.0191C20.4424 30.8889 20.7243 30.698 20.9607 30.4578L22.5004 28.9133C23.0932 29.2543 23.7649 29.434 24.4488 29.4348C24.9621 29.4369 25.4707 29.3369 25.945 29.1406C26.4193 28.9443 26.8498 28.6556 27.2115 28.2914L27.5045 27.9975L32.7191 33.23C32.9172 33.4295 33.0285 33.6993 33.0285 33.9805C33.0285 34.2616 32.9182 34.5314 32.72 34.7309ZM35.8175 32.7399V26.9166C35.8175 26.7484 35.7506 26.5871 35.6317 26.4681C35.5127 26.3492 35.3514 26.2823 35.1832 26.2823C35.0149 26.2823 34.8536 26.3492 34.7347 26.4681C34.6157 26.5871 34.5489 26.7484 34.5489 26.9166V30.8655L33.0196 31.7282L28.4004 27.0949L29.0888 26.4047C29.2076 26.2855 29.2742 26.124 29.2739 25.9557C29.2736 25.7874 29.2065 25.6261 29.0873 25.5073C28.9682 25.3885 28.8067 25.3219 28.6384 25.3221C28.4701 25.3224 28.3088 25.3895 28.19 25.5087L26.3137 27.3916C25.858 27.8491 25.2499 28.1228 24.6054 28.1606C23.9608 28.1983 23.3249 27.9975 22.819 27.5964C22.697 27.4994 22.5435 27.4506 22.3878 27.4596C22.2322 27.4685 22.0853 27.5344 21.9752 27.6448L20.0657 29.5609C19.9463 29.6813 19.8042 29.7768 19.6476 29.8419C19.4911 29.907 19.3232 29.9404 19.1536 29.9401C19.0017 29.9417 18.8509 29.9131 18.7102 29.856C18.5694 29.7989 18.4413 29.7144 18.3335 29.6073C18.223 29.4951 18.1366 29.3616 18.0794 29.2149C18.0221 29.0682 17.9954 28.9114 18.0007 28.7541C18.0066 28.4179 18.1425 28.0971 18.3799 27.859L24.0458 22.1761C24.1185 22.1026 24.205 22.0444 24.3004 22.0047C24.3958 21.9649 24.4981 21.9446 24.6014 21.9448H34.5451V23.8637C34.5451 24.032 34.6119 24.1933 34.7309 24.3122C34.8498 24.4312 35.0112 24.498 35.1794 24.498C35.3476 24.498 35.5089 24.4312 35.6279 24.3122C35.7468 24.1933 35.8137 24.032 35.8137 23.8637V19.5774H37.4254V32.7323L35.8175 32.7399ZM42.0484 34.0985H38.6997V18.2311H42.0455L42.0484 34.0985Z" fill="#2567B2"/>
<path d="M40.3731 32.9675C40.52 32.9682 40.6626 32.9181 40.7767 32.8255C40.8908 32.733 40.9692 32.6037 40.9987 32.4598C41.0282 32.3159 41.007 32.1663 40.9385 32.0363C40.8701 31.9063 40.7587 31.8041 40.6234 31.747C40.488 31.6899 40.3371 31.6814 40.1963 31.7231C40.0554 31.7648 39.9333 31.854 39.8508 31.9755C39.7684 32.0971 39.7305 32.2434 39.7438 32.3897C39.7571 32.536 39.8207 32.6732 39.9237 32.7779C40.0426 32.8979 40.2042 32.9661 40.3731 32.9675Z" fill="#2567B2"/>
<path d="M21.6576 19.7129C22.9633 19.7135 24.2448 19.361 25.3665 18.6928C25.5111 18.6065 25.6155 18.4664 25.6568 18.3032C25.698 18.1399 25.6728 17.967 25.5865 17.8224C25.5003 17.6778 25.3601 17.5734 25.1969 17.5322C25.0337 17.4909 24.8607 17.5162 24.7162 17.6025C23.4564 18.3537 21.9655 18.6188 20.524 18.3478C19.0825 18.0769 17.7896 17.2887 16.8885 16.1313C15.9874 14.974 15.5402 13.5273 15.631 12.0633C15.7217 10.5994 16.3442 9.21904 17.3814 8.18188C18.4186 7.14472 19.7989 6.52222 21.2629 6.43145C22.7268 6.34068 24.1735 6.78789 25.3308 7.68898C26.4882 8.59007 27.2764 9.88295 27.5473 11.3245C27.8183 12.766 27.5532 14.2569 26.802 15.5166C26.7157 15.6611 26.6904 15.8339 26.7316 15.997C26.7727 16.1602 26.877 16.3003 27.0215 16.3865C27.1659 16.4728 27.3387 16.4981 27.5019 16.4569C27.665 16.4158 27.8051 16.3115 27.8914 16.167C28.7104 14.7899 29.0508 13.1806 28.8596 11.5898C28.6684 9.99902 27.9563 8.51617 26.8342 7.37239C25.7122 6.2286 24.2433 5.48814 22.6565 5.2664C21.0697 5.04466 19.4541 5.35411 18.0615 6.14651C16.669 6.93891 15.5776 8.16975 14.9577 9.64718C14.3377 11.1246 14.2239 12.7656 14.6341 14.3145C15.0442 15.8633 15.9553 17.233 17.2252 18.21C18.4951 19.187 20.0525 19.7164 21.6547 19.7158L21.6576 19.7129Z" fill="#2567B2"/>
<path d="M19.4692 11.4702V10.7856C19.4692 10.7024 19.4528 10.6199 19.421 10.5429C19.3891 10.466 19.3424 10.396 19.2835 10.3371C19.2246 10.2782 19.1546 10.2315 19.0777 10.1996C19.0007 10.1678 18.9183 10.1514 18.835 10.1514C18.7517 10.1514 18.6692 10.1678 18.5922 10.1996C18.5153 10.2315 18.4454 10.2782 18.3865 10.3371C18.3276 10.396 18.2808 10.466 18.249 10.5429C18.2171 10.6199 18.2007 10.7024 18.2007 10.7856V11.4702C18.2007 11.5535 18.2171 11.6359 18.249 11.7129C18.2808 11.7899 18.3276 11.8598 18.3865 11.9187C18.4454 11.9776 18.5153 12.0243 18.5922 12.0562C18.6692 12.088 18.7517 12.1045 18.835 12.1045C18.9183 12.1045 19.0007 12.088 19.0777 12.0562C19.1546 12.0243 19.2246 11.9776 19.2835 11.9187C19.3424 11.8598 19.3891 11.7899 19.421 11.7129C19.4528 11.6359 19.4692 11.5535 19.4692 11.4702Z" fill="#2567B2"/>
<path d="M25.1162 11.4702V10.7856C25.1162 10.6174 25.0494 10.4561 24.9304 10.3371C24.8115 10.2182 24.6502 10.1514 24.4819 10.1514C24.3137 10.1514 24.1524 10.2182 24.0334 10.3371C23.9145 10.4561 23.8477 10.6174 23.8477 10.7856V11.4702C23.8477 11.6384 23.9145 11.7997 24.0334 11.9187C24.1524 12.0376 24.3137 12.1045 24.4819 12.1045C24.6502 12.1045 24.8115 12.0376 24.9304 11.9187C25.0494 11.7997 25.1162 11.6384 25.1162 11.4702Z" fill="#2567B2"/>
<path d="M21.6565 16.2144C22.3549 16.2432 23.0362 15.9943 23.5515 15.522C24.0668 15.0497 24.374 14.3926 24.406 13.6943C24.406 13.5261 24.3392 13.3648 24.2202 13.2458C24.1013 13.1269 23.94 13.0601 23.7717 13.0601C23.6035 13.0601 23.4422 13.1269 23.3232 13.2458C23.2043 13.3648 23.1375 13.5261 23.1375 13.6943C23.0798 14.0442 22.8997 14.3623 22.6293 14.5918C22.359 14.8212 22.0159 14.9472 21.6613 14.9472C21.3066 14.9472 20.9635 14.8212 20.6932 14.5918C20.4228 14.3623 20.2427 14.0442 20.1851 13.6943C20.1851 13.5261 20.1182 13.3648 19.9993 13.2458C19.8803 13.1269 19.719 13.0601 19.5508 13.0601C19.3826 13.0601 19.2212 13.1269 19.1023 13.2458C18.9833 13.3648 18.9165 13.5261 18.9165 13.6943C18.9483 14.391 19.2541 15.0468 19.7674 15.5188C20.2806 15.9909 20.9597 16.2409 21.6565 16.2144Z" fill="#2567B2"/>
<path d="M32.2241 8.68458C32.9511 8.68273 33.6659 8.49834 34.3031 8.14833C34.9403 7.79833 35.4794 7.29391 35.8709 6.68137C36.2625 6.06883 36.4939 5.36777 36.544 4.64251C36.5941 3.91725 36.4613 3.19102 36.1577 2.53045L36.701 1.98529C36.7598 1.92628 36.8065 1.85625 36.8382 1.77921C36.87 1.70218 36.8863 1.61964 36.8861 1.53631C36.886 1.45298 36.8695 1.37049 36.8375 1.29355C36.8054 1.21662 36.7586 1.14674 36.6996 1.08791C36.6406 1.02908 36.5706 0.982454 36.4935 0.950687C36.4165 0.91892 36.3339 0.902638 36.2506 0.90277C36.1673 0.902902 36.0848 0.919446 36.0078 0.951457C35.9309 0.983467 35.861 1.03032 35.8022 1.08933L35.4467 1.44582C34.9629 0.909787 34.353 0.503071 33.6722 0.262604C32.9914 0.0221381 32.2613 -0.0444613 31.5482 0.0688538C30.8352 0.182169 30.1617 0.471809 29.589 0.911473C29.0162 1.35114 28.5624 1.9269 28.2687 2.58648C27.975 3.24605 27.8507 3.96855 27.907 4.68837C27.9634 5.40819 28.1987 6.10252 28.5916 6.70832C28.9844 7.31412 29.5224 7.81219 30.1566 8.15732C30.7907 8.50244 31.5011 8.68368 32.2231 8.68458H32.2241ZM32.2241 1.26853C32.6667 1.26874 33.104 1.36528 33.5056 1.55143C33.9072 1.73757 34.2635 2.00888 34.5498 2.34652L32.2241 4.6798L30.873 3.32401C30.7542 3.20482 30.5929 3.13771 30.4246 3.13745C30.2563 3.13718 30.0948 3.20378 29.9756 3.32259C29.8564 3.4414 29.7893 3.60269 29.7891 3.77099C29.7888 3.93928 29.8554 4.10078 29.9742 4.21997L31.5955 5.84691C31.678 5.92953 31.776 5.99507 31.8838 6.03979C31.9917 6.08451 32.1073 6.10753 32.2241 6.10753C32.3408 6.10753 32.4564 6.08451 32.5643 6.03979C32.6722 5.99507 32.7702 5.92953 32.8527 5.84691L35.1727 3.51837C35.3421 4.13569 35.3136 4.79059 35.0912 5.39086C34.8688 5.99113 34.4638 6.50653 33.9331 6.8645C33.4024 7.22246 32.7728 7.40495 32.133 7.38628C31.4931 7.3676 30.8752 7.1487 30.3663 6.76039C29.8574 6.37208 29.4831 5.83392 29.2961 5.2217C29.1091 4.60949 29.1189 3.95404 29.324 3.34766C29.5291 2.74128 29.9193 2.21451 30.4396 1.84153C30.9598 1.46855 31.5839 1.26814 32.2241 1.26853Z" fill="#2567B2"/>
<path d="M6.91544 8.60594L6.69168 9.91337C6.66375 10.075 6.67151 10.2407 6.7144 10.399C6.75728 10.5573 6.83427 10.7042 6.93996 10.8296C7.04565 10.955 7.17747 11.0557 7.32621 11.1248C7.47494 11.1938 7.63699 11.2295 7.80097 11.2293C7.98327 11.2292 8.16282 11.185 8.32432 11.1004L9.49807 10.4832L10.6718 11.1004C10.8333 11.185 11.0129 11.2292 11.1952 11.2293C11.3591 11.2294 11.5211 11.1936 11.6697 11.1245C11.8184 11.0554 11.9501 10.9546 12.0558 10.8293C12.1614 10.7039 12.2384 10.557 12.2814 10.3988C12.3243 10.2406 12.3322 10.0749 12.3045 9.91337L12.0798 8.60689L13.0279 7.68154C13.1783 7.53497 13.2848 7.34921 13.3351 7.14528C13.3855 6.94135 13.3778 6.72739 13.3129 6.52761C13.248 6.32783 13.1284 6.15021 12.9678 6.01484C12.8072 5.87947 12.6119 5.79176 12.404 5.76164L11.0918 5.57201L10.505 4.38309C10.412 4.19475 10.2683 4.03616 10.0899 3.92527C9.91155 3.81438 9.70572 3.75562 9.4957 3.75562C9.28568 3.75562 9.07985 3.81438 8.90149 3.92527C8.72314 4.03616 8.57937 4.19475 8.48645 4.38309L7.89957 5.57201L6.5874 5.76164C6.37951 5.79176 6.1842 5.87947 6.02357 6.01484C5.86295 6.15021 5.74342 6.32783 5.6785 6.52761C5.61359 6.72739 5.60588 6.94135 5.65625 7.14528C5.70663 7.34921 5.81307 7.53497 5.96354 7.68154L6.91544 8.60594ZM8.41439 6.778C8.51553 6.76267 8.61147 6.72311 8.69401 6.66269C8.77656 6.60227 8.84326 6.52278 8.88844 6.431L9.49428 5.20415L10.1001 6.431C10.1454 6.52273 10.2121 6.60218 10.2946 6.66259C10.3771 6.72301 10.473 6.7626 10.5742 6.778L11.929 6.97426L10.9487 7.92994C10.875 8.00185 10.8199 8.09061 10.7882 8.18856C10.7565 8.28652 10.7491 8.39072 10.7666 8.49217L10.998 9.84132L9.78629 9.2042C9.69517 9.15644 9.59384 9.13149 9.49096 9.13149C9.38809 9.13149 9.28675 9.15644 9.19563 9.2042L7.98395 9.84132L8.21529 8.49217C8.23285 8.39072 8.22546 8.28652 8.19375 8.18856C8.16203 8.09061 8.10695 8.00185 8.03325 7.92994L7.05291 6.97426L8.41439 6.778Z" fill="#2567B2"/>
</g>
<defs>
<clipPath id="clip0_188_2035">
<rect width="43.3141" height="42" fill="white"/>
</clipPath>
</defs>
</svg>
