<svg width="53" height="53" viewBox="0 0 53 53" fill="none" xmlns="http://www.w3.org/2000/svg">
<path d="M46.8923 26.5C46.8923 26.7385 47.0859 26.9321 47.3244 26.9321H49.665C49.9035 26.9321 50.0971 26.7385 50.0971 26.5C50.0971 26.2615 49.9035 26.0679 49.665 26.0679H47.3244C47.0859 26.0679 46.8923 26.2615 46.8923 26.5Z" fill="#40C6C5"/>
<path d="M5.92792 26.5C5.92792 26.2615 5.73435 26.0679 5.49585 26.0679H3.15579C2.91729 26.0679 2.72372 26.2615 2.72372 26.5C2.72372 26.7385 2.91729 26.9321 3.15579 26.9321H5.49585C5.73435 26.9321 5.92792 26.7385 5.92792 26.5Z" fill="#40C6C5"/>
<path d="M26.8428 49.7549V47.4142C26.8428 47.1757 26.6492 46.9822 26.4107 46.9822C26.1728 46.9822 25.9786 47.1757 25.9786 47.4142V49.7549C25.9786 49.9934 26.1728 50.1869 26.4107 50.1869C26.6492 50.1869 26.8428 49.9934 26.8428 49.7549Z" fill="#40C6C5"/>
<path d="M26.8428 5.58576V3.24569C26.8428 3.00719 26.6492 2.81363 26.4107 2.81363C26.1728 2.81363 25.9786 3.00719 25.9786 3.24569V5.58576C25.9786 5.82426 26.1728 6.01782 26.4107 6.01782C26.6492 6.01782 26.8428 5.82426 26.8428 5.58576Z" fill="#40C6C5"/>
<path d="M44.0753 16.0164C44.0753 16.0901 44.0937 16.1645 44.1334 16.2324C44.2533 16.4387 44.5177 16.509 44.7239 16.3897L46.7489 15.2168C46.9551 15.097 47.0248 14.8325 46.9061 14.6263C46.7863 14.4201 46.5219 14.3498 46.3157 14.469L44.2907 15.6419C44.1525 15.7226 44.0753 15.8672 44.0753 16.0164Z" fill="#40C6C5"/>
<path d="M8.53013 37.3581C8.73636 37.2388 8.80607 36.9744 8.6874 36.7687C8.56757 36.5625 8.30315 36.4922 8.09691 36.6115L6.07196 37.7844C5.9337 37.865 5.85651 38.0102 5.85651 38.1571C5.85651 38.232 5.87494 38.3063 5.91527 38.3731C6.03452 38.5794 6.29894 38.6497 6.50518 38.5304L8.53013 37.3581Z" fill="#40C6C5"/>
<path d="M36.4629 44.5972C36.4629 44.6709 36.4813 44.7453 36.521 44.8132L37.694 46.8388C37.8138 47.0444 38.0782 47.1147 38.2844 46.9955C38.4907 46.8756 38.5604 46.6112 38.4417 46.405L37.2688 44.38C37.149 44.1744 36.8846 44.1035 36.6783 44.2228C36.5401 44.3034 36.4629 44.4474 36.4629 44.5972Z" fill="#40C6C5"/>
<path d="M16.3004 8.1868L15.1275 6.16186C15.0077 5.95562 14.7432 5.88533 14.5376 6.00458C14.3999 6.08466 14.3215 6.22983 14.3215 6.37846C14.3215 6.4522 14.3405 6.52652 14.3809 6.5945L15.5538 8.61944C15.6736 8.82568 15.938 8.89597 16.1431 8.77672C16.3494 8.65747 16.4191 8.39304 16.3004 8.1868Z" fill="#40C6C5"/>
<path d="M37.5995 6.1094L36.4352 8.13953C36.3966 8.20751 36.3776 8.28125 36.3776 8.35442C36.3776 8.5042 36.4559 8.64995 36.5948 8.72945C36.8016 8.84812 37.0654 8.77669 37.1841 8.56929L38.3484 6.53916C38.4665 6.33293 38.3956 6.06793 38.1888 5.94925C37.982 5.83115 37.7181 5.90259 37.5995 6.1094Z" fill="#40C6C5"/>
<path d="M15.222 46.8912L16.3862 44.861C16.5043 44.6536 16.4323 44.3904 16.2272 44.2711C16.021 44.153 15.7577 44.2239 15.6385 44.4313L14.4742 46.4614C14.4368 46.5288 14.416 46.6031 14.416 46.6763C14.416 46.8261 14.4949 46.9718 14.6332 47.0502C14.8394 47.1694 15.1033 47.098 15.222 46.8912Z" fill="#40C6C5"/>
<path d="M44.1813 36.6852C44.1427 36.7532 44.1237 36.827 44.1237 36.9001C44.1237 37.0499 44.202 37.1962 44.3408 37.2751L46.3704 38.4394C46.5772 38.5575 46.8411 38.4867 46.9597 38.2787C47.0784 38.0724 47.0064 37.8092 46.8002 37.6899L44.7706 36.5257C44.5638 36.4058 44.2999 36.4778 44.1813 36.6852Z" fill="#40C6C5"/>
<path d="M8.63958 16.3154C8.75825 16.1085 8.68624 15.8441 8.48 15.7254L6.44987 14.5618C6.24421 14.4431 5.98036 14.5145 5.86169 14.7219C5.82366 14.7899 5.80408 14.8636 5.80408 14.9368C5.80408 15.0866 5.88242 15.2323 6.02126 15.3118L8.05082 16.4755C8.25706 16.5936 8.5209 16.5222 8.63958 16.3154Z" fill="#40C6C5"/>
<path d="M53 26.5C53 11.8881 41.1119 0 26.5 0C11.8881 0 0 11.8881 0 26.5C0 41.1119 11.8881 53 26.5 53C41.1119 53 53 41.1119 53 26.5ZM1.15217 26.5C1.15217 12.523 12.523 1.15217 26.5 1.15217C40.477 1.15217 51.8478 12.523 51.8478 26.5C51.8478 40.477 40.477 51.8478 26.5 51.8478C12.523 51.8478 1.15217 40.477 1.15217 26.5Z" fill="#40C6C5"/>
<path d="M27.0761 32.0022V27.6453H44.2849C44.6035 27.6453 44.861 27.3872 44.861 27.0692C44.861 26.7512 44.6035 26.4931 44.2849 26.4931H27.0761V15.3233C27.0761 15.0053 26.8186 14.7472 26.5 14.7472C26.1814 14.7472 25.9239 15.0053 25.9239 15.3233V26.4925H21.6413C21.3227 26.4925 21.0652 26.7506 21.0652 27.0686C21.0652 27.3877 21.3227 27.6447 21.6413 27.6447H25.9239V32.0016C25.9239 32.3196 26.1814 32.5777 26.5 32.5777C26.8186 32.5777 27.0761 32.3208 27.0761 32.0022Z" fill="#40C6C5"/>
</svg>
