<svg width="53" height="53" viewBox="0 0 53 53" fill="none" xmlns="http://www.w3.org/2000/svg">
<circle cx="26.5" cy="26.5" r="25.5" stroke="#FF9900" stroke-width="2"/>
<path d="M26.2635 36.753C25.5669 36.753 25.0016 37.3183 25.0016 38.0149V40.5387C25.0016 41.2353 25.5669 41.8006 26.2635 41.8006C26.96 41.8006 27.5254 41.2353 27.5254 40.5387V38.0149C27.5254 37.3183 26.96 36.753 26.2635 36.753Z" fill="#FF9900"/>
<path d="M20.482 16.4773C20.5899 16.3619 20.7035 16.2357 20.824 16.1006C21.9023 14.8974 23.38 13.25 26.5947 13.25C30.1652 13.25 32.3755 15.5833 32.3755 17.7455C32.3755 19.9116 31.3211 20.8807 28.9355 22.867L28.7677 23.007C26.112 25.2204 25.0015 26.9183 25.0015 31.7054C25.0015 32.4019 25.5669 32.9673 26.2634 32.9673C26.96 32.9673 27.5253 32.4019 27.5253 31.7054C27.5253 27.6862 28.2661 26.7101 30.3835 24.9453L30.5507 24.8059C32.884 22.8632 34.8993 21.1855 34.8993 17.7455C34.8993 14.3693 31.7243 10.7262 26.5947 10.7262C22.2531 10.7262 20.1009 13.1263 18.945 14.4154C18.8359 14.5371 18.7336 14.6513 18.6371 14.7555C18.1614 15.2653 18.1891 16.0634 18.6983 16.5392C19.2081 17.0143 20.0069 16.9865 20.482 16.4773Z" fill="#FF9900"/>
</svg>
