<svg width="78" height="53" viewBox="0 0 78 53" fill="none" xmlns="http://www.w3.org/2000/svg">
<path d="M21.7681 0C18.4438 0 15.5954 2.49499 14.6106 5.93662C14.176 5.82892 13.7168 5.75853 13.2501 5.75853C10.1251 5.75853 7.57145 8.32142 7.57145 11.4577C7.57145 14.5941 10.1251 17.157 13.2501 17.157C14.8126 17.157 16.2434 16.5275 17.2725 15.4947C18.528 16.5746 20.0833 17.2163 21.7681 17.2163C25.9054 17.2163 29.2804 13.3537 29.2804 8.60819C29.2804 3.86265 25.9054 0 21.7681 0ZM55.8399 0C51.7025 0 48.3275 3.86265 48.3275 8.60819C48.3275 13.3537 51.7025 17.2163 55.8399 17.2163C57.5247 17.2163 59.08 16.5746 60.3355 15.4947C61.3645 16.5275 62.7953 17.157 64.3579 17.157C67.4829 17.157 70.0365 14.5941 70.0365 11.4577C70.0365 8.32142 67.4829 5.75853 64.3579 5.75853C63.8911 5.75853 63.432 5.82854 62.9974 5.93662C62.0126 2.49499 59.1642 0 55.8399 0ZM38.804 0.0586904C33.5881 0.0586904 29.3396 4.32268 29.3396 9.55735C29.3396 14.7921 33.5881 19.0264 38.804 19.0264C44.0198 19.0264 48.2684 14.7921 48.2684 9.55735C48.2684 4.32268 44.0198 0.0586904 38.804 0.0586904ZM38.804 1.92875C42.9968 1.92875 46.3755 5.34938 46.3755 9.55735C46.3755 13.7654 42.9968 17.1563 38.804 17.1563C34.6111 17.1563 31.2325 13.7654 31.2325 9.55735C31.2325 5.34938 34.6111 1.92875 38.804 1.92875ZM21.7681 2.01771C24.9485 2.01771 27.5058 4.95942 27.5058 8.60738C27.5058 12.2554 24.9485 15.1971 21.7681 15.1971C18.5876 15.1971 16.0303 12.2554 16.0303 8.60738C16.0303 4.95942 18.5876 2.01771 21.7681 2.01771ZM55.8399 2.01771C59.0204 2.01771 61.5777 4.95942 61.5777 8.60738C61.5777 12.2554 59.0204 15.1971 55.8399 15.1971C52.6594 15.1971 50.1021 12.2554 50.1021 8.60738C50.1021 4.95942 52.6594 2.01771 55.8399 2.01771ZM13.2501 7.65759C13.6125 7.65759 13.9542 7.74178 14.2853 7.83557C14.2659 8.08704 14.2557 8.35024 14.2557 8.60738C14.2557 10.699 14.9132 12.6054 16.0007 14.0987C15.313 14.8206 14.3316 15.2564 13.2501 15.2564C11.1481 15.2564 9.46438 13.5666 9.46438 11.4569C9.47933 9.12906 11.473 7.71116 13.2501 7.65759ZM64.3579 7.65759C66.4599 7.65759 68.1436 9.34731 68.1436 11.4569C68.1436 13.5666 66.4599 15.2564 64.3579 15.2564C63.2764 15.2564 62.295 14.8206 61.6073 14.0987C62.6948 12.6054 63.3523 10.699 63.3523 8.60738C63.3523 8.35024 63.342 8.08704 63.3227 7.83557C63.6782 7.71622 64.0543 7.7016 64.3579 7.65759ZM16.888 17.1263C14.6719 17.7284 12.6846 18.2356 10.9728 18.9963C10.4633 18.5172 9.97972 18.4531 9.64189 18.5211C6.57515 19.3418 4.06909 19.9053 2.36613 22.0533C0.66317 24.2021 2.76539e-05 27.5793 2.76539e-05 33.6892C-0.00281167 34.0453 0.213242 34.3942 0.5324 34.5501L3.81536 36.153C3.80297 36.7953 3.78584 37.4198 3.78584 38.1121C3.783 38.4683 3.99905 38.8168 4.31821 38.9729L8.96168 41.2882C9.47381 41.5328 10.1703 41.191 10.2926 40.6352C11.0197 37.3747 11.3772 35.4962 11.6531 34.2532C11.9373 35.7633 12.3244 38.2729 13.1024 42.149C13.169 42.5308 13.491 42.8539 13.8713 42.9208C14.8851 43.0891 15.9783 43.2099 17.0951 43.3066C17.066 44.3591 17.036 45.4337 17.036 46.6015C17.0445 46.9477 17.258 47.2812 17.5684 47.4326L23.247 50.2822C23.7512 50.5276 24.4414 50.2046 24.5779 49.6589C25.2567 46.8123 25.7752 43.6942 26.4412 40.9319C27.2426 44.6416 27.8386 48.5804 28.4228 51.5289C28.5002 51.9 28.8193 52.208 29.1918 52.271C35.005 53.243 42.6032 53.243 48.4164 52.271C48.7889 52.2085 49.108 51.9 49.1853 51.5289C50.0416 48.1121 50.3144 44.2348 51.167 40.9319C51.9181 44.1553 52.4781 47.1555 53.0302 49.6589C53.1513 50.167 53.7477 50.5028 54.2428 50.3416L59.9215 48.4418C60.2933 48.3191 60.5672 47.9442 60.5721 47.5514C60.5721 46.035 60.5278 44.6374 60.4835 43.3066C61.6109 43.2096 62.7141 43.0906 63.7369 42.9208C64.1172 42.8546 64.4392 42.5308 64.5058 42.149C65.2838 38.2729 65.6709 35.7633 65.9551 34.2532C66.231 35.4962 66.5885 37.3746 67.3156 40.6352C67.4366 41.1432 68.0331 41.4791 68.5282 41.3179L73.1717 39.7743C73.5435 39.6516 73.8175 39.2766 73.8224 38.8838C73.8224 37.9331 73.7848 37.0431 73.7632 36.1826L76.9574 35.1437C77.3292 35.021 77.6032 34.6459 77.6081 34.2532C77.6081 27.8717 76.9397 24.3636 75.242 22.1424C73.5444 19.9212 71.033 19.3418 67.9663 18.5211C67.4145 18.4257 67.0348 18.7472 66.6058 19.026C64.8994 18.2532 62.9246 17.7251 60.7201 17.1263C60.4454 17.0629 60.1433 17.1264 59.9215 17.3042C58.494 18.3712 57.1538 18.8478 55.84 18.8478C54.5262 18.8478 53.186 18.3712 51.7585 17.3042C51.4495 17.0585 51.1694 17.055 50.96 17.126C46.7103 18.2805 43.3165 19.0925 41.052 21.994C40.8393 22.2664 40.6493 22.5771 40.4604 22.8845C39.2823 23.2097 38.1117 23.0567 37.0296 22.8551C36.8722 22.6023 36.7288 22.3419 36.5564 22.1131C34.2972 19.111 30.898 18.2808 26.6483 17.1263C26.3737 17.0629 26.0716 17.1264 25.8498 17.3042C24.4223 18.3712 23.082 18.8478 21.7682 18.8478C20.4544 18.8478 19.1142 18.3712 17.6867 17.3042C17.385 17.0508 17.0754 17.0477 16.888 17.1263ZM17.0062 19.0855C18.5417 20.1299 20.1427 20.7479 21.768 20.7479C23.3933 20.7479 24.9943 20.1299 26.5298 19.0855C28.9433 19.7415 30.8936 20.2798 32.445 21.104C27.4716 22.4606 23.5434 23.4947 20.9103 26.8923C18.6894 29.7581 17.5396 34.1386 17.1837 41.3778C16.3768 41.3068 15.5957 41.2202 14.8472 41.1107C14.2021 37.8127 13.7872 35.3379 13.5162 33.8976C13.2721 32.4395 13.0145 31.4589 11.7121 30.9886C10.3962 31.2003 10.1704 32.3299 9.90793 33.3632C9.65862 34.4399 9.25788 36.5523 8.72488 39.0328L5.7081 37.5487C5.76385 29.609 6.73936 25.4222 8.48827 23.1819C10.229 20.9515 12.9732 20.1817 17.0062 19.0855ZM51.0781 19.0855C52.6136 20.1299 54.2145 20.7479 55.8399 20.7479C57.4652 20.7479 59.0662 20.1299 60.6016 19.0855C64.634 20.1815 67.3736 20.9511 69.1196 23.271C70.868 25.5938 71.8082 29.978 71.8702 38.2314L68.9421 39.211C68.3765 36.5925 67.9573 34.4744 67.6999 33.3632C67.439 32.0662 67.1296 31.3157 65.8958 30.9886C64.4631 31.3107 64.3288 32.7992 64.0916 33.8976C63.8206 35.3379 63.4057 37.8127 62.7607 41.1107C62.0121 41.2203 61.231 41.3068 60.4242 41.3778C60.0351 34.2465 58.8731 29.8827 56.7271 27.011C54.0937 23.4871 50.1238 22.4648 45.1333 21.104C46.6901 20.2894 48.6474 19.7463 51.0781 19.0855ZM69.652 20.9853C71.5029 21.5396 72.8267 22.1141 73.7335 23.3007C74.9133 24.8443 75.5903 27.9074 75.6559 33.571L73.7905 34.1894C73.1098 30.3217 72.901 25.2357 70.628 22.1131C70.3242 21.6906 69.95 21.3138 69.652 20.9853ZM7.83759 21.0147C7.53108 21.3088 7.25383 21.6432 6.97988 21.9942C4.35654 25.5389 4.16531 29.9945 3.78565 34.1051L1.92234 33.1254C1.97932 27.6429 2.66226 24.7333 3.8448 23.2409C4.73083 22.1232 6.03112 21.5582 7.83759 21.0147ZM33.007 22.9144C34.8855 24.2234 36.8302 24.9922 38.8039 24.9922C40.7777 24.9922 42.7224 24.2234 44.6009 22.9144C49.5833 24.2771 52.9911 25.2267 55.1892 28.1683C57.3949 31.1196 58.5931 36.5193 58.6496 46.8688L54.6568 48.2046C53.9266 44.8179 53.4105 42.1808 53.0893 40.7837C52.7978 39.3506 52.482 38.396 51.1077 38.0529C49.4619 38.3782 49.3576 40.2006 49.126 41.4368C48.7903 43.2338 48.2862 46.277 47.4698 50.4605C42.1888 51.2627 35.4191 51.2627 30.1381 50.4605C29.3217 46.277 28.8175 43.2338 28.4818 41.4368C28.1973 39.7921 28.0398 38.5403 26.5002 38.0529C25.038 38.2164 24.7848 39.7045 24.5186 40.7837C24.2038 42.1529 23.6834 44.785 22.9806 48.0562L18.9583 46.008C19.0094 36.0704 20.1837 30.895 22.3891 28.0497C24.5821 25.2198 28.0228 24.2777 33.007 22.9144Z" fill="#FB4CF0"/>
</svg>
