<svg width="34" height="35" viewBox="0 0 34 35" fill="none" xmlns="http://www.w3.org/2000/svg">
<path fill-rule="evenodd" clip-rule="evenodd" d="M29.2153 16.6255C28.8918 16.6255 28.6296 16.3631 28.6296 16.0394C28.6296 10.7782 25.0875 6.15053 20.016 4.78575C19.7036 4.70167 19.5185 4.38026 19.6025 4.06767C19.6865 3.75507 20.0077 3.56956 20.3202 3.65389C25.9021 5.15625 29.8006 10.2493 29.8006 16.0394C29.8009 16.3633 29.5387 16.6255 29.2153 16.6255ZM4.75193 16.6255C4.42853 16.6255 4.16629 16.3631 4.16629 16.0394C4.16629 10.2493 8.06482 5.15595 13.6468 3.65389C13.9592 3.56983 14.2804 3.75507 14.3644 4.06767C14.4484 4.38026 14.2633 4.70167 13.9509 4.78575C8.87939 6.15053 5.33732 10.7782 5.33732 16.0394C5.33789 16.3633 5.07562 16.6255 4.75193 16.6255Z" fill="white"/>
<path fill-rule="evenodd" clip-rule="evenodd" d="M6.99732 21.1162H2.50929C2.18589 21.1162 1.92365 20.8538 1.92365 20.5301V16.0394C1.92365 15.7158 2.18589 15.4534 2.50929 15.4534H6.99733C7.32075 15.4534 7.58299 15.7158 7.58299 16.0394V20.5301C7.58299 20.8538 7.32075 21.1162 6.99732 21.1162ZM3.09495 19.9444H6.41139V16.6254H3.09495V19.9444Z" fill="white"/>
<path fill-rule="evenodd" clip-rule="evenodd" d="M31.4593 21.1162H26.9715C26.6481 21.1162 26.3858 20.8538 26.3858 20.5301V16.0394C26.3858 15.7158 26.6481 15.4534 26.9715 15.4534H31.4593C31.7826 15.4534 32.0449 15.7158 32.0449 16.0394V20.5301C32.0449 20.8538 31.7826 21.1162 31.4593 21.1162ZM27.5569 19.9444H30.8736V16.6254H27.5569V19.9444Z" fill="white"/>
<path fill-rule="evenodd" clip-rule="evenodd" d="M16.9836 7.59987C14.8897 7.59987 13.1862 5.8952 13.1862 3.79993C13.1862 1.70467 14.8897 0 16.9836 0C19.0775 0 20.781 1.70466 20.781 3.79993C20.781 5.8952 19.0778 7.59987 16.9836 7.59987ZM16.9836 1.17183C15.5354 1.17183 14.3572 2.35081 14.3572 3.79994C14.3572 5.24908 15.5354 6.42806 16.9836 6.42806C18.4318 6.42806 19.6097 5.24908 19.6097 3.79994C19.6097 2.3508 18.4318 1.17183 16.9836 1.17183Z" fill="white"/>
<path fill-rule="evenodd" clip-rule="evenodd" d="M29.5386 4.80587H20.1683C19.8449 4.80587 19.5827 4.54345 19.5827 4.21984C19.5827 3.89621 19.8449 3.63379 20.1683 3.63379H29.5386C29.862 3.63379 30.1243 3.89621 30.1243 4.21984C30.1243 4.54345 29.862 4.80587 29.5386 4.80587Z" fill="white"/>
<path fill-rule="evenodd" clip-rule="evenodd" d="M33.3818 6.72873H29.5386C29.2152 6.72873 28.953 6.46629 28.953 6.14268V2.29697C28.953 1.97334 29.2152 1.71094 29.5386 1.71094H33.3818C33.7052 1.71094 33.9674 1.97334 33.9674 2.29697V6.14267C33.9674 6.46628 33.7052 6.72873 33.3818 6.72873ZM30.1243 5.55662H32.7961V2.88301H30.1243V5.55662Z" fill="white"/>
<path fill-rule="evenodd" clip-rule="evenodd" d="M13.7991 4.80587H4.42878C4.10538 4.80587 3.84314 4.54345 3.84314 4.21984C3.84314 3.89621 4.10538 3.63379 4.42878 3.63379H13.7991C14.1225 3.63379 14.3847 3.89621 14.3847 4.21984C14.3847 4.54345 14.1225 4.80587 13.7991 4.80587Z" fill="white"/>
<path fill-rule="evenodd" clip-rule="evenodd" d="M4.42878 6.72873H0.585631C0.262233 6.72873 -3.05176e-05 6.46629 -3.05176e-05 6.14268V2.29697C-3.05176e-05 1.97334 0.262233 1.71094 0.585631 1.71094H4.42878C4.7522 1.71094 5.01444 1.97334 5.01444 2.29697V6.14267C5.01444 6.46628 4.7522 6.72873 4.42878 6.72873ZM1.17129 5.55662H3.84313V2.88301H1.17129V5.55662Z" fill="white"/>
<path fill-rule="evenodd" clip-rule="evenodd" d="M16.9971 22.6329C16.0103 22.6329 15.2373 21.8713 15.2373 20.8987C15.2373 19.9436 16.0431 19.1367 16.9971 19.1367C17.9202 19.1367 18.7301 19.9601 18.7301 20.8987C18.7301 21.871 17.9689 22.6329 16.9971 22.6329ZM16.9971 20.3088C16.6604 20.3088 16.4086 20.6203 16.4086 20.8987C16.4086 21.2298 16.6505 21.4608 16.9971 21.4608C17.3172 21.4608 17.5588 21.219 17.5588 20.8987C17.5588 20.601 17.2805 20.3088 16.9971 20.3088Z" fill="white"/>
<path fill-rule="evenodd" clip-rule="evenodd" d="M20.8714 30.0214H13.0581C12.1922 30.0214 11.4879 29.3165 11.4879 28.4501V28.1304C11.4879 27.264 12.1922 26.5591 13.0581 26.5591L20.8714 26.5588C21.7372 26.5588 22.4416 27.2637 22.4416 28.1301V28.4498C22.4416 29.3165 21.7372 30.0214 20.8714 30.0214ZM13.0581 27.7309C12.838 27.7309 12.6589 27.9101 12.6589 28.1304V28.4501C12.6589 28.6704 12.8379 28.8496 13.0581 28.8496L20.8714 28.8493C21.0915 28.8493 21.2705 28.6701 21.2705 28.4498V28.1301C21.2705 27.9098 21.0915 27.7307 20.8714 27.7307L13.0581 27.7309Z" fill="white"/>
<path fill-rule="evenodd" clip-rule="evenodd" d="M19.7058 34.1376H14.2236C13.9002 34.1376 13.6379 33.8752 13.6379 33.5516V29.4352C13.6379 29.1116 13.9002 28.8491 14.2236 28.8491C14.547 28.8491 14.8092 29.1116 14.8092 29.4352V32.9655H19.1199V29.4352C19.1199 29.1116 19.3821 28.8491 19.7055 28.8491C20.0289 28.8491 20.2912 29.1116 20.2912 29.4352V33.5516C20.2912 33.8752 20.0292 34.1376 19.7058 34.1376Z" fill="white"/>
<path fill-rule="evenodd" clip-rule="evenodd" d="M20.2821 27.7308C20.2034 27.7308 20.1235 27.7148 20.0466 27.6812C19.7505 27.5508 19.616 27.2051 19.7463 26.9088L21.7733 22.2965L16.4629 11.9665C16.315 11.6787 16.4282 11.3254 16.7158 11.1773C17.0034 11.0293 17.3566 11.1426 17.5045 11.4304L22.9427 22.0087C23.0234 22.1658 23.0292 22.3511 22.9581 22.5126L20.8188 27.3804C20.7221 27.6001 20.5072 27.7308 20.2821 27.7308Z" fill="white"/>
<path fill-rule="evenodd" clip-rule="evenodd" d="M13.6853 27.7308C13.4603 27.7308 13.2454 27.6001 13.149 27.3804L11.0096 22.5126C10.9386 22.3508 10.9441 22.1658 11.0251 22.0087L16.4632 11.4304C16.6111 11.1426 16.9643 11.0293 17.2519 11.1773C17.5395 11.3254 17.6527 11.6787 17.5048 11.9665L12.1944 22.2965L14.2214 26.9088C14.3517 27.2051 14.217 27.5508 13.9211 27.6812C13.844 27.7148 13.7641 27.7308 13.6853 27.7308Z" fill="white"/>
<path fill-rule="evenodd" clip-rule="evenodd" d="M16.9836 20.3088C16.6602 20.3088 16.3979 20.0463 16.3979 19.7227V11.6984C16.3979 11.3747 16.6602 11.1123 16.9836 11.1123C17.307 11.1123 17.5692 11.3747 17.5692 11.6984V19.7227C17.5693 20.0463 17.3073 20.3088 16.9836 20.3088Z" fill="white"/>
</svg>
