<svg xmlns="http://www.w3.org/2000/svg" xmlns:xlink="http://www.w3.org/1999/xlink" width="330.735" height="316.053" viewBox="0 0 330.735 316.053">
  <defs>
    <clipPath id="clip-path">
      <rect id="Rectangle_50006" data-name="Rectangle 50006" width="308.619" height="307.691" fill="none"/>
    </clipPath>
    <clipPath id="clip-path-2">
      <rect id="Rectangle_50009" data-name="Rectangle 50009" width="330.735" height="316.053" fill="none"/>
    </clipPath>
  </defs>
  <g id="Group_105553" data-name="Group 105553" transform="translate(-498.557 -140.724)">
    <g id="Group_105316" data-name="Group 105316" transform="translate(498.557 140.724)">
      <g id="Group_105313" data-name="Group 105313" transform="translate(22.116)">
        <g id="Group_105312" data-name="Group 105312" clip-path="url(#clip-path)">
          <path id="Path_76223" data-name="Path 76223" d="M153.559,358.465c-11.611,15.664-44.966,10.615-74.5-11.277S35,294.851,46.61,279.187s44.966-10.615,74.5,11.276,44.062,52.338,32.451,68" transform="translate(-38.425 -103.377)" fill="#262b3a"/>
          <path id="Path_76224" data-name="Path 76224" d="M87.349,424.885l-.149,0L0,423.624,2.56,318.67l27.5-34.222a.309.309,0,1,1,.481.387L3.172,318.894.633,423.017l86.428,1.246,47.424-57.6a.308.308,0,1,1,.477.391Z" transform="translate(-22.116 -108.832)" fill="#fff"/>
          <path id="Path_76225" data-name="Path 76225" d="M88.526,475.6a.309.309,0,0,1-.235-.509l44.233-51.653a.309.309,0,0,1,.469.4L88.76,475.491a.309.309,0,0,1-.235.108" transform="translate(-55.882 -162.034)" fill="#fff"/>
          <path id="Path_76226" data-name="Path 76226" d="M110.419,438.422a5.558,5.558,0,1,1-5.558-5.558,5.557,5.557,0,0,1,5.558,5.558" transform="translate(-60.125 -165.684)" fill="#2132f6"/>
          <path id="Path_76227" data-name="Path 76227" d="M107.408,441.358a5.866,5.866,0,1,1,5.866-5.866,5.873,5.873,0,0,1-5.866,5.866m0-11.115a5.249,5.249,0,1,0,5.248,5.249,5.255,5.255,0,0,0-5.248-5.249" transform="translate(-60.982 -164.444)" fill="#fff"/>
        </g>
      </g>
      <g id="Group_105315" data-name="Group 105315">
        <g id="Group_105314" data-name="Group 105314" clip-path="url(#clip-path-2)">
          <g id="Group_105320" data-name="Group 105320" transform="translate(39.623 52.416)">
            <path id="Path_76228" data-name="Path 76228" d="M82.09,89.559H78.271V86a1.083,1.083,0,0,1,1.082-1.082h1.656A1.083,1.083,0,0,1,82.09,86Zm-3.2-.617h2.585V86a.465.465,0,0,0-.464-.465H79.353a.465.465,0,0,0-.465.465Z" transform="translate(-69.582 -84.92)" fill="#fff"/>
            <path id="Path_76229" data-name="Path 76229" d="M70.514,94.215,68,91.7a1.083,1.083,0,0,1,0-1.53L69.17,89a1.084,1.084,0,0,1,1.53,0l2.515,2.515Zm-.58-4.916a.463.463,0,0,0-.328.136l-1.171,1.171a.465.465,0,0,0,0,.657l2.079,2.079,1.828-1.828-2.079-2.079a.463.463,0,0,0-.329-.136" transform="translate(-65.529 -86.36)" fill="#fff"/>
            <path id="Path_76230" data-name="Path 76230" d="M68.833,103.205H65.276a1.083,1.083,0,0,1-1.082-1.081v-1.656a1.083,1.083,0,0,1,1.082-1.082h3.557ZM65.276,100a.465.465,0,0,0-.465.465v1.656a.465.465,0,0,0,.465.464h2.94V100Z" transform="translate(-64.194 -90.457)" fill="#fff"/>
            <path id="Path_76231" data-name="Path 76231" d="M70.21,112.734a1.078,1.078,0,0,1-.765-.317l-1.171-1.171a1.083,1.083,0,0,1,0-1.53l2.515-2.515,2.7,2.7-2.515,2.515a1.079,1.079,0,0,1-.765.317m.579-4.66-2.079,2.079a.465.465,0,0,0,0,.657l1.171,1.171a.464.464,0,0,0,.657,0l2.079-2.079Z" transform="translate(-65.634 -93.448)" fill="#fff"/>
            <path id="Path_76232" data-name="Path 76232" d="M81.4,116.775H79.743a1.083,1.083,0,0,1-1.082-1.082v-3.557h3.82v3.557a1.083,1.083,0,0,1-1.082,1.082m-2.121-4.022v2.94a.465.465,0,0,0,.465.465H81.4a.465.465,0,0,0,.465-.465v-2.94Z" transform="translate(-69.731 -95.337)" fill="#fff"/>
            <path id="Path_76233" data-name="Path 76233" d="M89.756,112.458a1.079,1.079,0,0,1-.765-.317l-2.515-2.515,2.7-2.7,2.515,2.515a1.083,1.083,0,0,1,0,1.53l-1.171,1.171a1.079,1.079,0,0,1-.765.317m-2.407-2.832,2.079,2.079a.466.466,0,0,0,.657,0l1.171-1.171a.465.465,0,0,0,0-.657L89.177,107.8Z" transform="translate(-72.723 -93.343)" fill="#fff"/>
            <path id="Path_76234" data-name="Path 76234" d="M94.968,102.816H91.411V99h3.557a1.083,1.083,0,0,1,1.082,1.081v1.657a1.083,1.083,0,0,1-1.082,1.081m-2.94-.617h2.94a.465.465,0,0,0,.465-.464v-1.657a.465.465,0,0,0-.465-.464h-2.94Z" transform="translate(-74.612 -90.308)" fill="#fff"/>
            <path id="Path_76235" data-name="Path 76235" d="M88.9,93.94l-2.7-2.7,2.515-2.515a1.083,1.083,0,0,1,1.53,0l1.171,1.171a1.083,1.083,0,0,1,0,1.53Zm-1.828-2.7L88.9,93.067l2.079-2.079a.465.465,0,0,0,0-.657L89.809,89.16a.466.466,0,0,0-.657,0Z" transform="translate(-72.617 -86.255)" fill="#fff"/>
            <path id="Path_76236" data-name="Path 76236" d="M67.357,96.716A8.745,8.745,0,1,0,76.1,87.971a8.745,8.745,0,0,0-8.745,8.745" transform="translate(-65.405 -86.087)" fill="#fff"/>
            <path id="Path_76237" data-name="Path 76237" d="M75.911,105.578a9.053,9.053,0,1,1,9.054-9.053,9.063,9.063,0,0,1-9.054,9.053m0-17.489a8.436,8.436,0,1,0,8.436,8.436,8.445,8.445,0,0,0-8.436-8.436" transform="translate(-65.214 -85.896)" fill="#fff"/>
            <path id="Path_76238" data-name="Path 76238" d="M78.533,103.973a4.826,4.826,0,1,1,4.826-4.826,4.831,4.831,0,0,1-4.826,4.826m0-9.035a4.209,4.209,0,1,0,4.208,4.208,4.213,4.213,0,0,0-4.208-4.208" transform="translate(-67.835 -88.518)"/>
          </g>
          <g id="Group_105321" data-name="Group 105321" transform="translate(278.079 188.142)">
            <path id="Path_76228-2" data-name="Path 76228" d="M83.347,91.085H78.271V86.358a1.439,1.439,0,0,1,1.438-1.438h2.2a1.439,1.439,0,0,1,1.437,1.438Zm-4.255-.82h3.435V86.358a.618.618,0,0,0-.617-.618h-2.2a.619.619,0,0,0-.618.618Z" transform="translate(-66.724 -84.92)" fill="#fff"/>
            <path id="Path_76229-2" data-name="Path 76229" d="M71.445,96.035,68.1,92.692a1.439,1.439,0,0,1,0-2.033L69.659,89.1a1.441,1.441,0,0,1,2.033,0l3.342,3.342Zm-.77-6.532a.615.615,0,0,0-.436.18l-1.556,1.556a.618.618,0,0,0,0,.874l2.763,2.763,2.43-2.43-2.763-2.763a.616.616,0,0,0-.437-.18" transform="translate(-64.821 -85.596)" fill="#fff"/>
            <path id="Path_76230-2" data-name="Path 76230" d="M70.359,104.462H65.632a1.439,1.439,0,0,1-1.438-1.437v-2.2a1.439,1.439,0,0,1,1.438-1.438h4.727Zm-4.727-4.255a.619.619,0,0,0-.618.618v2.2a.618.618,0,0,0,.618.617h3.907v-3.435Z" transform="translate(-64.194 -87.52)" fill="#fff"/>
            <path id="Path_76231-2" data-name="Path 76231" d="M70.951,114.554a1.432,1.432,0,0,1-1.017-.421l-1.556-1.556a1.439,1.439,0,0,1,0-2.033L71.72,107.2l3.589,3.589-3.342,3.342a1.433,1.433,0,0,1-1.016.421m.769-6.193-2.763,2.763a.618.618,0,0,0,0,.874l1.556,1.556a.617.617,0,0,0,.874,0l2.763-2.763Z" transform="translate(-64.87 -88.925)" fill="#fff"/>
            <path id="Path_76232-2" data-name="Path 76232" d="M82.3,118.3H80.1a1.439,1.439,0,0,1-1.438-1.438v-4.727h5.076v4.727A1.439,1.439,0,0,1,82.3,118.3m-2.818-5.345v3.907a.619.619,0,0,0,.618.618h2.2a.619.619,0,0,0,.618-.618v-3.907Z" transform="translate(-66.795 -89.812)" fill="#fff"/>
            <path id="Path_76233-2" data-name="Path 76233" d="M90.835,114.278a1.433,1.433,0,0,1-1.016-.421l-3.342-3.342,3.589-3.589,3.342,3.342a1.439,1.439,0,0,1,0,2.033l-1.556,1.556a1.434,1.434,0,0,1-1.017.421m-3.2-3.763,2.763,2.763a.619.619,0,0,0,.874,0l1.556-1.556a.618.618,0,0,0,0-.874l-2.763-2.763Z" transform="translate(-68.199 -88.876)" fill="#fff"/>
            <path id="Path_76234-2" data-name="Path 76234" d="M96.138,104.073H91.411V99h4.727a1.439,1.439,0,0,1,1.438,1.437v2.2a1.439,1.439,0,0,1-1.438,1.437m-3.907-.82h3.907a.618.618,0,0,0,.618-.617v-2.2a.618.618,0,0,0-.618-.617H92.231Z" transform="translate(-69.087 -87.45)" fill="#fff"/>
            <path id="Path_76235-2" data-name="Path 76235" d="M89.789,95.76,86.2,92.17l3.342-3.342a1.439,1.439,0,0,1,2.033,0l1.556,1.556a1.439,1.439,0,0,1,0,2.033ZM87.36,92.17l2.43,2.43,2.763-2.763a.618.618,0,0,0,0-.874L91,89.408a.619.619,0,0,0-.874,0Z" transform="translate(-68.15 -85.547)" fill="#fff"/>
            <path id="Path_76236-2" data-name="Path 76236" d="M67.357,99.592A11.621,11.621,0,1,0,78.978,87.971,11.621,11.621,0,0,0,67.357,99.592" transform="translate(-64.762 -85.468)" fill="#fff"/>
            <path id="Path_76237-2" data-name="Path 76237" d="M78.888,111.533A12.031,12.031,0,1,1,90.92,99.5a12.043,12.043,0,0,1-12.031,12.03m0-23.241A11.211,11.211,0,1,0,90.1,99.5,11.223,11.223,0,0,0,78.888,88.291" transform="translate(-64.673 -85.378)" fill="#fff"/>
            <path id="Path_76238-2" data-name="Path 76238" d="M80.12,107.147a6.413,6.413,0,1,1,6.413-6.413,6.42,6.42,0,0,1-6.413,6.413m0-12.006a5.593,5.593,0,1,0,5.592,5.592,5.6,5.6,0,0,0-5.592-5.592" transform="translate(-65.904 -86.61)"/>
          </g>
          <path id="Path_76250" data-name="Path 76250" d="M289.635,272.464c-21.857,23.269-79.257,4.858-128.208-41.122S90.514,129.225,112.37,105.956s79.258-4.858,128.208,41.122S311.492,249.2,289.635,272.464" transform="translate(-39.773 -36.7)" fill="#2132f6"/>
          <path id="Path_76251" data-name="Path 76251" d="M272.469,281.456c-8.9,0-19.1-1.955-30.195-5.872-23.26-8.21-48.425-24.338-70.861-45.412-22.124-20.781-39.663-44.585-49.385-67.026-9.681-22.344-10.858-41.524-3.313-54.007a.309.309,0,0,1,.528.319c-7.438,12.307-6.248,31.287,3.352,53.443,9.69,22.365,27.178,46.1,49.241,66.822,22.375,21.016,47.463,37.1,70.644,45.28,22.992,8.115,42.035,7.761,53.62-.994a.308.308,0,1,1,.373.491c-6.131,4.634-14.3,6.957-24,6.957" transform="translate(-43.559 -41.717)" fill="#fff"/>
          <path id="Path_76252" data-name="Path 76252" d="M299.3,265.361a.309.309,0,0,1-.186-.554,28.035,28.035,0,0,0,3.508-3.15c21.705-23.107-.3-79.16-49.044-124.95C229.941,114.5,203.608,98,179.436,90.246c-24.1-7.728-43.139-5.837-53.625,5.324a28.072,28.072,0,0,0-3.549,4.686.309.309,0,0,1-.528-.319,28.647,28.647,0,0,1,3.628-4.789c10.657-11.345,29.927-13.3,54.263-5.49,24.258,7.78,50.673,24.33,74.381,46.6,49,46.023,71.009,102.467,49.07,125.823a28.644,28.644,0,0,1-3.585,3.218.307.307,0,0,1-.186.063" transform="translate(-46.578 -32.516)" fill="#fff"/>
          <path id="Path_76253" data-name="Path 76253" d="M328.694,59.457a3.12,3.12,0,1,0,3.121-3.121,3.121,3.121,0,0,0-3.121,3.121" transform="translate(-125.811 -21.563)" fill="#2132f6"/>
          <path id="Path_76254" data-name="Path 76254" d="M333.7,51.657a.309.309,0,0,1-.309-.309V49a.309.309,0,0,1,.617,0v2.352a.309.309,0,0,1-.309.309" transform="translate(-127.611 -18.636)" fill="#fff"/>
          <path id="Path_76255" data-name="Path 76255" d="M333.7,72.075a.309.309,0,0,1-.309-.309V69.415a.309.309,0,1,1,.617,0v2.352a.309.309,0,0,1-.309.309" transform="translate(-127.611 -26.451)" fill="#fff"/>
          <path id="Path_76256" data-name="Path 76256" d="M344.456,61.419H342.1a.309.309,0,1,1,0-.617h2.352a.309.309,0,0,1,0,.617" transform="translate(-130.826 -23.273)" fill="#fff"/>
          <path id="Path_76257" data-name="Path 76257" d="M324.039,61.419h-2.352a.309.309,0,0,1,0-.617h2.352a.309.309,0,1,1,0,.617" transform="translate(-123.011 -23.273)" fill="#fff"/>
          <path id="Path_76258" data-name="Path 76258" d="M110.863,55.267a.309.309,0,0,1-.309-.309V53.511a.309.309,0,1,1,.617,0v1.447a.309.309,0,0,1-.309.309" transform="translate(-42.316 -20.364)" fill="#fff"/>
          <path id="Path_76259" data-name="Path 76259" d="M110.863,67.832a.309.309,0,0,1-.309-.309V66.077a.309.309,0,0,1,.617,0v1.447a.309.309,0,0,1-.309.309" transform="translate(-42.316 -25.173)" fill="#fff"/>
          <path id="Path_76260" data-name="Path 76260" d="M117.479,61.274h-1.447a.309.309,0,0,1,0-.617h1.447a.309.309,0,1,1,0,.617" transform="translate(-44.295 -23.217)" fill="#fff"/>
          <path id="Path_76261" data-name="Path 76261" d="M104.915,61.274h-1.447a.309.309,0,0,1,0-.617h1.447a.309.309,0,0,1,0,.617" transform="translate(-39.485 -23.217)" fill="#fff"/>
          <path id="Path_76262" data-name="Path 76262" d="M476.8,260.233a.309.309,0,0,1-.309-.309v-1.447a.309.309,0,1,1,.617,0v1.447a.309.309,0,0,1-.309.309" transform="translate(-182.384 -98.817)" fill="#fff"/>
          <path id="Path_76263" data-name="Path 76263" d="M476.8,272.8a.309.309,0,0,1-.309-.309v-1.447a.309.309,0,0,1,.617,0v1.447a.309.309,0,0,1-.309.309" transform="translate(-182.384 -103.626)" fill="#fff"/>
          <path id="Path_76264" data-name="Path 76264" d="M483.422,266.239h-1.447a.309.309,0,1,1,0-.617h1.447a.309.309,0,1,1,0,.617" transform="translate(-184.363 -101.67)" fill="#fff"/>
          <path id="Path_76265" data-name="Path 76265" d="M470.857,266.239H469.41a.309.309,0,1,1,0-.617h1.447a.309.309,0,0,1,0,.617" transform="translate(-179.554 -101.67)" fill="#fff"/>
          <path id="Path_76266" data-name="Path 76266" d="M457.836,414.312a3.12,3.12,0,1,0,3.121-3.121,3.121,3.121,0,0,0-3.121,3.121" transform="translate(-175.242 -157.388)" fill="#ff4410"/>
          <path id="Path_76267" data-name="Path 76267" d="M462.846,406.512a.309.309,0,0,1-.309-.309v-2.352a.309.309,0,1,1,.617,0V406.2a.309.309,0,0,1-.309.309" transform="translate(-177.041 -154.461)"/>
          <path id="Path_76268" data-name="Path 76268" d="M462.846,426.93a.309.309,0,0,1-.309-.309V424.27a.309.309,0,1,1,.617,0v2.352a.309.309,0,0,1-.309.309" transform="translate(-177.041 -162.276)"/>
          <path id="Path_76269" data-name="Path 76269" d="M473.6,416.274h-2.352a.309.309,0,0,1,0-.617H473.6a.309.309,0,0,1,0,.617" transform="translate(-180.257 -159.097)"/>
          <path id="Path_76270" data-name="Path 76270" d="M453.181,416.274H450.83a.309.309,0,0,1,0-.617h2.352a.309.309,0,0,1,0,.617" transform="translate(-172.442 -159.097)"/>
          <path id="Path_76271" data-name="Path 76271" d="M285.92,95.036A1.876,1.876,0,1,1,287.8,93.16a1.878,1.878,0,0,1-1.876,1.876m0-3.134a1.259,1.259,0,1,0,1.259,1.259A1.26,1.26,0,0,0,285.92,91.9" transform="translate(-108.721 -34.94)" fill="#fff"/>
          <path id="Path_76272" data-name="Path 76272" d="M379.162,449.007a1.876,1.876,0,1,1,1.876-1.876,1.878,1.878,0,0,1-1.876,1.876m0-3.134a1.259,1.259,0,1,0,1.259,1.259,1.26,1.26,0,0,0-1.259-1.259" transform="translate(-144.41 -170.426)" fill="#fff"/>
          <path id="Path_76273" data-name="Path 76273" d="M501.674,229.817a1.876,1.876,0,1,1,1.876-1.876,1.878,1.878,0,0,1-1.876,1.876m0-3.134a1.259,1.259,0,1,0,1.259,1.259,1.26,1.26,0,0,0-1.259-1.259" transform="translate(-191.303 -86.529)" fill="#fff"/>
          <path id="Path_76274" data-name="Path 76274" d="M402.315,75.47A24.361,24.361,0,0,0,383.5,115.308l-8.873,8.873h27.3c.128,0,.254.01.383.01a24.361,24.361,0,0,0,0-48.722" transform="translate(-143.393 -28.887)" fill="#ffcb10"/>
          <path id="Path_76275" data-name="Path 76275" d="M406.443,119.51c-.077,0-.154,0-.232-.006l-.154,0H378.013l9.2-9.2a24.67,24.67,0,1,1,19.227,9.213m-26.94-.627,26.729,0c.07,0,.141,0,.211,0a24.051,24.051,0,1,0-18.573-8.77l.178.216Z" transform="translate(-144.689 -26.859)"/>
          <path id="Path_76276" data-name="Path 76276" d="M408.276,110.548a3.287,3.287,0,1,1,3.287-3.287,3.291,3.291,0,0,1-3.287,3.287m0-5.958a2.67,2.67,0,1,0,2.67,2.67,2.673,2.673,0,0,0-2.67-2.67" transform="translate(-155.014 -39.797)"/>
          <path id="Path_76277" data-name="Path 76277" d="M422.9,110.548a3.287,3.287,0,1,1,3.287-3.287,3.291,3.291,0,0,1-3.287,3.287m0-5.958a2.67,2.67,0,1,0,2.67,2.67,2.673,2.673,0,0,0-2.67-2.67" transform="translate(-160.61 -39.797)"/>
          <path id="Path_76278" data-name="Path 76278" d="M437.513,110.548a3.287,3.287,0,1,1,3.287-3.287,3.291,3.291,0,0,1-3.287,3.287m0-5.958a2.67,2.67,0,1,0,2.67,2.67,2.673,2.673,0,0,0-2.67-2.67" transform="translate(-166.205 -39.797)"/>
          <path id="Path_76279" data-name="Path 76279" d="M235.64,235.864h-7.731l-1.616-76.484a13.3,13.3,0,0,0,11.088-17.849l-.186-.5a18.819,18.819,0,0,0-9.612-10.716l-8.643-4.145a19.165,19.165,0,0,0-19.818,1.973l.049.083-4.287-2.057a19.163,19.163,0,0,0-20.141,2.222l-2.911,2.281.038.073a16.686,16.686,0,0,0-1.929-1.093l-7.7-3.69a17.063,17.063,0,0,0-17.933,1.978l-2.935,2.311.99,2.341a11.773,11.773,0,0,0-3.221-2.073l-1.027-.446a20.254,20.254,0,0,0-26.289,9.755l-24.106,49.79a102.8,102.8,0,0,0-10.27,45.788,36.319,36.319,0,0,0,14.305,28.538L115.84,282.29a39.7,39.7,0,0,0,43.819,2.858l29.073-16.677,27.834-.983a18.66,18.66,0,0,0,11.291-4.314l13.576-11.313a9.047,9.047,0,0,0-5.792-16m-89.024-93.228-.46-.016c.035-.309.052-.618.061-.928Z" transform="translate(-29.644 -47.571)" fill="#fff"/>
          <rect id="Rectangle_50007" data-name="Rectangle 50007" width="141.551" height="85.444" transform="translate(113.881 107.756)" fill="#fff"/>
          <path id="Path_76280" data-name="Path 76280" d="M326.169,260.14H184V174.078H326.169Zm-141.551-.617H325.551V174.7H184.617Z" transform="translate(-70.428 -66.63)"/>
          <path id="Path_76302" data-name="Path 76302" d="M0,0H141.551V42.676H0Z" transform="translate(113.881 150.525)" fill="#262b3a"/>
          <path id="Path_76281" data-name="Path 76281" d="M139.91,292.571a39.943,39.943,0,0,1-24.241-8.2L91.587,266.022a36.387,36.387,0,0,1-14.427-28.78,103.666,103.666,0,0,1,10.3-45.926l24.106-49.79a20.513,20.513,0,0,1,26.69-9.9l1.026.446a12.064,12.064,0,0,1,4.387,18.888,12.093,12.093,0,0,1-14.305,3.106l-6.263-2.934a.308.308,0,1,1,.262-.559l6.263,2.934a11.477,11.477,0,0,0,13.574-2.948,11.447,11.447,0,0,0-4.163-17.921l-1.027-.446a19.9,19.9,0,0,0-25.889,9.607l-24.106,49.79a103.041,103.041,0,0,0-10.239,45.651,35.776,35.776,0,0,0,14.184,28.295l24.081,18.348a39.319,39.319,0,0,0,43.478,2.836L188.659,270l.077,0,27.834-.983a18.442,18.442,0,0,0,11.1-4.243l13.577-11.313a8.738,8.738,0,0,0-5.595-15.451h-9.611a.309.309,0,0,1,0-.617h9.611a9.355,9.355,0,0,1,5.99,16.542l-13.576,11.314a19.066,19.066,0,0,1-11.478,4.386l-27.758.98L159.829,287.25a39.987,39.987,0,0,1-19.919,5.321" transform="translate(-29.532 -49.724)"/>
          <path id="Path_76282" data-name="Path 76282" d="M151.63,178.38a.305.305,0,0,1-.128-.028.309.309,0,0,1-.152-.409l4.927-10.711a.309.309,0,0,1,.561.258L151.911,178.2a.309.309,0,0,1-.281.18" transform="translate(-57.92 -63.941)"/>
          <path id="Path_76283" data-name="Path 76283" d="M274.781,127.623A19.163,19.163,0,0,1,294.6,125.65l8.644,4.145a18.823,18.823,0,0,1,9.612,10.716l.186.5a13.3,13.3,0,0,1-24.5,10.306" transform="translate(-105.176 -47.373)" fill="#fff"/>
          <path id="Path_76284" data-name="Path 76284" d="M300.378,159.049a13.641,13.641,0,0,1-12.306-7.8.309.309,0,1,1,.558-.264,13.042,13.042,0,0,0,11.924,7.441,12.992,12.992,0,0,0,12-17.508l-.185-.5a18.4,18.4,0,0,0-9.457-10.545l-8.644-4.145a18.787,18.787,0,0,0-19.5,1.941.309.309,0,0,1-.372-.493,19.4,19.4,0,0,1,20.137-2l8.644,4.145a19.007,19.007,0,0,1,9.77,10.892l.184.5a13.609,13.609,0,0,1-12.575,18.339h-.185" transform="translate(-104.984 -47.174)"/>
          <path id="Path_76285" data-name="Path 76285" d="M230.567,130.153l2.911-2.282a19.164,19.164,0,0,1,20.141-2.221l8.643,4.145a18.819,18.819,0,0,1,9.612,10.716l.186.5a13.3,13.3,0,0,1-24.5,10.306l-2.6-5.493-6.866-.978" transform="translate(-88.252 -47.372)" fill="#fff"/>
          <path id="Path_76286" data-name="Path 76286" d="M259.4,159.069a13.641,13.641,0,0,1-12.306-7.8l-2.524-5.343-6.7-.955a.309.309,0,1,1,.087-.611l7.03,1,2.666,5.643a13.034,13.034,0,0,0,11.924,7.441,12.992,12.992,0,0,0,12.005-17.508l-.186-.5a18.392,18.392,0,0,0-9.456-10.545l-8.644-4.145a18.979,18.979,0,0,0-19.816,2.186l-2.911,2.282a.309.309,0,1,1-.381-.486l2.912-2.282a19.6,19.6,0,0,1,20.465-2.257l8.643,4.145a19.009,19.009,0,0,1,9.77,10.892l.184.5a13.609,13.609,0,0,1-12.575,18.339H259.4" transform="translate(-88.06 -47.194)"/>
          <path id="Path_76287" data-name="Path 76287" d="M207.219,155.21a12.178,12.178,0,0,1-10.987-6.961l-2.241-4.742-7.719-1.165a.309.309,0,1,1,.092-.61l8.045,1.214,2.381,5.04a11.572,11.572,0,0,0,10.586,6.606,11.534,11.534,0,0,0,10.658-15.543l-.166-.447a16.343,16.343,0,0,0-8.4-9.37l-7.7-3.691a16.863,16.863,0,0,0-17.608,1.942l-2.936,2.311a.309.309,0,1,1-.381-.485L183.78,127a17.483,17.483,0,0,1,18.257-2.013l7.7,3.69a16.954,16.954,0,0,1,8.716,9.717l.164.443a12.152,12.152,0,0,1-11.228,16.375h-.165" transform="translate(-69.175 -47.192)"/>
          <path id="Path_76288" data-name="Path 76288" d="M263.549,314.452h0A46.994,46.994,0,0,1,294.527,302.8H305.89a10.189,10.189,0,0,1,10.189,10.188" transform="translate(-100.876 -115.899)" fill="#fff"/>
          <path id="Path_76289" data-name="Path 76289" d="M263.358,314.569a.309.309,0,0,1-.2-.541A47.287,47.287,0,0,1,294.336,302.3H305.7a10.509,10.509,0,0,1,10.5,10.5.309.309,0,0,1-.617,0,9.892,9.892,0,0,0-9.88-9.88H294.336a46.668,46.668,0,0,0-30.774,11.579.309.309,0,0,1-.2.077" transform="translate(-100.685 -115.707)"/>
          <path id="Path_76290" data-name="Path 76290" d="M193.384,269.009a.309.309,0,0,1-.309-.309V235.63a.309.309,0,0,1,.617,0V268.7a.309.309,0,0,1-.309.309" transform="translate(-73.902 -90.072)" fill="#fff"/>
          <path id="Path_76291" data-name="Path 76291" d="M260.535,430.359a16.336,16.336,0,1,0,15.76-16.892,16.335,16.335,0,0,0-15.76,16.892" transform="translate(-99.719 -158.255)" fill="#ffcb10"/>
          <path id="Path_76292" data-name="Path 76292" d="M281.233,441.347a16.64,16.64,0,1,1,.583-.01c-.2.007-.391.01-.583.01m.013-32.672c-.187,0-.373,0-.562.01a16.02,16.02,0,1,0,.562-.01" transform="translate(-101.277 -156.189)" fill="#fff"/>
          <path id="Path_76293" data-name="Path 76293" d="M287.8,442.566a7.838,7.838,0,0,1-5.755-2.516l.453-.42a7.226,7.226,0,0,0,10.8-.222l.47.4a7.863,7.863,0,0,1-5.7,2.752c-.091,0-.182,0-.273,0" transform="translate(-107.956 -168.189)"/>
          <path id="Path_76294" data-name="Path 76294" d="M282.2,431.3a3.251,3.251,0,1,1,3.251-3.25,3.254,3.254,0,0,1-3.251,3.25m0-5.884a2.633,2.633,0,1,0,2.634,2.634,2.637,2.637,0,0,0-2.634-2.634" transform="translate(-106.771 -162.598)"/>
          <path id="Path_76295" data-name="Path 76295" d="M296.639,431.3a3.251,3.251,0,1,1,3.251-3.25,3.254,3.254,0,0,1-3.251,3.25m0-5.884a2.633,2.633,0,1,0,2.634,2.634,2.637,2.637,0,0,0-2.634-2.634" transform="translate(-112.298 -162.598)"/>
          <path id="Path_76296" data-name="Path 76296" d="M187.817,315.935a23.006,23.006,0,1,1-23.006-23.006,23.006,23.006,0,0,1,23.006,23.006" transform="translate(-54.278 -112.122)" fill="#ff4410"/>
          <path id="Path_76297" data-name="Path 76297" d="M168.336,334.07a23.2,23.2,0,1,1,0-46.409c.259,0,.517,0,.773.012a.309.309,0,0,1,.3.319.3.3,0,0,1-.318.3q-.375-.013-.753-.012a22.563,22.563,0,1,0,21.519,15.7.309.309,0,1,1,.588-.188,23.222,23.222,0,0,1-22.106,30.278" transform="translate(-55.551 -110.105)"/>
          <path id="Path_76298" data-name="Path 76298" d="M204.82,304.2a.309.309,0,0,1-.294-.215A22.622,22.622,0,0,0,183.76,288.3a.308.308,0,0,1-.3-.318.32.32,0,0,1,.319-.3A23.241,23.241,0,0,1,205.114,303.8a.309.309,0,0,1-.2.388.33.33,0,0,1-.094.014" transform="translate(-70.222 -110.113)" fill="#fff"/>
          <path id="Path_76299" data-name="Path 76299" d="M175.259,331.752l-9.03-9.03a6.64,6.64,0,0,1,0-9.382,6.662,6.662,0,0,1,9.03-.317,6.66,6.66,0,0,1,9.029.317,6.64,6.64,0,0,1,0,9.382Zm-4.34-19.723a6.008,6.008,0,0,0-4.253,10.257l8.593,8.593,8.593-8.593a6.023,6.023,0,0,0,0-8.509,6.037,6.037,0,0,0-8.38-.112l-.212.2-.213-.2a5.965,5.965,0,0,0-4.127-1.636" transform="translate(-62.883 -119.197)"/>
          <path id="Path_76300" data-name="Path 76300" d="M256.586,48.832a5.432,5.432,0,0,0-7.581-.1,5.438,5.438,0,0,0-7.581,7.8L247,62.1,249,64.109l2.009-2.009,5.572-5.572a5.448,5.448,0,0,0,0-7.7" transform="translate(-91.798 -18.081)" fill="#ff4410"/>
          <path id="Path_76301" data-name="Path 76301" d="M252.166,60.188l-7.8-7.8a5.756,5.756,0,0,1,0-8.133,5.774,5.774,0,0,1,7.8-.3,5.776,5.776,0,0,1,7.8.3,5.757,5.757,0,0,1,0,8.133ZM248.433,43.2a5.127,5.127,0,0,0-3.629,8.752l7.362,7.362,7.363-7.362a5.13,5.13,0,0,0-7.15-7.356l-.213.2-.213-.2a5.09,5.09,0,0,0-3.521-1.4" transform="translate(-92.89 -16.3)" fill="#fff"/>
        </g>
      </g>
    </g>
    <text id="Thank" transform="translate(622.682 282.664)" font-size="33" font-family="Poppins-ExtraBold, Poppins" font-weight="800"><tspan x="0" y="0">THANK</tspan></text>
    <text id="You" transform="translate(646.89 323.01)" fill="#fff" font-size="33" font-family="Poppins-ExtraBold, Poppins" font-weight="800"><tspan x="0" y="0">YOU</tspan></text>
  </g>
</svg>
