<svg width="47" height="35" viewBox="0 0 47 35" fill="none" xmlns="http://www.w3.org/2000/svg">
<path d="M45.5577 30.1101H38.7791V29.2772C38.7786 28.8696 38.6165 28.4789 38.3283 28.1907C38.0401 27.9025 37.6494 27.7403 37.2418 27.7399H36.6107L36.4107 25.776H43.8406C44.3425 25.7755 44.8238 25.5759 45.1787 25.221C45.5337 24.866 45.7333 24.3847 45.7338 23.8828V13.2425C45.7333 12.7406 45.5337 12.2593 45.1787 11.9043C44.8238 11.5494 44.3425 11.3498 43.8406 11.3493H24.6175C24.1155 11.3498 23.6343 11.5494 23.2793 11.9043C22.9244 12.2593 22.7247 12.7406 22.7243 13.2425V18.9956C21.1309 18.531 19.5022 18.1973 17.8545 17.9976C17.8038 17.9909 17.7572 17.966 17.7234 17.9276C17.6897 17.8891 17.6711 17.8397 17.6711 17.7885L17.6793 15.776C17.8261 15.6687 17.9719 15.5549 18.1141 15.433C19.1978 14.4935 19.8962 13.1869 20.0752 11.7639C20.4756 11.7039 20.8412 11.5026 21.106 11.1964C21.3708 10.8902 21.5173 10.4993 21.519 10.0945L21.5236 8.97818C21.5249 8.74481 21.4778 8.51371 21.3853 8.29947C21.2928 8.08522 21.1568 7.89248 20.986 7.73344L21.0007 4.23867C21.0027 3.56975 20.74 2.9272 20.2701 2.4512C19.8001 1.9752 19.1609 1.7044 18.492 1.69787C18.3189 1.20892 17.9993 0.785261 17.5766 0.484692C17.1539 0.184124 16.6487 0.0212749 16.1301 0.0183492L11.7556 0H11.7336C10.4305 0.00167656 9.18098 0.518707 8.25766 1.43825C7.33433 2.35779 6.81219 3.6052 6.80517 4.90828L6.79325 7.67474C6.6207 7.83212 6.4827 8.0236 6.38796 8.23707C6.29323 8.45053 6.24383 8.68134 6.24289 8.91488L6.2383 10.0312C6.23698 10.4359 6.38037 10.8278 6.6426 11.1361C6.90482 11.4444 7.26861 11.6489 7.66831 11.7125C7.83435 13.1364 8.5203 14.4489 9.59457 15.3981C9.73582 15.521 9.87983 15.6357 10.0257 15.7448L10.0174 17.7573C10.017 17.8082 9.99816 17.8571 9.96445 17.8952C9.93074 17.9333 9.8844 17.958 9.83397 17.9646C7.89891 18.1572 5.99338 18.5777 4.15703 19.2176C3.26309 19.6117 2.5024 20.2563 1.96688 21.0734C1.43135 21.8905 1.14389 22.8453 1.13924 23.8222V24.8386C1.13851 25.0209 1.21016 25.196 1.33846 25.3255C1.46676 25.455 1.64122 25.5283 1.82352 25.5293C2.00525 25.5293 2.17959 25.4573 2.30835 25.329C2.43712 25.2008 2.50982 25.0267 2.51055 24.845V23.8296C2.51403 23.1184 2.72334 22.4235 3.11317 21.8288C3.50301 21.234 4.05671 20.7648 4.70739 20.4779C5.42222 20.1942 6.16243 19.9792 6.91799 19.8358L9.26986 22.9187C9.53665 23.2691 9.90893 23.5246 10.3318 23.6474C10.7548 23.7703 11.206 23.7541 11.619 23.6012L12.1693 24.4129L11.2897 30.1128H6.4135L6.42359 27.7233C6.42432 27.541 6.35267 27.3659 6.22437 27.2364C6.09607 27.1069 5.92161 27.0336 5.73931 27.0327C5.55758 27.0326 5.38324 27.1046 5.25448 27.2329C5.12571 27.3611 5.05301 27.5352 5.05228 27.7169L5.03761 30.1101H2.49495L2.50321 28.0655C2.50394 27.8832 2.43229 27.7081 2.30399 27.5786C2.17569 27.449 2.00123 27.3758 1.81893 27.3748C1.6372 27.3748 1.46286 27.4468 1.3341 27.575C1.20533 27.7033 1.13263 27.8773 1.1319 28.0591L1.12365 30.1229C0.813027 30.1656 0.528276 30.319 0.321811 30.555C0.115345 30.7909 0.00106253 31.0935 0 31.4071V33.7002C0.000485309 34.0448 0.13758 34.3751 0.381227 34.6188C0.624875 34.8624 0.955192 34.9995 1.29976 35H45.5577C45.9022 34.9995 46.2326 34.8624 46.4762 34.6188C46.7199 34.3751 46.857 34.0448 46.8574 33.7002V31.4071C46.8562 31.063 46.7188 30.7334 46.4752 30.4903C46.2317 30.2473 45.9018 30.1105 45.5577 30.1101ZM37.405 29.2772V30.1101H31.0576V29.2772C31.0576 29.2341 31.0747 29.1928 31.1051 29.1624C31.1356 29.1319 31.1769 29.1148 31.2199 29.1148H37.2418C37.2848 29.1148 37.3261 29.1319 37.3566 29.1624C37.387 29.1928 37.405 29.2341 37.405 29.2772ZM32.0519 25.776L31.8519 27.7399H31.2209C30.8133 27.7403 30.4225 27.9025 30.1343 28.1907C29.8461 28.4789 29.684 28.8696 29.6835 29.2772V30.1101H26.4731L26.4933 25.7751L32.0519 25.776ZM33.2343 27.7399L33.4975 25.1596L33.5892 24.3029C33.5895 24.3006 33.5905 24.2985 33.5922 24.297C33.5939 24.2954 33.5961 24.2946 33.5984 24.2946H34.8752C34.8775 24.2946 34.8797 24.2954 34.8814 24.297C34.8831 24.2985 34.8842 24.3006 34.8844 24.3029L34.9761 25.1587L35.2385 27.7389H33.2333L33.2343 27.7399ZM24.1011 13.2471C24.1011 13.1097 24.1557 12.9778 24.2529 12.8807C24.3501 12.7835 24.4819 12.7289 24.6193 12.7289H43.8442C43.9817 12.7289 44.1135 12.7835 44.2107 12.8807C44.3079 12.9778 44.3625 13.1097 44.3625 13.2471V23.8874C44.3625 24.0248 44.3079 24.1566 44.2107 24.2538C44.1135 24.351 43.9817 24.4056 43.8442 24.4056H36.2704L36.2465 24.1671C36.2136 23.8256 36.0542 23.5086 35.7997 23.2785C35.5451 23.0484 35.2138 22.9217 34.8707 22.9233H33.5929C33.2498 22.9217 32.9184 23.0484 32.6639 23.2785C32.4093 23.5086 32.25 23.8256 32.217 24.1671L32.1932 24.4056H24.6175C24.48 24.4056 24.3482 24.351 24.251 24.2538C24.1538 24.1566 24.0992 24.0248 24.0992 23.8874L24.1011 13.2471ZM24.6193 25.7806H25.1202L25.1 30.1156H22.5573L22.5674 27.794C22.5681 27.6117 22.4965 27.4365 22.3682 27.307C22.2399 27.1775 22.0654 27.1042 21.8831 27.1033C21.7014 27.1033 21.5271 27.1753 21.3983 27.3035C21.2695 27.4318 21.1968 27.6058 21.1961 27.7876L21.186 30.1147H16.286L15.4605 24.4276L16.0108 23.6085C16.4235 23.7684 16.8768 23.7907 17.3032 23.6722C17.7296 23.5537 18.1063 23.3007 18.3774 22.9508L20.7503 19.8927C21.4215 20.0309 22.0814 20.2194 22.7243 20.4568V23.8846C22.7252 24.3862 22.9251 24.8671 23.28 25.2216C23.6349 25.5761 24.1158 25.7755 24.6175 25.776L24.6193 25.7806ZM13.2737 23.5691L12.771 22.8353L13.8332 21.9978L14.8807 22.8343L14.3781 23.5764L13.2737 23.5691ZM17.9169 19.3983C18.2737 19.4478 18.7342 19.5166 19.2396 19.6037L17.2932 22.1115C17.2378 22.1831 17.1687 22.243 17.0899 22.2877C17.0112 22.3323 16.9243 22.3609 16.8344 22.3716C16.7445 22.3824 16.6534 22.3751 16.5663 22.3503C16.4793 22.3255 16.398 22.2836 16.3273 22.2271L15.0275 21.1897L17.9169 19.3983ZM8.18198 4.91469C8.18707 3.97549 8.56329 3.07639 9.22862 2.41347C9.89395 1.75055 10.7944 1.37757 11.7336 1.37589H11.7492L16.1236 1.39424C16.359 1.39554 16.5882 1.46946 16.7799 1.60588C16.9717 1.74231 17.1166 1.9346 17.195 2.1565C17.2879 2.42252 17.4607 2.65337 17.6897 2.81754C17.9187 2.98171 18.1928 3.0712 18.4746 3.07376C18.781 3.07522 19.0744 3.19822 19.2902 3.41577C19.506 3.63333 19.6267 3.92764 19.6257 4.2341L19.612 7.41424C19.238 7.44057 18.8685 7.51139 18.5113 7.62521L18.5214 5.94204C18.5228 5.64315 18.4653 5.3469 18.3522 5.07024C18.2392 4.79357 18.0726 4.5419 17.8622 4.32962C17.6518 4.11734 17.4016 3.94861 17.126 3.83306C16.8503 3.71751 16.5546 3.65742 16.2557 3.65622H16.2365C15.8979 3.65501 15.5613 3.70637 15.2385 3.80848C14.3714 4.07626 13.4432 4.07241 12.5784 3.79747C12.2568 3.69243 11.9207 3.63828 11.5823 3.63696H11.5502C10.9482 3.63695 10.3707 3.87546 9.94422 4.30026C9.5177 4.72506 9.27687 5.30154 9.27444 5.90351L9.26619 7.84626L9.1075 7.85545C8.82551 7.65385 8.5067 7.50956 8.16914 7.43076L8.18198 4.91469ZM9.0011 11.0356C8.99798 10.8558 8.92463 10.6845 8.79674 10.5581C8.66886 10.4318 8.49659 10.3605 8.31682 10.3596H7.93616C7.85141 10.3591 7.77032 10.325 7.71065 10.2648C7.65099 10.2047 7.61762 10.1233 7.61787 10.0385L7.62245 8.92222C7.62244 8.85388 7.64502 8.78745 7.68666 8.73327C7.92272 8.76132 8.14728 8.85082 8.33792 8.99284C8.54072 9.16092 8.79957 9.24612 9.06255 9.23134L9.65419 9.19831C9.92028 9.18314 10.1706 9.06712 10.3541 8.87386C10.5377 8.6806 10.6406 8.42467 10.6421 8.15814L10.6513 5.90626C10.6517 5.78797 10.6755 5.67093 10.7212 5.56183C10.7669 5.45273 10.8337 5.35371 10.9177 5.27041C11.0017 5.18711 11.1012 5.12116 11.2107 5.07634C11.3202 5.03152 11.4374 5.00869 11.5557 5.00917H11.5749C11.7702 5.00963 11.9643 5.04059 12.1501 5.1009C13.2885 5.46578 14.5117 5.47091 15.6531 5.11558C15.8365 5.05596 16.028 5.02501 16.2209 5.02385H16.2484C16.3667 5.02433 16.4837 5.04811 16.5928 5.09382C16.7019 5.13953 16.8009 5.20629 16.8842 5.29027C16.9675 5.37425 17.0335 5.47382 17.0783 5.58328C17.1231 5.69275 17.146 5.80999 17.1455 5.92828L17.1345 8.45533C17.1338 8.6267 17.1838 8.79445 17.2782 8.93746C17.3726 9.08047 17.5073 9.19235 17.6651 9.25902C17.823 9.3257 17.9971 9.3442 18.1654 9.31218C18.3338 9.28016 18.4889 9.19905 18.6113 9.07907C19.0677 8.85695 19.5716 8.74987 20.0789 8.76719C20.1268 8.82381 20.1528 8.89574 20.1523 8.96992L20.1477 10.0862C20.1472 10.1706 20.1134 10.2515 20.0536 10.3111C19.9938 10.3707 19.9129 10.4043 19.8285 10.4045H19.4478C19.2679 10.403 19.0946 10.4725 18.9655 10.5978C18.8364 10.7231 18.7619 10.8942 18.758 11.0741C18.7488 11.7025 18.6078 12.3219 18.3441 12.8923C18.0804 13.4627 17.6998 13.9714 17.2271 14.3854C16.3019 15.2119 15.1033 15.6665 13.8626 15.6612C12.622 15.656 11.4273 15.1913 10.5091 14.357C10.0399 13.9389 9.66377 13.427 9.40496 12.8544C9.14614 12.2818 9.01043 11.6612 9.0066 11.0328L9.0011 11.0356ZM16.3025 16.5548L16.297 17.7821C16.2961 18.0813 16.3804 18.3747 16.5401 18.6278L13.8378 20.3018L11.1502 18.6048C11.312 18.3533 11.3989 18.0609 11.4007 17.7619L11.4062 16.5337C12.1794 16.8646 13.0111 17.037 13.8522 17.0406C14.6932 17.0443 15.5265 16.879 16.3025 16.5548ZM10.3742 22.0858L8.44799 19.557C8.95432 19.4744 9.41478 19.4102 9.7716 19.3634L12.6481 21.1796L11.3429 22.2088C11.2716 22.2652 11.1897 22.3068 11.1021 22.3312C11.0145 22.3556 10.9229 22.3623 10.8327 22.3509C10.7425 22.3394 10.6555 22.3101 10.5768 22.2646C10.498 22.2191 10.4292 22.1583 10.3742 22.0858ZM13.4929 24.944H14.1424L14.8954 30.111H12.694L13.4929 24.944ZM45.4815 33.6351H1.36856V31.4887H45.4797L45.4815 33.6351Z" fill="#2567B2"/>
<path d="M34.2313 20.3732C34.7455 20.3732 35.2481 20.2208 35.6756 19.9351C36.1031 19.6495 36.4362 19.2435 36.633 18.7685C36.8298 18.2935 36.8812 17.7708 36.7809 17.2666C36.6806 16.7623 36.433 16.2991 36.0695 15.9356C35.7059 15.572 35.2427 15.3244 34.7385 15.2241C34.2342 15.1238 33.7116 15.1753 33.2366 15.3721C32.7616 15.5688 32.3556 15.902 32.0699 16.3295C31.7843 16.757 31.6318 17.2596 31.6318 17.7737C31.6326 18.4629 31.9067 19.1237 32.394 19.6111C32.8814 20.0984 33.5421 20.3725 34.2313 20.3732ZM34.2313 16.5492C34.4735 16.5492 34.7103 16.621 34.9117 16.7555C35.1131 16.8901 35.27 17.0814 35.3627 17.3051C35.4554 17.5289 35.4796 17.7751 35.4324 18.0126C35.3851 18.2501 35.2685 18.4684 35.0972 18.6396C34.926 18.8109 34.7078 18.9275 34.4703 18.9747C34.2327 19.022 33.9865 18.9977 33.7627 18.9051C33.539 18.8124 33.3477 18.6554 33.2132 18.454C33.0786 18.2527 33.0068 18.0159 33.0068 17.7737C33.0073 17.4491 33.1365 17.1379 33.366 16.9084C33.5955 16.6788 33.9067 16.5497 34.2313 16.5492Z" fill="#2567B2"/>
</svg>
