<svg width="42" height="37" viewBox="0 0 42 37" fill="none" xmlns="http://www.w3.org/2000/svg">
<path fill-rule="evenodd" clip-rule="evenodd" d="M18.2444 20.5938C18.3668 20.7203 18.4355 20.8916 18.4355 21.0701C18.4355 21.2487 18.3668 21.42 18.2444 21.5465L15.6586 24.2087C15.5979 24.2713 15.5259 24.3209 15.4465 24.3548C15.3672 24.3888 15.2822 24.4062 15.1962 24.4063C15.1103 24.4064 15.0253 24.3891 14.9459 24.3553C14.8665 24.3215 14.7943 24.272 14.7335 24.2095C14.6727 24.1471 14.6245 24.0729 14.5915 23.9912C14.5586 23.9096 14.5416 23.822 14.5415 23.7336C14.5414 23.6452 14.5583 23.5576 14.5911 23.4759C14.6239 23.3942 14.672 23.3199 14.7327 23.2573L17.3189 20.5938C17.4417 20.4676 17.6081 20.3967 17.7817 20.3967C17.9552 20.3967 18.1216 20.4676 18.2444 20.5938ZM24.84 8.66899C25.1141 8.66899 25.382 8.75266 25.6098 8.90941C25.8377 9.06616 26.0153 9.28895 26.1201 9.5496C26.225 9.81026 26.2524 10.0971 26.1988 10.3737C26.1453 10.6504 26.0133 10.9045 25.8194 11.104C25.6256 11.3034 25.3786 11.4391 25.1098 11.4941C24.841 11.549 24.5624 11.5206 24.3092 11.4126C24.0561 11.3045 23.8397 11.1215 23.6876 10.8869C23.5355 10.6522 23.4543 10.3764 23.4545 10.0943C23.4554 9.71653 23.6016 9.35449 23.861 9.08732C24.1205 8.82015 24.4722 8.66959 24.8392 8.66856L24.84 8.66899ZM24.84 12.867C25.3726 12.867 25.8933 12.7043 26.3361 12.3996C26.7789 12.095 27.1241 11.662 27.3279 11.1555C27.5317 10.6489 27.585 10.0915 27.481 9.55379C27.3771 9.01606 27.1206 8.52212 26.744 8.13443C26.3673 7.74675 25.8875 7.48272 25.3651 7.37573C24.8427 7.26875 24.3012 7.32362 23.8091 7.53339C23.317 7.74317 22.8964 8.09843 22.6005 8.55427C22.3045 9.0101 22.1465 9.54604 22.1464 10.0943C22.1475 10.8293 22.4317 11.5339 22.9366 12.0537C23.4415 12.5734 24.126 12.8659 24.84 12.867ZM11.111 20.4833C11.234 20.6093 11.4005 20.68 11.574 20.68C11.7475 20.68 11.914 20.6093 12.037 20.4833L14.6228 17.8198C14.7455 17.6936 14.8146 17.5224 14.8148 17.3438C14.8149 17.1652 14.7462 16.9939 14.6236 16.8675C14.501 16.7411 14.3347 16.67 14.1612 16.6699C13.9878 16.6697 13.8213 16.7405 13.6985 16.8666L11.1089 19.5293C10.9865 19.6558 10.9178 19.8271 10.9178 20.0056C10.9178 20.1842 10.9865 20.3554 11.1089 20.482L11.111 20.4833ZM16.434 19.6838C16.554 19.5569 16.6206 19.3864 16.6194 19.2093C16.6183 19.0322 16.5494 18.8628 16.4278 18.7375C16.3061 18.6123 16.1415 18.5414 15.9694 18.5402C15.7974 18.539 15.6318 18.6076 15.5085 18.7311L11.6188 22.735C11.4961 22.8614 11.4272 23.0328 11.4272 23.2115C11.4272 23.3902 11.4962 23.5616 11.619 23.6879C11.7418 23.8143 11.9083 23.8852 12.0819 23.8852C12.2555 23.8851 12.422 23.8141 12.5447 23.6877L16.434 19.6838ZM17.6441 9.34749C16.9539 10.4567 16.4368 11.6702 16.1114 12.9441L13.4279 12.1981C13.7529 11.3288 14.3344 10.5863 15.0907 10.075C15.847 9.56362 16.74 9.30919 17.6441 9.34749ZM24.9229 5.66124C23.0724 6.0957 21.3785 7.05895 20.0362 8.44021C18.6938 9.82148 17.7574 11.5647 17.3346 13.4694L21.5473 17.8067C23.3957 17.3656 25.0864 16.398 26.4259 15.0147C27.7655 13.6313 28.6999 11.8879 29.1225 9.98377L24.9229 5.66124ZM29.5081 5.26955C29.575 6.30768 29.5447 7.35003 29.4176 8.38219L26.4792 5.3579C27.1178 5.27421 27.7609 5.23234 28.4046 5.23256C28.7635 5.23256 29.1356 5.24474 29.5081 5.26955ZM22.7886 21.8315L22.061 19.0597C23.299 18.7268 24.4783 18.1954 25.5558 17.4851C25.595 18.4166 25.349 19.3374 24.8525 20.1172C24.356 20.8971 23.6341 21.4968 22.7886 21.8315ZM19.2164 18.621L16.5465 15.8726L16.9456 14.9783L20.0886 18.2106L19.2164 18.621ZM12.4302 13.3153L15.8243 14.2606L15.169 15.7364C15.1134 15.8616 15.0964 16.0013 15.1203 16.1367C15.1443 16.2722 15.2081 16.3967 15.303 16.4937L18.6169 19.9044C18.6774 19.9674 18.7496 20.0173 18.829 20.0513C18.9085 20.0853 18.9938 20.1027 19.0799 20.1024C19.1737 20.1021 19.2664 20.0811 19.3517 20.0406L20.7837 19.3626L21.7029 22.8591C21.7404 23.0018 21.8224 23.1278 21.9363 23.2178C22.0502 23.3079 22.1897 23.3569 22.3333 23.3574C22.3911 23.3574 22.4487 23.3493 22.5045 23.3335L22.6554 23.2899C24.0432 22.9052 25.2392 21.9963 26.005 20.7444C26.7709 19.4925 27.0504 17.9895 26.7878 16.535C28.6884 14.806 29.9885 12.4855 30.4907 9.92632C30.4934 9.9216 30.4946 9.91611 30.494 9.91065C30.8537 8.16014 30.9465 6.36269 30.7693 4.58278C30.7544 4.42663 30.6872 4.28067 30.5792 4.16997C30.4712 4.05926 30.3291 3.99072 30.1774 3.9761C29.5766 3.91822 28.9796 3.88906 28.4016 3.88906C27.2686 3.88495 26.1385 4.0062 25.0307 4.25072C24.9943 4.25638 24.9584 4.26482 24.9233 4.27596C23.2251 4.6545 21.625 5.4022 20.2303 6.46899C19.622 6.94492 19.0633 7.48458 18.5632 8.07928C17.1512 7.81198 15.6933 8.10104 14.4788 8.88907C13.2643 9.6771 12.3821 10.9065 12.0074 12.333L11.9651 12.4915C11.9212 12.6642 11.9455 12.8477 12.0326 13.0021C12.1197 13.1565 12.2626 13.2691 12.4302 13.3153ZM39.007 30.5271H2.76507C2.37825 30.5269 2.00732 30.3686 1.73376 30.0871C1.46019 29.8056 1.30635 29.4238 1.30601 29.0256V28.2923H40.4661V29.0243C40.4657 29.4225 40.3119 29.8043 40.0383 30.0858C39.7648 30.3673 39.3938 30.5256 39.007 30.5258V30.5271ZM30.2391 35.6535H11.533L13.6727 31.8736H28.0993L30.2391 35.6535ZM2.76507 1.34655C2.37836 1.34689 2.00756 1.50512 1.73403 1.78652C1.4605 2.06792 1.30657 2.44952 1.30601 2.84759V26.947H40.4661V2.84759C40.4655 2.44952 40.3116 2.06792 40.038 1.78652C39.7645 1.50512 39.3937 1.34689 39.007 1.34655H2.76507ZM39.007 0H2.76507C2.03189 0.00126671 1.3291 0.301728 0.810783 0.835519C0.292461 1.36931 0.000894325 2.09287 0 2.84759V29.0256C0.000782483 29.7804 0.292299 30.5041 0.810634 31.038C1.32897 31.5718 2.03182 31.8724 2.76507 31.8736H12.1566L10.1893 35.3479C10.0936 35.5135 10.0425 35.7023 10.0414 35.895C10.0403 36.0876 10.0892 36.2771 10.183 36.4438C10.2769 36.6124 10.4124 36.7526 10.5756 36.8502C10.7389 36.9479 10.9243 36.9995 11.1131 37H30.6585C30.8474 36.9995 31.0329 36.9478 31.1962 36.85C31.3595 36.7522 31.4949 36.6118 31.5887 36.4429C31.6824 36.2764 31.7313 36.0871 31.7302 35.8945C31.7291 35.702 31.678 35.5133 31.5823 35.3479L29.6167 31.8736H39.007C39.7406 31.8729 40.444 31.5727 40.9628 31.0387C41.4816 30.5048 41.7734 29.7808 41.7742 29.0256V2.84759C41.7733 2.0925 41.4814 1.3686 40.9627 0.834751C40.4439 0.300899 39.7406 0.000691024 39.007 0Z" fill="#2567B2"/>
</svg>
