<svg width="38" height="38" viewBox="0 0 38 38" fill="none" xmlns="http://www.w3.org/2000/svg">
<g clip-path="url(#clip0_188_1982)">
<path d="M28.735 8.48996H9.14299C8.9698 8.48996 8.80371 8.42116 8.68125 8.2987C8.55879 8.17624 8.48999 8.01015 8.48999 7.83696C8.48999 7.66377 8.55879 7.49768 8.68125 7.37522C8.80371 7.25276 8.9698 7.18396 9.14299 7.18396H28.735C28.9082 7.18396 29.0743 7.25276 29.1967 7.37522C29.3192 7.49768 29.388 7.66377 29.388 7.83696C29.388 8.01015 29.3192 8.17624 29.1967 8.2987C29.0743 8.42116 28.9082 8.48996 28.735 8.48996Z" fill="#2567B2"/>
<path d="M37.225 37.878H0.653C0.567247 37.878 0.482333 37.8611 0.403108 37.8283C0.323882 37.7955 0.251896 37.7474 0.191259 37.6868C0.130622 37.6261 0.082523 37.5541 0.0497067 37.4749C0.0168904 37.3957 0 37.3108 0 37.225C0 37.1393 0.0168904 37.0544 0.0497067 36.9751C0.082523 36.8959 0.130622 36.8239 0.191259 36.7633C0.251896 36.7026 0.323882 36.6545 0.403108 36.6217C0.482333 36.5889 0.567247 36.572 0.653 36.572H37.225C37.3982 36.572 37.5643 36.6408 37.6867 36.7633C37.8092 36.8857 37.878 37.0518 37.878 37.225C37.878 37.3982 37.8092 37.5643 37.6867 37.6868C37.5643 37.8092 37.3982 37.878 37.225 37.878Z" fill="#2567B2"/>
<path d="M28.735 37.8781H9.14299C8.96997 37.8775 8.80418 37.8086 8.68183 37.6862C8.55948 37.5639 8.49052 37.3981 8.48999 37.2251V3.26506C8.49052 3.09204 8.55948 2.92625 8.68183 2.8039C8.80418 2.68156 8.96997 2.61259 9.14299 2.61206H28.735C28.908 2.61259 29.0738 2.68156 29.1961 2.8039C29.3185 2.92625 29.3875 3.09204 29.388 3.26506V37.2251C29.3875 37.3981 29.3185 37.5639 29.1961 37.6862C29.0738 37.8086 28.908 37.8775 28.735 37.8781ZM9.79599 36.5721H28.082V3.91806H9.79599V36.5721Z" fill="#2567B2"/>
<path d="M26.1221 32H23.5101C23.337 31.9995 23.1712 31.9305 23.0489 31.8082C22.9265 31.6858 22.8576 31.5201 22.8571 31.347V28.735C22.8576 28.562 22.9265 28.3962 23.0489 28.2739C23.1712 28.1515 23.337 28.0826 23.5101 28.082H26.1221C26.2951 28.0826 26.4609 28.1515 26.5832 28.2739C26.7056 28.3962 26.7745 28.562 26.7751 28.735V31.347C26.7745 31.5201 26.7056 31.6858 26.5832 31.8082C26.4609 31.9305 26.2951 31.9995 26.1221 32ZM24.1631 30.694H25.4691V29.388H24.1631V30.694Z" fill="#2567B2"/>
<path d="M14.3671 32H11.7551C11.582 31.9995 11.4162 31.9305 11.2939 31.8082C11.1715 31.6858 11.1026 31.5201 11.1021 31.347V28.735C11.1026 28.562 11.1715 28.3962 11.2939 28.2739C11.4162 28.1515 11.582 28.0826 11.7551 28.082H14.3671C14.5401 28.0826 14.7059 28.1515 14.8282 28.2739C14.9506 28.3962 15.0195 28.562 15.0201 28.735V31.347C15.0195 31.5201 14.9506 31.6858 14.8282 31.8082C14.7059 31.9305 14.5401 31.9995 14.3671 32ZM12.4081 30.694H13.7141V29.388H12.4081V30.694Z" fill="#2567B2"/>
<path d="M26.1221 26.122H23.5101C23.337 26.1215 23.1712 26.0525 23.0489 25.9301C22.9265 25.8078 22.8576 25.642 22.8571 25.469V22.857C22.8576 22.684 22.9265 22.5182 23.0489 22.3958C23.1712 22.2735 23.337 22.2045 23.5101 22.204H26.1221C26.2951 22.2045 26.4609 22.2735 26.5832 22.3958C26.7056 22.5182 26.7745 22.684 26.7751 22.857V25.469C26.7745 25.642 26.7056 25.8078 26.5832 25.9301C26.4609 26.0525 26.2951 26.1215 26.1221 26.122ZM24.1631 24.816H25.4691V23.51H24.1631V24.816Z" fill="#2567B2"/>
<path d="M21.5519 37.878H16.327C16.1539 37.8775 15.9881 37.8085 15.8658 37.6861C15.7434 37.5638 15.6745 37.398 15.674 37.225V29.388C15.6745 29.215 15.7434 29.0492 15.8658 28.9268C15.9881 28.8045 16.1539 28.7355 16.327 28.735H21.5519C21.725 28.7355 21.8908 28.8045 22.0131 28.9268C22.1355 29.0492 22.2044 29.215 22.2049 29.388V37.225C22.2044 37.398 22.1355 37.5638 22.0131 37.6861C21.8908 37.8085 21.725 37.8775 21.5519 37.878ZM16.9809 36.572H20.8989V30.041H16.9799L16.9809 36.572Z" fill="#2567B2"/>
<path d="M20.245 26.122H17.633C17.46 26.1215 17.2942 26.0525 17.1718 25.9301C17.0495 25.8078 16.9805 25.642 16.98 25.469V22.857C16.9805 22.684 17.0495 22.5182 17.1718 22.3958C17.2942 22.2735 17.46 22.2045 17.633 22.204H20.245C20.418 22.2045 20.5838 22.2735 20.7061 22.3958C20.8285 22.5182 20.8975 22.684 20.898 22.857V25.469C20.8975 25.642 20.8285 25.8078 20.7061 25.9301C20.5838 26.0525 20.418 26.1215 20.245 26.122ZM18.286 24.816H19.592V23.51H18.286V24.816Z" fill="#2567B2"/>
<path d="M14.3671 26.122H11.7551C11.582 26.1215 11.4162 26.0525 11.2939 25.9301C11.1715 25.8078 11.1026 25.642 11.1021 25.469V22.857C11.1026 22.684 11.1715 22.5182 11.2939 22.3958C11.4162 22.2735 11.582 22.2045 11.7551 22.204H14.3671C14.5401 22.2045 14.7059 22.2735 14.8282 22.3958C14.9506 22.5182 15.0195 22.684 15.0201 22.857V25.469C15.0195 25.642 14.9506 25.8078 14.8282 25.9301C14.7059 26.0525 14.5401 26.1215 14.3671 26.122ZM12.4081 24.816H13.7141V23.51H12.4081V24.816Z" fill="#2567B2"/>
<path d="M26.1221 20.245H23.5101C23.337 20.2445 23.1712 20.1755 23.0489 20.0532C22.9265 19.9308 22.8576 19.765 22.8571 19.592V16.98C22.8576 16.807 22.9265 16.6412 23.0489 16.5189C23.1712 16.3965 23.337 16.3276 23.5101 16.327H26.1221C26.2951 16.3276 26.4609 16.3965 26.5832 16.5189C26.7056 16.6412 26.7745 16.807 26.7751 16.98V19.592C26.7745 19.765 26.7056 19.9308 26.5832 20.0532C26.4609 20.1755 26.2951 20.2445 26.1221 20.245ZM24.1631 18.939H25.4691V17.633H24.1631V18.939Z" fill="#2567B2"/>
<path d="M20.245 20.245H17.633C17.46 20.2445 17.2942 20.1755 17.1718 20.0532C17.0495 19.9308 16.9805 19.765 16.98 19.592V16.98C16.9805 16.807 17.0495 16.6412 17.1718 16.5189C17.2942 16.3965 17.46 16.3276 17.633 16.327H20.245C20.418 16.3276 20.5838 16.3965 20.7061 16.5189C20.8285 16.6412 20.8975 16.807 20.898 16.98V19.592C20.8975 19.765 20.8285 19.9308 20.7061 20.0532C20.5838 20.1755 20.418 20.2445 20.245 20.245ZM18.286 18.939H19.592V17.633H18.286V18.939Z" fill="#2567B2"/>
<path d="M14.3671 20.245H11.7551C11.582 20.2445 11.4162 20.1755 11.2939 20.0532C11.1715 19.9308 11.1026 19.765 11.1021 19.592V16.98C11.1026 16.807 11.1715 16.6412 11.2939 16.5189C11.4162 16.3965 11.582 16.3276 11.7551 16.327H14.3671C14.5401 16.3276 14.7059 16.3965 14.8282 16.5189C14.9506 16.6412 15.0195 16.807 15.0201 16.98V19.592C15.0195 19.765 14.9506 19.9308 14.8282 20.0532C14.7059 20.1755 14.5401 20.2445 14.3671 20.245ZM12.4081 18.939H13.7141V17.633H12.4081V18.939Z" fill="#2567B2"/>
<path d="M26.1221 14.367H23.5101C23.337 14.3664 23.1712 14.2975 23.0489 14.1751C22.9265 14.0528 22.8576 13.887 22.8571 13.714V11.102C22.8576 10.929 22.9265 10.7632 23.0489 10.6408C23.1712 10.5185 23.337 10.4495 23.5101 10.449H26.1221C26.2951 10.4495 26.4609 10.5185 26.5832 10.6408C26.7056 10.7632 26.7745 10.929 26.7751 11.102V13.714C26.7745 13.887 26.7056 14.0528 26.5832 14.1751C26.4609 14.2975 26.2951 14.3664 26.1221 14.367ZM24.1631 13.061H25.4691V11.755H24.1631V13.061Z" fill="#2567B2"/>
<path d="M20.245 14.367H17.633C17.46 14.3664 17.2942 14.2975 17.1718 14.1751C17.0495 14.0528 16.9805 13.887 16.98 13.714V11.102C16.9805 10.929 17.0495 10.7632 17.1718 10.6408C17.2942 10.5185 17.46 10.4495 17.633 10.449H20.245C20.418 10.4495 20.5838 10.5185 20.7061 10.6408C20.8285 10.7632 20.8975 10.929 20.898 11.102V13.714C20.8975 13.887 20.8285 14.0528 20.7061 14.1751C20.5838 14.2975 20.418 14.3664 20.245 14.367ZM18.286 13.061H19.592V11.755H18.286V13.061Z" fill="#2567B2"/>
<path d="M14.3671 14.367H11.7551C11.582 14.3664 11.4162 14.2975 11.2939 14.1751C11.1715 14.0528 11.1026 13.887 11.1021 13.714V11.102C11.1026 10.929 11.1715 10.7632 11.2939 10.6408C11.4162 10.5185 11.582 10.4495 11.7551 10.449H14.3671C14.5401 10.4495 14.7059 10.5185 14.8282 10.6408C14.9506 10.7632 15.0195 10.929 15.0201 11.102V13.714C15.0195 13.887 14.9506 14.0528 14.8282 14.1751C14.7059 14.2975 14.5401 14.3664 14.3671 14.367ZM12.4081 13.061H13.7141V11.755H12.4081V13.061Z" fill="#2567B2"/>
<path d="M24.161 3.918H13.714C13.541 3.91747 13.3752 3.84851 13.2529 3.72616C13.1305 3.60381 13.0616 3.43802 13.061 3.265V0.653C13.0616 0.479976 13.1305 0.314189 13.2529 0.191842C13.3752 0.069495 13.541 0.000527516 13.714 0H24.161C24.3341 0.000527516 24.4998 0.069495 24.6222 0.191842C24.7445 0.314189 24.8135 0.479976 24.814 0.653V3.265C24.8135 3.43802 24.7445 3.60381 24.6222 3.72616C24.4998 3.84851 24.3341 3.91747 24.161 3.918ZM14.361 2.612H23.504V1.306H14.367L14.361 2.612Z" fill="#2567B2"/>
<path d="M33.96 37.878C33.7877 37.8774 33.6225 37.809 33.5002 37.6875C33.378 37.566 33.3086 37.4013 33.307 37.229V28.082C33.307 27.9088 33.3758 27.7427 33.4983 27.6202C33.6207 27.4978 33.7868 27.429 33.96 27.429C34.1332 27.429 34.2993 27.4978 34.4217 27.6202C34.5442 27.7427 34.613 27.9088 34.613 28.082V37.229C34.6114 37.4013 34.542 37.566 34.4198 37.6875C34.2975 37.809 34.1323 37.8774 33.96 37.878Z" fill="#2567B2"/>
<path d="M33.986 32.653C33.8528 32.653 33.7229 32.6118 33.614 32.535C31.237 30.87 30.035 29.135 30.042 27.389C30.049 25.643 31.257 23.947 33.614 22.321C33.7274 22.2448 33.8615 22.2052 33.9981 22.2075C34.1347 22.2098 34.2673 22.254 34.378 22.334C36.755 24.117 37.931 25.919 37.878 27.689C37.826 29.389 36.637 31.026 34.345 32.541C34.24 32.615 34.1145 32.6542 33.986 32.653ZM33.973 23.667C32.236 24.94 31.354 26.188 31.348 27.389C31.342 28.59 32.236 29.884 33.999 31.196C35.671 30.014 36.539 28.819 36.572 27.643C36.611 26.416 35.737 25.078 33.973 23.667Z" fill="#2567B2"/>
<path d="M3.94503 32.654C3.81182 32.6541 3.68187 32.6128 3.57303 32.536C1.20003 30.864 -0.00696973 29.134 3.0273e-05 27.383C0.00703027 25.632 1.21503 23.941 3.57203 22.315C3.68542 22.2388 3.81946 22.1992 3.95607 22.2015C4.09268 22.2038 4.2253 22.248 4.33603 22.328C6.71303 24.111 7.88903 25.913 7.83603 27.683C7.78403 29.383 6.59503 31.02 4.30303 32.535C4.2004 32.6137 4.07433 32.6556 3.94503 32.654ZM3.93203 23.668C2.19503 24.941 1.31303 26.189 1.30703 27.39C1.30103 28.591 2.19503 29.885 3.95803 31.197C5.63003 30.015 6.49803 28.82 6.53103 27.644C6.57003 26.417 5.69603 25.078 3.93203 23.668Z" fill="#2567B2"/>
<path d="M3.91801 37.878C3.74568 37.8774 3.58049 37.809 3.45826 37.6875C3.33602 37.566 3.26659 37.4013 3.26501 37.229V28.082C3.26501 27.9088 3.33381 27.7427 3.45627 27.6202C3.57874 27.4978 3.74483 27.429 3.91801 27.429C4.0912 27.429 4.25729 27.4978 4.37976 27.6202C4.50222 27.7427 4.57101 27.9088 4.57101 28.082V37.229C4.56944 37.4013 4.50001 37.566 4.37777 37.6875C4.25554 37.809 4.09035 37.8774 3.91801 37.878Z" fill="#2567B2"/>
<path d="M33.9589 35.266C33.8574 35.2647 33.7574 35.2401 33.6669 35.1939C33.5764 35.1478 33.4977 35.0815 33.4369 35C33.3337 34.8613 33.2895 34.6873 33.314 34.516C33.3385 34.3448 33.4298 34.1902 33.5679 34.086L36.1799 32.127C36.3185 32.0231 36.4927 31.9784 36.6642 32.0029C36.8357 32.0274 36.9905 32.119 37.0944 32.2575C37.1984 32.3961 37.2431 32.5703 37.2186 32.7418C37.1941 32.9133 37.1025 33.0681 36.9639 33.172L34.3519 35.131C34.2385 35.2164 34.1009 35.2637 33.9589 35.266Z" fill="#2567B2"/>
<path d="M3.91805 35.266C3.81646 35.2647 3.71654 35.2401 3.62602 35.1939C3.5355 35.1478 3.45681 35.0815 3.39605 35C3.29276 34.8613 3.24856 34.6873 3.27311 34.516C3.29765 34.3448 3.38894 34.1902 3.52705 34.086L6.13905 32.127C6.27762 32.0231 6.45182 31.9784 6.62332 32.0029C6.79483 32.0274 6.94958 32.119 7.05355 32.2575C7.15751 32.3961 7.20217 32.5703 7.1777 32.7418C7.15322 32.9133 7.06162 33.0681 6.92305 33.172L4.31005 35.135C4.19639 35.2188 4.05923 35.2646 3.91805 35.266Z" fill="#2567B2"/>
</g>
<defs>
<clipPath id="clip0_188_1982">
<rect width="37.88" height="37.878" fill="white"/>
</clipPath>
</defs>
</svg>
