<svg width="131" height="78" viewBox="0 0 131 78" fill="none" xmlns="http://www.w3.org/2000/svg">
<path d="M14.6148 28.7916C15.3717 30.825 16.5682 32.8016 18.047 34.247C18.8854 35.065 19.8126 35.7127 20.8039 36.1057C21.4836 36.375 22.1939 36.5249 22.9232 36.5249C23.6524 36.5249 24.3642 36.375 25.0439 36.1057C26.0672 35.6996 27.0264 35.0199 27.8866 34.1626C29.3305 32.7201 30.4979 30.774 31.2387 28.7756C31.8108 28.6082 32.4076 27.5413 32.6506 26.1759C32.9155 24.6956 32.6623 23.4046 32.0932 23.1891C32.1121 22.8282 32.1266 22.4628 32.1266 22.0902C32.1121 16.7236 28.9681 13.6058 24.0075 13.2724C19.6802 12.9813 16.4241 14.7003 14.9394 17.5561C14.4402 18.5168 14.1534 19.7191 14.0457 21.0247C13.8783 21.7045 13.7808 22.4119 13.7808 23.1411H13.7968C13.7968 23.1469 13.7968 23.1527 13.7968 23.1586C13.7866 23.16 13.775 23.16 13.7663 23.1615C13.1331 23.2707 12.8449 24.62 13.1244 26.1745C13.3762 27.6038 14.021 28.7072 14.6148 28.7916ZM14.756 24.7932C14.8186 24.6112 14.9016 24.4686 15.0078 24.3929C15.0515 24.3623 15.101 24.339 15.1519 24.3317C15.2698 24.3114 15.3936 24.3565 15.5129 24.4526H15.5144C15.5144 24.4438 15.5144 24.4336 15.5144 24.4234C15.5566 24.0203 16.0937 20.4993 19.4851 20.8122C19.4851 20.8122 22.4574 21.9053 25.1618 20.9389C25.4515 20.933 25.7353 20.9301 25.9973 20.9389C27.1181 20.9796 27.8837 21.5604 28.6886 21.9359C28.6595 21.5662 28.3742 21.1878 28.3888 20.9389C28.5183 20.9752 28.6348 21.0306 28.7483 21.0917C29.3247 21.7074 29.8865 22.7408 30.3305 24.4307C30.3305 24.438 30.3305 24.4453 30.3305 24.4526L30.3348 24.4511L30.3363 24.4526L30.3407 24.4438C30.4586 24.3521 30.5765 24.3114 30.6915 24.3303C30.722 24.3361 30.7482 24.3448 30.7759 24.358C31.147 24.5312 31.3042 25.3943 31.1296 26.3797C30.9957 27.1351 30.7002 27.7567 30.3858 28.023C30.2621 28.1293 30.1325 28.1773 30.0088 28.1555C29.9404 28.1439 29.8792 28.1104 29.8225 28.058C29.134 30.1918 27.8284 32.3169 26.1807 33.6095C25.1967 34.3794 24.0905 34.8525 22.9232 34.8525C21.7791 34.8525 20.6976 34.3984 19.7282 33.6589C18.0485 32.3737 16.7181 30.2209 16.0224 28.0609C15.9656 28.1118 15.9045 28.1468 15.8346 28.1584C15.692 28.1831 15.542 28.1118 15.3979 27.9692C15.1083 27.6781 14.8419 27.0886 14.7167 26.3812C14.7065 26.3346 14.7036 26.2909 14.6964 26.2444C14.7022 25.748 14.724 25.2677 14.756 24.7932Z" fill="white"/>
<path d="M23.1514 59.7072C23.8219 59.7072 24.3654 59.1637 24.3654 58.4932C24.3654 57.8228 23.8219 57.2793 23.1514 57.2793C22.481 57.2793 21.9375 57.8228 21.9375 58.4932C21.9375 59.1637 22.481 59.7072 23.1514 59.7072Z" fill="white"/>
<path d="M99.3082 28.7916C100.067 30.825 101.263 32.8016 102.742 34.247C103.576 35.065 104.505 35.7127 105.497 36.1057C106.18 36.375 106.887 36.5249 107.618 36.5249C108.349 36.5249 109.056 36.375 109.736 36.1057C110.759 35.6996 111.72 35.0199 112.578 34.1626C114.025 32.7201 115.191 30.774 115.932 28.7756C116.506 28.6082 117.101 27.5413 117.345 26.1759C117.612 24.6956 117.359 23.4046 116.788 23.1891C116.807 22.8282 116.82 22.4628 116.82 22.0902C116.802 16.7236 113.661 13.6058 108.701 13.2724C104.374 12.9813 101.119 14.7003 99.6328 17.5561C99.135 18.5168 98.8482 19.7191 98.7405 21.0247C98.576 21.7045 98.4756 22.4119 98.4756 23.1411H98.4931C98.4931 23.1469 98.4931 23.1527 98.4931 23.1586C98.48 23.16 98.4683 23.16 98.4625 23.1615C97.8264 23.2707 97.5368 24.62 97.8192 26.1745C98.0724 27.6038 98.7158 28.7072 99.3082 28.7916ZM99.4508 24.7932C99.5134 24.6112 99.5964 24.4686 99.7026 24.3929C99.7463 24.3623 99.7943 24.339 99.8467 24.3317C99.9661 24.3114 100.088 24.3565 100.208 24.4526C100.211 24.4526 100.211 24.4526 100.211 24.4526C100.211 24.4438 100.211 24.4336 100.211 24.4234C100.253 24.0203 100.788 20.4993 104.183 20.8122C104.183 20.8122 107.154 21.9053 109.858 20.9389C110.148 20.933 110.434 20.9301 110.691 20.9389C111.813 20.9796 112.578 21.5604 113.386 21.9359C113.356 21.5662 113.07 21.1878 113.085 20.9389C113.215 20.9752 113.332 21.0306 113.445 21.0917C114.021 21.7074 114.58 22.7408 115.027 24.4307C115.028 24.438 115.028 24.4453 115.028 24.4526C115.03 24.4526 115.033 24.4511 115.034 24.4511L115.038 24.4438C115.156 24.3521 115.274 24.3114 115.391 24.3303C115.421 24.3361 115.446 24.3448 115.476 24.358C115.849 24.5312 116.003 25.3943 115.829 26.3797C115.695 27.1351 115.399 27.7567 115.083 28.023C114.96 28.1293 114.827 28.1773 114.705 28.1555C114.637 28.1439 114.574 28.1104 114.517 28.058C113.829 30.1918 112.525 32.3169 110.875 33.6095C109.89 34.3794 108.785 34.8525 107.618 34.8525C106.477 34.8525 105.395 34.3984 104.426 33.6589C102.749 32.3737 101.419 30.2209 100.72 28.0609C100.663 28.1118 100.604 28.1468 100.532 28.1584C100.388 28.1831 100.24 28.1118 100.093 27.9692C99.806 27.6781 99.5352 27.0886 99.4101 26.3812C99.4013 26.3346 99.397 26.2909 99.3897 26.2444C99.397 25.748 99.4159 25.2677 99.4508 24.7932Z" fill="white"/>
<path d="M127.026 72.0596H90.8718C90.8922 71.9082 90.9169 71.7583 90.9169 71.6025L90.9344 71.5094C90.9373 71.5094 90.9402 71.5108 90.9431 71.5108H124.747C126.332 71.5108 127.62 70.2212 127.617 68.6652L131 49.0341C131 47.4505 129.71 46.158 128.125 46.158H126.559C126.533 46.0357 126.507 45.912 126.47 45.7897C124.309 38.3533 120.315 38.0986 119.456 37.8962C117.763 37.5003 115.712 37.6692 114.619 37.3271C114.429 38.9282 111.35 40.2004 107.573 40.2004C103.8 40.2004 100.719 38.9268 100.526 37.3271C99.4334 37.6677 97.3839 37.4989 95.6911 37.8962C94.975 38.0636 92.0814 38.2863 89.8835 42.6646H89.5589C89.5283 42.5104 89.4905 42.3488 89.4453 42.193C86.6652 32.633 81.53 32.3054 80.4253 32.0464C78.2536 31.5355 75.6147 31.7538 74.2086 31.3157C73.9626 33.3738 70.002 35.0099 65.1492 35.0099C60.2978 35.0099 56.3358 33.3738 56.0884 31.3157C54.6838 31.7538 52.0492 31.5369 49.8717 32.0464C48.7669 32.304 43.6317 32.633 40.8531 42.193C40.808 42.3488 40.7701 42.5104 40.7395 42.6646H40.5722C38.3757 38.2863 35.4792 38.0607 34.7616 37.8962C33.0702 37.5003 31.0193 37.6692 29.9262 37.3271C29.7355 38.9282 26.6541 40.2004 22.8799 40.2004C19.1056 40.2004 16.0257 38.9268 15.8321 37.3271C14.7404 37.6677 12.691 37.4989 10.9967 37.8962C10.1365 38.0971 6.1439 38.3533 3.9824 45.7897C3.94747 45.912 3.91836 46.0357 3.89362 46.158H2.87036C1.28672 46.158 -0.00290619 47.4505 4.91885e-06 49.0604L3.37835 68.6347C3.37835 70.2212 4.66651 71.5108 6.25162 71.5108H40.0554C40.0583 71.5108 40.0613 71.5094 40.0642 71.5094L40.0744 71.5705C40.0744 71.7394 40.102 71.9024 40.1238 72.0639H3.9693C3.59668 72.0639 3.29247 72.3667 3.29247 72.7408C3.29247 73.1163 3.59523 73.4176 3.9693 73.4176H40.5867C41.2272 74.518 42.4062 75.2676 43.7686 75.2676H87.23C88.5953 75.2676 89.7772 74.5122 90.4147 73.4176H127.026C127.402 73.4176 127.703 73.1163 127.703 72.7408C127.703 72.3623 127.402 72.0596 127.026 72.0596ZM128.125 46.4898C129.524 46.4898 130.661 47.6266 130.664 48.9992L127.281 68.6332C127.281 69.1557 127.122 69.6419 126.846 70.0495C126.39 70.7248 125.617 71.1702 124.745 71.1702H90.9941V71.1673L95.2457 46.4913H128.125V46.4898ZM40.0045 71.1702H6.25162C5.02749 71.1702 4.00424 70.2984 3.76553 69.1252C3.74806 69.0349 3.7466 68.9432 3.73787 68.8515C3.73059 68.7686 3.71313 68.69 3.71313 68.6055L0.334783 49.0298C0.336238 47.631 1.47157 46.4942 2.87036 46.4942H35.747L40.0045 71.1673V71.1702ZM90.422 72.2212C90.1178 73.7058 88.8034 74.8251 87.2314 74.8251H87.2285H43.7686C41.9709 74.8251 40.5081 73.3608 40.5052 71.5268L36.1618 46.3559C36.1618 44.5598 37.6232 43.0984 39.4223 43.0984H91.5748C93.371 43.0984 94.8338 44.5598 94.8382 46.3225L90.489 71.5661C90.489 71.7888 90.4657 72.0116 90.422 72.2212Z" fill="white"/>
<path d="M107.845 59.7072C108.515 59.7072 109.059 59.1637 109.059 58.4932C109.059 57.8228 108.515 57.2793 107.845 57.2793C107.174 57.2793 106.631 57.8228 106.631 58.4932C106.631 59.1637 107.174 59.7072 107.845 59.7072Z" fill="white"/>
<path d="M54.5222 20.3404C55.4945 22.956 57.0345 25.496 58.9369 27.3547C60.014 28.4071 61.2075 29.2397 62.4797 29.7448C63.3559 30.0897 64.2671 30.2833 65.2059 30.2833C66.1448 30.2833 67.0574 30.0897 67.9337 29.7448C69.248 29.2222 70.4809 28.3474 71.59 27.2441C73.4458 25.3912 74.9494 22.8876 75.9014 20.3186C76.635 20.1032 77.4006 18.7306 77.7135 16.9766C78.0541 15.0742 77.7325 13.4149 77.0003 13.1369C77.0265 12.674 77.0396 12.2024 77.0396 11.7221C77.0221 4.8242 72.9801 0.812688 66.6033 0.384754C61.0387 0.0121321 56.8511 2.22167 54.9414 5.89258C54.2995 7.12689 53.9312 8.67414 53.7929 10.3509C53.579 11.2257 53.4538 12.134 53.4538 13.0728H53.4742C53.4742 13.0801 53.4727 13.0874 53.4727 13.0961C53.4582 13.0976 53.4436 13.0976 53.432 13.1005C52.6183 13.2417 52.2471 14.9767 52.6052 16.9752C52.9298 18.8135 53.7595 20.2327 54.5222 20.3404ZM54.7041 15.2009C54.7856 14.9665 54.8904 14.7831 55.0272 14.6856C55.084 14.6448 55.1466 14.6172 55.2106 14.6055C55.362 14.5779 55.5207 14.6375 55.6735 14.7613C55.6764 14.7613 55.6764 14.7613 55.6764 14.7613C55.6764 14.7496 55.6779 14.7351 55.6779 14.7234C55.7317 14.2053 56.4217 9.67702 60.7825 10.0802C60.7825 10.0802 64.6033 11.4848 68.0821 10.2432C68.4547 10.2345 68.8201 10.233 69.1549 10.2447C70.5959 10.2971 71.5798 11.0438 72.6147 11.5256C72.5783 11.0496 72.2115 10.562 72.2261 10.2447C72.392 10.2913 72.5434 10.3611 72.686 10.4397C73.4298 11.2316 74.1503 12.5605 74.7195 14.7336C74.7195 14.7424 74.7195 14.7511 74.7195 14.7613C74.7224 14.7613 74.7253 14.7584 74.7253 14.7584L74.7282 14.7598L74.734 14.7496C74.8854 14.6317 75.0382 14.5779 75.1881 14.6026C75.2231 14.6084 75.2638 14.6215 75.2959 14.6376C75.7718 14.8603 75.9756 15.9694 75.7514 17.2372C75.5811 18.208 75.1998 19.0071 74.7966 19.3506C74.6379 19.4875 74.4676 19.55 74.3104 19.5209C74.2202 19.5064 74.146 19.4627 74.0717 19.3958C73.1882 22.138 71.507 24.8716 69.3892 26.5324C68.1214 27.5221 66.6993 28.1306 65.2016 28.1306C63.7315 28.1306 62.3385 27.5483 61.094 26.5949C58.9354 24.9429 57.2237 22.1759 56.3285 19.3972C56.2557 19.4627 56.1771 19.5078 56.0869 19.5224C55.9035 19.5544 55.7114 19.4627 55.5265 19.2793C55.1539 18.9052 54.8104 18.1469 54.6488 17.2386C54.6357 17.179 54.6313 17.1207 54.6226 17.0625C54.6342 16.4279 54.6634 15.8093 54.7041 15.2009Z" fill="white"/>
<path d="M90.1626 75.9673H40.8338C40.3535 75.9673 39.9648 76.3588 39.9648 76.8392C39.9648 77.321 40.3549 77.711 40.8338 77.711H90.1626C90.6429 77.711 91.0315 77.321 91.0315 76.8392C91.0315 76.3588 90.6429 75.9673 90.1626 75.9673Z" fill="white"/>
<path d="M65.4993 60.0887C66.3619 60.0887 67.0611 59.3895 67.0611 58.5269C67.0611 57.6643 66.3619 56.9651 65.4993 56.9651C64.6367 56.9651 63.9375 57.6643 63.9375 58.5269C63.9375 59.3895 64.6367 60.0887 65.4993 60.0887Z" fill="white"/>
</svg>
