<svg width="81" height="81" viewBox="0 0 81 81" fill="none" xmlns="http://www.w3.org/2000/svg">
<path d="M5.28994 40.5004C5.28994 24.9889 15.7508 11.3905 30.7291 7.43229C31.3882 7.25774 32.0638 7.65113 32.2375 8.31025C32.4121 8.96938 32.0187 9.645 31.3596 9.81868C17.4633 13.492 7.75882 26.1083 7.75882 40.5004C7.75882 49.9887 11.9558 58.9037 19.2731 64.9592C19.7984 65.3942 19.8714 66.1723 19.4372 66.6968C19.1932 66.9921 18.8406 67.1441 18.4854 67.1441C18.2084 67.1441 17.9296 67.0512 17.6995 66.861C9.81261 60.3349 5.28994 50.7268 5.28994 40.5004ZM73.6927 40.5004C73.6927 31.482 70.213 22.9716 63.8954 16.5376C58.222 10.76 50.8354 7.24124 42.8651 6.46402L47.0361 3.20748C47.5736 2.78804 47.6691 2.01255 47.2497 1.47501C46.8303 0.937464 46.0539 0.841939 45.5172 1.26138L38.7324 6.55954C38.4328 6.79314 38.2573 7.15267 38.2573 7.53216C38.2573 7.91165 38.4328 8.27118 38.7324 8.50478L45.5172 13.8029C45.743 13.9792 46.0105 14.0643 46.2762 14.0643C46.6436 14.0643 47.0065 13.9011 47.2497 13.5893C47.6691 13.0518 47.5736 12.2763 47.0369 11.8568L43.387 9.00672C59.008 10.9502 71.2247 24.4418 71.2247 40.5004C71.2247 57.998 56.9898 72.2338 39.4913 72.2338H2.23401C1.55231 72.2338 1 72.7861 1 73.4678C1 74.1495 1.55231 74.7018 2.23401 74.7018H39.4913C48.627 74.7018 57.2156 71.144 63.6757 64.6839C70.1357 58.2246 73.6927 49.6361 73.6927 40.5004ZM79.525 72.4952L72.7401 67.197C72.2026 66.7767 71.4271 66.8731 71.0076 67.4098C70.5882 67.9473 70.6837 68.7228 71.2204 69.1423L75.1786 72.2338H61.6201C60.9384 72.2338 60.3861 72.7861 60.3861 73.4678C60.3861 74.1495 60.9384 74.7018 61.6201 74.7018H75.1795L71.2213 77.7925C70.6837 78.2119 70.5882 78.9874 71.0076 79.525C71.2508 79.8367 71.6146 80 71.9811 80C72.2468 80 72.5143 79.9149 72.7401 79.7386L79.525 74.4404C79.8246 74.2068 80 73.8473 80 73.4678C80 73.0875 79.8246 72.7288 79.525 72.4952ZM20.8692 28.4547L39.8821 17.4772C40.2642 17.2566 40.7349 17.2566 41.1161 17.4772L60.1291 28.4547C60.5112 28.6753 60.7465 29.0826 60.7465 29.5237V51.478C60.7465 51.9191 60.5112 52.3264 60.1291 52.547L41.117 63.5237C40.926 63.634 40.7132 63.6895 40.4996 63.6895C40.2859 63.6895 40.0732 63.634 39.8821 63.5237L20.8692 52.547C20.4871 52.3264 20.2518 51.9191 20.2518 51.478V29.5237C20.2526 29.0826 20.4871 28.6753 20.8692 28.4547ZM22.7206 50.765L39.2647 60.3166V41.2134L22.7206 31.6618V50.765ZM58.2776 50.765V31.6618L41.7336 41.2134V60.3166L58.2776 50.765ZM23.9555 29.5237L40.4996 39.0754L57.0436 29.5237L40.4996 19.9721L23.9555 29.5237Z" fill="white" stroke="white" stroke-width="2"/>
</svg>
