<svg width="107" height="78" viewBox="0 0 107 78" fill="none" xmlns="http://www.w3.org/2000/svg">
<path d="M48.9525 39.1368C50.3017 39.8362 51.9648 39.3103 52.6641 37.9611C56.7832 30.0314 58.851 26.0499 62.1854 24.3373C65.7097 22.5256 71.5387 22.5256 83.1497 22.5256C89.2044 22.5256 93.5796 22.5256 96.7267 22.7789C100.144 23.0542 100.956 23.5801 101.11 23.7123C101.143 23.8803 101.19 24.6264 100.279 26.8484C99.403 28.9851 97.9272 31.8266 96.0604 35.4225C92.2827 42.697 90.2012 46.7059 87.3211 48.592C84.4824 50.4533 80.0935 50.792 71.3266 50.847C69.8068 50.858 68.5815 52.0971 68.5898 53.6169C68.6008 55.1313 69.8288 56.3538 71.3432 56.3538H71.3597C80.2559 56.296 85.9747 56.0565 90.3361 53.1984C94.4194 50.5221 96.7377 46.0616 100.945 37.9611C105.631 28.9383 107.983 24.4089 105.821 20.8543C104.263 18.2881 100.887 17.6411 97.7895 17.3465C94.3671 17.0188 89.6615 17.0188 83.147 17.0188C70.6493 17.0188 64.3743 17.0188 59.666 19.439C54.7705 21.9556 52.2842 26.7383 47.7741 35.4225C47.072 36.7717 47.5979 38.4347 48.9498 39.1341L48.9525 39.1368Z" fill="white"/>
<path d="M26.2741 32.5286C35.2419 32.5286 42.5384 25.2321 42.5384 16.2643C42.5384 7.2965 35.2419 0 26.2741 0C17.3063 0 10.0098 7.2965 10.0098 16.2643C10.0098 25.2321 17.3063 32.5286 26.2741 32.5286ZM26.2741 5.50404C32.2049 5.50404 37.0316 10.3307 37.0316 16.2616C37.0316 22.1924 32.2049 27.0191 26.2741 27.0191C20.3433 27.0191 15.5166 22.1924 15.5166 16.2616C15.5166 10.3307 20.3433 5.50404 26.2741 5.50404Z" fill="white"/>
<path d="M101.394 61.1365H61.3595C60.8115 56.6512 59.801 53.2232 57.0284 51.1004C54.3961 49.0876 50.7589 48.6994 45.376 48.7159C44.7344 48.7159 43.9525 48.6994 43.3495 48.6719L36.4412 42.0582C36.4137 42.0307 36.3834 42.0059 36.3559 41.9784L32.4956 38.5862C32.3965 38.5008 32.2946 38.421 32.1845 38.3494C27.6469 35.384 21.1186 34.7617 16.4378 34.7617C12.5114 34.7617 8.57408 36.0531 5.6362 38.3053C0.977455 41.8765 0 46.6812 0 50.0816V68.1356C0 70.4595 0.0110143 72.899 0.0770958 74.9916C0.126657 76.4812 1.34916 77.6569 2.82774 77.6569C2.85803 77.6569 2.88831 77.6569 2.9186 77.6569C4.43848 77.6073 5.6307 76.3353 5.58114 74.8154C5.51505 72.8027 5.50679 70.4182 5.50679 68.1384V50.0844C5.50679 42.3225 12.6546 40.2713 16.435 40.2713C21.8868 40.2713 26.3417 41.1909 29.0153 42.8622L32.6746 46.0782L40.2464 53.3279C40.6622 53.7244 41.1881 53.9832 41.758 54.063C42.8181 54.2145 44.9575 54.2227 45.3842 54.2227C49.3712 54.2117 52.3063 54.4182 53.683 55.4728C54.7127 56.2602 55.3681 57.9921 55.8114 61.1558L42.6116 61.332L41.4056 61.3017L40.2684 61.0043C38.3245 60.3187 35.885 58.463 31.8871 54.6357L25.3065 48.336C24.2079 47.2842 22.465 47.3227 21.4132 48.4213C20.3614 49.5199 20.3999 51.2628 21.4985 52.3146L27.3715 57.9371V68.1411C27.3715 70.5283 27.3715 72.5906 27.3385 74.3611C27.3109 75.8809 28.5197 77.1365 30.0396 77.1668C30.0561 77.1668 30.0754 77.1668 30.0919 77.1668C31.5897 77.1668 32.815 75.9691 32.8425 74.4657C32.8756 72.6457 32.8756 70.5586 32.8756 68.1439V62.8932C35.0783 64.6498 36.8322 65.6631 38.5861 66.2551C38.6467 66.2743 38.7073 66.2936 38.7706 66.3101L40.318 66.7149C40.5217 66.7672 40.7338 66.7975 40.943 66.803L42.5207 66.8443C42.5565 66.8443 42.5923 66.8443 42.6281 66.8443L58.3858 66.6323C58.4822 66.6433 58.5813 66.6488 58.6832 66.6488H101.394C102.914 66.6488 104.147 65.4153 104.147 63.8954C104.147 62.3755 102.914 61.142 101.394 61.142V61.1365Z" fill="white"/>
</svg>
