<svg width="525" height="472" viewBox="0 0 525 472" fill="none" xmlns="http://www.w3.org/2000/svg">
<path d="M131.114 56.7576C141.515 46.3561 141.515 29.492 131.114 19.0906C120.712 8.68912 103.848 8.68913 93.4468 19.0906C83.0453 29.492 83.0453 46.3561 93.4468 56.7576C103.848 67.159 120.712 67.159 131.114 56.7576Z" fill="white"/>
<g opacity="0.07">
<path d="M131.114 56.7576C141.515 46.3561 141.515 29.492 131.114 19.0906C120.712 8.68912 103.848 8.68913 93.4468 19.0906C83.0453 29.492 83.0453 46.3561 93.4468 56.7576C103.848 67.159 120.712 67.159 131.114 56.7576Z" fill="#3337CB"/>
</g>
<path d="M32.8171 337.834C43.044 333.885 48.1335 322.393 44.1848 312.166C40.2361 301.939 28.7445 296.85 18.5175 300.798C8.29058 304.747 3.20106 316.239 7.14976 326.466C11.0985 336.693 22.5901 341.782 32.8171 337.834Z" fill="white"/>
<g opacity="0.07">
<path d="M32.8171 337.834C43.044 333.885 48.1335 322.393 44.1848 312.166C40.2361 301.939 28.7445 296.85 18.5175 300.798C8.29058 304.747 3.20106 316.239 7.14976 326.466C11.0985 336.693 22.5901 341.782 32.8171 337.834Z" fill="#3337CB"/>
</g>
<path d="M341.88 117.14C351.776 107.245 351.776 91.2006 341.88 81.305C331.984 71.4093 315.94 71.4093 306.045 81.305C296.149 91.2006 296.149 107.245 306.045 117.14C315.94 127.036 331.984 127.036 341.88 117.14Z" fill="white"/>
<g opacity="0.07">
<path d="M341.88 117.14C351.776 107.245 351.776 91.2006 341.88 81.305C331.984 71.4093 315.94 71.4093 306.045 81.305C296.149 91.2006 296.149 107.245 306.045 117.14C315.94 127.036 331.984 127.036 341.88 117.14Z" fill="#3337CB"/>
</g>
<g opacity="0.5">
<path d="M79.5029 92.9696C77.5602 92.8288 75.5894 92.5191 73.6748 92.0123L73.9564 90.8579C75.8146 91.3366 77.701 91.6181 79.5874 91.7589L79.5029 92.9696ZM85.4155 92.8851L85.3029 91.7026C87.1893 91.5055 89.0757 91.1395 90.9058 90.6327L91.2437 91.787C89.3291 92.322 87.3582 92.688 85.4155 92.8851ZM68.0719 90.0977C66.27 89.2812 64.5244 88.324 62.9195 87.2259L63.5952 86.2405C65.1719 87.3104 66.8331 88.2395 68.5787 88.9997L68.0719 90.0977ZM96.7339 89.6754L96.2271 88.6055C97.9446 87.789 99.5776 86.8036 101.126 85.6774L101.83 86.6347C100.225 87.789 98.5077 88.8026 96.7339 89.6754ZM58.3302 83.4813C56.9224 82.1017 55.6273 80.6094 54.4729 79.0046L55.4302 78.3007C56.5564 79.8492 57.7953 81.2852 59.1749 82.6085L58.3302 83.4813ZM106.279 82.7774L105.434 81.9609C106.757 80.6094 107.968 79.1172 109.038 77.5405L110.023 78.2162C108.925 79.8211 107.658 81.3696 106.279 82.7774ZM51.4322 73.9366C50.5594 72.1629 49.8555 70.3046 49.3205 68.4182L50.4749 68.0804C51.0098 69.9104 51.6856 71.6842 52.5021 73.4017L51.4322 73.9366ZM112.895 73.0357L111.825 72.557C112.585 70.8396 113.233 69.0095 113.683 67.1794L114.866 67.3483L114.838 67.4891C114.359 69.3755 113.712 71.2337 112.895 73.0357ZM48.1943 62.6182C48.0817 61.4639 48.0254 60.3095 48.0254 59.1552C48.0254 58.3387 48.0535 57.5222 48.1099 56.7057L49.2924 56.7901C49.2361 57.5785 49.2079 58.3668 49.2079 59.1552C49.2079 60.2814 49.2642 61.3794 49.3768 62.5056L48.1943 62.6182ZM115.795 61.492L114.612 61.4076C114.669 60.6474 114.697 59.859 114.697 59.0988C114.697 57.9726 114.641 56.8183 114.528 55.6921L115.711 55.5794C115.823 56.7338 115.908 57.9445 115.908 59.0988C115.879 59.8872 115.851 60.7037 115.795 61.492ZM50.2215 51.1028L49.0671 50.8775L49.0953 50.7931C49.5739 48.9348 50.2215 47.0766 51.0098 45.3028L52.1079 45.7814C51.2914 47.4989 50.672 49.2727 50.2215 51.1028ZM113.43 50.1173C112.895 48.2872 112.219 46.5135 111.375 44.796L112.445 44.2892C113.317 46.063 114.021 47.9212 114.556 49.8076L113.43 50.1173ZM54.839 40.798L53.8535 40.1222C54.9516 38.4892 56.2186 36.9407 57.57 35.5329L58.4147 36.3494C57.0914 37.729 55.8807 39.2213 54.839 40.798ZM108.446 39.897C107.32 38.3484 106.081 36.9125 104.702 35.5892L105.518 34.7446C106.926 36.1242 108.221 37.6164 109.404 39.2213L108.446 39.897ZM62.7506 32.6329L62.0467 31.6757C63.6515 30.5213 65.3409 29.5077 67.1146 28.6349L67.6214 29.7048C65.9321 30.5213 64.271 31.5067 62.7506 32.6329ZM100.281 32.0135C98.7048 30.9436 97.0436 30.0145 95.298 29.2543L95.7766 28.1563C97.5786 28.9446 99.3242 29.93 100.957 31.0281L100.281 32.0135ZM72.9709 27.6495L72.6331 26.4951C74.5195 25.9601 76.4903 25.566 78.433 25.3689L78.5456 26.5514C76.6592 26.7767 74.7729 27.1427 72.9709 27.6495ZM89.8922 27.3679C88.034 26.9174 86.1476 26.6077 84.2612 26.4669L84.3456 25.2844C86.2883 25.4252 88.2592 25.7349 90.1738 26.2135L89.8922 27.3679Z" fill="#3337CB"/>
</g>
<g opacity="0.5">
<path d="M238.042 155.7L237.985 154.517C239.928 154.433 241.871 154.236 243.785 153.926L243.982 155.108C242.04 155.39 240.041 155.615 238.042 155.7ZM232.073 155.615C230.102 155.474 228.103 155.193 226.16 154.827L226.385 153.672C228.3 154.038 230.243 154.292 232.185 154.433L232.073 155.615ZM249.839 153.785L249.501 152.631C251.359 152.096 253.217 151.448 255.019 150.716L255.47 151.814C253.64 152.574 251.725 153.25 249.839 153.785ZM220.36 153.363C218.474 152.771 216.587 152.068 214.757 151.251L215.236 150.153C217.01 150.941 218.84 151.645 220.698 152.208L220.36 153.363ZM260.847 149.224L260.256 148.182C261.945 147.225 263.607 146.183 265.183 145.057L265.887 146.014C264.282 147.169 262.593 148.239 260.847 149.224ZM209.436 148.492C207.718 147.478 206.057 146.352 204.481 145.141L205.213 144.212C206.761 145.395 208.394 146.493 210.055 147.478L209.436 148.492ZM270.533 142.241L269.744 141.369C271.18 140.045 272.56 138.638 273.827 137.174L274.728 137.962C273.405 139.454 271.997 140.89 270.533 142.241ZM199.976 141.228C198.54 139.848 197.188 138.356 195.95 136.807L196.879 136.047C198.118 137.54 199.441 139.004 200.82 140.355L199.976 141.228ZM278.332 133.204L277.346 132.528C278.444 130.923 279.43 129.234 280.331 127.516L281.372 128.051C280.5 129.825 279.458 131.571 278.332 133.204ZM192.43 131.965C191.36 130.275 190.375 128.53 189.502 126.756L190.572 126.249C191.417 127.995 192.374 129.712 193.416 131.345L192.43 131.965ZM283.85 122.617L282.752 122.195C283.428 120.393 284.019 118.507 284.498 116.62L284.526 116.451L285.68 116.733L285.624 116.902C285.173 118.844 284.554 120.759 283.85 122.617ZM187.221 121.238C186.574 119.351 186.011 117.437 185.588 115.494L186.743 115.241C187.165 117.127 187.7 119.013 188.348 120.843L187.221 121.238ZM286.806 110.877L285.624 110.736C285.877 108.821 286.018 106.85 286.046 104.908L287.229 104.936C287.201 106.878 287.06 108.878 286.806 110.877ZM184.631 109.581C184.462 107.836 184.35 106.062 184.35 104.345V103.612L185.532 103.641V104.345C185.532 106.034 185.617 107.779 185.786 109.469L184.631 109.581ZM285.765 99.0513C285.568 97.1086 285.23 95.1941 284.807 93.2795L285.962 93.0261C286.412 94.9688 286.722 96.9397 286.919 98.9106L285.765 99.0513ZM185.954 97.8125L184.772 97.6717C185.025 95.7009 185.42 93.73 185.898 91.7873L187.053 92.0688C186.574 93.9552 186.208 95.8979 185.954 97.8125ZM283.203 87.6766C282.555 85.8465 281.795 84.0164 280.95 82.299L282.02 81.7922C282.893 83.566 283.653 85.4242 284.329 87.3106L283.203 87.6766ZM188.798 86.4941L187.7 86.0718C188.404 84.2135 189.22 82.3834 190.121 80.6097L191.163 81.1446C190.29 82.8902 189.502 84.664 188.798 86.4941ZM278.106 77.2029C277.065 75.5699 275.91 73.9932 274.672 72.4728L275.601 71.7126C276.868 73.2612 278.05 74.8942 279.12 76.5553L278.106 77.2029ZM194.176 76.133L193.19 75.4573C194.288 73.8243 195.527 72.2194 196.822 70.699L197.723 71.4874C196.456 72.9796 195.246 74.5281 194.176 76.133ZM270.73 68.1651C269.35 66.8136 267.858 65.5466 266.309 64.3641L267.041 63.435C268.618 64.6457 270.139 65.969 271.574 67.3486L270.73 68.1651ZM201.778 67.2922L200.961 66.4194C202.425 65.068 203.974 63.801 205.607 62.6466L206.311 63.6039C204.734 64.7583 203.214 65.9971 201.778 67.2922ZM261.439 61.0981C259.777 60.1127 258.032 59.2117 256.258 58.4234L256.737 57.3253C258.567 58.1418 260.341 59.0709 262.058 60.0845L261.439 61.0981ZM211.238 60.4787L210.647 59.4369C212.392 58.4797 214.194 57.5787 216.024 56.8185L216.475 57.9166C214.701 58.6486 212.927 59.5214 211.238 60.4787ZM250.796 56.3399C249.923 56.0583 249.022 55.8049 248.121 55.5797C247.136 55.3263 246.122 55.101 245.137 54.9321L245.362 53.7777C246.376 53.9748 247.417 54.2001 248.403 54.4535C249.332 54.6787 250.261 54.9603 251.162 55.2418L250.796 56.3399ZM221.993 55.9739L221.655 54.8195C223.57 54.2845 225.513 53.8341 227.483 53.5243L227.68 54.7069C225.766 55.0166 223.851 55.4389 221.993 55.9739ZM239.337 54.1719C237.394 54.0311 235.423 54.003 233.509 54.0875L233.452 52.9049C235.423 52.8205 237.45 52.8486 239.421 52.9894L239.337 54.1719Z" fill="#3337CB"/>
</g>
<g opacity="0.5">
<path d="M85.0803 382.969L85.024 381.786C86.9667 381.702 88.9095 381.505 90.824 381.195L91.0211 382.377C89.0784 382.659 87.0512 382.884 85.0803 382.969ZM79.1114 382.884C77.1406 382.743 75.1416 382.462 73.1707 382.096L73.3959 380.942C75.3105 381.308 77.2532 381.561 79.1959 381.702L79.1114 382.884ZM96.8774 381.054L96.5395 379.9C98.3978 379.365 100.256 378.717 102.058 377.985L102.508 379.083C100.678 379.843 98.7638 380.519 96.8774 381.054ZM67.3707 380.632C65.4562 380.041 63.5979 379.309 61.7678 378.52L62.2465 377.422C64.0202 378.21 65.8503 378.914 67.7086 379.477L67.3707 380.632ZM107.886 376.465L107.295 375.423C108.984 374.466 110.645 373.424 112.222 372.298L112.926 373.255C111.349 374.438 109.632 375.508 107.886 376.465ZM56.4465 375.761C54.729 374.747 53.0679 373.621 51.4912 372.41L52.2232 371.481C53.7717 372.664 55.4047 373.762 57.0659 374.776L56.4465 375.761ZM117.6 369.482L116.811 368.61C118.247 367.286 119.627 365.878 120.894 364.414L121.795 365.203C120.471 366.695 119.064 368.159 117.6 369.482ZM46.9863 368.469C45.5504 367.089 44.199 365.597 42.9601 364.048L43.8893 363.288C45.0999 364.78 46.4514 366.244 47.831 367.596L46.9863 368.469ZM125.399 360.444L124.413 359.769C125.511 358.164 126.525 356.475 127.398 354.757L128.439 355.292C127.567 357.066 126.525 358.811 125.399 360.444ZM39.4407 359.206C38.3708 357.545 37.3854 355.771 36.5126 353.997L37.5825 353.49C38.4271 355.236 39.3844 356.953 40.4262 358.586L39.4407 359.206ZM130.917 349.858L129.819 349.436C130.495 347.606 131.086 345.747 131.565 343.861L131.593 343.692L132.747 343.974L132.691 344.143C132.24 346.085 131.621 348 130.917 349.858ZM34.2039 348.479C33.5563 346.592 32.9932 344.678 32.5709 342.735L33.7252 342.481C34.1476 344.368 34.6825 346.254 35.3301 348.113L34.2039 348.479ZM133.873 338.089L132.691 337.948C132.944 336.006 133.085 334.063 133.113 332.12H134.296C134.268 334.119 134.127 336.118 133.873 338.089ZM31.6136 336.822C31.4447 335.077 31.332 333.303 31.332 331.557V330.825L32.5146 330.853V331.557C32.5146 333.275 32.599 334.992 32.7679 336.681L31.6136 336.822ZM132.832 326.264C132.635 324.349 132.325 322.407 131.874 320.492L133.029 320.239C133.479 322.182 133.789 324.181 134.014 326.151L132.832 326.264ZM32.965 325.025L31.7825 324.856C32.0359 322.885 32.4301 320.915 32.9087 318.972L34.0631 319.253C33.5845 321.168 33.2184 323.111 32.965 325.025ZM130.269 314.889C129.622 313.059 128.862 311.229 128.017 309.512L129.087 308.977C129.96 310.751 130.748 312.609 131.396 314.495L130.269 314.889ZM35.7806 313.707L34.6825 313.285C35.3864 311.426 36.2029 309.568 37.1039 307.822L38.1456 308.357C37.2728 310.103 36.4844 311.877 35.7806 313.707ZM125.173 304.416C124.132 302.783 122.977 301.178 121.738 299.686L122.668 298.925C123.935 300.474 125.117 302.079 126.187 303.768L125.173 304.416ZM41.1582 303.346L40.1728 302.67C41.299 301.009 42.5097 299.432 43.8048 297.912L44.7058 298.7C43.4388 300.164 42.2563 301.741 41.1582 303.346ZM117.769 295.378C116.361 294.026 114.897 292.731 113.348 291.549L114.08 290.591C115.657 291.802 117.177 293.125 118.613 294.505L117.769 295.378ZM48.7883 294.505L47.9718 293.632C49.4358 292.281 50.9844 291.014 52.6174 289.859L53.3213 290.817C51.7446 291.943 50.2242 293.21 48.7883 294.505ZM108.506 288.283C106.844 287.297 105.099 286.396 103.297 285.608L103.775 284.51C105.606 285.326 107.379 286.255 109.097 287.269L108.506 288.283ZM58.2484 287.663L57.6572 286.622C59.3746 285.664 61.2047 284.763 63.0348 284.003L63.4853 285.101C61.7115 285.861 59.9377 286.706 58.2484 287.663ZM97.8347 283.553C96.9619 283.271 96.0609 283.018 95.1599 282.792C94.1745 282.539 93.1609 282.314 92.1755 282.145L92.4007 280.99C93.4143 281.188 94.456 281.413 95.4696 281.666C96.3988 281.891 97.2997 282.145 98.2288 282.426L97.8347 283.553ZM69.0037 283.158L68.6659 282.004C70.5804 281.441 72.5513 281.019 74.494 280.681L74.6911 281.863C72.8047 282.201 70.8901 282.623 69.0037 283.158ZM86.3755 281.356C84.4328 281.216 82.4619 281.188 80.5192 281.272L80.4629 280.09C82.4338 280.005 84.4609 280.033 86.46 280.174L86.3755 281.356Z" fill="#3337CB"/>
</g>
<path d="M408.553 339.778H120.103C114.725 339.778 110.361 335.414 110.361 330.036V141.228C110.361 135.85 114.725 131.486 120.103 131.486H408.553C413.931 131.486 418.295 135.85 418.295 141.228V330.065C418.295 335.414 413.931 339.778 408.553 339.778Z" fill="white"/>
<path d="M408.552 340.961H120.102C114.077 340.961 109.178 336.062 109.178 330.037V141.228C109.178 135.202 114.077 130.303 120.102 130.303H408.552C414.577 130.303 419.476 135.202 419.476 141.228V330.065C419.476 336.062 414.577 340.961 408.552 340.961ZM120.102 132.669C115.372 132.669 111.543 136.498 111.543 141.228V330.065C111.543 334.795 115.372 338.624 120.102 338.624H408.552C413.282 338.624 417.111 334.795 417.111 330.065V141.228C417.111 136.498 413.282 132.669 408.552 132.669H120.102Z" fill="#C2C3EF"/>
<g opacity="0.1">
<path d="M305.364 285.861C285.036 310.581 248.547 314.157 223.827 293.857C199.106 273.557 195.531 237.04 215.831 212.32C227.036 198.692 243.141 191.485 259.499 191.175C259.809 210.433 260.119 229.691 260.457 248.95C260.935 248.499 261.386 248.02 261.864 247.542L260.626 249.062L305.364 285.861Z" fill="#3337CB"/>
</g>
<g opacity="0.4">
<path d="M316.032 286.255L271.266 249.485L308.036 204.718C332.757 225.018 336.332 261.535 316.032 286.255Z" fill="#3337CB"/>
</g>
<path d="M110.359 166.595C150.508 166.595 190.658 166.595 230.835 166.595C270.787 166.595 310.74 166.595 350.692 166.595C373.216 166.595 395.768 166.595 418.293 166.595C419.813 166.595 419.813 164.23 418.293 164.23C378.143 164.23 337.994 164.23 297.816 164.23C257.864 164.23 217.912 164.23 177.96 164.23C155.436 164.23 132.883 164.23 110.359 164.23C108.839 164.23 108.839 166.595 110.359 166.595Z" fill="#C2C3EF"/>
<path d="M345.765 148.351C345.765 151.138 343.513 153.391 340.725 153.391C337.938 153.391 335.686 151.138 335.686 148.351C335.686 145.563 337.938 143.311 340.725 143.311C343.513 143.311 345.765 145.563 345.765 148.351Z" fill="#C2C3EF"/>
<path d="M370.316 148.351C370.316 151.138 368.063 153.39 365.276 153.39C362.489 153.39 360.236 151.138 360.236 148.351C360.236 145.563 362.489 143.311 365.276 143.311C368.063 143.311 370.316 145.563 370.316 148.351Z" fill="#3337CB"/>
<path d="M394.867 148.351C394.867 151.138 392.614 153.391 389.827 153.391C387.04 153.391 384.787 151.138 384.787 148.351C384.787 145.563 387.04 143.311 389.827 143.311C392.614 143.311 394.867 145.563 394.867 148.351Z" fill="#3337CB"/>
<path d="M314.315 155.502H169.231C165.683 155.502 162.783 152.602 162.783 149.055V147.703C162.783 144.156 165.683 141.256 169.231 141.256H314.315C317.862 141.256 320.762 144.156 320.762 147.703V149.055C320.762 152.602 317.89 155.502 314.315 155.502ZM169.231 142.41C166.331 142.41 163.966 144.775 163.966 147.675V149.027C163.966 151.927 166.331 154.292 169.231 154.292H314.315C317.215 154.292 319.58 151.927 319.58 149.027V147.675C319.58 144.775 317.215 142.41 314.315 142.41H169.231Z" fill="#C2C3EF"/>
<path d="M199.782 218.373H17.0269C11.6492 218.373 7.28516 214.009 7.28516 208.631V91.3367C7.28516 85.959 11.6492 81.595 17.0269 81.595H199.782C205.16 81.595 209.524 85.959 209.524 91.3367V208.659C209.524 214.037 205.16 218.373 199.782 218.373Z" fill="white"/>
<path d="M199.779 219.584H17.0238C10.9986 219.584 6.09961 214.657 6.09961 208.631V91.3368C6.09961 85.3116 10.9986 80.4126 17.0238 80.4126H199.779C205.805 80.4126 210.704 85.3116 210.704 91.3368V208.66C210.704 214.657 205.805 219.584 199.779 219.584ZM17.0238 82.7776C12.2938 82.7776 8.46465 86.6067 8.46465 91.3368V208.66C8.46465 213.362 12.2938 217.219 17.0238 217.219H199.779C204.509 217.219 208.339 213.39 208.339 208.66V91.3368C208.339 86.6067 204.509 82.7776 199.779 82.7776H17.0238Z" fill="#C2C3EF"/>
<path d="M503.999 313.65H370.712C365.335 313.65 360.971 309.286 360.971 303.908V226.735C360.971 221.357 365.335 216.993 370.712 216.993H503.999C509.377 216.993 513.741 221.357 513.741 226.735V303.908C513.741 309.286 509.377 313.65 503.999 313.65Z" fill="white"/>
<path d="M503.998 314.833H370.711C364.686 314.833 359.787 309.934 359.787 303.909V226.735C359.787 220.71 364.686 215.811 370.711 215.811H503.998C510.023 215.811 514.922 220.71 514.922 226.735V303.909C514.922 309.934 510.023 314.833 503.998 314.833ZM370.711 218.176C365.981 218.176 362.152 222.005 362.152 226.735V303.909C362.152 308.639 365.981 312.468 370.711 312.468H503.998C508.728 312.468 512.557 308.639 512.557 303.909V226.735C512.557 222.005 508.728 218.176 503.998 218.176H370.711Z" fill="#C2C3EF"/>
<path d="M461.608 94.1276C478.937 76.7992 478.937 48.7043 461.608 31.3758C444.28 14.0474 416.185 14.0474 398.856 31.3758C381.528 48.7043 381.528 76.7992 398.856 94.1276C416.185 111.456 444.28 111.456 461.608 94.1276Z" fill="#263238"/>
<path d="M430.229 97.8121C428.089 97.8121 425.922 97.615 423.725 97.1927C404.721 93.617 392.163 75.2316 395.739 56.255C399.315 37.2502 417.7 24.693 436.677 28.2969C445.884 30.0425 453.851 35.2512 459.145 42.9657C464.438 50.7084 466.381 60.0278 464.635 69.2346C461.51 86.0432 446.756 97.8121 430.229 97.8121ZM430.201 30.0425C414.8 30.0425 401.032 40.9949 398.076 56.6773C394.754 74.387 406.438 91.5053 424.148 94.8558C441.857 98.1781 458.976 86.4937 462.326 68.7841C463.931 60.1967 462.129 51.4968 457.202 44.289C452.275 37.0813 444.842 32.2104 436.255 30.6056C434.227 30.2396 432.2 30.0425 430.201 30.0425Z" fill="white"/>
<path d="M444.618 72.6134C445.631 67.1794 443.97 62.5338 433.243 57.8037C427.274 55.1853 425.866 53.8057 426.373 51.1028C426.88 48.428 429.104 47.4144 432.342 47.9494L432.933 48.062C437.551 49.0756 438.367 51.8067 438.311 54.1999L446.701 55.7765C447.152 50.7931 444.899 45.4154 437.579 42.8251L438.733 36.6873L431.723 35.364L430.568 41.4455C423.361 41.1077 418.743 44.5989 417.645 50.4552C416.66 55.6639 418.546 59.9717 428.569 64.392C434.876 67.1794 436.481 68.8687 435.89 72.0221C435.383 74.725 433.271 76.1046 429.132 75.457L428.175 75.2881C424.036 74.3871 421.728 72.191 421.587 68.3056L413.197 66.7289C412.859 72.9794 415.984 78.1318 423.192 80.6095L422.094 86.4094L429.104 87.7327L430.174 81.9891C438.424 82.524 443.435 78.8357 444.618 72.6134Z" fill="white"/>
<path d="M513.643 157.471C518.004 144.09 510.693 129.708 497.313 125.347C483.932 120.986 469.55 128.298 465.189 141.678C460.828 155.058 468.14 169.44 481.52 173.801C494.9 178.162 509.282 170.851 513.643 157.471Z" fill="#263238"/>
<path d="M489.412 170.199C482.289 170.199 475.363 166.511 471.534 159.923C468.774 155.164 468.014 149.59 469.422 144.268C470.83 138.947 474.237 134.498 478.995 131.711C483.753 128.952 489.328 128.192 494.649 129.599C499.97 131.007 504.447 134.414 507.206 139.172C512.922 148.998 509.571 161.668 499.717 167.384C496.479 169.298 492.932 170.199 489.412 170.199ZM489.356 131.317C486.174 131.317 483.049 132.162 480.234 133.795C476.01 136.244 472.998 140.186 471.759 144.888C470.52 149.59 471.168 154.517 473.617 158.74C478.657 167.44 489.863 170.425 498.563 165.357C507.263 160.289 510.247 149.111 505.179 140.411C502.73 136.188 498.788 133.175 494.086 131.936C492.509 131.514 490.933 131.317 489.356 131.317Z" fill="white"/>
<path d="M490.513 159.529C493.244 157.924 494.652 155.474 492.681 149.027C491.583 145.451 491.667 144.325 493.019 143.536C494.37 142.748 495.637 143.339 496.623 144.944L496.792 145.254C498.087 147.647 497.214 149.027 496.144 149.9L498.594 154.151C500.931 152.462 502.423 149.477 500.818 145.338L503.915 143.536L501.86 139.989L498.791 141.763C496.229 138.497 492.991 137.793 490.034 139.51C487.416 141.031 486.234 143.452 488.064 149.477C489.218 153.25 489.077 154.601 487.501 155.502C486.121 156.291 484.741 155.897 483.474 153.869L483.193 153.391C482.038 151.251 482.123 149.421 483.756 147.901L481.306 143.649C478.463 145.845 477.393 149.139 479.026 153.194L476.098 154.883L478.153 158.431L481.053 156.741C483.868 160.57 487.36 161.359 490.513 159.529Z" fill="white"/>
<path d="M240.228 409.204C253.489 395.944 253.489 374.445 240.228 361.185C226.968 347.925 205.469 347.925 192.209 361.185C178.949 374.445 178.949 395.944 192.209 409.204C205.469 422.464 226.968 422.464 240.228 409.204Z" fill="#263238"/>
<path d="M216.278 412.278C207.156 412.278 198.231 407.66 193.107 399.326C185.308 386.572 189.334 369.848 202.06 362.049C214.814 354.25 231.539 358.276 239.338 371.002C247.137 383.756 243.11 400.48 230.384 408.279C225.964 411.011 221.093 412.278 216.278 412.278ZM216.194 360.444C211.689 360.444 207.269 361.683 203.327 364.104C197.696 367.539 193.726 373.001 192.206 379.42C190.657 385.84 191.699 392.484 195.162 398.115C202.285 409.744 217.545 413.404 229.174 406.309C234.805 402.874 238.774 397.412 240.295 390.992C241.843 384.573 240.802 377.928 237.339 372.297C233.904 366.666 228.442 362.696 222.022 361.176C220.079 360.697 218.109 360.444 216.194 360.444Z" fill="white"/>
<path d="M229.458 383.391C227.262 379.787 223.912 378.013 215.409 380.828C210.679 382.405 209.158 382.349 208.06 380.575C206.962 378.801 207.722 377.084 209.834 375.732L210.228 375.479C213.382 373.677 215.24 374.803 216.422 376.183L221.997 372.776C219.688 369.707 215.662 367.821 210.172 370.101L207.694 366.019L203.049 368.862L205.526 372.889C201.247 376.408 200.43 380.744 202.824 384.629C204.935 388.092 208.201 389.557 216.169 386.938C221.181 385.277 222.954 385.418 224.221 387.501C225.32 389.303 224.841 391.161 222.166 392.907L221.547 393.301C218.731 394.906 216.31 394.85 214.226 392.738L208.652 396.145C211.664 399.861 216.085 401.185 221.462 398.876L223.827 402.733L228.473 399.89L226.136 396.089C231.035 392.203 231.992 387.529 229.458 383.391Z" fill="white"/>
<g opacity="0.2">
<path d="M305.673 196.074L268.902 240.841C268.592 221.555 268.282 202.24 267.973 182.926C281.206 182.672 294.608 186.98 305.673 196.074Z" fill="#3337CB"/>
</g>
<g opacity="0.2">
<path d="M390.476 179.716H330.393V186.586H390.476V179.716Z" fill="#3337CB"/>
</g>
<g opacity="0.2">
<path d="M390.476 195.398H330.393V202.268H390.476V195.398Z" fill="#3337CB"/>
</g>
<g opacity="0.2">
<path d="M190.319 249.597H134.516V315.34H190.319V249.597Z" fill="#3337CB"/>
</g>
<path d="M181.172 262.211H143.641V266.856H181.172V262.211Z" fill="white"/>
<path d="M181.172 274.149H143.641V278.795H181.172V274.149Z" fill="white"/>
<path d="M181.172 286.115H143.641V290.76H181.172V286.115Z" fill="white"/>
<path d="M181.172 298.052H143.641V302.698H181.172V298.052Z" fill="white"/>
<g opacity="0.2">
<path d="M414.406 229.804H378.959V299.376H414.406V229.804Z" fill="#3337CB"/>
</g>
<path d="M410.103 237.265H383.609V260.437H410.103V237.265Z" fill="white"/>
<path d="M410.103 268.32H383.609V272.206H410.103V268.32Z" fill="white"/>
<path d="M409.959 277.555H383.465V281.441H409.959V277.555Z" fill="white"/>
<path d="M409.789 286.819H383.295V290.704H409.789V286.819Z" fill="white"/>
<g opacity="0.4">
<path d="M454.613 230.029H419.166V299.601H454.613V230.029Z" fill="#3337CB"/>
</g>
<path d="M450.309 237.49H423.814V260.662H450.309V237.49Z" fill="white"/>
<path d="M450.309 268.546H423.814V272.431H450.309V268.546Z" fill="white"/>
<path d="M450.135 277.781H423.641V281.666H450.135V277.781Z" fill="white"/>
<path d="M449.994 287.043H423.5V290.929H449.994V287.043Z" fill="white"/>
<g opacity="0.2">
<path d="M495.127 230.029H459.68V299.601H495.127V230.029Z" fill="#3337CB"/>
</g>
<path d="M490.793 237.49H464.299V260.662H490.793V237.49Z" fill="white"/>
<path d="M490.793 268.546H464.299V272.431H490.793V268.546Z" fill="white"/>
<path d="M490.652 277.781H464.158V281.666H490.652V277.781Z" fill="white"/>
<path d="M490.514 287.043H464.02V290.929H490.514V287.043Z" fill="white"/>
<g opacity="0.1">
<path d="M63.228 125.376H37.4941V99.6426H63.228V125.376ZM39.8873 122.983H60.8911V101.979H39.8873V122.983Z" fill="#3337CB"/>
</g>
<path d="M49.0408 119.464L43.7476 110.623C43.2408 109.807 43.5224 108.709 44.3389 108.23C45.1554 107.723 46.2534 108.005 46.7321 108.821L49.9418 114.143L67.4825 99.5302C68.2145 98.9108 69.3126 99.0234 69.932 99.7555C70.5514 100.488 70.4388 101.586 69.7067 102.205L49.0408 119.464Z" fill="white"/>
<g opacity="0.4">
<path d="M49.0408 119.464L43.7476 110.623C43.2408 109.807 43.5224 108.709 44.3389 108.23C45.1554 107.723 46.2534 108.005 46.7321 108.821L49.9418 114.143L67.4825 99.5302C68.2145 98.9108 69.3126 99.0234 69.932 99.7555C70.5514 100.488 70.4388 101.586 69.7067 102.205L49.0408 119.464Z" fill="#3337CB"/>
</g>
<g opacity="0.2">
<path d="M180.469 102.655H91.6113V109.272H180.469V102.655Z" fill="#3337CB"/>
</g>
<g opacity="0.2">
<path d="M180.469 115.691H91.6113V122.308H180.469V115.691Z" fill="#3337CB"/>
</g>
<g opacity="0.1">
<path d="M63.228 162.57H37.4941V136.836H63.228V162.57ZM39.8873 160.176H60.8911V139.173H39.8873V160.176Z" fill="#3337CB"/>
</g>
<path d="M49.0408 156.657L43.7476 147.845C43.2408 147.028 43.5224 145.93 44.3389 145.451C45.1554 144.945 46.2534 145.226 46.7321 146.043L49.9418 151.364L67.4825 136.751C68.2145 136.132 69.3126 136.245 69.932 136.977C70.5514 137.709 70.4388 138.807 69.7067 139.426L49.0408 156.657Z" fill="white"/>
<g opacity="0.4">
<path d="M49.0408 156.657L43.7476 147.845C43.2408 147.028 43.5224 145.93 44.3389 145.451C45.1554 144.945 46.2534 145.226 46.7321 146.043L49.9418 151.364L67.4825 136.751C68.2145 136.132 69.3126 136.245 69.932 136.977C70.5514 137.709 70.4388 138.807 69.7067 139.426L49.0408 156.657Z" fill="#3337CB"/>
</g>
<g opacity="0.2">
<path d="M180.469 139.848H91.6113V146.465H180.469V139.848Z" fill="#3337CB"/>
</g>
<g opacity="0.2">
<path d="M180.469 152.912H91.6113V159.529H180.469V152.912Z" fill="#3337CB"/>
</g>
<g opacity="0.1">
<path d="M63.228 199.762H37.4941V174.029H63.228V199.762ZM39.8873 197.397H60.8911V176.394H39.8873V197.397Z" fill="#3337CB"/>
</g>
<path d="M49.0408 193.85L43.7476 185.009C43.2408 184.192 43.5224 183.094 44.3389 182.616C45.1554 182.109 46.2534 182.39 46.7321 183.207L49.9418 188.528L67.4825 173.916C68.2145 173.296 69.3126 173.409 69.932 174.141C70.5514 174.873 70.4388 175.971 69.7067 176.59L49.0408 193.85Z" fill="white"/>
<g opacity="0.4">
<path d="M49.0408 193.85L43.7476 185.009C43.2408 184.192 43.5224 183.094 44.3389 182.616C45.1554 182.109 46.2534 182.39 46.7321 183.207L49.9418 188.528L67.4825 173.916C68.2145 173.296 69.3126 173.409 69.932 174.141C70.5514 174.873 70.4388 175.971 69.7067 176.59L49.0408 193.85Z" fill="#3337CB"/>
</g>
<g opacity="0.2">
<path d="M180.469 177.07H91.6113V183.686H180.469V177.07Z" fill="#3337CB"/>
</g>
<g opacity="0.2">
<path d="M180.469 190.105H91.6113V196.722H180.469V190.105Z" fill="#3337CB"/>
</g>
<path d="M199.36 207.646L205.639 201.368C206.709 200.298 206.709 198.552 205.639 197.482C204.569 196.412 202.823 196.412 201.753 197.482L195.475 203.761L195.447 203.733L187.929 211.25L188.52 206.154C188.689 204.634 187.619 203.282 186.099 203.085C184.579 202.916 183.227 203.986 183.03 205.507L181.622 217.529L179.342 219.809L192.181 232.648L205.076 219.753C206.821 218.008 206.821 215.164 205.076 213.39L199.36 207.646Z" fill="#FFC7AE"/>
<path d="M129.112 200.635C130.66 202.437 133.11 205.309 135.953 208.941C141.584 216.065 142.851 218.486 146.765 221.921C150.087 224.821 152.847 227.27 157.239 228.059C161.913 228.903 165.685 227.355 168.416 226.257C174.582 223.751 178.552 219.612 180.692 216.881C185.028 222.174 189.364 227.467 193.672 232.761C191.532 235.689 187.618 240.25 181.396 243.938C179.791 244.896 169.993 250.527 157.239 249.597C136.573 248.077 125.029 230.536 123.678 228.425C125.508 219.162 127.31 209.899 129.112 200.635Z" fill="#3337CB"/>
<g opacity="0.1">
<path d="M129.112 200.635C130.66 202.437 133.11 205.309 135.953 208.941C141.584 216.065 142.851 218.486 146.765 221.921C150.087 224.821 152.847 227.27 157.239 228.059C161.913 228.903 165.685 227.355 168.416 226.257C174.582 223.751 178.552 219.612 180.692 216.881C185.028 222.174 189.364 227.467 193.672 232.761C191.532 235.689 187.618 240.25 181.396 243.938C179.791 244.896 169.993 250.527 157.239 249.597C136.573 248.077 125.029 230.536 123.678 228.425C125.508 219.162 127.31 209.899 129.112 200.635Z" fill="white"/>
</g>
<path d="M70.83 444.741C78.1786 450.907 85.4989 457.073 92.8474 463.239C93.5795 464.056 94.396 465.154 95.0998 466.533C96.0571 468.364 96.5076 470.053 96.7047 471.32C82.0358 471.32 67.3669 471.32 52.6699 471.32C52.6699 461.86 52.6699 452.428 52.6699 442.968C58.7514 443.559 64.7767 444.15 70.83 444.741Z" fill="#263238"/>
<g opacity="0.3">
<path d="M70.83 444.741C78.1786 450.907 85.4989 457.073 92.8474 463.239C93.5795 464.056 94.396 465.154 95.0998 466.533C96.0571 468.364 96.5076 470.053 96.7047 471.32C82.0358 471.32 67.3669 471.32 52.6699 471.32C52.6699 461.86 52.6699 452.428 52.6699 442.968C58.7514 443.559 64.7767 444.15 70.83 444.741Z" fill="white"/>
</g>
<path d="M79.4759 451.724C76.9419 454.061 74.4361 456.369 71.9021 458.706C71.339 459.241 72.1555 460.029 72.7468 459.551C73.0284 459.326 73.3099 459.072 73.5915 458.847C74.1827 458.34 73.3381 457.524 72.7468 458.002C72.4653 458.227 72.1837 458.481 71.9021 458.706C72.1837 458.988 72.4653 459.269 72.7468 459.551C75.2808 457.214 77.7866 454.905 80.3206 452.568C80.8837 452.033 80.039 451.217 79.4759 451.724Z" fill="#3337CB"/>
<path d="M83.1631 455.3C80.7136 457.58 78.2641 459.833 75.8146 462.113C76.0962 462.395 76.3777 462.676 76.6593 462.958C76.9127 462.733 77.1661 462.507 77.3913 462.254C77.9544 461.719 77.1097 460.902 76.5466 461.409C76.2932 461.634 76.0398 461.86 75.8146 462.113C75.2515 462.648 76.0962 463.465 76.6593 462.958C79.1088 460.677 81.5583 458.425 84.0078 456.144C84.5427 455.637 83.6981 454.793 83.1631 455.3Z" fill="#3337CB"/>
<path d="M138.516 444.741C145.864 450.907 153.184 457.073 160.533 463.239C161.265 464.056 162.082 465.154 162.785 466.533C163.743 468.364 164.193 470.053 164.39 471.32C149.721 471.32 135.052 471.32 120.355 471.32C120.355 461.86 120.355 452.428 120.355 442.968C126.437 443.559 132.462 444.15 138.516 444.741Z" fill="#263238"/>
<g opacity="0.3">
<path d="M138.516 444.741C145.864 450.907 153.184 457.073 160.533 463.239C161.265 464.056 162.082 465.154 162.785 466.533C163.743 468.364 164.193 470.053 164.39 471.32C149.721 471.32 135.052 471.32 120.355 471.32C120.355 461.86 120.355 452.428 120.355 442.968C126.437 443.559 132.462 444.15 138.516 444.741Z" fill="white"/>
</g>
<path d="M147.159 451.724C144.626 454.061 142.12 456.369 139.586 458.706C139.023 459.241 139.839 460.029 140.43 459.551C140.712 459.326 140.994 459.072 141.275 458.847C141.866 458.34 141.022 457.524 140.43 458.002C140.149 458.227 139.867 458.481 139.586 458.706C139.867 458.988 140.149 459.269 140.43 459.551C142.964 457.214 145.47 454.905 148.004 452.568C148.567 452.033 147.723 451.217 147.159 451.724Z" fill="#3337CB"/>
<path d="M150.849 455.3C148.399 457.58 145.95 459.833 143.5 462.113C143.782 462.395 144.063 462.676 144.345 462.958C144.598 462.733 144.852 462.507 145.077 462.254C145.64 461.719 144.795 460.902 144.232 461.409C143.979 461.634 143.725 461.86 143.5 462.113C142.937 462.648 143.782 463.465 144.345 462.958C146.794 460.677 149.244 458.425 151.693 456.144C152.228 455.637 151.412 454.793 150.849 455.3Z" fill="#3337CB"/>
<path d="M100.815 182.251C99.5483 181.603 97.7745 180.618 95.86 179.097C93.6357 177.352 90.9046 175.184 89.1027 171.439C88.3425 169.834 86.0619 165.104 88.0328 160.064C88.9901 157.615 90.5668 156.038 91.5522 155.193C91.9464 153.645 92.8755 150.97 95.1561 148.605C98.9289 144.691 103.828 144.213 105.883 144.016C111.233 143.481 116.301 145.198 117.061 145.452C118.356 145.902 119.736 146.493 121.932 146.803C124.381 147.141 126.437 146.944 127.788 146.719C128.07 147.76 128.604 150.21 127.704 153.025C126.296 157.418 122.579 159.332 121.847 159.698C114.837 167.216 107.826 174.733 100.815 182.251Z" fill="#3337CB"/>
<path d="M124.183 157.98C124.239 160.12 124.323 163.358 124.464 168.539C124.549 172.171 124.549 176.422 122.493 179.857C122.409 179.97 122.353 180.082 122.296 180.167C122.071 180.505 119.819 183.714 115.792 185.038C110.218 186.868 103.376 184.277 98.7585 178.534C98.7585 176.169 98.7585 173.776 98.7585 171.411C98.0265 171.354 96.2809 171.129 94.8731 169.806C92.677 167.666 92.1702 163.443 94.5071 161.246C95.8304 159.979 98.0828 159.388 99.9974 160.261C102.25 161.275 103.545 164.062 102.785 166.849C104.39 164.71 105.966 162.57 107.571 160.458C109.57 160.627 111.991 160.655 114.694 160.374C118.58 159.895 121.79 158.91 124.183 157.98Z" fill="#FFC7AE"/>
<path d="M98.7412 194.228H110.566V178.349H98.7412V194.228Z" fill="#FFC7AE"/>
<path d="M123.873 161.753C121.507 162.119 119.48 164.034 118.945 166.342C118.861 166.652 119.03 166.99 119.368 167.074C119.677 167.159 120.015 166.962 120.1 166.652C120.325 165.667 120.832 164.85 121.592 164.146C121.958 163.808 122.324 163.555 122.803 163.33C123.197 163.133 123.704 162.964 124.21 162.879C124.52 162.823 124.689 162.429 124.633 162.147C124.492 161.838 124.182 161.697 123.873 161.753Z" fill="#3337CB"/>
<path d="M118.922 166.511C118.922 169.552 118.922 172.621 118.922 175.662C118.922 176.422 120.104 176.422 120.104 175.662C120.104 172.621 120.104 169.552 120.104 166.511C120.104 165.751 118.922 165.751 118.922 166.511Z" fill="#3337CB"/>
<path d="M115.766 164.681C114.78 163.02 112.978 161.978 111.064 161.866C110.754 161.838 110.473 162.147 110.473 162.457C110.473 162.795 110.754 163.02 111.064 163.048C111.796 163.076 112.528 163.33 113.176 163.724C113.542 163.949 113.739 164.09 114.048 164.4C114.358 164.709 114.527 164.935 114.752 165.301C114.921 165.582 115.287 165.667 115.569 165.526C115.822 165.329 115.935 164.963 115.766 164.681Z" fill="#3337CB"/>
<path d="M112.812 166.596C112.784 166.596 112.756 166.596 112.756 166.596C112.587 166.596 112.446 166.625 112.305 166.709C112.164 166.765 112.024 166.85 111.911 166.962C111.798 167.075 111.714 167.188 111.658 167.357C111.573 167.497 111.545 167.638 111.545 167.807C111.573 167.92 111.573 168.004 111.601 168.117C111.658 168.314 111.77 168.483 111.911 168.652C111.995 168.708 112.08 168.764 112.164 168.849C112.361 168.961 112.559 169.018 112.756 169.018C112.784 169.018 112.812 169.018 112.812 169.018C112.981 169.018 113.122 168.99 113.262 168.905C113.403 168.849 113.544 168.764 113.657 168.652C113.769 168.539 113.854 168.427 113.91 168.258C113.994 168.117 114.023 167.976 114.023 167.807C113.994 167.695 113.994 167.61 113.966 167.497C113.91 167.3 113.797 167.131 113.657 166.962C113.572 166.906 113.488 166.85 113.403 166.765C113.234 166.653 113.037 166.596 112.812 166.596Z" fill="#3337CB"/>
<path d="M122.294 166.596C122.266 166.596 122.238 166.596 122.238 166.596C122.069 166.596 121.928 166.624 121.788 166.709C121.647 166.765 121.506 166.85 121.393 166.962C121.281 167.075 121.196 167.187 121.14 167.356C121.055 167.497 121.027 167.638 121.027 167.807C121.055 167.92 121.055 168.004 121.084 168.117C121.14 168.314 121.253 168.483 121.393 168.652C121.478 168.708 121.562 168.764 121.647 168.849C121.844 168.961 122.041 169.018 122.238 169.018C122.266 169.018 122.294 169.018 122.294 169.018C122.463 169.018 122.604 168.989 122.745 168.905C122.886 168.849 123.026 168.764 123.139 168.652C123.252 168.539 123.336 168.426 123.392 168.257C123.477 168.117 123.505 167.976 123.505 167.807C123.477 167.694 123.477 167.61 123.449 167.497C123.392 167.3 123.28 167.131 123.139 166.962C123.055 166.906 122.97 166.85 122.886 166.765C122.717 166.653 122.52 166.596 122.294 166.596Z" fill="#3337CB"/>
<path d="M108.64 174.395C110.667 175.577 112.666 176.788 114.694 177.971C115.341 178.365 115.961 177.323 115.285 176.957C113.258 175.775 111.259 174.564 109.231 173.381C108.556 172.987 107.964 174.029 108.64 174.395Z" fill="#3337CB"/>
<path d="M108.248 173.578C107.46 175.183 107.713 177.126 108.839 178.534C109.966 179.941 111.88 180.392 113.541 179.885C114.527 179.575 115.343 178.984 115.934 178.168C116.132 177.914 115.991 177.52 115.709 177.351C115.399 177.182 115.09 177.295 114.893 177.576C113.935 178.9 111.908 179.322 110.5 178.505C109.093 177.661 108.53 175.662 109.233 174.198C109.628 173.494 108.586 172.903 108.248 173.578Z" fill="#3337CB"/>
<path d="M152.201 369.849C149.441 396.061 146.654 422.274 143.895 448.486C142.065 449.472 138.489 451.02 133.787 450.992C126.27 450.964 121.174 446.853 119.738 445.586C121.399 424.413 123.088 403.241 124.777 382.096C115.402 359.121 106.026 336.147 96.6222 313.172C90.4844 358.502 84.3465 403.86 78.2369 449.19C76.1534 450.232 71.2825 452.259 64.8913 451.724C57.7962 451.133 52.9816 447.726 51.1797 446.318C54.6146 395.076 58.0214 343.833 61.4563 292.591C61.5127 291.633 61.5971 290.704 61.6534 289.747C62.0194 286.734 62.3855 283.75 62.7515 280.737C66.1583 252.526 67.1155 230.593 70.3815 198.834C72.5777 197.539 79.3631 193.512 84.0368 191.992C88.6543 190.472 103.633 185.601 118.302 192.696C120.892 193.963 124.975 196.3 129.141 200.636C129.254 232.001 130.099 266.603 130.211 297.968V298.053C137.757 323.083 144.627 344.819 152.201 369.849Z" fill="#3337CB"/>
<g opacity="0.2">
<path d="M152.201 369.849C149.441 396.061 146.654 422.274 143.895 448.486C142.065 449.472 138.489 451.02 133.787 450.992C126.27 450.964 121.174 446.853 119.738 445.586C121.399 424.413 123.088 403.241 124.777 382.096C115.402 359.121 106.026 336.147 96.6222 313.172C90.4844 358.502 84.3465 403.86 78.2369 449.19C76.1534 450.232 71.2825 452.259 64.8913 451.724C57.7962 451.133 52.9816 447.726 51.1797 446.318C54.6146 395.076 58.0214 343.833 61.4563 292.591C61.5127 291.633 61.5971 290.704 61.6534 289.747C62.0194 286.734 62.3855 283.75 62.7515 280.737C66.1583 252.526 67.1155 230.593 70.3815 198.834C72.5777 197.539 79.3631 193.512 84.0368 191.992C88.6543 190.472 103.633 185.601 118.302 192.696C120.892 193.963 124.975 196.3 129.141 200.636C129.254 232.001 130.099 266.603 130.211 297.968V298.053C137.757 323.083 144.627 344.819 152.201 369.849Z" fill="white"/>
</g>
<path d="M130.181 297.996C126.07 298.588 121.678 299.066 117.004 299.348C108.67 299.855 99.4916 299.77 89.6936 298.644C84.6257 298.053 79.3607 297.208 73.983 295.997C69.5626 295.012 65.3957 293.858 61.4258 292.619C61.4821 291.661 61.5666 290.732 61.6229 289.775C61.9889 286.762 62.3549 283.778 62.7209 280.765C66.1277 252.554 67.085 230.621 70.351 198.862C72.5471 197.567 79.3325 193.541 84.0063 192.02C85.2451 191.626 87.1878 190.978 89.6936 190.387C92.2276 189.768 95.2965 189.233 98.7314 189.064C102.476 188.839 106.643 189.064 110.923 190.106C112.95 190.584 115.005 191.26 117.032 192.161C117.455 192.358 117.877 192.527 118.299 192.752C120.89 194.019 124.972 196.356 129.139 200.692C129.224 232.001 130.068 266.631 130.181 297.996Z" fill="#263238"/>
<path d="M89.6936 190.359V298.616C84.6257 298.025 79.3607 297.18 73.983 295.969C69.5626 294.984 65.3957 293.83 61.4258 292.591C61.4821 291.633 61.5666 290.704 61.6229 289.747C61.9889 286.734 62.3549 283.75 62.7209 280.737C66.1277 252.526 67.085 230.593 70.351 198.834C72.5471 197.539 79.3325 193.513 84.0063 191.992C85.2451 191.57 87.1878 190.95 89.6936 190.359Z" fill="#3337CB"/>
<path d="M130.183 297.997C126.072 298.588 121.68 299.066 117.006 299.348V192.105C117.428 192.302 117.851 192.471 118.273 192.696C120.863 193.963 124.946 196.3 129.113 200.636C129.225 232.001 130.07 266.632 130.183 297.997Z" fill="#3337CB"/>
<g opacity="0.4">
<path d="M89.6936 190.359V298.616C84.6257 298.025 79.3607 297.18 73.983 295.969C69.5626 294.984 65.3957 293.83 61.4258 292.591C61.4821 291.633 61.5666 290.704 61.6229 289.747C61.9889 286.734 62.3549 283.75 62.7209 280.737C66.1277 252.526 67.085 230.593 70.351 198.834C72.5471 197.539 79.3325 193.513 84.0063 191.992C85.2451 191.57 87.1878 190.95 89.6936 190.359Z" fill="white"/>
</g>
<g opacity="0.4">
<path d="M130.183 297.997C126.072 298.588 121.68 299.066 117.006 299.348V192.105C117.428 192.302 117.851 192.471 118.273 192.696C120.863 193.963 124.946 196.3 129.113 200.636C129.225 232.001 130.07 266.632 130.183 297.997Z" fill="white"/>
</g>
<path d="M117.932 231.184L114.413 226.735C113.118 225.074 110.696 224.821 109.063 226.116L100.42 232.958L101.461 228.087C101.771 226.679 100.87 225.271 99.4623 224.99C98.0545 224.68 96.6468 225.581 96.3652 226.989L93.972 238.082L92.0293 239.63L93.8312 241.911C93.972 242.136 94.1409 242.361 94.338 242.559L103.432 254.046L116.524 243.685C120.325 240.588 120.973 235.013 117.932 231.184Z" fill="#FFC7AE"/>
<path d="M70.3527 198.834C68.3256 200.748 65.4256 203.648 62.3566 207.506C52.6994 219.612 49.0392 231.156 46.6742 238.899C42.3101 253.145 43.549 258.889 43.9713 260.55C44.5907 263.056 45.8014 268.011 49.912 271.362C56.3033 276.598 65.5663 274.599 72.6333 272.995C87.809 269.475 99.0147 261.029 106.194 254.018C101.858 247.965 97.5225 241.939 93.2148 235.886C85.2187 243.713 78.9119 247.064 75.3644 248.612C73.675 249.344 71.676 250.048 70.3527 249.147C67.9877 247.514 69.3391 241.686 70.2119 239.124C71.5634 235.21 73.9284 232.592 75.477 231.156C76.3498 228.988 77.5323 225.581 78.1799 221.273C78.9401 216.121 79.7566 210.574 76.8284 205.309C75.0265 202.072 72.4081 200.044 70.3527 198.834Z" fill="#3337CB"/>
<g opacity="0.1">
<path d="M70.3527 198.834C68.3256 200.748 65.4256 203.648 62.3566 207.506C52.6994 219.612 49.0392 231.156 46.6742 238.899C42.3101 253.145 43.549 258.889 43.9713 260.55C44.5907 263.056 45.8014 268.011 49.912 271.362C56.3033 276.598 65.5663 274.599 72.6333 272.995C87.809 269.475 99.0147 261.029 106.194 254.018C101.858 247.965 97.5225 241.939 93.2148 235.886C85.2187 243.713 78.9119 247.064 75.3644 248.612C73.675 249.344 71.676 250.048 70.3527 249.147C67.9877 247.514 69.3391 241.686 70.2119 239.124C71.5634 235.21 73.9284 232.592 75.477 231.156C76.3498 228.988 77.5323 225.581 78.1799 221.273C78.9401 216.121 79.7566 210.574 76.8284 205.309C75.0265 202.072 72.4081 200.044 70.3527 198.834Z" fill="white"/>
</g>
<path d="M110.894 190.049C109.008 192.161 106.558 193.372 104.278 193.006C102.617 192.752 101.322 191.682 100.618 191.119C99.8012 190.444 99.1818 189.711 98.7031 189.036C102.476 188.811 106.615 189.008 110.894 190.049Z" fill="#FFC7AE"/>
<path d="M129.985 298.419C129.956 287.692 129.956 276.965 129.928 266.209C129.928 265.646 129.027 265.646 129.027 266.209C129.055 276.937 129.055 287.664 129.084 298.419C129.084 298.982 129.985 298.982 129.985 298.419Z" fill="#3337CB"/>
<path d="M89.3281 204.718C89.3281 216.233 89.3281 227.721 89.3281 239.236C89.3281 239.799 90.2291 239.799 90.2291 239.236C90.2291 227.721 90.2291 216.233 90.2291 204.718C90.2291 204.155 89.3281 204.155 89.3281 204.718Z" fill="#3337CB"/>
<path d="M88.7945 364.33C87.4993 374.297 86.2042 384.264 84.8809 394.259C83.5857 404.282 82.2624 414.305 80.9673 424.329C80.2353 429.96 79.5032 435.563 78.7712 441.194C78.6867 441.757 79.5877 441.757 79.6722 441.194C80.9673 431.227 82.2625 421.26 83.5858 411.265C84.8809 401.241 86.2042 391.218 87.4993 381.195C88.2314 375.564 88.9634 369.961 89.6954 364.33C89.7517 363.767 88.8789 363.767 88.7945 364.33Z" fill="#3337CB"/>
<path d="M134.94 315.452C138.431 327.334 141.922 339.243 145.413 351.125C146.399 354.532 147.412 357.91 148.398 361.317C148.567 361.852 149.411 361.627 149.242 361.092C145.751 349.21 142.26 337.301 138.769 325.419C137.783 322.012 136.77 318.634 135.784 315.227C135.643 314.664 134.771 314.889 134.94 315.452Z" fill="#3337CB"/>
<path d="M70.4067 199.903C78.1212 194.695 86.9056 191.203 96.0842 189.711C96.6473 189.627 96.4221 188.754 95.859 188.838C86.5959 190.359 77.727 193.878 69.9562 199.115C69.4776 199.453 69.928 200.241 70.4067 199.903Z" fill="#3337CB"/>
<path d="M52.2486 468.054C52.2486 462.113 52.2486 456.144 52.2486 450.203C52.2486 449.64 51.3477 449.64 51.3477 450.203C51.3477 456.144 51.3477 462.113 51.3477 468.054C51.3758 468.617 52.2486 468.617 52.2486 468.054Z" fill="#3337CB"/>
<path d="M120.355 446.937C120.355 452.343 120.355 457.749 120.355 463.183C120.355 463.746 121.256 463.746 121.256 463.183C121.256 457.777 121.256 452.371 121.256 446.937C121.256 446.374 120.355 446.374 120.355 446.937Z" fill="#3337CB"/>
<path d="M198.963 208.603C200.877 210.659 202.764 212.742 204.678 214.798C205.073 215.22 205.692 214.6 205.298 214.178C203.383 212.123 201.497 210.039 199.582 207.984C199.216 207.562 198.569 208.181 198.963 208.603Z" fill="#3337CB"/>
<path d="M356.522 324.321H289.795L273.408 268.321H340.136L356.522 324.321Z" fill="white"/>
<g opacity="0.5">
<path d="M340.136 268.321L356.522 324.321H289.795L273.408 268.321" fill="#3337CB"/>
</g>
<path d="M289.203 324.265L272.619 267.701H340.586L356.634 322.238L289.203 324.265ZM274.196 268.912L290.075 323.054L355.058 321.112L339.713 268.912H274.196Z" fill="#3337CB"/>
<path d="M449.119 387.417C449.119 397.299 449.119 407.21 449.119 417.093C449.119 427.031 449.119 436.97 449.119 446.937C449.119 452.54 449.119 458.115 449.119 463.718C449.119 465.998 452.695 466.026 452.695 463.718C452.695 453.835 452.695 443.924 452.695 434.042C452.695 424.103 452.695 414.164 452.695 404.197C452.695 398.595 452.695 393.02 452.695 387.417C452.667 385.136 449.119 385.136 449.119 387.417Z" fill="white"/>
<g opacity="0.9">
<path d="M449.119 387.417C449.119 397.299 449.119 407.21 449.119 417.093C449.119 427.031 449.119 436.97 449.119 446.937C449.119 452.54 449.119 458.115 449.119 463.718C449.119 465.998 452.695 466.026 452.695 463.718C452.695 453.835 452.695 443.924 452.695 434.042C452.695 424.103 452.695 414.164 452.695 404.197C452.695 398.595 452.695 393.02 452.695 387.417C452.667 385.136 449.119 385.136 449.119 387.417Z" fill="#3337CB"/>
</g>
<path d="M481.332 391.866H420.488C420.488 385.756 425.444 380.801 431.553 380.801H470.239C476.376 380.773 481.332 385.728 481.332 391.866Z" fill="white"/>
<g opacity="0.3">
<path d="M481.332 391.866H420.488C420.488 385.756 425.444 380.801 431.553 380.801H470.239C476.376 380.773 481.332 385.728 481.332 391.866Z" fill="#3337CB"/>
</g>
<path d="M469.649 463.183H432.146V468.842H469.649V463.183Z" fill="white"/>
<g opacity="0.3">
<path d="M469.649 463.183H432.146V468.842H469.649V463.183Z" fill="#3337CB"/>
</g>
<path d="M335.494 325.476C335.494 344.058 335.494 362.641 335.494 381.223C335.494 399.693 335.494 418.191 335.494 436.661C335.494 447.05 335.494 457.411 335.494 467.8C335.494 470.081 339.07 470.109 339.07 467.8C339.07 449.218 339.07 430.635 339.07 412.053C339.07 393.583 339.07 375.085 339.07 356.615C339.07 346.226 339.07 335.865 339.07 325.476C339.042 323.167 335.494 323.167 335.494 325.476Z" fill="white"/>
<g opacity="0.9">
<path d="M335.494 325.476C335.494 344.058 335.494 362.641 335.494 381.223C335.494 399.693 335.494 418.191 335.494 436.661C335.494 447.05 335.494 457.411 335.494 467.8C335.494 470.081 339.07 470.109 339.07 467.8C339.07 449.218 339.07 430.635 339.07 412.053C339.07 393.583 339.07 375.085 339.07 356.615C339.07 346.226 339.07 335.865 339.07 325.476C339.042 323.167 335.494 323.167 335.494 325.476Z" fill="#3337CB"/>
</g>
<path d="M407.599 319.309H267.949V329.248H407.599V319.309Z" fill="white"/>
<g opacity="0.3">
<path d="M407.599 319.309H267.949V329.248H407.599V319.309Z" fill="#3337CB"/>
</g>
<path d="M427.078 245.233C427.388 246.022 428.176 248.274 427.359 250.78C427.134 251.484 426.768 252.61 425.727 253.483C424.009 254.975 422.376 254.046 420.461 255.116C418.04 256.439 417.449 259.621 417.336 260.127C416.689 263.619 418.631 267.448 422.207 269.728C430.569 269.672 437.664 264.435 439.663 257.284C441.859 249.428 436.876 242.868 436.285 242.136C433.216 243.15 430.147 244.192 427.078 245.233Z" fill="#3337CB"/>
<path d="M426.007 234.196C425.191 232.901 422.459 228.312 423.67 222.822C425.557 214.206 435.383 211.503 436.847 211.109C438.592 210.631 445.941 208.603 451.825 213.08C452.726 213.756 455.429 215.839 456.527 219.387C457.682 223.244 457.316 225.553 459.061 228.622C460.497 231.156 461.708 231.972 462.299 232.197C465.593 233.493 466.86 231.831 470.042 232.929C472.604 233.802 474.941 235.914 475.983 238.532C477.362 241.939 476.264 245.346 475.814 246.838C474.941 249.541 473.984 249.794 473.843 251.878C473.702 253.877 474.35 256.552 476.18 258.185C478.488 260.24 480.487 258.776 483.387 260.662C486.71 262.802 487.442 266.885 487.526 267.391C488.343 272.178 485.246 275.951 483.725 277.809C482.993 278.682 477.982 284.594 469.648 284.735C467.902 284.763 459.906 284.876 456.105 278.794C454.5 276.204 456.274 273.98 454.585 269.419C453.599 266.716 452.248 265.083 451.572 264.182C445.434 255.763 450.22 244.163 445.181 237.913C442.9 235.013 437.889 232.479 426.007 234.196Z" fill="#3337CB"/>
<path d="M427.079 222.653C427.192 223.244 427.896 227.327 425.109 230.762C422.912 233.436 419.984 234.056 419.168 234.196C418.971 235.379 418.605 238.729 420.407 242.305C420.716 242.953 422.293 245.881 425.812 247.908C428.938 249.682 431.922 249.766 433.217 249.71C437.187 249.569 439.946 247.739 440.96 247.007C440.96 244.839 440.96 242.671 440.96 240.503C441.692 240.813 443.128 241.292 444.93 241.066C445.549 240.982 449.069 240.503 450.279 237.519C451.18 235.266 450.505 232.254 448.196 230.79C445.803 229.269 442.424 229.917 440.622 232.423C439.243 232.113 437.638 231.634 435.92 230.79C431.106 228.396 428.375 224.708 427.079 222.653Z" fill="#FFC7AE"/>
<path d="M440.989 238.42H431.613V260.437H440.989V238.42Z" fill="#FFC7AE"/>
<path d="M425.983 228.932C427.194 228.509 428.545 228.566 429.671 229.129C429.953 229.27 430.319 229.213 430.488 228.904C430.629 228.65 430.572 228.228 430.263 228.087C428.827 227.383 427.165 227.271 425.645 227.777C425.335 227.89 425.138 228.171 425.223 228.509C425.335 228.819 425.673 229.044 425.983 228.932Z" fill="#3337CB"/>
<path d="M421.953 241.46C422.685 242.418 423.784 243.037 424.994 243.009C426.205 242.981 427.303 242.361 428.007 241.376C428.204 241.122 428.063 240.728 427.782 240.559C427.472 240.39 427.162 240.503 426.965 240.785C426.036 242.108 423.952 242.192 422.967 240.869C422.77 240.616 422.46 240.475 422.151 240.644C421.925 240.813 421.785 241.207 421.953 241.46Z" fill="#3337CB"/>
<path d="M426.743 233.38C428.264 233.38 428.264 231.015 426.743 231.015C425.195 231.015 425.195 233.38 426.743 233.38Z" fill="#3337CB"/>
<path d="M350.327 436.604C342.049 444.094 333.771 451.583 325.494 459.072C324.677 460.058 323.748 461.381 322.932 463.07C321.834 465.323 321.355 467.35 321.102 468.87C337.657 468.87 354.212 468.87 370.767 468.87C370.767 457.383 370.767 445.895 370.767 434.436C363.954 435.14 357.14 435.872 350.327 436.604Z" fill="#3337CB"/>
<g opacity="0.3">
<path d="M350.327 436.604C342.049 444.094 333.771 451.583 325.494 459.072C324.677 460.058 323.748 461.381 322.932 463.07C321.834 465.323 321.355 467.35 321.102 468.87C337.657 468.87 354.212 468.87 370.767 468.87C370.767 457.383 370.767 445.895 370.767 434.436C363.954 435.14 357.14 435.872 350.327 436.604Z" fill="white"/>
</g>
<path d="M382.088 354.476C371.473 382.011 360.859 409.547 350.244 437.083C350.526 438.322 351.736 442.714 355.931 445.53C360.239 448.43 366.039 448.514 370.966 445.811C381.722 417.937 392.477 390.064 403.204 362.19C396.165 359.628 389.126 357.066 382.088 354.476Z" fill="#FFC7AE"/>
<path d="M339.686 446.008C342.529 448.852 345.373 451.667 348.217 454.511C348.498 454.229 348.78 453.948 349.061 453.666C348.752 453.385 348.442 453.103 348.104 452.793C347.541 452.287 346.696 453.131 347.259 453.638C347.569 453.92 347.879 454.201 348.217 454.511C348.78 455.018 349.596 454.201 349.061 453.666C346.218 450.822 343.374 448.007 340.53 445.163C339.967 444.628 339.123 445.473 339.686 446.008Z" fill="#3337CB"/>
<path d="M335.547 450.372C338.306 453.131 341.065 455.891 343.825 458.65C344.36 459.185 345.204 458.34 344.669 457.805C344.388 457.524 344.106 457.242 343.825 456.96C343.29 456.426 342.445 457.27 342.98 457.805C343.262 458.087 343.543 458.368 343.825 458.65C344.106 458.368 344.388 458.087 344.669 457.805C341.91 455.046 339.151 452.287 336.392 449.527C335.829 448.964 334.984 449.809 335.547 450.372Z" fill="#3337CB"/>
<path d="M466.947 341.778C467.285 343.27 467.651 345.044 467.96 347.043C468.017 347.353 468.326 349.239 468.551 351.435C469.452 359.516 470.156 363.57 468.918 367.315C467.087 372.72 463.23 375.817 462.076 376.69C457.402 380.182 452.334 380.576 450.166 380.773C440.762 381.617 425.699 384.011 405.427 387.502C401.795 386.263 395.348 383.504 389.548 377.394C380.285 367.681 378.99 356.137 378.736 352.505C391.491 350.196 404.217 347.916 416.971 345.607C433.639 344.34 450.307 343.045 466.947 341.778Z" fill="#263238"/>
<path d="M466.946 341.777L455.318 342.678L427.359 344.818L415.591 345.719L411.086 286.903C410.41 278.034 414.295 269.897 420.743 264.773C422.714 263.196 424.938 261.901 427.359 260.972C429.668 260.043 432.174 259.451 434.792 259.254C435.468 259.198 436.116 259.17 436.763 259.17C450.109 259.17 461.371 269.447 462.413 282.961L466.946 341.777Z" fill="#263238"/>
<path d="M466.946 341.777L455.318 342.678L420.771 344.818V264.773C422.742 263.196 424.967 261.901 427.388 260.972C429.697 260.043 432.202 259.451 434.821 259.254C435.497 259.198 436.144 259.17 436.792 259.17C450.137 259.17 461.399 269.447 462.441 282.961L466.946 341.777Z" fill="#3337CB"/>
<g opacity="0.4">
<path d="M466.946 341.777L455.318 342.678L420.771 344.818V264.773C422.742 263.196 424.967 261.901 427.388 260.972C429.697 260.043 432.202 259.451 434.821 259.254C435.497 259.198 436.144 259.17 436.792 259.17C450.137 259.17 461.399 269.447 462.441 282.961L466.946 341.777Z" fill="white"/>
</g>
<path d="M429.811 292.45C418.633 307.456 399.206 316.044 390.478 319.31H323.131C325.862 316.297 328.593 313.313 331.296 310.3C332.394 309.737 334.168 308.949 336.448 308.414C339.236 307.766 341.46 307.851 342.136 307.879C348.555 308.076 354.974 307.006 361.394 306.781C366.884 306.584 380.511 304.979 392.731 296.786C402.303 290.366 410.694 280.09 413.143 275.951C414.466 273.755 415.283 272.769 416.944 270.826C419.928 267.279 421.421 266.547 422.209 266.209C422.688 266.012 425.137 265.027 427.615 265.674C432.373 266.913 434.485 273.501 434.907 277.781C435.527 283.637 432.683 288.592 429.811 292.45Z" fill="#FFC7AE"/>
<path d="M444.422 267.025C446.984 266.321 449.687 266.941 452.108 267.251C454.445 267.56 456.697 268.264 457.908 270.01C460.161 264.097 462.441 258.185 464.694 252.272C459.091 248.218 453.516 244.163 447.913 240.109C447.209 240.419 446.111 240.813 444.732 240.925C443.099 241.066 441.775 240.756 440.959 240.503C440.959 242.418 441.043 243.516 440.396 245.121C439.72 246.81 439.1 246.838 437.608 248.921C437.383 249.259 436.144 251.005 435.581 253.511C435.412 254.215 434.821 257.171 435.975 260.69C436.595 262.52 437.496 265.223 439.889 266.518C441.325 267.222 442.338 267.025 444.422 267.025Z" fill="#3337CB"/>
<path d="M420.014 303.458C420.014 315.48 420.014 327.503 420.014 339.525C420.014 340.285 421.196 340.285 421.196 339.525C421.196 327.503 421.196 315.48 421.196 303.458C421.196 302.698 420.014 302.698 420.014 303.458Z" fill="#3337CB"/>
<path d="M365.421 307.71C376.767 306.612 387.72 302.276 396.757 295.321C399.291 293.379 401.656 291.211 403.852 288.874C404.387 288.311 403.543 287.466 403.008 288.029C395.378 296.166 385.439 302.022 374.656 304.866C371.615 305.654 368.518 306.217 365.421 306.527C364.66 306.583 364.632 307.766 365.421 307.71Z" fill="#3337CB"/>
<path d="M371.106 445.98C375.527 434.408 379.975 422.808 384.396 411.236C385.663 407.914 386.93 404.62 388.197 401.298C388.478 400.594 387.324 400.284 387.042 400.988C382.622 412.56 378.173 424.16 373.753 435.731C372.486 439.054 371.219 442.348 369.952 445.67C369.671 446.374 370.825 446.684 371.106 445.98Z" fill="#3337CB"/>
<path d="M7.28303 469.461C74.6022 469.461 141.921 469.461 209.24 469.461C276.222 469.461 343.203 469.461 410.184 469.461C447.969 469.461 485.753 469.461 523.537 469.461C524.297 469.461 524.297 468.279 523.537 468.279C456.218 468.279 388.899 468.279 321.58 468.279C254.598 468.279 187.617 468.279 120.636 468.279C82.8516 468.279 45.0673 468.279 7.28303 468.279C6.52284 468.279 6.52284 469.461 7.28303 469.461Z" fill="#3337CB"/>
</svg>
