<svg width="53" height="53" viewBox="0 0 53 53" fill="none" xmlns="http://www.w3.org/2000/svg">
<path d="M41.3115 53H0.407692C0.182546 53 0 52.8177 0 52.5923V0.407692C0 0.182347 0.182546 0 0.407692 0H31.3475C31.4556 0 31.5593 0.0429988 31.6358 0.119441L41.5997 10.0836C41.6762 10.1601 41.7192 10.2636 41.7192 10.3719V52.5923C41.7192 52.8177 41.5366 53 41.3115 53ZM0.815385 52.1846H40.9038V10.5407L31.1787 0.815385H0.815385V52.1846Z" fill="#2C4AE9"/>
<path d="M41.3129 10.9173H31.3489C31.1238 10.9173 30.9412 10.735 30.9412 10.5096V0.545459C30.9412 0.38063 31.0406 0.231727 31.1928 0.168821C31.3449 0.104323 31.5205 0.140155 31.6372 0.257208L41.6011 10.2214C41.7178 10.338 41.7526 10.5132 41.6895 10.6657C41.6264 10.8182 41.4777 10.9173 41.3129 10.9173ZM31.7566 10.1019H40.3287L31.7566 1.52965V10.1019Z" fill="#2C4AE9"/>
<path d="M16.7649 27.36H13.9969C13.7984 27.36 13.6286 27.217 13.5952 27.0212L13.0479 23.8353C12.2638 23.6278 11.5121 23.3161 10.8072 22.9052L8.16557 24.7725C8.00372 24.8871 7.78216 24.8684 7.64201 24.7279L5.68477 22.7703C5.54443 22.6297 5.52552 22.4087 5.64018 22.2467L7.50725 19.6055C7.09677 18.9008 6.78463 18.1491 6.5772 17.3643L3.39111 16.8173C3.19542 16.7839 3.05249 16.6143 3.05249 16.4156V13.6473C3.05249 13.4487 3.19542 13.2791 3.39111 13.2456L6.5772 12.6986C6.78463 11.9143 7.09657 11.1626 7.50725 10.4579L5.64018 7.81623C5.52552 7.65419 5.54443 7.43322 5.68477 7.29268L7.64201 5.33544C7.78216 5.19489 8.00313 5.17618 8.16557 5.29084L10.8072 7.15811C11.5121 6.74723 12.2638 6.43549 13.0479 6.22806L13.5952 3.04177C13.6286 2.84588 13.7984 2.70295 13.9969 2.70295H16.7649C16.9634 2.70295 17.1332 2.84588 17.1666 3.04177L17.7139 6.22806C18.4982 6.43549 19.2499 6.74723 19.9548 7.15811L22.5962 5.29084C22.7581 5.17618 22.9798 5.19489 23.1198 5.33544L25.0772 7.29268C25.2176 7.43282 25.2365 7.65419 25.1218 7.81623L23.2548 10.4579C23.6654 11.163 23.9774 11.9146 24.1848 12.6986L27.3709 13.2456C27.5666 13.2791 27.7095 13.4487 27.7095 13.6473V16.4156C27.7095 16.6143 27.5666 16.7839 27.3709 16.8173L24.1848 17.3643C23.9774 18.1487 23.6654 18.9004 23.2548 19.6055L25.1218 22.2471C25.2365 22.4091 25.2176 22.6305 25.0772 22.7707L23.1198 24.7279C22.9798 24.8684 22.7581 24.8871 22.5962 24.7725L19.9548 22.9052C19.2499 23.3161 18.4982 23.6278 17.7139 23.8353L17.1666 27.0212C17.1332 27.217 16.9634 27.36 16.7649 27.36ZM14.3405 26.5446H16.4213L16.9554 23.4351C16.9831 23.2735 17.1051 23.1441 17.2648 23.1071C18.1455 22.902 18.9839 22.5541 19.7571 22.0727C19.8963 21.9851 20.0738 21.9907 20.208 22.0859L22.7864 23.9085L24.2577 22.437L22.4352 19.8587C22.3404 19.7249 22.3353 19.5469 22.4221 19.408C22.9036 18.6344 23.2516 17.7959 23.4562 16.9153C23.4934 16.7556 23.6226 16.6334 23.7843 16.6059L26.8941 16.072V13.9909L23.7843 13.457C23.6226 13.4296 23.4934 13.3073 23.4562 13.1477C23.2516 12.2674 22.9036 11.4289 22.4221 10.6553C22.3353 10.5164 22.3404 10.3384 22.4352 10.2047L24.2577 7.62632L22.7864 6.1548L20.208 7.97747C20.0738 8.07183 19.8963 8.0774 19.7571 7.99061C18.9839 7.50926 18.1455 7.16129 17.2648 6.95625C17.1051 6.91922 16.9831 6.78983 16.9554 6.62819L16.4213 3.51834H14.3405L13.8064 6.62819C13.7787 6.78983 13.6567 6.91922 13.497 6.95625C12.6165 7.16089 11.7781 7.50887 11.0049 7.99061C10.8655 8.0774 10.6878 8.07183 10.554 7.97747L7.97565 6.1548L6.50434 7.62632L8.32681 10.2047C8.42157 10.3384 8.42674 10.5164 8.33995 10.6557C7.8584 11.4285 7.51043 12.267 7.30579 13.1477C7.26856 13.3073 7.13937 13.4296 6.97772 13.457L3.86787 13.9909V16.072L6.97772 16.6059C7.13937 16.6334 7.26856 16.7556 7.30579 16.9153C7.51063 17.7963 7.8586 18.6352 8.33995 19.4076C8.42674 19.5469 8.42157 19.7249 8.32681 19.8587L6.50434 22.4366L7.97565 23.9085L10.554 22.0859C10.6878 21.9907 10.8655 21.9851 11.0049 22.0727C11.7781 22.5545 12.6165 22.9024 13.497 23.1071C13.6567 23.1441 13.7787 23.2735 13.8064 23.4351L14.3405 26.5446Z" fill="#2C4AE9"/>
<path d="M15.3811 20.4172C12.4112 20.4172 9.99506 18.0013 9.99506 15.0316C9.99506 12.0619 12.4112 9.64561 15.3811 9.64561C18.3508 9.64561 20.7669 12.0619 20.7669 15.0316C20.7669 18.0013 18.3508 20.4172 15.3811 20.4172ZM15.3811 10.461C12.8608 10.461 10.8104 12.5114 10.8104 15.0316C10.8104 17.5518 12.8608 19.6018 15.3811 19.6018C17.9013 19.6018 19.9515 17.5518 19.9515 15.0316C19.9515 12.5114 17.9013 10.461 15.3811 10.461Z" fill="#2C4AE9"/>
<path d="M11.5657 49.5764H3.12833C2.90319 49.5764 2.72064 49.3941 2.72064 49.1687V40.7314C2.72064 40.5061 2.90319 40.3237 3.12833 40.3237H11.5657C11.7908 40.3237 11.9733 40.5061 11.9733 40.7314V49.1687C11.9733 49.3941 11.7908 49.5764 11.5657 49.5764ZM3.53603 48.761H11.158V41.1391H3.53603V48.761Z" fill="#2C4AE9"/>
<path d="M6.34311 46.8766C6.2388 46.8766 6.13449 46.8368 6.05486 46.7572L4.71075 45.4135C4.55149 45.2542 4.55149 44.9962 4.71075 44.837C4.87 44.6777 5.128 44.6777 5.28725 44.837L6.34311 45.8924L9.40678 42.8288C9.56603 42.6695 9.82402 42.6695 9.98328 42.8288C10.1425 42.988 10.1425 43.246 9.98328 43.4053L6.63136 46.7572C6.55174 46.8368 6.44742 46.8766 6.34311 46.8766Z" fill="#2C4AE9"/>
<path d="M38.5906 42.7798H14.2157C13.9905 42.7798 13.808 42.5975 13.808 42.3721C13.808 42.1468 13.9905 41.9644 14.2157 41.9644H38.5906C38.8158 41.9644 38.9983 42.1468 38.9983 42.3721C38.9983 42.5975 38.8158 42.7798 38.5906 42.7798Z" fill="#2C4AE9"/>
<path d="M32.1231 47.9356H14.2157C13.9905 47.9356 13.808 47.7533 13.808 47.528C13.808 47.3026 13.9905 47.1203 14.2157 47.1203H32.1231C32.3482 47.1203 32.5308 47.3026 32.5308 47.528C32.5308 47.7533 32.3482 47.9356 32.1231 47.9356Z" fill="#2C4AE9"/>
<path d="M11.5657 37.9361H3.12833C2.90319 37.9361 2.72064 37.7537 2.72064 37.5284V29.0911C2.72064 28.8657 2.90319 28.6834 3.12833 28.6834H11.5657C11.7908 28.6834 11.9733 28.8657 11.9733 29.0911V37.5284C11.9733 37.7537 11.7908 37.9361 11.5657 37.9361ZM3.53603 37.1207H11.158V29.4988H3.53603V37.1207Z" fill="#2C4AE9"/>
<path d="M5.67106 35.2364C5.56675 35.2364 5.46244 35.1965 5.38281 35.1169C5.22355 34.9577 5.22355 34.6997 5.38281 34.5404L8.73472 31.1885C8.89398 31.0292 9.15197 31.0292 9.31123 31.1885C9.47048 31.3478 9.47048 31.6057 9.31123 31.765L5.95931 35.1169C5.87968 35.1965 5.77537 35.2364 5.67106 35.2364Z" fill="#2C4AE9"/>
<path d="M9.02297 35.2364C8.91866 35.2364 8.81435 35.1965 8.73472 35.1169L5.38281 31.765C5.22355 31.6057 5.22355 31.3478 5.38281 31.1885C5.54206 31.0292 5.80006 31.0292 5.95931 31.1885L9.31123 34.5404C9.47048 34.6997 9.47048 34.9577 9.31123 35.1169C9.2316 35.1965 9.12729 35.2364 9.02297 35.2364Z" fill="#2C4AE9"/>
<path d="M38.5906 31.1395H14.2157C13.9905 31.1395 13.808 30.9572 13.808 30.7318C13.808 30.5065 13.9905 30.3241 14.2157 30.3241H38.5906C38.8158 30.3241 38.9983 30.5065 38.9983 30.7318C38.9983 30.9572 38.8158 31.1395 38.5906 31.1395Z" fill="#2C4AE9"/>
<path d="M32.1231 36.2954H14.2157C13.9905 36.2954 13.808 36.1131 13.808 35.8877C13.808 35.6624 13.9905 35.48 14.2157 35.48H32.1231C32.3482 35.48 32.5308 35.6624 32.5308 35.8877C32.5308 36.1131 32.3482 36.2954 32.1231 36.2954Z" fill="#2C4AE9"/>
<path d="M52.5922 43.8397H52.5909L44.9345 43.8142C44.7099 43.8134 44.5284 43.631 44.5282 43.4065L44.5154 14.9433C44.5192 13.8158 44.9635 12.7583 45.7668 11.9648C46.5696 11.1725 47.644 10.7445 48.7654 10.7413C49.8963 10.7449 50.9583 11.1865 51.7556 11.9847C52.5534 12.7834 52.991 13.8436 52.9872 14.9696L52.9999 43.432C52.9999 43.5403 52.9569 43.6442 52.8801 43.7206C52.8037 43.7971 52.7001 43.8397 52.5922 43.8397ZM45.3434 43L52.1844 43.0231L52.1718 14.9684C52.1748 14.0594 51.8221 13.205 51.1787 12.5608C50.5347 11.9162 49.6767 11.5595 48.7626 11.5567C48.7586 11.5567 48.7546 11.5567 48.7506 11.5567C47.8409 11.5567 46.9853 11.9075 46.3399 12.5449C45.6921 13.1847 45.3338 14.0371 45.3308 14.9445L45.3434 43Z" fill="#2C4AE9"/>
<path d="M48.7338 53H48.7324C48.5679 52.9996 48.4198 52.9001 48.3569 52.748L44.5591 43.5622C44.5071 43.4364 44.5215 43.2926 44.5973 43.1792C44.6732 43.0665 44.8002 42.9988 44.9359 42.9988H44.9373L52.5937 43.0243C52.7301 43.0247 52.8571 43.0932 52.9323 43.207C53.0076 43.3209 53.0209 43.4646 52.9679 43.5904L49.1094 52.7508C49.0459 52.9017 48.8978 53 48.7338 53ZM45.5465 43.8162L48.7373 51.5337L51.979 43.8377L45.5465 43.8162Z" fill="#2C4AE9"/>
<path d="M52.564 18.4003C52.5156 18.4003 52.4663 18.3915 52.4185 18.3736C49.5993 17.2959 47.8777 17.2907 45.0506 18.3489C44.8404 18.4278 44.6051 18.3211 44.5258 18.1101C44.4468 17.899 44.5539 17.6641 44.7647 17.5853C47.7758 16.4578 49.7068 16.4646 52.7095 17.6116C52.92 17.692 53.0253 17.9277 52.9448 18.1383C52.8827 18.3008 52.7281 18.4003 52.564 18.4003Z" fill="#2C4AE9"/>
<path d="M48.764 43.8142C48.539 43.8142 48.3565 43.6318 48.3563 43.4069L48.3308 17.1486C48.3306 16.9232 48.513 16.7409 48.7381 16.7405C48.7379 16.7405 48.7383 16.7405 48.7381 16.7405C48.9631 16.7405 49.146 16.9228 49.1462 17.1478L49.1717 43.4061C49.1719 43.6314 48.9891 43.8138 48.764 43.8142C48.7642 43.8142 48.7638 43.8142 48.764 43.8142Z" fill="#2C4AE9"/>
<path d="M49.9911 50.0116H49.9897L47.4947 50.0032C47.2696 50.0024 47.0876 49.8193 47.0884 49.5943C47.0892 49.3694 47.2716 49.1878 47.4961 49.1878H47.4975L49.9925 49.1962C50.2176 49.197 50.3995 49.3801 50.3988 49.6051C50.398 49.83 50.2156 50.0116 49.9911 50.0116Z" fill="#2C4AE9"/>
</svg>
