<svg width="39" height="34" viewBox="0 0 39 34" fill="none" xmlns="http://www.w3.org/2000/svg">
<path d="M35.7007 0H23.3801C23.2301 0 23.0862 0.059592 22.9802 0.165666C22.8741 0.271741 22.8145 0.415608 22.8145 0.56562C22.8145 0.715631 22.8741 0.8595 22.9802 0.965574C23.0862 1.07165 23.2301 1.13124 23.3801 1.13124H35.7007C36.1505 1.1317 36.5817 1.31057 36.8998 1.62862C37.2178 1.94666 37.3967 2.37789 37.3972 2.82767V22.6188H34.6891V5.24844C34.6886 4.79866 34.5097 4.36743 34.1917 4.04938C33.8737 3.73134 33.4424 3.55246 32.9926 3.55201H5.53921C5.08942 3.55246 4.6582 3.73134 4.34015 4.04938C4.02211 4.36743 3.84323 4.79866 3.84278 5.24844V22.6188H1.13124V2.82767C1.1317 2.37789 1.31057 1.94666 1.62862 1.62862C1.94666 1.31057 2.37789 1.1317 2.82767 1.13124H21.1185C21.2685 1.13124 21.4124 1.07165 21.5184 0.965574C21.6245 0.8595 21.6841 0.715631 21.6841 0.56562C21.6841 0.415608 21.6245 0.271741 21.5184 0.165666C21.4124 0.059592 21.2685 0 21.1185 0H2.82767C2.07801 0.000910618 1.35931 0.299117 0.829211 0.829211C0.299117 1.35931 0.000910618 2.07801 0 2.82767L0 25.6942C0.000910618 26.4439 0.299117 27.1626 0.829211 27.6927C1.35931 28.2228 2.07801 28.521 2.82767 28.5219H15.2627L14.6924 32.8688H12.6828C12.5328 32.8688 12.3889 32.9284 12.2828 33.0344C12.1768 33.1405 12.1172 33.2844 12.1172 33.4344C12.1172 33.5844 12.1768 33.7283 12.2828 33.8343C12.3889 33.9404 12.5328 34 12.6828 34H25.8448C25.9948 34 26.1386 33.9404 26.2447 33.8343C26.3508 33.7283 26.4104 33.5844 26.4104 33.4344C26.4104 33.2844 26.3508 33.1405 26.2447 33.0344C26.1386 32.9284 25.9948 32.8688 25.8448 32.8688H23.8395L23.2691 28.5219H29.2617C29.4117 28.5219 29.5556 28.4623 29.6617 28.3562C29.7677 28.2501 29.8273 28.1063 29.8273 27.9563C29.8273 27.8062 29.7677 27.6624 29.6617 27.5563C29.5556 27.4502 29.4117 27.3906 29.2617 27.3906H2.82767C2.37789 27.3902 1.94666 27.2113 1.62862 26.8933C1.31057 26.5752 1.1317 26.144 1.13124 25.6942V23.7517H37.4006V25.6942C37.4004 25.9172 37.3562 26.138 37.2707 26.3439C37.1851 26.5499 37.0599 26.7369 36.902 26.8945C36.7442 27.052 36.5568 27.1769 36.3507 27.262C36.1446 27.3472 35.9237 27.3909 35.7007 27.3906H31.5242C31.3742 27.3906 31.2303 27.4502 31.1242 27.5563C31.0182 27.6624 30.9586 27.8062 30.9586 27.9563C30.9586 28.1063 31.0182 28.2501 31.1242 28.3562C31.2303 28.4623 31.3742 28.5219 31.5242 28.5219H35.7007C36.4504 28.521 37.1691 28.2228 37.6992 27.6927C38.2293 27.1626 38.5275 26.4439 38.5284 25.6942V2.82767C38.5275 2.07801 38.2293 1.35931 37.6992 0.829211C37.1691 0.299117 36.4504 0.000910618 35.7007 0ZM22.6988 32.8688H15.8339L16.4043 28.5219H22.1293L22.6988 32.8688ZM4.97316 5.24758C4.97338 5.09775 5.033 4.95412 5.13895 4.84818C5.24489 4.74223 5.38852 4.68261 5.53835 4.68239H32.9926C33.1425 4.68261 33.2861 4.74223 33.392 4.84818C33.498 4.95412 33.5576 5.09775 33.5578 5.24758V8.03138H4.97316V5.24758ZM4.97316 9.16175H33.5578V22.6188H30.805V20.0999C30.805 19.95 30.7455 19.8063 30.6395 19.7003C30.5335 19.5943 30.3897 19.5348 30.2398 19.5348H20.6195C20.4696 19.5348 20.3259 19.5943 20.2199 19.7003C20.1139 19.8063 20.0544 19.95 20.0544 20.0999V22.6188H18.4775V20.0999C18.4775 19.95 18.4179 19.8063 18.312 19.7003C18.206 19.5943 18.0622 19.5348 17.9123 19.5348H8.28859C8.13869 19.5348 7.99494 19.5943 7.88894 19.7003C7.78295 19.8063 7.7234 19.95 7.7234 20.0999V22.6188H4.97057L4.97316 9.16175ZM29.6789 22.6188H21.1847V20.6651H29.6789V22.6188ZM17.348 22.6188H8.85378V20.6651H17.3463L17.348 22.6188Z" fill="#2567B2"/>
<path d="M7.13058 5.44458C6.95874 5.44458 6.79075 5.49553 6.64787 5.59101C6.50498 5.68648 6.39362 5.82218 6.32786 5.98094C6.26209 6.13971 6.24489 6.3144 6.27841 6.48295C6.31194 6.65149 6.39469 6.8063 6.5162 6.92782C6.63771 7.04933 6.79253 7.13208 6.96107 7.16561C7.12961 7.19913 7.30431 7.18192 7.46308 7.11616C7.62184 7.0504 7.75754 6.93903 7.85301 6.79615C7.94848 6.65327 7.99944 6.48528 7.99944 6.31344C7.99921 6.08307 7.9076 5.86221 7.7447 5.69931C7.58181 5.53642 7.36095 5.44481 7.13058 5.44458Z" fill="#2567B2"/>
<path d="M9.91891 5.44458C9.74707 5.44458 9.57908 5.49553 9.4362 5.59101C9.29331 5.68648 9.18195 5.82218 9.11619 5.98094C9.05042 6.13971 9.03322 6.3144 9.06674 6.48295C9.10027 6.65149 9.18302 6.8063 9.30453 6.92782C9.42604 7.04933 9.58086 7.13208 9.7494 7.16561C9.91794 7.19913 10.0926 7.18192 10.2514 7.11616C10.4102 7.0504 10.5459 6.93903 10.6413 6.79615C10.7368 6.65327 10.7878 6.48528 10.7878 6.31344C10.7875 6.08307 10.6959 5.86221 10.533 5.69931C10.3701 5.53642 10.1493 5.44481 9.91891 5.44458Z" fill="#2567B2"/>
<path d="M12.705 5.44458C12.5332 5.44458 12.3652 5.49553 12.2223 5.59101C12.0795 5.68648 11.9681 5.82218 11.9023 5.98094C11.8366 6.13971 11.8194 6.3144 11.8529 6.48295C11.8864 6.65149 11.9692 6.8063 12.0907 6.92782C12.2122 7.04933 12.367 7.13208 12.5355 7.16561C12.7041 7.19913 12.8788 7.18192 13.0375 7.11616C13.1963 7.0504 13.332 6.93903 13.4275 6.79615C13.523 6.65327 13.5739 6.48528 13.5739 6.31344C13.5737 6.08307 13.4821 5.86221 13.3192 5.69931C13.1563 5.53642 12.9354 5.44481 12.705 5.44458Z" fill="#2567B2"/>
<path d="M8.2876 18.1541H12.4022C12.5522 18.1541 12.6961 18.0945 12.8022 17.9885C12.9082 17.8824 12.9678 17.7385 12.9678 17.5885C12.9678 17.4385 12.9082 17.2946 12.8022 17.1886C12.6961 17.0825 12.5522 17.0229 12.4022 17.0229H8.85365V12.0609H29.6719V17.0229H14.6638C14.5138 17.0229 14.37 17.0825 14.2639 17.1886C14.1578 17.2946 14.0982 17.4385 14.0982 17.5885C14.0982 17.7385 14.1578 17.8824 14.2639 17.9885C14.37 18.0945 14.5138 18.1541 14.6638 18.1541H30.2431C30.393 18.1541 30.5368 18.0946 30.6428 17.9886C30.7488 17.8826 30.8083 17.7388 30.8083 17.5889V11.4957C30.8083 11.3458 30.7488 11.2021 30.6428 11.0961C30.5368 10.9901 30.393 10.9305 30.2431 10.9305H8.2876C8.1377 10.9305 7.99394 10.9901 7.88795 11.0961C7.78196 11.2021 7.72241 11.3458 7.72241 11.4957V17.5889C7.72241 17.7388 7.78196 17.8826 7.88795 17.9886C7.99394 18.0946 8.1377 18.1541 8.2876 18.1541Z" fill="#2567B2"/>
</svg>
