<svg width="40" height="37" viewBox="0 0 40 37" fill="none" xmlns="http://www.w3.org/2000/svg">
<path d="M19.2343 9.71598C19.5706 9.71598 19.8378 9.97608 19.8378 10.3033C19.8378 10.6305 19.5706 10.8906 19.2343 10.8906H10.3285C9.99223 10.8906 9.72497 10.6305 9.72497 10.3033C9.72497 9.97608 9.99223 9.71598 10.3285 9.71598H19.2343ZM12.6045 27.3105C12.3114 27.1594 12.2079 26.7987 12.3631 26.5134C12.5183 26.2281 12.889 26.1274 13.1821 26.2785C15.1564 27.3273 16.8979 28.0488 18.4153 28.4599C19.6913 28.804 20.7948 28.913 21.7259 28.7956C21.7776 28.7704 21.838 28.7452 21.8983 28.7368C22.8984 28.5187 23.3985 27.5202 22.0708 27.1343L22.0449 27.1259C19.9585 26.4463 18.4498 25.3555 17.0618 24.3403C14.2771 22.3182 12.0183 20.6737 6.30229 24.4494V33.234C8.85421 33.0746 11.3803 33.813 13.8977 34.5429C17.6825 35.6421 21.4586 36.7328 25.002 34.5513C28.054 32.6635 31.7526 28.9969 33.8389 26.1778C35.3563 24.1222 33.0802 22.8888 30.9335 24.441L24.821 28.8543C24.2606 29.257 23.7433 29.5423 23.2864 29.7185C22.8726 29.8779 22.4932 29.945 22.1656 29.9283C21.0103 30.1296 19.6482 30.0205 18.0877 29.601C16.4841 29.1647 14.6564 28.4012 12.6045 27.3105ZM1.74159 22.5364H4.55215C4.99184 22.5364 5.39705 22.7042 5.70742 22.9895V0.587322C5.70742 0.2601 5.97468 0 6.31091 0H32.7526C33.0889 0 33.3561 0.2601 33.3561 0.587322V3.41486C33.5113 3.25544 33.6751 3.09603 33.8303 2.93661C34.658 2.10597 36.0805 2.08919 36.9512 2.91983L39.348 5.22717C40.2101 6.05781 40.2187 7.42543 39.3652 8.26446L33.3561 14.1796V22.6119C34.3735 22.7629 35.227 23.4006 35.4684 24.3823C35.6408 25.1038 35.477 25.968 34.8131 26.8658C32.6319 29.8192 28.8299 33.578 25.64 35.5414C21.6311 38.0165 17.5963 36.8419 13.5442 35.6672C11.0785 34.9541 8.61281 34.2325 6.23332 34.4171C6.03503 35.1722 5.36256 35.7511 4.55215 35.7511H1.74159C0.750131 35.7511 7.2747e-05 34.9121 7.2747e-05 33.9472V24.3403C-0.00854862 23.3754 0.750131 22.5364 1.74159 22.5364ZM4.55215 23.711H1.74159C1.4226 23.711 1.20706 24.0215 1.20706 24.3403V33.9472C1.20706 34.266 1.43122 34.5765 1.74159 34.5765H4.55215C4.87114 34.5765 5.08668 34.266 5.08668 33.9472V24.3403C5.08668 24.0215 4.86252 23.711 4.55215 23.711ZM6.90578 22.679C12.3976 19.4991 14.8202 21.2694 17.7687 23.4006C19.0878 24.3571 20.5189 25.3975 22.407 26.0184C23.0708 26.2113 23.5278 26.547 23.7864 26.9497C23.9933 27.2601 24.0709 27.6041 24.0537 27.9397L30.2007 23.4929C30.8473 23.023 31.5112 22.7545 32.1319 22.6287V15.3627L28.235 19.197C28.1574 19.2726 28.0712 19.3229 27.9592 19.3481L21.3811 21.2862C20.9069 21.4373 20.4844 21.0093 20.6138 20.5731L22.5363 14.1629C22.5622 14.0538 22.6139 13.9447 22.7001 13.8692C25.8211 10.7983 29.0368 7.72748 32.1405 4.62306V1.17464H6.90578V22.679ZM37.7185 5.31946L26.8039 16.0675C27.2608 16.5793 27.6574 17.1498 27.9936 17.7791L38.5031 7.44221C38.891 7.05625 38.891 6.44376 38.4945 6.0662L37.7185 5.31946ZM25.9418 15.2452L36.865 4.49721L36.0977 3.75886C35.7011 3.3813 35.0718 3.3813 34.6838 3.76725L24.1658 14.1041C24.821 14.423 25.4159 14.8005 25.9418 15.2452ZM26.9849 18.4335C26.2176 16.94 25.0624 15.8325 23.5192 15.0942L22.088 19.8767L26.9849 18.4335ZM18.8464 17.1666C19.1826 17.1666 19.4499 17.4267 19.4499 17.7539C19.4499 18.0811 19.1826 18.3412 18.8464 18.3412H10.4319C10.0957 18.3412 9.82843 18.0811 9.82843 17.7539C9.82843 17.4267 10.0957 17.1666 10.4319 17.1666H18.8464ZM19.2343 13.4413C19.5706 13.4413 19.8378 13.7014 19.8378 14.0286C19.8378 14.3558 19.5706 14.6159 19.2343 14.6159H10.3285C9.99223 14.6159 9.72497 14.3558 9.72497 14.0286C9.72497 13.7014 9.99223 13.4413 10.3285 13.4413H19.2343ZM25.0365 5.99068C25.3727 5.99068 25.64 6.25078 25.64 6.57801C25.64 6.90523 25.3727 7.16533 25.0365 7.16533H17.6825H10.3285C9.99223 7.16533 9.72497 6.90523 9.72497 6.57801C9.72497 6.25078 9.99223 5.99068 10.3285 5.99068H25.0365Z" fill="#2567B2"/>
</svg>
