<svg width="46" height="37" viewBox="0 0 46 37" fill="none" xmlns="http://www.w3.org/2000/svg">
<path d="M19.8089 3.03326L18.2061 0.472656C7.10989 8.21849 0.945312 17.6287 0.945312 25.3745C0.945312 32.8643 6.24685 36.3852 10.747 36.3852C16.4184 36.3852 20.4254 31.392 20.4254 26.1427C20.4254 21.7257 17.713 17.9488 14.0759 16.5405C13.0279 16.1564 12.0415 15.8363 12.0415 13.9799C12.0415 11.6113 13.706 8.09046 19.8089 3.03326ZM44.2823 3.03326L42.6795 0.472656C31.7065 8.21849 25.4187 17.6287 25.4187 25.3745C25.4187 32.8643 30.8435 36.3852 35.3436 36.3852C41.0767 36.3852 45.1453 31.392 45.1453 26.1427C45.1453 21.7257 42.3713 17.9488 38.6109 16.5405C37.5629 16.1564 36.6382 15.8363 36.6382 13.9799C36.6382 11.6113 38.3643 8.09046 44.2823 3.03326Z" fill="#2567B2"/>
</svg>
