<svg width="35" height="37" viewBox="0 0 35 37" fill="none" xmlns="http://www.w3.org/2000/svg">
<path d="M14.6807 13.8452C15.8344 14.8796 17.028 14.9989 17.4258 14.9989C17.4656 14.9989 17.4656 14.9989 17.5054 14.9989C17.7839 14.9989 19.057 14.9989 20.2903 13.885C21.7226 12.5323 22.4785 10.2248 22.4785 7.00217C22.4785 6.76346 22.3194 6.52475 22.0807 6.44518C20.4893 5.84841 19.4946 5.37099 17.9032 4.09787C17.7043 3.93873 17.386 3.93873 17.1473 4.09787C15.5161 5.37099 14.5215 5.84841 12.9301 6.44518C12.6914 6.52475 12.5323 6.76346 12.5323 7.00217C12.4925 10.185 13.2086 12.5323 14.6807 13.8452ZM17.4656 5.29142C18.8581 6.36561 19.8527 6.88282 21.2452 7.40002C21.2054 10.0258 20.5688 11.9355 19.4946 12.9699C18.5398 13.8452 17.585 13.8054 17.5452 13.8054H17.5054H17.4656C17.4258 13.8054 16.4312 13.8452 15.4764 12.9699C14.3624 11.9355 13.7656 10.0258 13.7258 7.40002C15.0785 6.88282 16.0731 6.36561 17.4656 5.29142Z" fill="#2567B2"/>
<path d="M31.3903 0C31.1914 0 10.2645 0 10.0656 0C8.07634 0.15914 6.52473 1.86989 6.52473 3.85914V29.2817H0.596774C0.278495 29.2817 0 29.5602 0 29.8785C0 29.8785 0 33.0215 0 33.1409C0 33.2602 0 33.3398 0 33.4591C0.15914 35.4484 1.86989 37 3.85914 37H24.5473C25.6215 37 26.6161 36.5624 27.372 35.7667C28.0484 35.0505 28.4462 34.0957 28.4462 33.1011V7.71828H34.3742C34.6925 7.71828 34.971 7.43979 34.971 7.12151V3.85914C34.9312 1.86989 33.3796 0.15914 31.3903 0ZM3.85914 35.8065C2.46667 35.8065 1.3129 34.7323 1.19355 33.3398C1.19355 33.2602 1.19355 33.1806 1.19355 33.1011C1.19355 33.0215 1.19355 32.9419 1.19355 32.9021V32.8624V30.4753H20.6882V33.1409C20.6882 33.6183 20.7677 34.1355 20.9667 34.5731C21.0462 34.7323 21.1258 34.8914 21.2054 35.0505C21.2054 35.0903 21.2452 35.1301 21.2452 35.1301C21.3247 35.2892 21.4441 35.4086 21.5237 35.528L21.5634 35.5677C21.6032 35.6473 21.6828 35.6871 21.7226 35.7667H3.85914V35.8065ZM27.2129 33.1409C27.2129 33.8172 26.9344 34.4538 26.4968 34.971C25.9796 35.528 25.3032 35.8065 24.5473 35.8065C24.2688 35.8065 23.9903 35.7667 23.7516 35.6871C22.9957 35.4484 22.3591 34.8914 22.0806 34.1355C21.9613 33.8172 21.8817 33.4591 21.8817 33.1409V29.8785C21.8817 29.5602 21.6032 29.2817 21.2849 29.2817H7.71828V3.85914C7.71828 2.46667 8.79247 1.3129 10.1849 1.19355C10.3441 1.19355 10.6624 1.19355 10.6624 1.19355H28.2871L28.2473 1.23333C28.2075 1.3129 28.128 1.35269 28.0882 1.43226C28.0882 1.43226 28.0882 1.47204 28.0484 1.47204C28.0086 1.55161 27.929 1.63118 27.8892 1.71075C27.5312 2.22796 27.3323 2.82473 27.2527 3.46129C27.2527 3.50108 27.2527 3.50108 27.2527 3.54086C27.2527 3.54086 27.2527 3.54086 27.2527 3.58065C27.2527 3.62043 27.2527 3.66022 27.2527 3.7C27.2527 3.73979 27.2527 3.77957 27.2527 3.81936V3.97849C27.2527 4.01828 27.2527 4.01828 27.2527 4.05806V33.1409H27.2129ZM33.7376 6.52473H28.4065V4.13763V3.62043C28.4462 3.30215 28.5258 2.98387 28.6452 2.70538C28.9634 1.98925 29.6 1.47204 30.3559 1.27312C30.5151 1.23333 30.6742 1.19355 30.8333 1.19355C30.9925 1.19355 31.1118 1.19355 31.271 1.19355C32.6634 1.3129 33.7376 2.46667 33.7376 3.85914V6.52473Z" fill="#2567B2"/>
<path d="M16.9086 12.4924C17.1075 12.4924 17.2667 12.4129 17.386 12.2537L19.5742 9.19029C19.7731 8.9118 19.6936 8.55374 19.4548 8.35481C19.1763 8.15589 18.8183 8.23546 18.6194 8.47416L16.9086 10.8613L16.3118 10.0258C16.1129 9.74728 15.7548 9.7075 15.4763 9.90642C15.1979 10.1053 15.1581 10.4634 15.357 10.7419L16.471 12.2935C16.5505 12.4129 16.7097 12.4924 16.9086 12.4924Z" fill="#2567B2"/>
<path d="M23.3538 24.1096H11.5376C11.2194 24.1096 10.9409 24.3881 10.9409 24.7064C10.9409 25.0247 11.2194 25.3032 11.5376 25.3032H23.3538C23.672 25.3032 23.9505 25.0247 23.9505 24.7064C23.9505 24.3881 23.672 24.1096 23.3538 24.1096Z" fill="#2567B2"/>
<path d="M23.3538 20.9667H11.5376C11.2194 20.9667 10.9409 21.2452 10.9409 21.5634C10.9409 21.8817 11.2194 22.1602 11.5376 22.1602H23.3538C23.672 22.1602 23.9505 21.8817 23.9505 21.5634C23.9505 21.2452 23.672 20.9667 23.3538 20.9667Z" fill="#2567B2"/>
<path d="M23.3538 17.8634H11.5376C11.2194 17.8634 10.9409 18.1419 10.9409 18.4602C10.9409 18.7785 11.2194 19.057 11.5376 19.057H23.3538C23.672 19.057 23.9505 18.7785 23.9505 18.4602C23.9505 18.1419 23.672 17.8634 23.3538 17.8634Z" fill="#2567B2"/>
</svg>
