<svg width="45" height="42" viewBox="0 0 45 42" fill="none" xmlns="http://www.w3.org/2000/svg">
<path d="M18.1648 37.6038L18.0352 38.2206L18.1601 37.6032C18.0763 37.5862 17.9898 37.5856 17.9057 37.6013C17.8217 37.6171 17.7416 37.6489 17.6703 37.6949C17.5989 37.7409 17.5377 37.8002 17.49 37.8694C17.4424 37.9385 17.4094 38.0162 17.3928 38.0979C17.3763 38.1796 17.3765 38.2636 17.3936 38.3452C17.4107 38.4268 17.4443 38.5043 17.4923 38.5731C17.5404 38.642 17.6021 38.7009 17.6737 38.7465C17.7454 38.7921 17.8256 38.8234 17.9098 38.8386H17.9217C17.9611 38.846 18.0011 38.8499 18.0412 38.8502C18.2019 38.8492 18.3566 38.7901 18.475 38.6844C18.5935 38.5787 18.6673 38.434 18.6822 38.2784C18.6971 38.1228 18.652 37.9673 18.5556 37.8422C18.4592 37.7171 18.3185 37.6313 18.1607 37.6014L18.1648 37.6038Z" fill="#2567B2"/>
<path d="M23.1157 37.8058L23.1802 38.432L23.1138 37.8058C22.9479 37.8214 22.7946 37.8985 22.6857 38.0212C22.5768 38.1439 22.5207 38.3027 22.5292 38.4646C22.5376 38.6264 22.61 38.7789 22.7311 38.8902C22.8523 39.0015 23.0129 39.0631 23.1796 39.0622C23.2017 39.0622 23.2244 39.0622 23.2465 39.0587H23.2644C23.435 39.0396 23.5908 38.9554 23.6976 38.8245C23.8044 38.6937 23.8533 38.527 23.8337 38.3611C23.814 38.1952 23.7274 38.0437 23.5929 37.9399C23.4583 37.8361 23.2869 37.7885 23.1162 37.8076L23.1157 37.8058Z" fill="#2567B2"/>
<path d="M20.6366 37.8855H20.627C20.5423 37.8819 20.4577 37.8946 20.378 37.9229C20.2984 37.9512 20.2252 37.9946 20.1628 38.0504C20.1005 38.1063 20.05 38.1736 20.0145 38.2484C19.9789 38.3233 19.9589 38.4042 19.9556 38.4866C19.9488 38.6539 20.0104 38.817 20.1269 38.9402C20.2435 39.0634 20.4054 39.1367 20.5774 39.1441H20.6073C20.7767 39.1443 20.9395 39.08 21.0606 38.9649C21.1818 38.8498 21.2518 38.6931 21.2556 38.5285C21.2593 38.3638 21.1965 38.2042 21.0807 38.084C20.9649 37.9638 20.8052 37.8925 20.636 37.8855H20.6366Z" fill="#2567B2"/>
<path d="M15.7724 36.9643L15.7641 36.9614C15.6842 36.9336 15.5995 36.9213 15.5148 36.9255C15.4301 36.9296 15.3471 36.9499 15.2705 36.9853C15.1939 37.0207 15.1252 37.0705 15.0685 37.1318C15.0117 37.193 14.968 37.2646 14.9397 37.3424C14.8958 37.4599 14.8887 37.5873 14.9193 37.7087C14.95 37.8301 15.0169 37.94 15.1117 38.0244C15.2065 38.1088 15.325 38.1639 15.452 38.1829C15.5791 38.2018 15.7091 38.1837 15.8256 38.1308C15.942 38.0779 16.0398 37.9926 16.1064 37.8857C16.173 37.7788 16.2055 37.6551 16.1998 37.5303C16.1942 37.4054 16.1505 37.285 16.0744 37.1842C15.9984 37.0835 15.8933 37.0069 15.7724 36.9643Z" fill="#2567B2"/>
<path d="M25.5602 37.3656L25.7197 37.976L25.5584 37.3662C25.4057 37.4043 25.2725 37.4952 25.1838 37.622C25.0952 37.7488 25.0571 37.9027 25.0769 38.0548C25.0966 38.2069 25.1727 38.3468 25.291 38.4482C25.4092 38.5496 25.5614 38.6056 25.7191 38.6056C25.7739 38.6057 25.8285 38.5988 25.8816 38.5853L25.8989 38.5812C26.0647 38.5377 26.2059 38.4318 26.2914 38.287C26.377 38.1422 26.3998 37.9702 26.355 37.809C26.3102 37.6478 26.2013 37.5105 26.0524 37.4274C25.9034 37.3442 25.7266 37.322 25.5608 37.3656H25.5602Z" fill="#2567B2"/>
<path d="M27.901 36.5716L28.1579 37.1495L27.8993 36.5721C27.8213 36.6052 27.7508 36.6528 27.6917 36.7123C27.6327 36.7718 27.5863 36.8421 27.5552 36.9191C27.524 36.996 27.5088 37.0782 27.5104 37.1609C27.5119 37.2436 27.5302 37.3252 27.5641 37.401C27.5981 37.4768 27.6471 37.5454 27.7083 37.6028C27.7695 37.6602 27.8418 37.7053 27.921 37.7356C28.0001 37.7658 28.0846 37.7806 28.1696 37.7791C28.2547 37.7776 28.3386 37.7598 28.4166 37.7268L28.4327 37.7198C28.5864 37.6496 28.7055 37.5234 28.7644 37.3685C28.8233 37.2137 28.8173 37.0425 28.7476 36.8919C28.678 36.7413 28.5503 36.6233 28.3921 36.5634C28.2338 36.5035 28.0577 36.5064 27.9016 36.5716H27.901Z" fill="#2567B2"/>
<path d="M13.2987 7.86671C13.3973 7.86717 13.4948 7.84573 13.5836 7.80403C13.6725 7.76232 13.7503 7.70146 13.8113 7.62606C13.8723 7.55066 13.9147 7.46273 13.9355 7.36895C13.9562 7.27518 13.9546 7.17804 13.9309 7.08494C13.9072 6.99184 13.8619 6.90524 13.7986 6.83173C13.7352 6.75822 13.6554 6.69974 13.5653 6.66075C13.4752 6.62175 13.3771 6.60328 13.2785 6.60673C13.1799 6.61018 13.0834 6.63547 12.9964 6.68066L12.9887 6.68473C12.8621 6.75149 12.762 6.85743 12.7043 6.98574C12.6466 7.11406 12.6346 7.25743 12.6702 7.39313C12.7058 7.52882 12.787 7.64909 12.9008 7.73488C13.0146 7.82066 13.1547 7.86705 13.2987 7.86671Z" fill="#2567B2"/>
<path d="M5.80732 14.9005C5.88266 14.9389 5.96506 14.9626 6.04979 14.97C6.13453 14.9775 6.21995 14.9686 6.30116 14.944C6.38238 14.9193 6.45781 14.8794 6.52313 14.8264C6.58845 14.7734 6.64239 14.7084 6.68186 14.6351L6.69321 14.613C6.74765 14.5015 6.76718 14.3768 6.74936 14.2546C6.73153 14.1324 6.67715 14.0179 6.59297 13.9255C6.50878 13.8331 6.39852 13.7668 6.27588 13.7348C6.15324 13.7029 6.02365 13.7067 5.90321 13.7458C5.78278 13.7849 5.67682 13.8575 5.59852 13.9547C5.52021 14.0519 5.47301 14.1693 5.46279 14.2923C5.45258 14.4154 5.47979 14.5386 5.54104 14.6468C5.6023 14.7549 5.6949 14.8431 5.80732 14.9005Z" fill="#2567B2"/>
<path d="M4.89564 17.2684C4.97616 17.295 5.06128 17.3059 5.14612 17.3004C5.23097 17.295 5.31388 17.2733 5.39011 17.2367C5.46634 17.2001 5.5344 17.1492 5.59039 17.087C5.64638 17.0247 5.6892 16.9524 5.71641 16.8741L5.72478 16.8491C5.76045 16.7306 5.75955 16.6046 5.72218 16.4867C5.6848 16.3688 5.6126 16.2641 5.51455 16.1857C5.4165 16.1074 5.29693 16.0587 5.1707 16.0459C5.04446 16.0331 4.91713 16.0566 4.80453 16.1135C4.69193 16.1705 4.59902 16.2584 4.53736 16.3662C4.4757 16.4741 4.448 16.5972 4.45771 16.7202C4.46742 16.8433 4.5141 16.9609 4.59196 17.0583C4.66982 17.1558 4.77542 17.2288 4.89564 17.2684Z" fill="#2567B2"/>
<path d="M7.08493 12.6974C7.15366 12.7461 7.2316 12.7811 7.31427 12.8005C7.39694 12.8199 7.48273 12.8232 7.56673 12.8103C7.65073 12.7974 7.73129 12.7686 7.8038 12.7254C7.87632 12.6822 7.93936 12.6255 7.98933 12.5586L7.99769 12.5476C8.04715 12.4803 8.0825 12.4042 8.10172 12.3237C8.12094 12.2431 8.12365 12.1596 8.1097 12.0781C8.09575 11.9965 8.06541 11.9184 8.02042 11.8482C7.97542 11.778 7.91665 11.7172 7.84746 11.6691C7.77827 11.621 7.70002 11.5866 7.61717 11.5679C7.53432 11.5492 7.44849 11.5466 7.36459 11.5602C7.28069 11.5737 7.20037 11.6032 7.12819 11.647C7.05602 11.6907 6.99341 11.7479 6.94395 11.8151L7.46604 12.1886L6.94216 11.8181C6.84119 11.9531 6.79951 12.1216 6.82628 12.2865C6.85306 12.4514 6.94609 12.5992 7.08493 12.6974Z" fill="#2567B2"/>
<path d="M11.1005 9.22703C11.2035 9.22814 11.3052 9.20547 11.3974 9.16088C11.4896 9.1163 11.5696 9.05108 11.6308 8.97058C11.692 8.89008 11.7327 8.7966 11.7495 8.69783C11.7663 8.59906 11.7588 8.49783 11.7275 8.40245C11.6962 8.30706 11.6421 8.22026 11.5696 8.14917C11.4971 8.07809 11.4083 8.02475 11.3105 7.99355C11.2127 7.96234 11.1086 7.95416 11.0069 7.96968C10.9052 7.9852 10.8087 8.02397 10.7254 8.08281L10.7093 8.09443C10.601 8.17412 10.5212 8.28486 10.4812 8.41101C10.4412 8.53716 10.4429 8.67235 10.4861 8.7975C10.5294 8.92265 10.6119 9.03144 10.7222 9.10851C10.8324 9.18558 10.9648 9.22704 11.1005 9.22703Z" fill="#2567B2"/>
<path d="M4.31815 26.8184C4.3705 26.9762 4.48471 27.1075 4.636 27.1839C4.78729 27.2603 4.96345 27.2755 5.12627 27.2264C5.28908 27.1773 5.42541 27.0678 5.50567 26.9215C5.58594 26.7753 5.60366 26.6042 5.55499 26.4453C5.50633 26.2865 5.3952 26.1527 5.24573 26.073C5.09626 25.9933 4.92049 25.9742 4.75658 26.0197C4.59266 26.0652 4.45382 26.1717 4.37018 26.3162C4.28653 26.4606 4.26483 26.6313 4.30979 26.7911L4.31815 26.8184Z" fill="#2567B2"/>
<path d="M9.14343 10.8864C9.25052 10.8874 9.3562 10.8627 9.45108 10.8144C9.54597 10.7661 9.62711 10.6958 9.68731 10.6097C9.7475 10.5236 9.78488 10.4243 9.79611 10.3208C9.80735 10.2172 9.79209 10.1126 9.7517 10.0162C9.71132 9.91974 9.64705 9.8345 9.56461 9.76803C9.48218 9.70157 9.38413 9.65595 9.27919 9.63521C9.17425 9.61448 9.06566 9.61928 8.96309 9.64919C8.86051 9.6791 8.76713 9.73319 8.69124 9.80665L8.68048 9.81711C8.59126 9.90563 8.53093 10.0178 8.50705 10.1396C8.48318 10.2613 8.49683 10.3872 8.54629 10.5014C8.59574 10.6157 8.6788 10.7131 8.78504 10.7816C8.89128 10.8501 9.01596 10.8866 9.14343 10.8864Z" fill="#2567B2"/>
<path d="M5.03365 24.0734C5.01242 23.9077 4.92434 23.7569 4.78879 23.6543C4.65324 23.5517 4.48131 23.5057 4.31084 23.5263C4.14037 23.547 3.98532 23.6326 3.87979 23.7644C3.77426 23.8962 3.7269 24.0634 3.74813 24.2291L3.75172 24.2541C3.77643 24.4194 3.86766 24.5684 4.00534 24.6682C4.14303 24.7681 4.31588 24.8107 4.48587 24.7867C4.65586 24.7627 4.80908 24.674 4.91181 24.5401C5.01454 24.4062 5.05836 24.2381 5.03365 24.0729V24.0734Z" fill="#2567B2"/>
<path d="M4.22014 22.2699H4.23985C4.40833 22.2699 4.57014 22.2059 4.69093 22.0917C4.81172 21.9776 4.88198 21.8221 4.88679 21.6583V21.6316C4.88486 21.5083 4.84575 21.3883 4.7743 21.2865C4.70285 21.1846 4.60221 21.1054 4.48487 21.0586C4.36753 21.0119 4.23866 20.9996 4.11424 21.0235C3.98982 21.0473 3.87533 21.1061 3.78498 21.1926C3.69463 21.2791 3.63239 21.3895 3.60599 21.5101C3.57959 21.6307 3.59018 21.7562 3.63646 21.871C3.68274 21.9858 3.76266 22.0848 3.86632 22.1559C3.96997 22.2269 4.0928 22.2668 4.21954 22.2705L4.22014 22.2699Z" fill="#2567B2"/>
<path d="M4.36177 19.7446C4.39984 19.7511 4.43841 19.7544 4.47707 19.7545C4.62888 19.7542 4.77578 19.7021 4.89215 19.6074C5.00853 19.5126 5.08699 19.3811 5.11385 19.2358C5.11385 19.2265 5.11684 19.2172 5.11803 19.2085C5.13476 19.0863 5.1142 18.9619 5.05891 18.851C5.00361 18.74 4.91603 18.6472 4.80701 18.5842C4.69799 18.5212 4.57235 18.4907 4.44566 18.4965C4.31898 18.5024 4.19684 18.5442 4.0944 18.6169C3.99196 18.6896 3.91374 18.7899 3.86942 18.9055C3.82511 19.021 3.81667 19.1467 3.84515 19.2668C3.87362 19.387 3.93776 19.4964 4.0296 19.5814C4.12144 19.6665 4.23695 19.7228 4.36177 19.7446Z" fill="#2567B2"/>
<path d="M34.9111 12.8954C34.9594 12.9635 35.021 13.0217 35.0924 13.0666C35.1638 13.1115 35.2436 13.1423 35.3272 13.1573C35.4109 13.1722 35.4967 13.171 35.5799 13.1536C35.663 13.1363 35.7419 13.1032 35.8119 13.0563C35.8819 13.0094 35.9417 12.9495 35.9879 12.88C36.0341 12.8106 36.0658 12.733 36.0812 12.6517C36.0966 12.5703 36.0953 12.4869 36.0775 12.406C36.0597 12.3251 36.0257 12.2485 35.9774 12.1804L35.4397 12.5289L35.9774 12.1758C35.9296 12.1071 35.8685 12.0483 35.7973 12.0026C35.7262 11.957 35.6466 11.9254 35.5629 11.9097C35.4792 11.8939 35.3932 11.8944 35.3097 11.911C35.2262 11.9276 35.1469 11.96 35.0763 12.0065C35.0057 12.0529 34.9452 12.1124 34.8982 12.1815C34.8512 12.2507 34.8187 12.3281 34.8026 12.4095C34.7864 12.4908 34.7869 12.5745 34.8039 12.6557C34.821 12.7369 34.8544 12.814 34.9021 12.8826L34.9111 12.8954Z" fill="#2567B2"/>
<path d="M38.2164 19.2322C38.1318 19.2415 38.0499 19.2668 37.9754 19.3069C37.9009 19.3469 37.8352 19.4009 37.7822 19.4656C37.7291 19.5303 37.6898 19.6046 37.6663 19.6842C37.6428 19.7637 37.6356 19.847 37.6453 19.9292L37.6489 19.9565C37.671 20.1064 37.7478 20.2436 37.8654 20.3429C37.983 20.4422 38.1335 20.497 38.2892 20.4973C38.3202 20.4972 38.3512 20.4951 38.3818 20.4909C38.5486 20.4643 38.6983 20.3758 38.7993 20.244C38.9003 20.1123 38.9448 19.9475 38.9234 19.7845C38.9019 19.6214 38.8162 19.4729 38.6843 19.3701C38.5524 19.2673 38.3847 19.2183 38.2164 19.2334V19.2322Z" fill="#2567B2"/>
<path d="M37.1256 17.4555V17.4636C37.165 17.5942 37.2468 17.7088 37.3588 17.7904C37.4708 17.8719 37.6069 17.916 37.7468 17.9161C37.8088 17.916 37.8703 17.9072 37.9296 17.8899C38.0113 17.8666 38.0874 17.828 38.1537 17.7761C38.2199 17.7242 38.275 17.6601 38.3158 17.5875C38.3566 17.5149 38.3822 17.4352 38.3913 17.3529C38.4004 17.2707 38.3927 17.1875 38.3687 17.1081V17.1C38.3202 16.9398 38.2083 16.8049 38.0575 16.7249C37.9067 16.645 37.7294 16.6265 37.5647 16.6737C37.3999 16.7208 37.2611 16.8297 37.1789 16.9763C37.0967 17.1229 37.0771 17.2953 37.1256 17.4555Z" fill="#2567B2"/>
<path d="M36.211 15.1008C36.2647 15.2069 36.3479 15.2963 36.4511 15.3589C36.5544 15.4214 36.6736 15.4545 36.7953 15.4545C36.905 15.4544 37.0128 15.4271 37.1087 15.3752C37.2046 15.3233 37.2853 15.2486 37.3433 15.1581C37.4013 15.0675 37.4347 14.9641 37.4403 14.8576C37.4459 14.751 37.4235 14.6448 37.3753 14.549L36.7887 14.815L37.3747 14.5479C37.3008 14.3983 37.1691 14.2832 37.0084 14.2275C36.8476 14.1719 36.6708 14.1801 36.5163 14.2505C36.3618 14.321 36.2421 14.4478 36.1833 14.6036C36.1244 14.7593 36.1312 14.9313 36.2021 15.0822L36.211 15.1008Z" fill="#2567B2"/>
<path d="M33.2798 10.9271C33.4022 11.0445 33.5673 11.1102 33.7392 11.11C33.9112 11.1098 34.0761 11.0436 34.1982 10.9259C34.3202 10.8082 34.3896 10.6484 34.3912 10.4812C34.3929 10.314 34.3266 10.153 34.2069 10.033C34.0871 9.91306 33.9236 9.84386 33.7517 9.84046C33.5798 9.83706 33.4134 9.89973 33.2887 10.0149C33.1641 10.13 33.0911 10.2883 33.0858 10.4554C33.0804 10.6225 33.1431 10.7849 33.2601 10.9073L33.2798 10.9271Z" fill="#2567B2"/>
<path d="M38.4291 21.8617C38.2569 21.8552 38.089 21.9153 37.9622 22.029C37.8354 22.1426 37.7601 22.3004 37.7528 22.4679C37.7454 22.6353 37.8066 22.7988 37.923 22.9225C38.0393 23.0462 38.2013 23.1201 38.3736 23.1279H38.4106C38.576 23.1277 38.735 23.0659 38.8551 22.9554C38.9752 22.8448 39.0472 22.6937 39.0563 22.5331V22.507C39.061 22.3406 38.9976 22.1792 38.88 22.0582C38.7624 21.9372 38.6002 21.8665 38.4291 21.8617Z" fill="#2567B2"/>
<path d="M29.1382 7.83703L29.1538 7.84516C29.3048 7.92317 29.4814 7.93971 29.645 7.89114C29.8085 7.84256 29.9455 7.73285 30.0259 7.58611C30.1066 7.43902 30.1243 7.26686 30.0751 7.10715C30.0259 6.94744 29.9137 6.81312 29.7631 6.73346L29.4494 7.28466L29.7607 6.7323C29.686 6.6895 29.6032 6.66172 29.5172 6.65062C29.4313 6.63952 29.3439 6.64532 29.2603 6.66767C29.1766 6.69003 29.0985 6.72849 29.0305 6.78077C28.9625 6.83304 28.9059 6.89807 28.8642 6.972C28.8225 7.04593 28.7965 7.12725 28.7877 7.21113C28.779 7.29501 28.7876 7.37975 28.8132 7.46032C28.8387 7.54089 28.8807 7.61565 28.9365 7.68016C28.9924 7.74467 29.0609 7.79762 29.1382 7.83586V7.83703Z" fill="#2567B2"/>
<path d="M31.3289 9.21828L31.339 9.22583C31.4759 9.3268 31.6485 9.37077 31.8187 9.34806C31.9889 9.32535 32.1429 9.23782 32.2467 9.10472C32.3506 8.97163 32.3958 8.80387 32.3724 8.63836C32.3491 8.47285 32.2591 8.32314 32.1222 8.22216L32.118 8.21926C32.0505 8.16892 31.9735 8.13198 31.8914 8.11058C31.8092 8.08917 31.7236 8.08371 31.6393 8.09449C31.555 8.10528 31.4737 8.13211 31.4 8.17345C31.3264 8.21479 31.2618 8.26982 31.21 8.33542C31.1582 8.40102 31.1203 8.47589 31.0982 8.55575C31.0762 8.63562 31.0706 8.71892 31.0817 8.80091C31.0928 8.88289 31.1204 8.96194 31.1629 9.03355C31.2054 9.10516 31.262 9.16793 31.3295 9.21828H31.3289Z" fill="#2567B2"/>
<path d="M43.8111 31.3947L40.7711 28.4325C40.6441 28.3086 40.4932 28.2104 40.327 28.1433C40.1609 28.0762 39.9827 28.0417 39.8028 28.0417C39.6229 28.0417 39.4448 28.0762 39.2786 28.1433C39.1124 28.2104 38.9615 28.3086 38.8345 28.4325L38.764 28.5011L38.5645 28.3071C38.3216 28.071 38.129 27.7908 37.9976 27.4823C37.9864 27.4422 37.9709 27.4032 37.9516 27.3661C37.8514 27.0914 37.8005 26.802 37.8011 26.5106V25.6724C37.9006 25.7236 38.0122 25.7489 38.1248 25.7457C38.2374 25.7426 38.3472 25.7111 38.4436 25.6544C38.54 25.5977 38.6196 25.5177 38.6748 25.4222C38.7299 25.3267 38.7587 25.219 38.7583 25.1094C38.7579 24.9999 38.7283 24.8923 38.6724 24.7972C38.6166 24.7021 38.5363 24.6227 38.4395 24.5667C38.3427 24.5107 38.2327 24.48 38.12 24.4776C38.0074 24.4753 37.8961 24.5013 37.7969 24.5532C37.7583 23.6618 37.3759 22.8172 36.7258 22.1875L33.7767 19.3147C33.1965 18.7494 32.4303 18.4005 31.6122 18.3291C30.7941 18.2578 29.9762 18.4685 29.3018 18.9244L28.9888 18.6183V11.4161C28.9892 10.548 28.6648 9.70942 28.0761 9.0568C27.6575 8.59281 27.4269 7.99656 27.4273 7.37937V6.85373H27.4721C27.8357 6.8525 28.1839 6.71121 28.4406 6.46081C28.6972 6.21042 28.8413 5.87133 28.8413 5.51783V1.33183C28.8402 0.979037 28.6956 0.640991 28.4391 0.391473C28.1826 0.141955 27.835 0.00122549 27.4721 0L15.375 0C15.0123 0.00122464 14.6648 0.141874 14.4083 0.391267C14.1518 0.64066 14.0071 0.978557 14.0059 1.33125V5.51783C14.0059 5.87133 14.15 6.21042 14.4066 6.46081C14.6632 6.71121 15.0115 6.8525 15.375 6.85373H15.4718V7.12962C15.4727 7.46342 15.4057 7.7941 15.2744 8.10255C15.1432 8.411 14.9504 8.69111 14.7072 8.92669L13.4013 10.1987C13.0593 10.5299 12.7882 10.9237 12.6037 11.3574C12.4191 11.791 12.3248 12.256 12.3261 12.7253V16.7858C12.3258 17.3192 12.4547 17.8451 12.7024 18.3209C11.8457 18.3683 11.0372 18.7221 10.4325 19.3142L7.4845 22.1875C7.14254 22.5187 6.87144 22.9125 6.68689 23.3462C6.50234 23.7798 6.40798 24.2448 6.40926 24.7141V26.5146C6.41033 26.8484 6.34336 27.1791 6.21222 27.4875C6.08108 27.796 5.88838 28.0761 5.64524 28.3117L5.44811 28.504L5.37642 28.4337C5.2494 28.3098 5.09848 28.2115 4.93232 28.1444C4.76616 28.0774 4.58802 28.0429 4.40811 28.0429C4.2282 28.0429 4.05006 28.0774 3.88389 28.1444C3.71773 28.2115 3.56681 28.3098 3.43979 28.4337L0.399231 31.3959C0.143517 31.6462 0 31.9846 0 32.3374C0 32.6902 0.143517 33.0286 0.399231 33.2789L1.44102 34.2919C1.50105 34.3507 1.57241 34.3974 1.65104 34.4293C1.72966 34.4612 1.81398 34.4778 1.89919 34.4779C1.98439 34.4781 2.06879 34.462 2.14755 34.4304C2.22632 34.3988 2.29789 34.3524 2.35818 34.2938C2.41846 34.2353 2.46628 34.1657 2.49887 34.0892C2.53147 34.0127 2.54821 33.9306 2.54814 33.8478C2.54806 33.7649 2.53117 33.6829 2.49844 33.6064C2.4657 33.5299 2.41777 33.4605 2.35737 33.4021L1.31438 32.3879C1.3003 32.3742 1.2924 32.3556 1.2924 32.3362C1.2924 32.3169 1.3003 32.2983 1.31438 32.2845L4.35494 29.3223C4.36859 29.3092 4.38706 29.3017 4.40631 29.3017C4.42556 29.3017 4.44403 29.3092 4.45769 29.3223L4.98635 29.8375L12.2036 36.8655L13.0119 37.6531C13.0259 37.6668 13.0339 37.6854 13.0339 37.7048C13.0339 37.7242 13.0259 37.7428 13.0119 37.7565L9.97191 40.7187C9.96513 40.7253 9.95708 40.7306 9.94821 40.7342C9.93935 40.7377 9.92984 40.7396 9.92023 40.7396C9.91063 40.7396 9.90112 40.7377 9.89225 40.7342C9.88339 40.7306 9.87534 40.7253 9.86856 40.7187L4.19067 35.1875C4.13058 35.129 4.05922 35.0825 3.98066 35.0508C3.9021 35.0191 3.81789 35.0027 3.73283 35.0026C3.56103 35.0024 3.39621 35.0686 3.27462 35.1866C3.15302 35.3046 3.08462 35.4648 3.08445 35.6318C3.08428 35.7988 3.15236 35.9591 3.27372 36.0773L8.95401 41.6097C9.08103 41.7336 9.23195 41.8319 9.39811 41.8989C9.56427 41.966 9.74242 42.0005 9.92233 42.0005C10.1022 42.0005 10.2804 41.966 10.4465 41.8989C10.6127 41.8319 10.7636 41.7336 10.8906 41.6097L13.9306 38.6475C14.1863 38.3972 14.3298 38.0587 14.3298 37.706C14.3298 37.3532 14.1863 37.0147 13.9306 36.7645L13.8977 36.7325L14.2813 36.359C14.7279 35.9232 15.3225 35.6606 15.9539 35.6202C16.8437 35.5641 17.682 35.1945 18.3116 34.5805L21.1043 31.8594C21.5018 31.757 21.8622 31.5492 22.1452 31.2591C22.4283 30.9691 22.6228 30.6082 22.707 30.2168C23.0439 30.3725 23.4159 30.4427 23.7883 30.4209C24.1607 30.3992 24.5213 30.2861 24.8367 30.0923C25.152 29.8984 25.4117 29.6302 25.5917 29.3124C25.7716 28.9947 25.8659 28.6378 25.8658 28.2751V26.7801C26.2024 26.9292 26.5721 26.9937 26.941 26.9676C27.3099 26.9415 27.6662 26.8257 27.977 26.6308C28.2879 26.436 28.5434 26.1683 28.7201 25.8523C28.8968 25.5364 28.989 25.1823 28.9882 24.8227V20.4026L30.9804 22.349C31.1016 22.4673 31.2662 22.5341 31.438 22.5345C31.6098 22.5348 31.7747 22.4688 31.8965 22.351C32.0182 22.2332 32.0868 22.0731 32.0872 21.9061C32.0876 21.739 32.0198 21.5787 31.8986 21.4603L30.2379 19.8375C30.6567 19.6142 31.1388 19.5291 31.6116 19.5951C32.0844 19.6611 32.5224 19.8746 32.8597 20.2034L35.8089 23.0756C36.0303 23.2902 36.2058 23.5453 36.3252 23.8263C36.4447 24.1072 36.5057 24.4084 36.5048 24.7123V26.5129C36.5031 27.0119 36.6032 27.5063 36.7992 27.9675C36.9952 28.4287 37.2834 28.8475 37.6469 29.1998L37.8483 29.3955L36.9086 30.3103L31.2271 35.8438L30.9105 35.5354L30.901 35.5261L30.8454 35.4715C30.175 34.8193 29.283 34.4269 28.3365 34.368C27.76 34.3315 27.217 34.0919 26.8091 33.6942L24.6813 31.6363C24.6227 31.5719 24.5511 31.5199 24.471 31.4833C24.391 31.4468 24.304 31.4267 24.2156 31.4241C24.1272 31.4215 24.0392 31.4366 23.957 31.4683C23.8748 31.5001 23.8002 31.5479 23.7377 31.6088C23.6753 31.6697 23.6263 31.7424 23.5938 31.8224C23.5614 31.9024 23.5461 31.988 23.549 32.074C23.5519 32.1599 23.5728 32.2444 23.6106 32.3222C23.6484 32.3999 23.7021 32.4694 23.7685 32.5262L25.8951 34.5823C26.5249 35.1963 27.3634 35.566 28.2535 35.622C28.8853 35.6617 29.4806 35.9239 29.9279 36.3596L29.9595 36.3904C29.9763 36.4089 29.9943 36.4263 30.0133 36.4427L30.312 36.7331L30.2791 36.7656C30.0234 37.0159 29.8799 37.3543 29.8799 37.7071C29.8799 38.0599 30.0234 38.3984 30.2791 38.6486L33.3191 41.6108C33.4461 41.7347 33.5971 41.8329 33.7632 41.8999C33.9294 41.9669 34.1075 42.0014 34.2874 42.0014C34.4673 42.0014 34.6454 41.9669 34.8116 41.8999C34.9777 41.8329 35.1287 41.7347 35.2557 41.6108L43.8105 33.2778C44.0662 33.0275 44.2097 32.689 44.2097 32.3362C44.2097 31.9835 44.0662 31.645 43.8105 31.3947H43.8111ZM38.2347 25.1334H38.2228L38.1033 25.1102L38.2347 25.1334ZM17.3983 33.6925C16.991 34.0896 16.4488 34.3288 15.8732 34.3651C14.9267 34.424 14.0348 34.8164 13.3643 35.4686L12.982 35.8409L12.6379 35.5058L12.6248 35.493L6.36207 29.3938L6.56338 29.198C6.92705 28.8459 7.2153 28.4271 7.41144 27.9659C7.60759 27.5047 7.70775 27.0102 7.70612 26.5112V24.7106C7.70515 24.4066 7.76616 24.1054 7.88561 23.8245C8.00506 23.5436 8.18058 23.2884 8.40205 23.0738L11.35 20.204C11.6878 19.8746 12.1266 19.661 12.6001 19.5953C13.0737 19.5297 13.5564 19.6155 13.9754 19.8398L12.3118 21.4597C12.1904 21.578 12.1223 21.7382 12.1225 21.9053C12.1227 22.0723 12.1911 22.2324 12.3127 22.3504C12.4343 22.4684 12.5991 22.5346 12.7709 22.5345C12.9427 22.5343 13.1073 22.4678 13.2287 22.3495L15.2155 20.4137V28.2751C15.2156 28.6384 15.3105 28.9957 15.4911 29.3137C15.6718 29.6316 15.9324 29.8999 16.2486 30.0934C16.5648 30.2868 16.9263 30.3992 17.2993 30.42C17.6723 30.4408 18.0447 30.3693 18.3815 30.2122C18.446 30.5168 18.5774 30.8043 18.7668 31.0549C18.9563 31.3055 19.1991 31.5134 19.4789 31.6642L17.3983 33.6925ZM27.6938 24.8233C27.6969 24.9419 27.6755 25.0598 27.631 25.1703C27.5865 25.2807 27.5197 25.3814 27.4346 25.4663C27.3494 25.5512 27.2476 25.6187 27.1352 25.6648C27.0228 25.7109 26.9021 25.7347 26.7801 25.7347C26.6581 25.7347 26.5373 25.7109 26.4249 25.6648C26.3125 25.6187 26.2108 25.5512 26.1256 25.4663C26.0405 25.3814 25.9737 25.2807 25.9292 25.1703C25.8846 25.0598 25.8633 24.9419 25.8664 24.8233V17.7988C25.8664 17.6318 25.7982 17.4717 25.6768 17.3536C25.5553 17.2355 25.3906 17.1692 25.2189 17.1692C25.0472 17.1692 24.8825 17.2355 24.761 17.3536C24.6396 17.4717 24.5714 17.6318 24.5714 17.7988V28.2757C24.5716 28.4986 24.4856 28.7134 24.3305 28.8775C24.1754 29.0416 23.9625 29.143 23.7341 29.1615C23.5057 29.1801 23.2785 29.1145 23.0975 28.9777C22.9165 28.841 22.795 28.643 22.7572 28.4232V17.7941C22.7415 17.6354 22.6653 17.4881 22.5436 17.3812C22.4219 17.2743 22.2635 17.2155 22.0995 17.2164C21.9355 17.2172 21.7777 17.2777 21.6573 17.3859C21.5368 17.4941 21.4623 17.6422 21.4484 17.8011V28.2751C21.4485 28.3541 21.4531 28.433 21.4621 28.5115V29.7806C21.4621 30.0162 21.3658 30.2422 21.1945 30.4088C21.0232 30.5754 20.7908 30.669 20.5484 30.669C20.3061 30.669 20.0737 30.5754 19.9024 30.4088C19.731 30.2422 19.6348 30.0162 19.6348 29.7806V17.7843C19.6348 17.6172 19.5665 17.457 19.445 17.3389C19.3235 17.2207 19.1588 17.1544 18.9869 17.1544C18.8151 17.1544 18.6504 17.2207 18.5289 17.3389C18.4074 17.457 18.3391 17.6172 18.3391 17.7843V28.2751C18.3391 28.5107 18.2429 28.7367 18.0715 28.9033C17.9002 29.0699 17.6678 29.1635 17.4254 29.1635C17.1831 29.1635 16.9507 29.0699 16.7794 28.9033C16.608 28.7367 16.5118 28.5107 16.5118 28.2751V16.5616C16.5118 16.3946 16.4436 16.2345 16.3221 16.1164C16.2007 15.9983 16.036 15.932 15.8643 15.932C15.6925 15.932 15.5278 15.9983 15.4064 16.1164C15.2849 16.2345 15.2167 16.3946 15.2167 16.5616V18.7281C15.1616 18.7453 15.1091 18.7697 15.0608 18.8007C14.6396 18.6461 14.2767 18.3705 14.0206 18.0104C13.7645 17.6504 13.6273 17.223 13.6271 16.7852V12.723C13.6262 12.419 13.6873 12.1178 13.8067 11.8369C13.9262 11.556 14.1017 11.3008 14.3231 11.0862L15.6271 9.81593C15.9908 9.46374 16.279 9.04494 16.4752 8.58374C16.6713 8.12255 16.7715 7.62811 16.7698 7.12904V6.85373H18.0721C18.2438 6.85373 18.4085 6.7874 18.53 6.66932C18.6514 6.55124 18.7196 6.3911 18.7196 6.22411C18.7196 6.05713 18.6514 5.89699 18.53 5.77891C18.4085 5.66084 18.2438 5.5945 18.0721 5.5945H15.375C15.3554 5.5945 15.3365 5.58691 15.3226 5.57341C15.3087 5.5599 15.3009 5.54158 15.3009 5.52248V1.33183C15.3009 1.31273 15.3087 1.29441 15.3226 1.2809C15.3365 1.2674 15.3554 1.25981 15.375 1.25981H27.4715C27.4912 1.25981 27.51 1.2674 27.5239 1.2809C27.5378 1.29441 27.5456 1.31273 27.5456 1.33183V5.51783C27.5456 5.52729 27.5437 5.53666 27.54 5.54539C27.5362 5.55413 27.5308 5.56207 27.5239 5.56876C27.517 5.57545 27.5089 5.58075 27.4999 5.58437C27.4909 5.58799 27.4813 5.58985 27.4715 5.58985H21.1121C20.9403 5.58985 20.7756 5.65619 20.6542 5.77426C20.5327 5.89234 20.4645 6.05248 20.4645 6.21947C20.4645 6.38645 20.5327 6.5466 20.6542 6.66467C20.7756 6.78275 20.9403 6.84908 21.1121 6.84908H26.1299V7.37705C26.1295 8.29982 26.4743 9.19122 27.1 9.88505C27.4813 10.3076 27.6915 10.8505 27.6914 11.4126L27.6938 24.8233ZM42.8941 32.3879L34.3394 40.7199C34.3328 40.7266 34.3248 40.732 34.3159 40.7356C34.3071 40.7392 34.2976 40.7409 34.288 40.7408C34.2784 40.7409 34.2689 40.7391 34.2601 40.7355C34.2513 40.7319 34.2433 40.7266 34.2366 40.7199L31.1967 37.7577C31.1826 37.7439 31.1747 37.7253 31.1747 37.706C31.1747 37.6866 31.1826 37.668 31.1967 37.6543L31.6859 37.1774L36.6517 32.3409L39.7502 29.3206C39.757 29.314 39.765 29.3088 39.7738 29.3052C39.7826 29.3016 39.7921 29.2998 39.8016 29.2998C39.8112 29.2998 39.8206 29.3016 39.8294 29.3052C39.8383 29.3088 39.8463 29.314 39.853 29.3206L42.8935 32.2828C42.9008 32.2896 42.9066 32.2977 42.9106 32.3067C42.9146 32.3157 42.9167 32.3254 42.9167 32.3352C42.9168 32.3451 42.9148 32.3548 42.9109 32.3638C42.9071 32.3729 42.9013 32.3811 42.8941 32.3879Z" fill="#2567B2"/>
<path d="M17.426 2.75134C17.2894 2.75123 17.1558 2.79051 17.0422 2.86422C16.9286 2.93793 16.84 3.04275 16.7876 3.16543C16.7352 3.28811 16.7215 3.42313 16.7481 3.55341C16.7746 3.68369 16.8404 3.80339 16.9369 3.89734C17.0335 3.9913 17.1565 4.05531 17.2905 4.08127C17.4244 4.10722 17.5633 4.09396 17.6895 4.04316C17.8158 3.99235 17.9236 3.90629 17.9995 3.79587C18.0754 3.68544 18.116 3.5556 18.116 3.42278C18.1158 3.24485 18.0431 3.07424 17.9137 2.94838C17.7844 2.82251 17.609 2.75165 17.426 2.75134Z" fill="#2567B2"/>
<path d="M40.0145 31.458C39.8779 31.4578 39.7442 31.497 39.6305 31.5706C39.5168 31.6442 39.4281 31.749 39.3757 31.8717C39.3232 31.9944 39.3094 32.1294 39.3359 32.2597C39.3624 32.39 39.4281 32.5098 39.5246 32.6038C39.6211 32.6978 39.7442 32.7619 39.8781 32.7879C40.0121 32.8139 40.151 32.8007 40.2773 32.7499C40.4035 32.6991 40.5115 32.613 40.5874 32.5026C40.6633 32.3922 40.7038 32.2623 40.7038 32.1294C40.7037 31.9516 40.631 31.7811 40.5018 31.6553C40.3726 31.5294 40.1974 31.4585 40.0145 31.458Z" fill="#2567B2"/>
<path d="M10.7923 37.882C10.792 37.7495 10.7514 37.62 10.6755 37.5099C10.5996 37.3999 10.4919 37.3141 10.3659 37.2636C10.2399 37.213 10.1014 37.1999 9.96771 37.2259C9.83407 37.2519 9.71135 37.3158 9.61506 37.4096C9.51877 37.5034 9.45323 37.6228 9.42673 37.7528C9.40023 37.8828 9.41395 38.0175 9.46616 38.1399C9.51837 38.2623 9.60673 38.3669 9.72007 38.4405C9.8334 38.5141 9.96664 38.5534 10.1029 38.5534C10.2858 38.553 10.4611 38.482 10.5903 38.3562C10.7195 38.2303 10.7921 38.0598 10.7923 37.882Z" fill="#2567B2"/>
</svg>
