<svg width="41" height="41" viewBox="0 0 41 41" fill="none" xmlns="http://www.w3.org/2000/svg">
<path d="M0 21.0864C0.907812 21.0966 1.80542 21.117 2.71323 21.1068C2.97844 21.1068 3.10084 21.1578 3.17224 21.4434C3.64145 23.2489 5.19187 24.4423 7.05849 24.4525C7.5889 24.4525 8.1193 24.4627 8.65991 24.4525C8.86391 24.4525 8.95572 24.4729 8.97612 24.7177C9.20052 26.8495 9.59832 28.9507 10.1797 31.0112C10.2307 31.205 10.1899 31.2764 10.0165 31.3172C8.24171 31.7966 6.54848 32.48 4.92666 33.3368C4.71246 33.449 4.63086 33.3674 4.50846 33.2144C2.92744 31.2254 1.74422 29.0323 0.969012 26.6149C0.510007 25.1869 0.224403 23.7385 0.081601 22.2492C0.0714009 22.1676 0 21.4128 0 21.0864Z" fill="#2567B2"/>
<path d="M0.224403 17.3837C0.77521 13.7117 2.22363 10.4476 4.52886 7.54061C4.66146 7.37741 4.75326 7.3366 4.94706 7.43861C6.53828 8.30562 8.21111 8.96863 9.95533 9.44803C10.1695 9.50923 10.2511 9.56023 10.1695 9.82544C9.60852 11.8145 9.20052 13.8239 9.00672 15.8843C8.96592 16.2515 8.83331 16.3127 8.49671 16.3127C7.7011 16.3127 6.89529 16.2107 6.10988 16.4147C4.54926 16.8227 3.55985 17.8223 3.14164 19.383C3.08044 19.6074 3.01924 19.6788 2.78464 19.6686C1.86662 19.6482 0.928212 19.6482 0 19.6482C0 19.4952 0.153002 17.8223 0.224403 17.3837Z" fill="#2567B2"/>
<path d="M21.1755 40.8236C21.1755 37.8044 21.1857 34.7852 21.1755 31.7659C21.1755 31.4599 21.2469 31.3681 21.5631 31.3783C23.9091 31.4395 26.2245 31.7353 28.5196 32.2045C28.6624 32.2351 28.795 32.2249 28.7032 32.4697C27.8464 34.7036 26.8161 36.8252 25.1331 38.5796C24.1743 39.569 23.0829 40.3442 21.7263 40.691C21.5733 40.7318 21.3795 40.6604 21.2571 40.8236C21.2265 40.8236 21.2061 40.8236 21.1755 40.8236Z" fill="#2567B2"/>
<path d="M40.8923 21.3924C40.7087 24.8706 39.7193 28.1143 37.8833 31.0927C37.4345 31.8169 36.9347 32.5003 36.4247 33.1838C36.2819 33.3674 36.1799 33.4388 35.9453 33.3062C34.3642 32.4493 32.6914 31.7965 30.9676 31.3171C30.7534 31.2559 30.682 31.1947 30.7534 30.9397C31.3348 28.8997 31.7224 26.8291 31.9468 24.7176C31.9774 24.4728 32.0488 24.432 32.2834 24.4218C33.079 24.4116 33.8848 24.5136 34.6702 24.3606C36.3023 24.0342 37.3631 23.055 37.8221 21.4536C37.9037 21.168 38.0159 21.0864 38.3015 21.0966C39.0869 21.117 39.8723 21.1068 40.6577 21.0966C40.8515 21.1068 40.9535 21.1578 40.8923 21.3924Z" fill="#2567B2"/>
<path d="M39.4031 19.6482C38.9747 19.6482 38.5565 19.6482 38.1281 19.6482C37.9751 19.6482 37.9037 19.6074 37.8629 19.434C37.5059 17.6693 35.8535 16.1801 33.691 16.2821C33.2116 16.3025 32.7322 16.2719 32.2528 16.2923C32.008 16.3025 31.9468 16.2209 31.9264 15.9863C31.702 13.8851 31.3042 11.8145 30.733 9.77444C30.6718 9.56023 30.7228 9.49903 30.9166 9.44803C32.6812 8.95843 34.3847 8.28522 36.0065 7.41821C36.1595 7.33661 36.2411 7.34681 36.3635 7.49981C38.6585 10.3864 40.1171 13.6403 40.6781 17.2919C40.7801 17.9753 40.8107 18.669 40.9025 19.3524C40.9331 19.5768 40.8719 19.6584 40.6373 19.6482C40.2293 19.638 39.8111 19.6482 39.4031 19.6482Z" fill="#2567B2"/>
<path d="M15.086 24.4423C16.514 24.4423 17.9318 24.4525 19.3599 24.4321C19.6353 24.4321 19.7475 24.4627 19.7475 24.7891C19.7271 26.3599 19.7169 27.9307 19.7475 29.5015C19.7577 29.8891 19.6047 29.9299 19.2987 29.9401C17.3402 29.9605 15.4022 30.1747 13.4744 30.5215C12.9644 30.6133 12.4544 30.7255 11.9546 30.8276C11.771 30.8684 11.669 30.8378 11.6078 30.6337C11.0876 28.6957 10.6897 26.7373 10.4653 24.7381C10.4347 24.4627 10.5265 24.4423 10.7509 24.4423C12.1892 24.4525 13.6376 24.4423 15.086 24.4423Z" fill="#2567B2"/>
<path d="M30.4882 24.4831C30.2842 26.5639 29.866 28.6039 29.3254 30.6235C29.2642 30.8581 29.1418 30.8683 28.948 30.8275C27.0609 30.3991 25.1535 30.1441 23.2359 30.0013C22.6647 29.9605 22.0935 29.9503 21.5223 29.9401C21.2877 29.9401 21.1755 29.8789 21.1857 29.6035C21.2061 27.9817 21.1959 26.3599 21.1857 24.7381C21.1857 24.5545 21.1959 24.4525 21.4305 24.4525C24.4089 24.4627 27.3873 24.4627 30.376 24.4627C30.4066 24.4525 30.4372 24.4729 30.4882 24.4831Z" fill="#2567B2"/>
<path d="M15.0656 16.2923C13.6376 16.2923 12.2197 16.2821 10.7917 16.3025C10.5367 16.3025 10.4245 16.2821 10.4551 15.9659C10.6897 13.9769 11.0773 12.0287 11.6077 10.1009C11.6485 9.95806 11.6995 9.88666 11.8831 9.92746C13.6478 10.3151 15.4328 10.6007 17.2382 10.7231C17.9522 10.7741 18.6764 10.8149 19.3904 10.8353C19.676 10.8353 19.7372 10.9373 19.727 11.2025C19.7168 12.7733 19.7066 14.3441 19.727 15.9149C19.727 16.2515 19.6148 16.2923 19.319 16.2923C17.9114 16.2821 16.4834 16.2923 15.0656 16.2923Z" fill="#2567B2"/>
<path d="M25.8267 16.2924C24.3885 16.2924 22.9503 16.2821 21.5121 16.3025C21.2571 16.3025 21.1755 16.2515 21.1755 15.9761C21.1857 14.3645 21.1857 12.7529 21.1755 11.1413C21.1755 10.9169 21.2367 10.8557 21.4611 10.8455C23.9907 10.7843 26.4999 10.4885 28.9786 9.94787C29.1826 9.90707 29.2642 9.92747 29.3152 10.1315C29.8354 12.0491 30.223 13.9871 30.4576 15.9557C30.4882 16.2413 30.427 16.3025 30.1414 16.3025C28.7032 16.2821 27.265 16.2924 25.8267 16.2924Z" fill="#2567B2"/>
<path d="M19.7271 36.0704C19.7271 37.4984 19.7271 38.9162 19.7271 40.3443C19.7271 40.7931 19.7067 40.8135 19.2477 40.7115C18.0951 40.4361 17.1158 39.8343 16.2488 39.0488C15.137 38.039 14.2802 36.8252 13.5662 35.5094C13.0562 34.5608 12.6278 33.5816 12.23 32.582C12.1484 32.3678 12.128 32.2658 12.4034 32.2148C14.6882 31.7558 16.9934 31.46 19.3293 31.3988C19.6251 31.3886 19.7373 31.4395 19.7271 31.7762C19.7169 33.194 19.7271 34.6322 19.7271 36.0704Z" fill="#2567B2"/>
<path d="M19.7271 4.68459C19.7271 6.14321 19.7271 7.61203 19.7271 9.07065C19.7271 9.28485 19.7271 9.39705 19.4415 9.39705C17.075 9.31545 14.729 9.06044 12.4034 8.55044C12.281 8.51984 12.0974 8.58104 12.1994 8.31584C13.0664 6.06161 14.1068 3.89918 15.8204 2.14476C16.82 1.12474 17.9726 0.339333 19.4007 0.0231293C19.6761 -0.0380715 19.7373 0.0129291 19.7373 0.288333C19.7271 1.75715 19.7271 3.22597 19.7271 4.68459Z" fill="#2567B2"/>
<path d="M21.1857 4.66421C21.1857 3.21579 21.1959 1.76737 21.1755 0.318955C21.1755 0.023151 21.2367 -0.0278497 21.5325 0.0435512C23.2359 0.420956 24.5109 1.45117 25.6125 2.73639C27.0202 4.37861 27.9382 6.30643 28.7032 8.31586C28.795 8.55046 28.6726 8.54026 28.5196 8.57086C26.1837 9.08087 23.8275 9.33587 21.4407 9.41747C21.1755 9.42767 21.1755 9.30527 21.1755 9.11147C21.1857 7.61205 21.1857 6.14323 21.1857 4.66421Z" fill="#2567B2"/>
<path d="M5.69168 34.5608C7.2421 33.7448 8.82312 33.1634 10.4347 32.6839C10.7101 32.6023 10.7407 32.7451 10.8019 32.939C11.465 34.9178 12.4442 36.7334 13.7294 38.3858C14.2088 39.008 14.7392 39.5792 15.3716 40.2116C11.567 39.1916 8.38452 37.3352 5.69168 34.5608Z" fill="#2567B2"/>
<path d="M25.6942 0.69635C29.407 1.61436 32.5486 3.46059 35.2109 6.20442C34.3949 6.66343 33.5687 7.02043 32.722 7.32644C31.9978 7.59164 31.2634 7.80584 30.529 8.05065C30.2842 8.13225 30.1822 8.10165 30.0904 7.82624C29.305 5.44961 28.0606 3.32798 26.398 1.46136C26.1736 1.20636 25.939 0.961553 25.6942 0.69635Z" fill="#2567B2"/>
<path d="M25.6533 40.1504C26.4285 39.314 27.1629 38.4572 27.8055 37.529C28.7848 36.1112 29.5498 34.5913 30.0904 32.9491C30.1822 32.6839 30.2638 32.6329 30.5392 32.7145C32.1406 33.1735 33.6808 33.7753 35.2108 34.5607C32.5384 37.325 29.356 39.1712 25.6533 40.1504Z" fill="#2567B2"/>
<path d="M5.72229 6.18398C7.34411 4.49075 9.21074 3.12394 11.312 2.07332C12.4442 1.50212 13.6172 1.05331 14.831 0.706505C14.933 0.675904 15.0656 0.553503 15.1472 0.716705C15.1982 0.828906 15.0554 0.879907 14.984 0.951308C13.0868 2.90973 11.6996 5.18436 10.8428 7.765C10.7306 8.1016 10.598 8.122 10.2919 8.0302C8.84353 7.60179 7.42571 7.07139 6.06909 6.38798C5.94669 6.33698 5.81409 6.31658 5.72229 6.18398Z" fill="#2567B2"/>
<path d="M7.91528 18.2712C8.27229 18.2712 8.59869 18.2712 8.9353 18.2712C9.1393 18.2712 9.1087 18.4242 9.1393 18.5466C9.3331 19.485 9.5167 20.4234 9.71051 21.3924C9.90431 21.0966 9.91451 20.7702 9.98591 20.4744C10.1593 19.8318 10.3225 19.1892 10.4551 18.5364C10.5061 18.3222 10.5877 18.261 10.8019 18.261C11.7199 18.2406 11.7199 18.2406 11.9341 19.1382C12.1075 19.8828 12.2911 20.6274 12.5257 21.372C12.7195 20.4336 12.9133 19.4952 13.0868 18.5466C13.1276 18.3324 13.199 18.2508 13.4132 18.261C13.6988 18.2814 13.9946 18.261 14.321 18.261C13.9436 19.7094 13.607 21.1374 13.1786 22.5246C13.0255 23.0142 12.4645 22.647 12.0973 22.749C11.8831 22.8102 11.8015 22.6776 11.7505 22.4838C11.5567 21.6372 11.3527 20.7906 11.0773 19.944C10.9039 20.6172 10.7305 21.2904 10.5571 21.9636C10.3633 22.749 10.3633 22.7184 9.5473 22.7592C9.1189 22.7796 8.9965 22.6266 8.9047 22.239C8.60889 20.9334 8.26209 19.6278 7.91528 18.2712Z" fill="#2567B2"/>
<path d="M21.1449 20.4336C21.7059 20.0766 21.8997 19.6686 21.7773 19.1586C21.6549 18.669 21.2469 18.3222 20.6655 18.2916C19.9616 18.261 19.2578 18.2814 18.554 18.261C18.3908 18.261 18.3194 18.312 18.3194 18.4854C18.3194 19.8318 18.3194 21.1782 18.3194 22.5144C18.3194 22.647 18.3296 22.749 18.503 22.7388C19.2476 22.7286 19.9922 22.7592 20.7369 22.698C21.3897 22.647 21.7875 22.2696 21.8793 21.7698C21.9915 21.219 21.7773 20.811 21.1449 20.4336ZM19.4516 19.179C19.472 19.0872 19.6658 19.1382 19.7882 19.128C19.8494 19.1178 19.9208 19.128 19.982 19.128C20.4921 19.1382 20.7063 19.281 20.6961 19.6176C20.6961 19.9338 20.4921 20.0562 19.9922 20.0664C19.9514 20.0664 19.9106 20.0664 19.8494 20.0664C19.727 20.0256 19.4822 20.1582 19.4414 19.995C19.3802 19.74 19.4006 19.4442 19.4516 19.179ZM20.4717 21.831C20.2881 21.9024 20.1045 21.8718 19.9004 21.882C19.7576 21.8514 19.4822 21.9636 19.4414 21.8208C19.37 21.5454 19.421 21.2496 19.421 20.9538C19.421 20.9334 19.4414 20.913 19.4618 20.8926C19.6148 20.7804 20.5533 20.9028 20.6757 21.0558C20.9103 21.3108 20.7981 21.7086 20.4717 21.831Z" fill="#2567B2"/>
<path d="M32.7322 18.7914C32.416 18.1895 31.8856 17.9753 31.243 17.9753C30.6106 17.9855 30.0496 18.1793 29.7742 18.8118C29.3152 19.8522 29.305 20.913 29.7946 21.933C30.2842 22.953 31.9876 23.0244 32.62 22.086C32.977 21.5556 33.028 20.9538 33.0484 20.3724C33.0484 19.8012 32.9872 19.2708 32.7322 18.7914ZM31.9774 20.454C31.9672 20.6784 31.9774 20.9742 31.8856 21.2496C31.7836 21.5556 31.5694 21.6984 31.2532 21.6984C30.937 21.6984 30.7126 21.5352 30.631 21.2394C30.478 20.6274 30.4678 20.0052 30.6616 19.3932C30.7534 19.1178 30.9574 19.0056 31.2328 18.9954C31.5388 18.9852 31.7428 19.1076 31.8448 19.3932C31.9774 19.7298 31.9774 20.0562 31.9774 20.454Z" fill="#2567B2"/>
<path d="M26.2755 20.3214C26.8468 20.5662 27.0508 21.0048 27.01 21.5862C26.9692 22.1268 26.6427 22.5246 26.0715 22.698C25.5309 22.8612 25.0005 22.8204 24.4905 22.5654C24.3069 22.4736 24.1641 22.341 24.0417 22.1778C23.8581 21.9228 23.6643 21.5454 23.8275 21.3414C24.0009 21.117 24.4191 21.2802 24.7353 21.27C24.8679 21.27 24.8373 21.4026 24.8577 21.4842C24.9597 21.8004 25.2045 21.9126 25.5105 21.8718C25.8063 21.8412 25.9491 21.6474 25.9593 21.3516C25.9695 21.0354 25.7859 20.8722 25.4901 20.8008C25.4595 20.7906 25.4391 20.7906 25.4085 20.7804C25.2555 20.7396 25.0107 20.8416 24.9699 20.7192C24.8985 20.505 24.9393 20.25 24.9291 20.0154C24.9291 19.8726 25.0311 19.8828 25.1229 19.8828C25.2861 19.893 25.4391 19.8624 25.5921 19.8012C25.8063 19.7196 25.8879 19.536 25.8675 19.3218C25.8471 19.1076 25.7451 18.9444 25.5105 18.9035C25.2861 18.8627 25.0923 18.8934 24.9597 19.1178C24.8985 19.2198 24.9393 19.4034 24.7455 19.4034C24.4497 19.3932 24.1641 19.3932 23.8683 19.383C23.8071 19.383 23.8173 19.3014 23.8275 19.2504C23.8377 19.1586 23.8581 19.0668 23.8887 18.975C24.0825 18.2609 24.8475 17.8427 25.7451 17.9855C26.5203 18.1079 26.9692 18.6179 26.9284 19.332C26.908 19.7196 26.7957 19.9032 26.2755 20.3214Z" fill="#2567B2"/>
<path d="M14.8718 20.4846C14.8718 19.842 14.882 19.2096 14.8718 18.567C14.8718 18.3528 14.9024 18.261 15.1472 18.261C15.8918 18.2814 16.6364 18.2712 17.381 18.261C17.5748 18.261 17.6258 18.3222 17.6258 18.516C17.6462 19.128 17.6564 19.128 17.0546 19.128C16.8812 19.128 16.7078 19.1178 16.5344 19.128C16.3508 19.1382 16.0652 19.0362 16.0142 19.179C15.9224 19.3932 15.9734 19.6686 15.9734 19.9236C15.9734 20.0664 16.0958 20.0358 16.1774 20.0358C16.4936 20.0358 16.82 20.046 17.1362 20.0358C17.3504 20.0256 17.432 20.0868 17.432 20.3112C17.432 20.8824 17.4422 20.8824 16.871 20.8824C16.7282 20.8824 16.5752 20.9028 16.4324 20.8824C16.0448 20.8212 15.9326 20.964 15.9632 21.3516C16.004 21.8718 15.9734 21.8718 16.5038 21.8718C16.6874 21.8718 16.8812 21.8718 17.0648 21.8718C17.636 21.8718 17.7482 22.0248 17.6258 22.596C17.5952 22.749 17.5136 22.749 17.4014 22.749C16.6262 22.749 15.8612 22.7388 15.086 22.749C14.8514 22.749 14.8718 22.6164 14.8718 22.4634C14.8718 21.8106 14.8718 21.1476 14.8718 20.4846Z" fill="#2567B2"/>
<path d="M28.2646 22.7898C27.8667 22.7796 27.6219 22.545 27.6321 22.1778C27.6423 21.8412 27.8973 21.6066 28.2646 21.6066C28.6318 21.6066 28.9276 21.8718 28.9174 22.2084C28.9276 22.5552 28.6522 22.8 28.2646 22.7898Z" fill="#2567B2"/>
</svg>
