<svg width="51" height="50" viewBox="0 0 51 50" fill="none" xmlns="http://www.w3.org/2000/svg">
<path d="M26.6951 25.2567C26.6952 25.4729 26.7595 25.6842 26.8797 25.8639C27 26.0435 27.1708 26.1835 27.3706 26.2662C27.5704 26.3488 27.7902 26.3703 28.0022 26.328C28.2142 26.2857 28.4089 26.1815 28.5617 26.0286C28.7146 25.8757 28.8186 25.6809 28.8607 25.4688C28.9028 25.2568 28.8811 25.037 28.7984 24.8373C28.7156 24.6375 28.5755 24.4668 28.3957 24.3467C28.2159 24.2266 28.0046 24.1625 27.7884 24.1625C27.4984 24.163 27.2205 24.2784 27.0155 24.4835C26.8105 24.6887 26.6953 24.9667 26.6951 25.2567Z" fill="#EE4C4C"/>
<path d="M22.4973 25.2567C22.4975 25.4729 22.5617 25.6842 22.682 25.8639C22.8022 26.0435 22.973 26.1835 23.1728 26.2662C23.3726 26.3488 23.5924 26.3703 23.8044 26.328C24.0165 26.2857 24.2112 26.1815 24.364 26.0286C24.5168 25.8757 24.6209 25.6809 24.663 25.4688C24.7051 25.2567 24.6834 25.037 24.6006 24.8372C24.5178 24.6375 24.3777 24.4668 24.1979 24.3467C24.0181 24.2266 23.8068 24.1625 23.5906 24.1625C23.3006 24.163 23.0227 24.2784 22.8177 24.4836C22.6127 24.6887 22.4975 24.9667 22.4973 25.2567Z" fill="#EE4C4C"/>
<path d="M50.7811 7.75777C50.7811 1.33399 31.8601 0 25.3911 0C18.9225 0 0.0012172 1.334 0.0012172 7.75777L0 31.9301L2.72411e-05 31.9305L0 31.9309C0 35.2015 5.24291 37.095 9.64111 38.1076C10.1958 38.2359 10.7484 37.9225 10.7484 36.9216V27.3672C13.5995 26.7813 16.4872 26.3901 19.3915 26.1962C19.5104 26.1879 19.6266 26.1563 19.7333 26.1031C19.84 26.0499 19.9352 25.9762 20.0134 25.8862C20.0915 25.7962 20.1512 25.6916 20.1889 25.5785C20.2267 25.4654 20.2417 25.346 20.2333 25.2271C20.2248 25.1081 20.1929 24.992 20.1395 24.8854C20.0861 24.7788 20.0122 24.6838 19.9221 24.6058C19.8319 24.5278 19.7272 24.4683 19.6141 24.4308C19.5009 24.3933 19.3814 24.3784 19.2625 24.3871C16.403 24.5768 13.5589 24.953 10.7484 25.5133V13.3036C10.7484 12.7605 10.6338 12.3017 10.0492 12.1671C7.55009 11.5917 2.27026 10.1877 1.82014 7.66296C2.04377 5.1885 10.9689 1.81361 25.3911 1.81361C39.9983 1.81361 48.9675 5.27568 48.9675 7.75777C48.9675 8.80122 47.1252 10.5047 41.933 11.8716C41.4066 12.0101 41.1683 12.6191 41.1695 12.936L41.2157 25.7728C38.2447 25.0836 34.7315 24.594 30.9984 24.3518C30.7584 24.3362 30.522 24.4166 30.3413 24.5753C30.1606 24.734 30.0503 24.958 30.0348 25.198C30.0192 25.438 30.0996 25.6744 30.2583 25.8551C30.417 26.0358 30.641 26.1461 30.881 26.1616C34.6956 26.409 38.2628 26.9195 41.2225 27.6387L41.2559 36.925C41.2567 37.0633 41.2892 37.1997 41.3507 37.3236C41.4123 37.4476 41.5013 37.5558 41.611 37.6401C41.7208 37.7243 41.8483 37.7824 41.984 37.8099C42.1196 37.8374 42.2597 37.8335 42.3936 37.7986C47.88 36.3543 50.7799 34.3253 50.7799 31.9309L50.7799 31.9308L50.7799 31.9307L50.7811 7.75777ZM8.93477 13.7653V36.0678C3.70471 34.7081 1.81362 33.0166 1.81361 31.9309L1.8324 10.8366C3.58906 12.1803 6.34878 13.1246 8.93477 13.7653ZM43.0652 35.7247L42.985 13.4645C45.647 12.7172 47.6524 11.8244 48.9623 10.8137L48.9663 31.9309C48.9663 32.8944 47.3933 34.4204 43.0652 35.7247Z" fill="#EE4C4C"/>
<path d="M31.012 38.1287C31.2525 38.1287 31.4832 38.0332 31.6532 37.8631C31.8233 37.6931 31.9188 37.4624 31.9188 37.2219V37.1054C31.9188 36.8649 31.8233 36.6342 31.6532 36.4641C31.4832 36.2941 31.2525 36.1985 31.012 36.1985C30.7715 36.1985 30.5409 36.2941 30.3708 36.4641C30.2008 36.6342 30.1052 36.8649 30.1052 37.1054V37.2219C30.1052 37.4624 30.2008 37.6931 30.3708 37.8631C30.5409 38.0332 30.7715 38.1287 31.012 38.1287Z" fill="#EE4C4C"/>
<path d="M31.046 40.0992C30.8055 40.0992 30.5748 40.1947 30.4048 40.3648C30.2347 40.5348 30.1392 40.7655 30.1392 41.006V41.1224C30.1392 41.3629 30.2347 41.5936 30.4048 41.7636C30.5748 41.9337 30.8055 42.0292 31.046 42.0292C31.2865 42.0292 31.5171 41.9337 31.6872 41.7636C31.8572 41.5936 31.9528 41.3629 31.9528 41.1224V41.006C31.9528 40.7655 31.8572 40.5348 31.6872 40.3648C31.5171 40.1947 31.2865 40.0992 31.046 40.0992Z" fill="#EE4C4C"/>
<path d="M29.1371 38.224H29.0206C28.7801 38.224 28.5494 38.3195 28.3794 38.4896C28.2093 38.6597 28.1138 38.8903 28.1138 39.1308C28.1138 39.3713 28.2093 39.602 28.3794 39.772C28.5494 39.9421 28.7801 40.0376 29.0206 40.0376H29.1371C29.3776 40.0376 29.6082 39.9421 29.7783 39.772C29.9483 39.602 30.0439 39.3713 30.0439 39.1308C30.0439 38.8903 29.9483 38.6597 29.7783 38.4896C29.6082 38.3195 29.3776 38.224 29.1371 38.224Z" fill="#EE4C4C"/>
<path d="M33.0375 38.1902H32.921C32.6805 38.1902 32.4498 38.2858 32.2798 38.4558C32.1097 38.6259 32.0142 38.8566 32.0142 39.0971C32.0142 39.3376 32.1097 39.5682 32.2798 39.7383C32.4498 39.9083 32.6805 40.0039 32.921 40.0039H33.0375C33.278 40.0039 33.5086 39.9083 33.6787 39.7383C33.8487 39.5682 33.9443 39.3376 33.9443 39.0971C33.9443 38.8566 33.8487 38.6259 33.6787 38.4558C33.5086 38.2858 33.278 38.1902 33.0375 38.1902Z" fill="#EE4C4C"/>
<path d="M29.0611 11.9191C29.0603 11.2279 28.7854 10.5653 28.2966 10.0765C27.8079 9.58778 27.1452 9.31286 26.454 9.31207H24.8627C24.1715 9.31286 23.5088 9.58778 23.0201 10.0765C22.5313 10.5653 22.2564 11.2279 22.2556 11.9191V13.5105C22.2564 14.2017 22.5313 14.8643 23.0201 15.3531C23.5088 15.8418 24.1715 16.1168 24.8627 16.1175H26.454C27.1452 16.1168 27.8079 15.8418 28.2966 15.3531C28.7854 14.8643 29.0603 14.2017 29.0611 13.5105V11.9191ZM27.2475 13.5105C27.2472 13.7208 27.1636 13.9225 27.0148 14.0713C26.8661 14.22 26.6644 14.3037 26.454 14.3039H24.8627C24.6523 14.3037 24.4506 14.22 24.3019 14.0713C24.1531 13.9225 24.0695 13.7208 24.0692 13.5105V11.9191C24.0695 11.7088 24.1531 11.5071 24.3019 11.3583C24.4506 11.2096 24.6523 11.1259 24.8627 11.1257H26.454C26.6644 11.1259 26.8661 11.2096 27.0148 11.3583C27.1636 11.5071 27.2472 11.7088 27.2475 11.9191V13.5105Z" fill="#EE4C4C"/>
<path d="M16.0131 10.492C15.3219 10.4928 14.6592 10.7677 14.1705 11.2565C13.6817 11.7452 13.4068 12.4079 13.406 13.0991V14.6904C13.4068 15.3816 13.6817 16.0443 14.1705 16.533C14.6592 17.0218 15.3219 17.2967 16.0131 17.2975H17.6044C18.2956 17.2967 18.9583 17.0218 19.447 16.533C19.9358 16.0443 20.2107 15.3816 20.2115 14.6904V13.0991C20.2107 12.4079 19.9358 11.7452 19.447 11.2565C18.9583 10.7677 18.2956 10.4928 17.6044 10.492H16.0131ZM18.3979 13.0991V14.6904C18.3976 14.9008 18.314 15.1025 18.1652 15.2512C18.0165 15.4 17.8148 15.4836 17.6044 15.4839H16.0131C15.8027 15.4836 15.601 15.4 15.4523 15.2512C15.3035 15.1025 15.2199 14.9008 15.2196 14.6904V13.0991C15.2199 12.8887 15.3035 12.687 15.4523 12.5383C15.601 12.3895 15.8027 12.3059 16.0131 12.3056H17.6044C17.8148 12.3058 18.0165 12.3895 18.1652 12.5383C18.314 12.687 18.3976 12.8887 18.3979 13.0991Z" fill="#EE4C4C"/>
<path d="M35.5617 17.2975C36.2529 17.2967 36.9155 17.0218 37.4043 16.533C37.893 16.0443 38.168 15.3816 38.1687 14.6904V13.0991C38.168 12.4079 37.893 11.7452 37.4043 11.2565C36.9155 10.7677 36.2529 10.4928 35.5617 10.492H33.9703C33.2792 10.4928 32.6165 10.7677 32.1277 11.2565C31.639 11.7452 31.3641 12.4079 31.3633 13.0991V14.6904C31.3641 15.3816 31.639 16.0443 32.1277 16.533C32.6165 17.0218 33.2792 17.2967 33.9703 17.2975H35.5617ZM33.1769 14.6904V13.0991C33.1771 12.8887 33.2608 12.687 33.4095 12.5383C33.5583 12.3895 33.76 12.3059 33.9703 12.3056H35.5617C35.772 12.3059 35.9737 12.3895 36.1225 12.5383C36.2712 12.687 36.3549 12.8887 36.3551 13.0991V14.6904C36.3549 14.9008 36.2712 15.1025 36.1225 15.2512C35.9737 15.4 35.772 15.4836 35.5617 15.4839H33.9703C33.76 15.4836 33.5583 15.4 33.4095 15.2512C33.2608 15.1025 33.1771 14.9008 33.1769 14.6904Z" fill="#EE4C4C"/>
<path d="M29.691 32.0064C28.5135 32.4051 26.3858 33.0377 25.6895 33.0377C24.9931 33.0377 22.8655 32.4051 21.688 32.0064C21.6671 31.9993 21.646 31.993 21.6247 31.9874C15.4277 30.3811 12.6684 36.1264 12.1917 42.4571C12.0373 44.1045 11.8691 47.8298 13.0934 48.9625C14.1848 50.1953 16.0965 50.4622 17.873 49.0331C20.354 47.0374 21.5278 45.0234 25.7862 45.0234C29.9974 45.1499 31.6491 47.5398 33.5059 49.0331C35.7815 50.8636 37.6704 49.6572 38.2855 48.9625C39.5123 47.8276 39.3408 44.0857 39.1873 42.4574C38.7181 36.2264 35.6079 29.9974 29.691 32.0064ZM37.0501 47.6345C36.9021 47.7599 36.155 48.8363 34.6427 47.62C32.9094 46.226 30.774 43.3531 25.8257 43.2101C21.0032 43.088 19.0326 45.7727 16.7363 47.62C15.4267 48.6732 14.7954 48.03 14.3323 47.6376C13.9427 47.2478 13.7833 44.8567 13.998 42.621C13.9986 42.6147 13.9991 42.6082 13.9996 42.6019C14.38 37.5235 16.1811 32.4736 21.1387 33.7351C21.7642 33.9461 24.5158 34.8513 25.6895 34.8513C26.8631 34.8513 29.6147 33.9461 30.2403 33.7351C35.1585 32.4839 37.0003 37.5412 37.3794 42.6019C37.3798 42.6082 37.3804 42.6147 37.381 42.621C37.5956 44.8567 37.4362 47.2478 37.0501 47.6345Z" fill="#EE4C4C"/>
<path d="M21.4749 37.873H20.6128V37.0925C20.6128 36.852 20.5172 36.6213 20.3472 36.4513C20.1771 36.2812 19.9465 36.1857 19.706 36.1857C19.4655 36.1857 19.2348 36.2812 19.0648 36.4513C18.8947 36.6213 18.7992 36.852 18.7992 37.0925V37.873H17.9371C17.6966 37.873 17.4659 37.9685 17.2959 38.1386C17.1258 38.3086 17.0303 38.5393 17.0303 38.7798C17.0303 39.0203 17.1258 39.2509 17.2959 39.421C17.4659 39.591 17.6966 39.6866 17.9371 39.6866H18.7992V40.6939C18.7992 40.9344 18.8947 41.1651 19.0648 41.3351C19.2348 41.5052 19.4655 41.6007 19.706 41.6007C19.9465 41.6007 20.1771 41.5052 20.3472 41.3351C20.5172 41.1651 20.6128 40.9344 20.6128 40.6939V39.6866H21.4749C21.7154 39.6866 21.9461 39.591 22.1161 39.421C22.2862 39.2509 22.3817 39.0203 22.3817 38.7798C22.3817 38.5393 22.2862 38.3086 22.1161 38.1386C21.9461 37.9685 21.7154 37.873 21.4749 37.873Z" fill="#EE4C4C"/>
</svg>
