<svg width="199.000000" height="40.000000" viewBox="0 0 199 40" fill="none" xmlns="http://www.w3.org/2000/svg" xmlns:xlink="http://www.w3.org/1999/xlink">
	<desc>
			Created with Pixso.
	</desc>
	<defs>
		<linearGradient id="paint_linear_1_316_0" x1="9.494005" y1="20.000000" x2="194.891785" y2="28.133759" gradientUnits="userSpaceOnUse">
			<stop stop-color="#1C33F7"/>
			<stop offset="1.000000" stop-color="#7728ED"/>
		</linearGradient>
	</defs>
	<rect id="Rectangle 21430" x="0.500000" y="0.500000" rx="8.000000" width="198.000000" height="39.000000" fill="url(#paint_linear_1_316_0)" fill-opacity="1.000000"/>
	<rect id="Rectangle 21430" x="0.500000" y="0.500000" rx="8.000000" width="198.000000" height="39.000000" stroke="#FFFFFF" stroke-opacity="0" stroke-width="1.000000"/>
	<path id="Update password" d="M40.3242 16.2417L40.3242 22.4146Q40.3242 23.7168 40.96 24.3491Q41.5991 24.978 42.7305 24.978Q43.8516 24.978 44.4873 24.3491Q45.1265 23.7168 45.1265 22.4146L45.1265 16.2417L46.4014 16.2417L46.4014 22.4009Q46.4014 23.6211 45.9092 24.4551Q45.4204 25.2856 44.5864 25.6924Q43.7524 26.0991 42.7168 26.0991Q41.6812 26.0991 40.8472 25.6924Q40.0166 25.2856 39.5312 24.4551Q39.0493 23.6211 39.0493 22.4009L39.0493 16.2417L40.3242 16.2417ZM49.8016 19.7417Q50.181 19.0854 50.9295 18.6445Q51.678 18.2036 52.6727 18.2036Q53.6946 18.2036 54.5252 18.6924Q55.3592 19.1812 55.8343 20.0698Q56.3128 20.9585 56.3128 22.1377Q56.3128 23.2964 55.8343 24.209Q55.3592 25.1182 54.5252 25.624Q53.6946 26.1265 52.6727 26.1265Q51.6917 26.1265 50.9432 25.6855Q50.1946 25.2446 49.8016 24.585L49.8016 29.6401L48.5267 29.6401L48.5267 18.3267L49.8016 18.3267L49.8016 19.7417ZM55.0105 22.1377Q55.0105 21.2695 54.6585 20.627Q54.3099 19.981 53.7151 19.646Q53.1204 19.3076 52.4061 19.3076Q51.7054 19.3076 51.1106 19.6528Q50.5159 19.9946 50.157 20.6475Q49.8016 21.2969 49.8016 22.1514Q49.8016 23.0195 50.157 23.6689Q50.5159 24.3184 51.1106 24.6636Q51.7054 25.0054 52.4061 25.0054Q53.1204 25.0054 53.7151 24.6636Q54.3099 24.3184 54.6585 23.6689Q55.0105 23.0195 55.0105 22.1377ZM57.5156 22.1377Q57.5156 20.9585 57.9907 20.0698Q58.4692 19.1812 59.2997 18.6924Q60.1337 18.2036 61.1694 18.2036Q62.0649 18.2036 62.8339 18.6172Q63.6064 19.0273 64.0131 19.7007L64.0131 15.6401L65.2983 15.6401L65.2983 26L64.0131 26L64.0131 24.5576Q63.6337 25.2446 62.892 25.6855Q62.1503 26.1265 61.1557 26.1265Q60.1337 26.1265 59.2997 25.624Q58.4692 25.1182 57.9907 24.209Q57.5156 23.2964 57.5156 22.1377ZM64.0131 22.1514Q64.0131 21.2832 63.6611 20.6406Q63.3124 19.9946 62.7177 19.6528Q62.123 19.3076 61.4086 19.3076Q60.6943 19.3076 60.1064 19.646Q59.5185 19.981 59.1664 20.627Q58.8178 21.2695 58.8178 22.1377Q58.8178 23.0195 59.1664 23.6689Q59.5185 24.3184 60.1064 24.6636Q60.6943 25.0054 61.4086 25.0054Q62.123 25.0054 62.7177 24.6636Q63.3124 24.3184 63.6611 23.6689Q64.0131 23.0195 64.0131 22.1514ZM66.9796 22.1377Q66.9796 20.9585 67.4547 20.0698Q67.9332 19.1812 68.7637 18.6924Q69.5977 18.2036 70.6197 18.2036Q71.628 18.2036 72.3697 18.6377Q73.1114 19.0684 73.4771 19.728L73.4771 18.3267L74.7623 18.3267L74.7623 26L73.4771 26L73.4771 24.5713Q73.0977 25.2446 72.3492 25.6855Q71.6007 26.1265 70.606 26.1265Q69.5841 26.1265 68.7569 25.624Q67.9332 25.1182 67.4547 24.209Q66.9796 23.2964 66.9796 22.1377ZM73.4771 22.1514Q73.4771 21.2832 73.1251 20.6406Q72.7764 19.9946 72.1817 19.6528Q71.587 19.3076 70.8726 19.3076Q70.1583 19.3076 69.5704 19.646Q68.9825 19.981 68.6304 20.627Q68.2818 21.2695 68.2818 22.1377Q68.2818 23.0195 68.6304 23.6689Q68.9825 24.3184 69.5704 24.6636Q70.1583 25.0054 70.8726 25.0054Q71.587 25.0054 72.1817 24.6636Q72.7764 24.3184 73.1251 23.6689Q73.4771 23.0195 73.4771 22.1514ZM78.4738 19.3794L78.4738 23.9014Q78.4738 24.4585 78.7097 24.6909Q78.9489 24.9233 79.5368 24.9233L80.4768 24.9233L80.4768 26L79.3283 26Q78.2653 26 77.7321 25.5112Q77.1989 25.019 77.1989 23.9014L77.1989 19.3794L76.2043 19.3794L76.2043 18.3267L77.1989 18.3267L77.1989 16.3955L78.4738 16.3955L78.4738 18.3267L80.4768 18.3267L80.4768 19.3794L78.4738 19.3794ZM89.0147 21.8711Q89.0147 22.2334 88.9736 22.6401L82.8418 22.6401Q82.9136 23.7749 83.6177 24.4106Q84.3252 25.0464 85.3335 25.0464Q86.1607 25.0464 86.711 24.6636Q87.2647 24.2773 87.4902 23.6348L88.8609 23.6348Q88.5532 24.7388 87.6304 25.4326Q86.7075 26.1265 85.3335 26.1265Q84.2432 26.1265 83.3819 25.6377Q82.5205 25.1455 82.0283 24.2432Q81.5396 23.3408 81.5396 22.1514Q81.5396 20.9585 82.0147 20.063Q82.4932 19.1675 83.3511 18.6855Q84.2124 18.2036 85.3335 18.2036Q86.4273 18.2036 87.2647 18.6787Q88.1055 19.1538 88.5601 19.9878Q89.0147 20.8184 89.0147 21.8711ZM87.6987 21.6045Q87.6987 20.8765 87.3775 20.3535Q87.0562 19.8271 86.5025 19.5537Q85.9487 19.2803 85.2788 19.2803Q84.3115 19.2803 83.6314 19.8955Q82.9546 20.5107 82.8555 21.6045L87.6987 21.6045ZM95.7076 19.7417Q96.087 19.0854 96.8355 18.6445Q97.584 18.2036 98.5787 18.2036Q99.6006 18.2036 100.431 18.6924Q101.265 19.1812 101.74 20.0698Q102.219 20.9585 102.219 22.1377Q102.219 23.2964 101.74 24.209Q101.265 25.1182 100.431 25.624Q99.6006 26.1265 98.5787 26.1265Q97.5977 26.1265 96.8492 25.6855Q96.1006 25.2446 95.7076 24.585L95.7076 29.6401L94.4327 29.6401L94.4327 18.3267L95.7076 18.3267L95.7076 19.7417ZM100.917 22.1377Q100.917 21.2695 100.564 20.627Q100.216 19.981 99.6211 19.646Q99.0264 19.3076 98.3121 19.3076Q97.6114 19.3076 97.0166 19.6528Q96.4219 19.9946 96.063 20.6475Q95.7076 21.2969 95.7076 22.1514Q95.7076 23.0195 96.063 23.6689Q96.4219 24.3184 97.0166 24.6636Q97.6114 25.0054 98.3121 25.0054Q99.0264 25.0054 99.6211 24.6636Q100.216 24.3184 100.564 23.6689Q100.917 23.0195 100.917 22.1377ZM103.422 22.1377Q103.422 20.9585 103.897 20.0698Q104.375 19.1812 105.206 18.6924Q106.04 18.2036 107.062 18.2036Q108.07 18.2036 108.812 18.6377Q109.553 19.0684 109.919 19.728L109.919 18.3267L111.204 18.3267L111.204 26L109.919 26L109.919 24.5713Q109.54 25.2446 108.791 25.6855Q108.043 26.1265 107.048 26.1265Q106.026 26.1265 105.199 25.624Q104.375 25.1182 103.897 24.209Q103.422 23.2964 103.422 22.1377ZM109.919 22.1514Q109.919 21.2832 109.567 20.6406Q109.218 19.9946 108.624 19.6528Q108.029 19.3076 107.315 19.3076Q106.6 19.3076 106.012 19.646Q105.424 19.981 105.072 20.627Q104.724 21.2695 104.724 22.1377Q104.724 23.0195 105.072 23.6689Q105.424 24.3184 106.012 24.6636Q106.6 25.0054 107.315 25.0054Q108.029 25.0054 108.624 24.6636Q109.218 24.3184 109.567 23.6689Q109.919 23.0195 109.919 22.1514ZM116.078 26.1265Q115.196 26.1265 114.495 25.8257Q113.795 25.5249 113.388 24.9849Q112.985 24.4448 112.944 23.7476L114.26 23.7476Q114.314 24.3184 114.796 24.6841Q115.282 25.0464 116.064 25.0464Q116.792 25.0464 117.213 24.7251Q117.633 24.4038 117.633 23.915Q117.633 23.4092 117.185 23.1665Q116.738 22.9204 115.798 22.6812Q114.943 22.459 114.403 22.23Q113.867 21.9976 113.48 21.543Q113.097 21.085 113.097 20.3433Q113.097 19.7554 113.446 19.2666Q113.795 18.7744 114.437 18.4907Q115.083 18.2036 115.91 18.2036Q117.185 18.2036 117.968 18.8462Q118.751 19.4888 118.809 20.6099L117.534 20.6099Q117.493 20.0083 117.052 19.646Q116.611 19.2803 115.869 19.2803Q115.182 19.2803 114.776 19.5742Q114.369 19.8682 114.369 20.3433Q114.369 20.7227 114.615 20.9688Q114.861 21.2114 115.23 21.3584Q115.603 21.5054 116.259 21.6865Q117.086 21.9121 117.602 22.1309Q118.122 22.3462 118.491 22.7803Q118.864 23.2144 118.877 23.915Q118.877 24.5439 118.525 25.0498Q118.177 25.5522 117.541 25.8394Q116.905 26.1265 116.078 26.1265ZM123.386 26.1265Q122.504 26.1265 121.803 25.8257Q121.103 25.5249 120.696 24.9849Q120.293 24.4448 120.252 23.7476L121.568 23.7476Q121.622 24.3184 122.104 24.6841Q122.59 25.0464 123.372 25.0464Q124.1 25.0464 124.521 24.7251Q124.941 24.4038 124.941 23.915Q124.941 23.4092 124.493 23.1665Q124.046 22.9204 123.106 22.6812Q122.251 22.459 121.711 22.23Q121.175 21.9976 120.788 21.543Q120.405 21.085 120.405 20.3433Q120.405 19.7554 120.754 19.2666Q121.103 18.7744 121.745 18.4907Q122.391 18.2036 123.218 18.2036Q124.493 18.2036 125.276 18.8462Q126.059 19.4888 126.117 20.6099L124.842 20.6099Q124.801 20.0083 124.36 19.646Q123.919 19.2803 123.177 19.2803Q122.49 19.2803 122.084 19.5742Q121.677 19.8682 121.677 20.3433Q121.677 20.7227 121.923 20.9688Q122.169 21.2114 122.538 21.3584Q122.911 21.5054 123.567 21.6865Q124.394 21.9121 124.91 22.1309Q125.43 22.3462 125.799 22.7803Q126.172 23.2144 126.185 23.915Q126.185 24.5439 125.833 25.0498Q125.485 25.5522 124.849 25.8394Q124.213 26.1265 123.386 26.1265ZM138.196 18.3267L135.804 26L134.488 26L132.639 19.9092L130.793 26L129.477 26L127.067 18.3267L128.37 18.3267L130.133 24.7695L132.037 18.3267L133.339 18.3267L135.202 24.7832L136.939 18.3267L138.196 18.3267ZM142.803 26.1265Q141.726 26.1265 140.851 25.6377Q139.976 25.1455 139.477 24.2432Q138.982 23.3408 138.982 22.1514Q138.982 20.9756 139.491 20.0732Q140.004 19.1675 140.885 18.6855Q141.767 18.2036 142.861 18.2036Q143.951 18.2036 144.833 18.6855Q145.715 19.1675 146.224 20.063Q146.737 20.9585 146.737 22.1514Q146.737 23.3408 146.211 24.2432Q145.688 25.1455 144.792 25.6377Q143.897 26.1265 142.803 26.1265ZM142.803 25.0054Q143.49 25.0054 144.091 24.6841Q144.693 24.3628 145.062 23.7202Q145.435 23.0742 145.435 22.1514Q145.435 21.2251 145.069 20.5825Q144.707 19.9365 144.119 19.6221Q143.531 19.3076 142.847 19.3076Q142.147 19.3076 141.566 19.6221Q140.984 19.9365 140.632 20.5825Q140.284 21.2251 140.284 22.1514Q140.284 23.0879 140.626 23.7339Q140.971 24.3765 141.545 24.6909Q142.119 25.0054 142.803 25.0054ZM149.692 19.5742Q150.027 18.9146 150.649 18.5522Q151.274 18.1865 152.17 18.1865L152.17 19.5024L151.835 19.5024Q149.692 19.5024 149.692 21.8267L149.692 26L148.417 26L148.417 18.3267L149.692 18.3267L149.692 19.5742ZM153.164 22.1377Q153.164 20.9585 153.639 20.0698Q154.117 19.1812 154.948 18.6924Q155.782 18.2036 156.817 18.2036Q157.713 18.2036 158.482 18.6172Q159.254 19.0273 159.661 19.7007L159.661 15.6401L160.946 15.6401L160.946 26L159.661 26L159.661 24.5576Q159.282 25.2446 158.54 25.6855Q157.798 26.1265 156.804 26.1265Q155.782 26.1265 154.948 25.624Q154.117 25.1182 153.639 24.209Q153.164 23.2964 153.164 22.1377ZM159.661 22.1514Q159.661 21.2832 159.309 20.6406Q158.96 19.9946 158.366 19.6528Q157.771 19.3076 157.057 19.3076Q156.342 19.3076 155.754 19.646Q155.167 19.981 154.814 20.627Q154.466 21.2695 154.466 22.1377Q154.466 23.0195 154.814 23.6689Q155.167 24.3184 155.754 24.6636Q156.342 25.0054 157.057 25.0054Q157.771 25.0054 158.366 24.6636Q158.96 24.3184 159.309 23.6689Q159.661 23.0195 159.661 22.1514Z" fill="#FFFFFF" fill-opacity="1.000000" fill-rule="evenodd"/>
</svg>
