<svg width="36" height="37" viewBox="0 0 36 37" fill="none" xmlns="http://www.w3.org/2000/svg">
<path d="M34.2433 31.5277H1.68032C0.751832 31.5277 0 30.7718 0 29.8474V6.37625C0 5.44775 0.75594 4.69592 1.68032 4.69592H9.30136L9.2274 5.37791C9.2233 5.41078 9.2274 5.46008 9.26027 5.51349L9.94226 6.56523C10.3202 7.14451 10.3613 7.88813 10.0491 8.50028C9.85188 8.89057 9.68343 9.2973 9.54375 9.71635C9.33011 10.3696 8.77548 10.8626 8.10171 11.0064L6.87742 11.2693C6.78292 11.2899 6.71308 11.3761 6.71308 11.4706V13.5043C6.71308 13.6029 6.78292 13.685 6.87742 13.7056L8.10171 13.9685C8.77959 14.1123 9.33011 14.6094 9.54375 15.2585C9.67933 15.6735 9.85188 16.0843 10.0491 16.4746C10.3613 17.0909 10.3202 17.8304 9.94226 18.4097L9.26027 19.4614C9.20686 19.5436 9.21919 19.6545 9.28903 19.7202L10.727 21.1582C10.7968 21.228 10.9036 21.2403 10.9858 21.1869L12.0375 20.5049C12.6168 20.127 13.3604 20.0859 13.9726 20.3981C14.3629 20.5953 14.7696 20.7638 15.1887 20.9035C15.8419 21.1171 16.3349 21.6717 16.4787 22.3455L16.7416 23.5698C16.7622 23.6643 16.8484 23.7341 16.9429 23.7341H18.9766C19.0752 23.7341 19.1573 23.6643 19.1779 23.5698L19.4408 22.3455C19.5846 21.6676 20.0817 21.1171 20.7308 20.9035C21.1458 20.7679 21.5566 20.5953 21.9469 20.3981C22.5591 20.0859 23.3027 20.127 23.882 20.5049L24.9337 21.1869C25.0159 21.2403 25.1268 21.228 25.1925 21.1582L26.6305 19.7202C26.7003 19.6504 26.7126 19.5436 26.6592 19.4614L25.9772 18.4097C25.5993 17.8304 25.5582 17.0868 25.8704 16.4746C26.0676 16.0843 26.2361 15.6735 26.3716 15.2585C26.5853 14.6053 27.1399 14.1123 27.8137 13.9685L29.038 13.7056C29.1325 13.685 29.2023 13.5988 29.2023 13.5043V11.4706C29.2023 11.372 29.1325 11.2858 29.038 11.2693L27.8137 11.0064C27.1399 10.8626 26.5853 10.3696 26.3675 9.71635C26.232 9.2973 26.0594 8.89057 25.8622 8.50028C25.55 7.88402 25.5911 7.14451 25.969 6.56523L26.651 5.51349C26.6839 5.46419 26.688 5.41078 26.6839 5.37791L26.6099 4.69592H34.231C35.1595 4.69592 35.9113 5.45186 35.9113 6.37625V29.8515C35.9277 30.7759 35.1718 31.5277 34.2433 31.5277ZM1.68032 5.92433C1.43382 5.92433 1.23251 6.12564 1.23251 6.37214V29.8474C1.23251 30.0939 1.43382 30.2952 1.68032 30.2952H34.2433C34.4898 30.2952 34.6911 30.0939 34.6911 29.8474V6.37625C34.6911 6.12974 34.4898 5.92843 34.2433 5.92843H27.826C27.7931 6.01471 27.7479 6.10099 27.6945 6.18315L27.0125 7.2349C26.8729 7.44853 26.8605 7.71969 26.9715 7.94565C27.1974 8.38935 27.3905 8.8577 27.5466 9.33017C27.6247 9.56845 27.8301 9.74922 28.0766 9.80263L29.3009 10.0615C29.9624 10.2011 30.443 10.7927 30.443 11.4706V13.5043C30.443 14.1822 29.9624 14.7738 29.3009 14.9134L28.0766 15.1764C27.826 15.2298 27.6247 15.4106 27.5466 15.6488C27.3905 16.1213 27.1974 16.5897 26.9715 17.0334C26.8564 17.2593 26.8729 17.5305 27.0125 17.7441L27.6986 18.7876C28.0643 19.3546 27.9862 20.1105 27.5097 20.5912L26.0717 22.0291C25.5952 22.5057 24.8351 22.5879 24.2682 22.2181L23.2164 21.5361C23.0028 21.3965 22.7316 21.38 22.5057 21.4951C22.062 21.721 21.5936 21.9141 21.1211 22.0702C20.8829 22.1483 20.7021 22.3496 20.6487 22.6002L20.3899 23.8245C20.2502 24.486 19.6586 24.9666 18.9807 24.9666H16.947C16.2733 24.9666 15.6775 24.486 15.5379 23.8245L15.279 22.6002C15.2256 22.3496 15.0449 22.1483 14.8066 22.0702C14.33 21.9141 13.8658 21.721 13.4221 21.4951C13.1961 21.38 12.9249 21.3965 12.7113 21.5361L11.6596 22.2181C11.0926 22.5838 10.3367 22.5057 9.85599 22.0291L8.41806 20.5912C7.94148 20.1146 7.85932 19.3546 8.22907 18.7876L8.91106 17.7359C9.05075 17.5223 9.06307 17.2511 8.95214 17.0251C8.72618 16.5773 8.53309 16.1131 8.37697 15.6406C8.29891 15.4023 8.0976 15.2216 7.84699 15.1723L6.6227 14.9093C5.96125 14.7697 5.48057 14.178 5.48057 13.5002V11.4665C5.48057 10.7927 5.96125 10.197 6.6227 10.0573L7.84699 9.79852C8.0976 9.74511 8.29891 9.56434 8.37697 9.32606C8.53309 8.84949 8.72618 8.38524 8.95214 7.94154C9.06718 7.71558 9.05075 7.44442 8.91106 7.23079L8.22496 6.17905C8.17155 6.09688 8.13047 6.01471 8.09349 5.92433H1.68032Z" fill="#2567B2"/>
<path d="M21.7826 37H14.1411V30.2952H21.7826V37ZM15.3736 35.7675H20.5501V31.5277H15.3736V35.7675Z" fill="#2567B2"/>
<path d="M24.7981 35.7675H11.1255V37H24.7981V35.7675Z" fill="#2567B2"/>
<path d="M35.3074 25.7719H0.612152V27.0044H35.3074V25.7719Z" fill="#2567B2"/>
<path d="M14.0465 15.9036L10.8009 12.4854L14.0465 9.06311L14.9421 9.90944L12.5018 12.4854L14.9421 15.0572L14.0465 15.9036Z" fill="#2567B2"/>
<path d="M21.8771 15.9036L20.9815 15.0572L23.4218 12.4854L20.9815 9.90944L21.8771 9.06311L25.1227 12.4854L21.8771 15.9036Z" fill="#2567B2"/>
<path d="M20.2616 8.58024L19.1243 8.10498L15.6645 16.3841L16.8017 16.8593L20.2616 8.58024Z" fill="#2567B2"/>
<path d="M18.9807 24.9666H16.9471C16.2733 24.9666 15.6776 24.4859 15.5379 23.8244L15.2791 22.6002C15.2257 22.3495 15.0449 22.1482 14.8066 22.0702C14.33 21.9141 13.8658 21.721 13.4221 21.495C13.1961 21.38 12.925 21.3964 12.7113 21.5361L11.6596 22.2181C11.0926 22.5837 10.3367 22.5057 9.85601 22.0291L8.41808 20.5912C7.94151 20.1146 7.85934 19.3545 8.22909 18.7876L8.91108 17.7358C9.05077 17.5222 9.06309 17.2511 8.95217 17.0251C8.72621 16.5773 8.53311 16.113 8.37699 15.6406C8.29894 15.4023 8.09762 15.2215 7.84701 15.1722L6.62272 14.9093C5.96127 14.7696 5.48059 14.178 5.48059 13.5001V11.4665C5.48059 10.7927 5.96127 10.197 6.62272 10.0573L7.84701 9.79847C8.09762 9.74506 8.29894 9.56429 8.37699 9.32601C8.53311 8.84943 8.72621 8.38519 8.95217 7.94148C9.0672 7.71552 9.05077 7.44437 8.91108 7.23074L8.22498 6.17899C8.04832 5.90373 7.96616 5.57095 7.99902 5.24639C8.00313 5.18887 8.01546 5.12725 8.02778 5.06562C8.08941 4.80269 8.22088 4.5644 8.41397 4.37542L9.8519 2.93749C10.3326 2.46092 11.0885 2.37875 11.6555 2.7485L12.7072 3.43049C12.9209 3.57018 13.192 3.5825 13.418 3.47157C13.8617 3.24561 14.33 3.05252 14.8025 2.8964C15.0408 2.81834 15.2215 2.61703 15.275 2.36642L15.5338 1.14213C15.6735 0.48068 16.2651 0 16.943 0H18.9766C19.6545 0 20.2461 0.48068 20.3858 1.14213L20.6446 2.36642C20.698 2.61703 20.8788 2.81834 21.1171 2.8964C21.5895 3.05252 22.0538 3.24561 22.5016 3.47157C22.7275 3.58661 22.9987 3.57018 23.2123 3.43049L24.2641 2.7485C24.831 2.38286 25.587 2.46092 26.0676 2.93749L27.5056 4.37542C27.6946 4.5644 27.8301 4.8068 27.8918 5.06562C27.9041 5.12314 27.9164 5.18477 27.9205 5.24228C27.9534 5.56684 27.8753 5.89962 27.6946 6.17488L27.0126 7.22663C26.8729 7.44026 26.8606 7.71141 26.9715 7.93738C27.1974 8.38108 27.3905 8.84943 27.5467 9.3219C27.6247 9.56018 27.8301 9.74095 28.0766 9.79436L29.3009 10.0532C29.9624 10.1929 30.4431 10.7845 30.4431 11.4624V13.496C30.4431 14.1739 29.9624 14.7655 29.3009 14.9052L28.0766 15.1681C27.826 15.2215 27.6247 15.4023 27.5467 15.6406C27.3905 16.113 27.1974 16.5814 26.9715 17.0251C26.8565 17.2511 26.8729 17.5222 27.0126 17.7358L27.6987 18.7876C28.0643 19.3545 27.9863 20.1105 27.5097 20.5912L26.0718 22.0291C25.5952 22.5057 24.8351 22.5878 24.2682 22.2181L23.2164 21.5361C23.0028 21.3964 22.7316 21.38 22.5057 21.495C22.062 21.721 21.5936 21.9141 21.1212 22.0702C20.8829 22.1482 20.7021 22.3495 20.6487 22.6002L20.3899 23.8244C20.2461 24.4859 19.6545 24.9666 18.9807 24.9666ZM13.1016 20.1885C13.4015 20.1885 13.7014 20.2584 13.9767 20.394C14.367 20.5912 14.7737 20.7596 15.1928 20.8993C15.846 21.1129 16.339 21.6676 16.4828 22.3413L16.7457 23.5656C16.7663 23.6601 16.8526 23.73 16.9471 23.73H18.9807C19.0793 23.73 19.1615 23.6601 19.182 23.5656L19.4449 22.3413C19.5887 21.6634 20.0859 21.1129 20.735 20.8993C21.1499 20.7637 21.5608 20.5912 21.9511 20.394C22.5632 20.0817 23.3068 20.1228 23.8861 20.5008L24.9378 21.1828C25.02 21.2362 25.1309 21.2239 25.1967 21.154L26.6346 19.7161C26.7044 19.6462 26.7168 19.5394 26.6634 19.4573L25.9814 18.4055C25.6034 17.8262 25.5623 17.0826 25.8746 16.4705C26.0718 16.0802 26.2402 15.6693 26.3758 15.2544C26.5894 14.6012 27.144 14.1082 27.8178 13.9644L29.0421 13.7014C29.1366 13.6809 29.2064 13.5946 29.2064 13.5001V11.4665C29.2064 11.3679 29.1366 11.2816 29.0421 11.2652L27.8178 11.0022C27.144 10.8584 26.5894 10.3654 26.3717 9.71219C26.2361 9.29314 26.0635 8.88641 25.8663 8.49611C25.5541 7.87986 25.5952 7.14035 25.9732 6.56107L26.6551 5.50933C26.688 5.46003 26.6921 5.40662 26.688 5.37375V5.36964C26.688 5.36553 26.688 5.35732 26.6839 5.3491C26.6757 5.30802 26.6551 5.27515 26.6264 5.24639L25.1885 3.80846C25.1186 3.73862 25.0118 3.72629 24.9296 3.7797L23.8779 4.46169C23.2986 4.83966 22.5591 4.88075 21.9428 4.56851C21.5484 4.37131 21.1417 4.20287 20.7268 4.06318C20.0735 3.84955 19.5805 3.29491 19.4367 2.62114L19.1738 1.39685C19.1533 1.30235 19.067 1.23251 18.9725 1.23251H16.9388C16.8402 1.23251 16.7581 1.29825 16.7375 1.39685L16.4746 2.62114C16.3308 3.29902 15.8337 3.84955 15.1846 4.06318C14.7696 4.19876 14.3588 4.37131 13.9685 4.56851C13.3522 4.88075 12.6127 4.83555 12.0334 4.46169L10.9817 3.7797C10.8995 3.72629 10.7927 3.73862 10.7188 3.80846L9.28084 5.24639C9.25208 5.27515 9.23564 5.30802 9.22332 5.34499C9.21921 5.35321 9.21921 5.36143 9.21921 5.36553V5.36964C9.2151 5.40251 9.21921 5.45181 9.25208 5.50522L9.93407 6.55696C10.312 7.13624 10.3531 7.87986 10.0409 8.49201C9.84368 8.8823 9.67524 9.28903 9.53555 9.70808C9.32192 10.3613 8.76729 10.8543 8.09352 10.9981L6.86922 11.261C6.77473 11.2816 6.70489 11.3679 6.70489 11.4624V13.496C6.70489 13.5946 6.77473 13.6768 6.86922 13.6973L8.09352 13.9602C8.7714 14.104 9.32192 14.6012 9.53555 15.2503C9.67113 15.6652 9.84368 16.0761 10.0409 16.4664C10.3531 17.0826 10.312 17.8221 9.93407 18.4014L9.25208 19.4531C9.19867 19.5353 9.21099 19.6462 9.28084 19.712L10.7188 21.1499C10.7886 21.2197 10.8954 21.2321 10.9776 21.1787L12.0293 20.4967C12.358 20.2954 12.7319 20.1885 13.1016 20.1885Z" fill="#2567B2"/>
</svg>
