<svg width="833" height="570" viewBox="0 0 833 570" fill="none" xmlns="http://www.w3.org/2000/svg">
<path d="M809.557 365.83C801.757 391.339 786.291 413.299 768.683 433.686C760.816 442.792 752.547 451.596 744.346 460.266C715.824 490.361 686.666 521.025 650.412 541.044C649.374 541.613 648.336 542.182 647.299 542.751C609.605 562.736 562.236 569.465 524.575 549.413C484.672 528.189 462.611 481.557 421.804 462.108C366.334 435.695 302.228 468.937 249.804 500.973C197.414 533.01 132.638 565.548 77.7375 538.031C31.6075 514.866 13.2292 454.91 24.5776 404.596C44.9979 314.177 141.141 239.659 211.307 185.863C288.603 126.577 396.161 95.2103 490.664 78.7401C520.19 73.6182 550.955 70.1702 579.71 78.5392C608.466 86.9082 634.845 109.739 639.063 139.399C643.047 167.552 627.313 198.249 640.202 223.658C651.349 245.652 679.101 252.983 703.739 254.154C722.151 255.025 741.366 253.92 759.042 258.071C765 259.477 770.792 261.486 776.315 264.365C781.002 266.808 785.253 269.821 789.036 273.269C812.938 294.895 819.298 333.961 809.557 365.83Z" fill="#EAF5FA"/>
<path d="M133.107 569.298C109.439 569.767 88.0147 564.946 68.9334 554.836C7.90661 522.465 -8.86487 443.127 6.36672 384.912C20.1588 332.12 56.6142 281.538 117.808 230.32C229.116 137.156 369.816 76.9326 514.064 60.7302L514.6 65.4838C371.289 81.5858 231.46 141.441 120.888 234.002C60.464 284.584 24.5442 334.33 10.9864 386.117C-3.74304 442.558 12.3255 519.385 71.1763 550.618C118.009 575.458 179.973 567.055 255.261 525.545C265.572 519.854 275.179 514.364 284.285 509.142C325.36 485.641 357.798 467.062 402.756 462.208L403.258 466.962C359.304 471.749 328.808 489.156 286.661 513.293C277.523 518.515 267.915 524.038 257.571 529.729C211.073 555.372 169.428 568.561 133.107 569.298Z" fill="#EAF5FA"/>
<path d="M668.087 135.449C668.087 135.449 619.714 247.46 740.228 227.106C740.228 227.106 814.913 194.869 826.797 294.995C826.797 294.995 860.742 137.993 755.526 161.761C755.493 161.761 686.767 188.91 668.087 135.449Z" fill="#EAF5FA"/>
<path d="M753.938 337.181C764.697 330.969 769.432 319.028 764.515 310.51C759.597 301.993 746.888 300.123 736.128 306.336C725.369 312.548 720.634 324.489 725.552 333.006C730.469 341.524 743.178 343.393 753.938 337.181Z" fill="#EAF5FA"/>
<path d="M382.402 500.404C380.16 500.404 377.883 500.672 375.607 501.241C368.075 503.049 361.647 507.702 358.434 513.627C353.211 523.201 352.374 533.445 356.358 538.6C359.371 542.45 365.095 543.421 372.862 541.379C381.197 539.203 388.997 535.018 395.458 529.328C399.174 526.047 401.316 523.068 402.153 519.988C403.693 514.498 400.948 507.903 395.592 504.288C391.876 501.71 387.256 500.404 382.402 500.404Z" fill="#EAF5FA"/>
<path d="M373.699 539.839C369.381 539.839 365.431 538.668 362.384 536.391C353.882 530.031 354.25 516.808 359.974 508.439C365.632 500.204 375.139 495.483 382.771 491.701L384.847 495.852C377.315 499.601 368.778 503.819 363.824 511.05C359.405 517.477 358.903 527.922 365.163 532.642C368.276 534.952 372.862 535.722 377.75 534.751C382.437 533.814 386.822 531.504 391.073 529.294C395.459 527.018 400.949 524.139 403.761 519.62C405.2 517.276 405.669 514.096 404.999 511.518C404.665 510.246 403.895 508.506 402.087 507.535C397.969 505.258 392.446 508.405 388.127 511.385L385.483 507.568C390.939 503.819 398.003 499.969 404.33 503.451C406.841 504.823 408.682 507.267 409.485 510.347C410.489 514.163 409.82 518.649 407.711 522.063C404.229 527.721 398.137 530.901 393.216 533.445C388.897 535.688 383.976 538.266 378.654 539.337C376.98 539.672 375.306 539.839 373.699 539.839Z" fill="#C2D9E5"/>
<path d="M797.472 274.441L735.374 274.876C732.629 274.91 730.42 272.7 730.386 269.955L730.152 235.207C730.118 232.462 732.328 230.253 735.073 230.219L797.171 229.784C799.916 229.751 802.125 231.96 802.159 234.705L802.393 269.453C802.393 272.198 800.217 274.408 797.472 274.441ZM735.106 233.132C733.968 233.132 733.064 234.069 733.064 235.174L733.298 269.922C733.298 271.06 734.236 271.964 735.341 271.964L797.439 271.529C798.577 271.529 799.481 270.591 799.481 269.487L799.246 234.739C799.246 233.6 798.309 232.696 797.204 232.696L735.106 233.132Z" fill="#74B8BB"/>
<path d="M737.617 240.229L785.32 239.894C786.291 239.894 787.061 239.124 787.061 238.22C787.061 237.316 786.257 236.546 785.32 236.546L737.617 236.881C736.646 236.881 735.876 237.651 735.876 238.555C735.876 239.492 736.646 240.229 737.617 240.229Z" fill="#74B8BB"/>
<path d="M737.918 247.895L773.068 247.661C774.039 247.661 774.809 246.891 774.809 245.987C774.809 245.083 774.005 244.313 773.068 244.313L737.918 244.547C736.947 244.547 736.177 245.317 736.177 246.221C736.177 247.158 736.947 247.895 737.918 247.895Z" fill="#74B8BB"/>
<path d="M772.867 254.992C773.837 254.992 774.607 254.222 774.607 253.318C774.607 252.381 773.804 251.644 772.867 251.644L737.717 251.878C736.746 251.878 735.976 252.648 735.976 253.552C735.976 254.456 736.779 255.226 737.717 255.226L772.867 254.992Z" fill="#74B8BB"/>
<path d="M793.421 260.18L738.587 260.549C737.248 260.549 736.144 261.72 736.144 263.16C736.144 264.599 737.282 265.737 738.621 265.737L793.454 265.369C794.794 265.369 795.898 264.198 795.898 262.758C795.898 261.352 794.794 260.18 793.421 260.18Z" fill="#74B8BB"/>
<path d="M792.484 243.743L781.538 243.81C779.897 243.81 778.558 245.35 778.558 247.158L778.592 251.744C778.592 253.585 779.964 255.092 781.604 255.058L792.551 254.991C794.191 254.991 795.53 253.451 795.53 251.644L795.497 247.058C795.497 245.25 794.124 243.743 792.484 243.743Z" fill="#74B8BB"/>
<path d="M244.18 349.494H124.369C122.327 349.494 120.62 351.168 120.62 353.243C120.62 355.319 122.294 356.993 124.369 356.993H244.147C246.189 356.993 247.896 355.319 247.896 353.243C247.896 351.168 246.222 349.494 244.18 349.494Z" fill="#99BFD4"/>
<path d="M211.976 289.237C212.713 286.928 215.759 286.292 217.198 284.316C218.839 282.04 217.801 278.826 216.295 276.45C214.788 274.073 212.813 271.796 212.612 268.984C212.244 263.628 218.571 259.31 217.634 254.021C216.495 247.56 206.084 246.823 204.076 240.597C202.971 237.216 204.846 233.667 206.486 230.52C208.126 227.374 209.599 223.491 207.859 220.411C205.515 216.327 199.155 216.427 196.376 212.644C194.769 210.468 194.769 207.589 194.167 204.945C192.527 197.513 185.396 191.655 177.764 191.521C170.131 191.354 163.001 195.839 160.959 201.43L160.021 202.367C147.936 206.083 150.447 216.762 148.137 219.105C145.66 221.616 141.174 221.817 139.467 224.896C136.889 229.55 143.216 234.973 141.978 240.128C140.94 244.413 135.316 246.187 133.943 250.372C132.37 255.092 136.99 259.544 137.894 264.432C138.496 267.712 137.358 271.06 136.052 274.14C134.747 277.22 133.174 280.266 132.839 283.58C132.504 286.894 133.776 290.643 136.789 292.15C140.003 293.757 144.488 292.451 146.966 295.062C149.242 297.473 148.137 301.456 149.342 304.569C150.581 307.716 154.096 309.457 157.477 309.658C160.858 309.859 164.172 308.888 167.453 308.084C170.734 307.281 174.215 306.712 177.462 307.683C180.04 308.486 182.182 310.193 184.358 311.767C186.534 313.374 188.844 314.914 191.522 315.282C194.2 315.65 197.247 314.478 198.217 311.968C199.088 309.691 198.117 306.946 199.356 304.837C200.561 302.795 203.339 302.327 205.683 302.695C208.026 303.063 210.269 304.067 212.646 304.101C215.022 304.134 217.701 302.795 218.002 300.452C218.504 296 210.637 293.489 211.976 289.237ZM185.932 238.689C183.789 241.4 180.073 242.438 176.86 241.199C169.595 238.454 165.478 229.315 165.478 229.315C160.657 224.127 161.193 221.147 161.193 221.147C162.867 215.958 167.888 219.273 167.888 219.273C166.583 203.472 178.299 204.409 178.299 204.409C189.279 204.208 190.585 216.494 190.585 216.494C191.154 228.981 188.476 235.408 185.932 238.689Z" fill="#842922"/>
<path d="M176.826 241.199C180.074 242.438 183.789 241.4 185.898 238.689C188.476 235.408 191.154 228.981 190.552 216.494C190.552 216.494 189.246 204.208 178.266 204.409C178.266 204.409 166.549 203.472 167.855 219.273C167.855 219.273 162.833 215.925 161.16 221.147C161.16 221.147 160.591 224.127 165.445 229.315C165.445 229.315 169.562 238.454 176.826 241.199Z" fill="#F7B690"/>
<path d="M182.015 239.927C182.015 239.927 182.015 248.296 185.363 252.012C185.229 253.552 184.626 258.172 181.278 260.381C176.692 263.394 167.989 261.151 162.331 252.949C162.331 252.949 170.867 249.97 170.7 235.843C170.667 235.81 177.73 241.969 182.015 239.927Z" fill="#F7B690"/>
<path d="M194.234 218.603C190.953 219.574 187.472 217.733 185.061 215.322C182.651 212.879 180.944 209.866 178.467 207.489C175.989 205.112 172.374 203.472 169.194 204.711C169.194 204.711 176.659 198.852 184.794 202.97C188.041 204.61 190.217 207.757 191.188 211.272C191.79 213.515 193.23 216.293 196.477 217.398L194.234 218.603Z" fill="#842922"/>
<path d="M193.732 317.625C188.912 311.298 189.447 300.351 189.447 300.351C195.774 298.309 196.142 290.509 196.142 290.509L199.758 296.267L216.128 295.531L206.922 269.486C204.311 257.77 195.038 254.79 195.038 254.79L185.363 252.012C185.229 253.552 184.627 258.172 181.279 260.381C176.693 263.394 167.989 261.151 162.332 252.949C151.184 254.991 139.267 265.034 139.267 265.034C152.824 268.382 151.72 285.287 151.72 285.287C153.762 304.804 150.414 314.846 150.414 314.846C143.15 323.215 144.455 338.648 144.455 338.648L213.985 335.869L203.206 327.534C200.126 325.157 197.348 322.379 194.971 319.265L193.732 317.625Z" fill="#2567B2"/>
<path d="M144.623 337.51C144.623 337.51 142.748 351.436 163.035 366.333L187.372 384.376C187.372 384.376 170.265 393.482 145.359 450.358C145.359 450.358 149.644 456.484 157.444 455.178C157.444 455.178 197.214 402.085 204.411 394.654C204.411 394.654 215.826 384.376 203.172 370.417L184.961 346.984L231.794 378.217C231.794 378.217 228.514 406.404 252.985 449.42C252.985 449.42 260.048 451.027 265.639 446.207L252.081 378.953C251.713 375.07 251.277 368.609 247.428 363.153C242.105 356.457 233.167 348.289 228.078 344.373C223.358 341.527 218.672 338.682 213.952 335.836L144.623 337.51Z" fill="#263238"/>
<path d="M257.236 344.205H149.343C149.209 344.205 149.075 344.104 149.075 343.937V342.196C149.075 342.062 149.175 341.928 149.343 341.928H257.202C257.336 341.928 257.47 342.029 257.47 342.196V343.937C257.47 344.104 257.37 344.205 257.236 344.205Z" fill="#99BFD4"/>
<path d="M170.399 333.057L176.057 335.3C176.057 335.3 189.548 335.568 195.105 341.895L172.241 342.096L167.052 338.28L170.399 333.057Z" fill="#F7B690"/>
<path d="M186.635 342.263L198.887 297.472C199.222 296.2 200.36 295.33 201.666 295.296L264.031 294.125C265.973 294.091 267.412 295.899 266.944 297.774L256.298 342.029L186.635 342.263Z" fill="#99BFD4"/>
<path d="M246.624 307.95H224.831C224.697 307.95 224.563 307.85 224.563 307.682V305.975C224.563 305.841 224.664 305.707 224.831 305.707H246.624C246.758 305.707 246.892 305.808 246.892 305.975V307.716C246.892 307.85 246.758 307.95 246.624 307.95Z" fill="#EBF2F6"/>
<path d="M139.233 265.001C139.233 265.001 124.737 287.497 121.557 309.055C121.557 309.055 119.883 315.918 130.864 320.772L166.917 338.983C167.654 338.347 168.658 337.309 169.528 335.836C170.432 334.296 170.834 332.89 171.001 331.919C161.025 323.383 151.05 314.813 141.074 306.277L151.686 284.517C151.719 284.517 152.991 268.348 139.233 265.001Z" fill="#FF847A"/>
<path d="M152.824 462.811L156.172 455.345C150.816 455.714 147.334 452.6 145.995 451.127L140.706 461.07C142.782 465.69 147.602 471.38 159.151 469.874L158.984 469.707L152.824 462.811Z" fill="#F7B690"/>
<path d="M168.424 478.042L159.117 469.841C147.568 471.347 142.781 465.656 140.672 461.036L140.505 461.338C140.505 461.338 135.149 464.551 134.847 469.606C134.78 470.544 135.383 471.414 136.22 471.816L164.306 485.139C164.306 485.139 172.675 488.755 172.843 485.34C172.977 483.767 171.638 480.754 168.424 478.042Z" fill="#313B3E"/>
<path d="M274.911 454.91L265.839 453.236L264.366 447.177C259.947 450.19 255.06 449.755 253.52 449.521L255.16 459.229C259.646 461.605 266.91 463.179 275.146 454.91H274.911Z" fill="#F7B690"/>
<path d="M287.532 455.714L275.146 454.91C266.91 463.145 259.646 461.605 255.16 459.229L255.227 459.563C255.227 459.563 252.951 465.388 255.796 469.573C256.332 470.343 257.303 470.677 258.24 470.477L288.603 463.848C288.603 463.848 297.441 461.572 295.465 458.76C294.595 457.454 291.716 455.881 287.532 455.714Z" fill="#313B3E"/>
<path d="M78.5411 466.225L77.905 464.953C73.118 453.404 70.6407 443.763 70.1051 434.59C69.3687 421.635 73.9884 409.952 82.826 402.487C89.5882 396.762 98.1915 393.582 106.527 390.502C112.017 388.46 117.708 386.385 122.729 383.573L122.997 383.405C131.333 378.853 132.27 377.781 132.371 377.614C132.337 377.648 132.304 377.781 132.371 377.949L133.576 377.514C133.576 377.547 133.609 377.614 133.609 377.648C134.346 379.957 143.886 411.693 130.027 431.812C122.729 442.39 111.113 447.043 99.8319 451.496C96.0491 453.002 92.1324 454.575 88.45 456.316C86.9101 457.053 80.6836 461.438 79.6793 464.417C79.5119 464.886 79.5119 465.288 79.6793 465.589L78.5411 466.225ZM132.672 379.087C131.5 380.024 128.956 381.631 123.6 384.577L123.332 384.711C118.21 387.556 112.486 389.665 106.962 391.708C98.7271 394.754 90.2242 397.901 83.6294 403.458C75.1265 410.655 70.6408 421.97 71.3437 434.49C71.8459 443.261 74.1892 452.5 78.675 463.514C80.3153 460.099 86.4749 455.915 87.9144 455.212C91.6302 453.437 95.5469 451.864 99.3632 450.358C110.444 445.939 121.893 441.386 128.956 431.142C141.476 412.998 134.379 384.979 132.672 379.087Z" fill="#74B8BB"/>
<path d="M77.8048 463.112C77.8048 462.844 76.4658 434.657 101.171 417.015C101.338 416.881 119.148 403.022 132.069 378.752L133.208 379.355C120.152 403.893 102.108 417.886 101.941 418.02C77.8048 435.26 79.0769 462.71 79.1104 463.011L77.8048 463.112Z" fill="#74B8BB"/>
<path d="M113.188 405.333L113.389 404.295C114.628 398.068 113.389 387.925 113.389 387.825L114.661 387.657C114.695 388.059 115.833 397.064 114.829 403.491C118.712 402.353 132.638 398.503 136.99 399.943L136.588 401.148C132.035 399.608 114.394 404.931 114.226 404.998L113.188 405.333Z" fill="#74B8BB"/>
<path d="M132.906 423.209C122.662 415.777 98.0575 420.698 97.8232 420.765L96.9193 420.966L97.0867 420.062C99.2961 406.906 96.4842 395.122 96.4507 394.988L97.6893 394.687C97.7228 394.821 100.468 406.303 98.4927 419.359C103.146 418.488 124.001 415.174 133.676 422.204L132.906 423.209Z" fill="#74B8BB"/>
<path d="M120.62 439.779C110.444 429 84.0645 438.239 83.7967 438.34L82.8594 438.675L82.9263 437.704C83.5624 428.732 74.4569 414.204 74.3564 414.036L75.4277 413.367C75.7959 413.969 84.2319 427.46 84.1984 436.833C89.0524 435.227 111.716 428.531 121.491 438.909L120.62 439.779Z" fill="#74B8BB"/>
<path d="M78.8424 451.061L70.2056 436.8L71.3103 436.13L79.378 449.454C81.5874 448.65 90.2242 445.939 100.501 449.655L100.066 450.86C88.8852 446.843 79.4784 450.793 79.378 450.86L78.8424 451.061Z" fill="#74B8BB"/>
<path d="M80.4155 463.313C87.2111 447.244 98.6264 407.107 96.0153 391.473C94.3415 381.397 86.3742 379.723 80.4824 388.527C77.2687 393.348 73.4859 400.11 71.4104 405.533C76.7666 391.105 79.3442 375.472 78.3734 360.106C78.0387 354.951 76.5992 348.825 71.7452 347.151C67.6946 345.745 65.1504 350.666 62.0371 355.386C61.7024 355.888 59.9951 340.757 57.8526 329.375C54.505 311.767 44.8974 308.553 39.9095 314.344C35.6245 319.299 28.9293 333.961 48.6467 369.212C45.8347 368.509 33.1138 361.646 28.6615 368.274C25.7156 372.626 28.9628 378.451 31.9757 382.803C38.2692 392.009 44.5961 401.181 50.8896 410.387C48.2785 408.077 45.6339 405.734 42.4202 404.362C39.2065 403.022 35.2898 402.855 32.4108 404.797C28.695 407.341 27.8246 412.664 29.1971 416.949C30.5697 421.233 33.6829 424.681 36.7293 428.029C47.4081 439.746 58.087 451.429 68.7658 463.145L80.4155 463.313Z" fill="#99BFD4"/>
<path d="M74.6576 452.4L85.6712 404.529L84.0309 404.161L73.8207 448.517C72.5151 442.022 71.2765 435.394 70.0044 428.498C67.7615 416.313 65.4517 403.826 62.4723 391.574L62.7401 391.607C64.9496 376.208 70.4731 361.178 70.5401 361.01L68.9667 360.441C68.8997 360.575 64.0792 373.765 61.602 388.126C60.8655 385.247 60.0955 382.368 59.2586 379.522C58.5891 377.246 57.8861 374.936 57.1831 372.626L56.7144 371.053C54.1033 362.416 51.5591 353.98 49.4502 345.377C48.948 342.9 48.4793 340.389 48.0442 337.845C47.609 335.301 47.1738 332.723 46.8055 330.112L45.1317 330.346C45.5335 332.957 45.9352 335.568 46.4038 338.113C46.839 340.657 47.3412 343.201 47.8433 345.712C49.9858 354.382 52.4965 362.851 55.1411 371.522L55.6097 373.095C56.3127 375.371 57.0157 377.681 57.6853 379.958C59.493 386.05 61.0329 392.277 62.4389 398.537C54.4381 384.443 38.5035 376.51 37.7335 376.141L36.9971 377.648C37.1979 377.748 58.5556 388.327 63.9788 406.236L64.1127 406.203C65.686 413.735 67.0585 421.301 68.4311 428.766C69.3014 433.519 70.2053 438.34 71.1426 443.16L41.8846 415.476L40.7464 416.681L71.7452 446.006C72.1804 448.148 72.6156 450.257 73.0508 452.366L72.9503 452.768L73.1512 452.801C73.419 454.007 73.6533 455.245 73.9211 456.417C74.7246 459.999 75.1932 462.074 75.1932 462.074L76.8335 461.706C76.8335 461.706 76.3649 459.631 75.5615 456.049C75.1597 454.877 74.9254 453.638 74.6576 452.4Z" fill="white"/>
<path d="M61.4344 462.342C53.601 460.903 42.487 457.254 34.7205 447.981C25.7155 437.202 23.2048 421.602 27.3223 401.55L27.4562 400.813L28.1927 400.88C28.4605 400.914 55.71 403.391 68.2635 421.937C75.4274 432.548 76.5321 446.24 71.5107 462.677L71.3433 463.246H70.7407C70.6738 463.279 66.8241 463.346 61.4344 462.342ZM28.8288 402.654C25.046 421.803 27.4897 436.666 36.0261 446.91C47.4414 460.568 66.4893 461.539 70.1047 461.606C74.7579 445.939 73.6866 432.917 66.9245 422.907C55.9443 406.672 33.2141 403.19 28.8288 402.654Z" fill="#018288"/>
<path d="M28.822 401.241L27.4517 402.202L70.0282 462.908L71.3986 461.947L28.822 401.241Z" fill="#018288"/>
<path d="M26.519 415.509L26.7534 413.835L38.5035 415.576L41.4828 405.768L43.0897 406.27L39.6751 417.451L26.519 415.509Z" fill="#018288"/>
<path d="M27.8242 431.946L27.9246 430.272L49.2154 431.678L56.078 412.262L57.6514 412.831L50.3536 433.452L27.8242 431.946Z" fill="#018288"/>
<path d="M38.7044 450.525L38.3696 448.851L58.3213 445.001L69.1006 425.183L70.5736 425.987L59.426 446.508L38.7044 450.525Z" fill="#018288"/>
<path d="M53.4341 461.405C53.4341 459.731 60.1293 515.1 60.1293 515.1L93.6723 515.536C93.6723 515.536 100.367 460.166 100.367 461.84L53.4341 461.405Z" fill="#2567B2"/>
<path d="M759.744 340.155C750.907 357.495 737.516 379.355 738.487 379.02C747.492 375.974 755.928 372.057 759.878 378.083C764.632 385.347 760.246 394.988 755.359 402.152C740.797 423.543 721.247 441.654 699.287 455.346C707.622 450.291 719.607 445.202 728.879 442.123C741.567 437.871 749.735 442.725 749.534 451.797C743.006 459.363 736.11 466.694 729.281 473.891C705.58 498.931 681.31 524.407 651.182 541.044L636.318 529.194C634.176 502.647 632.067 476.067 629.924 449.521C629.322 441.989 628.753 434.155 631.33 427.058C633.908 419.928 640.57 413.735 648.135 414.204C653.96 414.572 659.015 418.823 661.86 423.912C664.739 429 665.844 434.892 666.915 440.616C668.02 421.903 669.125 403.19 670.196 384.443C670.732 375.606 672.372 364.458 680.808 361.713C693.562 357.562 703.371 379.79 706.417 383.607C714.083 332.857 729.683 313.273 741.5 305.808C745.316 303.398 748.731 302.226 751.375 301.691C759.979 299.95 767.109 305.942 766.44 318.429C766.138 324.287 764.13 331.585 759.744 340.155Z" fill="#99BFD4"/>
<path d="M655.232 520.925L719.239 468.669L717.464 466.493L658.212 514.9C663.166 504.89 668.355 494.847 673.778 484.369C683.352 465.857 693.194 446.876 701.831 427.527L702.166 427.862C720.946 409.684 743.81 395.39 744.044 395.256L742.571 392.846C742.37 392.98 722.318 405.5 704.241 422.071C706.216 417.484 708.158 412.865 709.999 408.211C711.439 404.462 712.878 400.713 714.351 396.93L715.355 394.319C720.778 380.159 726.135 366.299 732.194 352.708C734.102 348.892 736.044 345.076 738.086 341.259C740.128 337.41 742.203 333.56 744.379 329.71L741.935 328.338C739.759 332.221 737.65 336.104 735.608 339.954C733.566 343.804 731.591 347.653 729.683 351.537C723.557 365.228 718.201 379.121 712.778 393.315L711.773 395.926C710.334 399.675 708.894 403.458 707.455 407.174C703.538 417.116 699.186 426.991 694.6 436.766C698.55 409.785 685.495 382.803 684.859 381.498L682.314 382.736C682.482 383.104 699.923 419.125 688.675 448.517L688.876 448.584C683.151 460.233 677.226 471.715 671.368 483.03C667.619 490.261 663.836 497.592 660.12 504.924L649.776 437.938L646.997 438.373L657.944 509.276C656.304 512.556 654.697 515.837 653.09 519.084L652.554 519.519L652.755 519.787C651.851 521.662 650.914 523.536 650.044 525.378C647.432 531.002 645.926 534.215 645.893 534.215L648.437 535.42C648.437 535.42 649.943 532.207 652.588 526.583C653.358 524.741 654.295 522.833 655.232 520.925Z" fill="white"/>
<path d="M586.807 118.711H279.196V104.751C279.196 96.5497 285.891 89.8545 294.093 89.8545H571.911C580.112 89.8545 586.807 96.5497 586.807 104.751V118.711ZM281.205 116.702H584.799V104.751C584.799 97.6544 579.008 91.8631 571.911 91.8631H294.093C286.996 91.8631 281.205 97.6544 281.205 104.751V116.702Z" fill="#90C6C9"/>
<path d="M280.2 117.707V403.86C280.2 411.492 286.46 417.752 294.093 417.752H571.91C579.543 417.752 585.803 411.492 585.803 403.86V117.707H280.2Z" fill="white"/>
<path d="M571.911 418.723H294.093C285.891 418.723 279.196 412.028 279.196 403.826V116.702H586.807V403.859C586.807 412.061 580.112 418.723 571.911 418.723ZM281.205 118.711V403.859C281.205 410.956 286.996 416.748 294.093 416.748H571.911C579.008 416.748 584.799 410.956 584.799 403.859V118.711H281.205Z" fill="#90C6C9"/>
<path d="M303.366 111.681C299.549 111.681 296.436 108.568 296.436 104.751C296.436 100.935 299.549 97.8218 303.366 97.8218C307.182 97.8218 310.295 100.935 310.295 104.751C310.295 108.568 307.182 111.681 303.366 111.681ZM303.366 99.6295C300.554 99.6295 298.277 101.906 298.277 104.718C298.277 107.53 300.554 109.806 303.366 109.806C306.178 109.806 308.454 107.53 308.454 104.718C308.454 101.906 306.144 99.6295 303.366 99.6295Z" fill="#018288"/>
<path d="M327.435 111.681C323.619 111.681 320.505 108.568 320.505 104.751C320.505 100.935 323.619 97.8218 327.435 97.8218C331.251 97.8218 334.364 100.935 334.364 104.751C334.364 108.568 331.251 111.681 327.435 111.681ZM327.435 99.6295C324.623 99.6295 322.347 101.906 322.347 104.718C322.347 107.53 324.623 109.806 327.435 109.806C330.247 109.806 332.523 107.53 332.523 104.718C332.523 101.906 330.247 99.6295 327.435 99.6295Z" fill="#018288"/>
<path d="M351.504 111.681C347.688 111.681 344.575 108.568 344.575 104.751C344.575 100.935 347.688 97.8218 351.504 97.8218C355.32 97.8218 358.434 100.935 358.434 104.751C358.434 108.568 355.32 111.681 351.504 111.681ZM351.504 99.6295C348.692 99.6295 346.416 101.906 346.416 104.718C346.416 107.53 348.692 109.806 351.504 109.806C354.316 109.806 356.593 107.53 356.593 104.718C356.593 101.906 354.316 99.6295 351.504 99.6295Z" fill="#018288"/>
<path d="M579.007 307.549L578.07 306.88C604.014 270.257 686.833 124.67 687.67 123.197L688.675 123.766C687.838 125.272 604.985 270.926 579.007 307.549Z" fill="#618A8B"/>
<path d="M675.686 146.161L675.452 145.525C674.38 142.78 674.983 133.106 675.251 130.762C677.058 114.527 692.424 95.01 701.496 90.8925C703.404 90.0221 705.513 90.2564 707.321 91.495C709.329 92.8675 710.501 95.2109 710.367 97.5877C709.731 108.501 704.475 129.323 676.255 145.827L675.686 146.161ZM703.873 91.5285C703.237 91.5285 702.601 91.6624 701.998 91.9302C693.16 95.9473 678.197 115.029 676.422 130.896C676.088 133.876 675.719 141.508 676.355 144.454C703.571 128.285 708.66 108.133 709.262 97.5207C709.363 95.5456 708.392 93.604 706.718 92.4658C705.781 91.8298 704.81 91.5285 703.873 91.5285Z" fill="#618A8B"/>
<path d="M634.343 211.206C633.74 211.206 633.104 211.072 632.434 210.77C629.756 209.599 628.719 205.314 627.949 202.167C627.781 201.497 627.647 200.928 627.48 200.426C624.936 191.789 623.697 182.818 623.798 173.779C623.898 163.435 625.672 153.426 629.087 143.952C629.957 141.542 631.196 138.931 633.673 138.027C636.485 137.023 639.498 138.864 640.937 141.107C642.377 143.383 642.678 146.028 642.912 148.773C644.821 171.804 643.448 191.12 638.795 206.151C638.159 208.193 637.355 210.168 635.715 210.904C635.28 211.139 634.845 211.206 634.343 211.206ZM630.158 144.32C626.777 153.66 625.003 163.569 624.936 173.779C624.869 182.717 626.074 191.589 628.585 200.091C628.719 200.594 628.886 201.23 629.053 201.899C629.723 204.644 630.761 208.762 632.903 209.699C633.84 210.101 634.577 210.168 635.213 209.867C636.452 209.297 637.155 207.49 637.657 205.816C642.276 190.919 643.615 171.771 641.741 148.873C641.54 146.262 641.239 143.751 639.933 141.709C638.761 139.835 636.318 138.295 634.041 139.098C632.033 139.868 630.962 142.178 630.158 144.32Z" fill="#618A8B"/>
<path d="M634.711 244.849L634.008 243.911L685.193 205.983C689.512 202.769 693.997 199.455 697.412 195.204C701.195 190.517 703.069 185.261 702.634 180.441C702.165 174.85 698.282 169.996 693.428 168.959C686.499 167.452 680.205 173.143 676.155 178.198C668.388 187.873 662.731 199.355 659.751 211.406L658.613 211.138C661.626 198.92 667.35 187.303 675.217 177.495C679.469 172.206 686.13 166.214 693.629 167.854C698.985 169.026 703.203 174.281 703.739 180.374C704.174 185.496 702.232 191.019 698.249 195.974C694.734 200.359 690.181 203.707 685.796 206.954L634.711 244.849Z" fill="#618A8B"/>
<path d="M603.946 257.268C599.896 241.401 597.151 225.065 595.778 208.762C595.276 202.602 595.008 195.438 597.117 189.279C597.854 187.136 599.795 185.764 602.072 185.73C602.072 185.73 602.072 185.73 602.105 185.73C604.415 185.73 606.39 187.136 607.16 189.279C608.667 193.53 608.801 198.552 608.7 202.903L608.031 239.694L606.859 239.66L607.528 202.87C607.595 198.618 607.495 193.764 606.055 189.647C605.453 187.94 603.913 186.868 602.072 186.868C602.072 186.868 602.072 186.868 602.038 186.868C600.632 186.868 598.858 187.605 598.155 189.613C596.113 195.572 596.347 202.569 596.85 208.628C598.222 224.897 600.967 241.133 604.984 256.934L603.946 257.268Z" fill="#618A8B"/>
<path d="M611.278 266.91L611.144 265.771L666.246 258.607C669.325 258.206 672.773 257.771 675.585 256.097C678.029 254.691 680.406 251.678 679.904 248.498C679.402 245.217 676.121 243.142 673.309 242.572C670.196 241.97 667.049 242.606 663.534 243.443C647.03 247.36 630.694 252.649 614.994 259.11L614.559 258.038C630.292 251.544 646.696 246.255 663.266 242.305C666.781 241.468 670.196 240.765 673.543 241.434C676.724 242.07 680.439 244.481 681.042 248.33C681.611 252.08 679 255.427 676.155 257.101C673.142 258.875 669.526 259.344 666.379 259.746L611.278 266.91Z" fill="#618A8B"/>
<path d="M629.79 150.413C631.498 145.86 634.946 140.738 639.967 141.207C643.315 141.542 645.725 162.832 641.406 182.148C639.632 190.115 639.532 199.89 636.586 207.489C634.879 211.841 633.573 210.402 631.866 206.686C630.326 203.338 629.054 199.857 628.083 196.342C626.041 189.145 625.104 181.679 625.271 174.214C625.405 166.08 627.045 158.146 629.79 150.413Z" fill="#90C6C9"/>
<path d="M687.47 106.593C690.583 102.442 698.249 88.0469 707.823 93.3696C711.304 95.3112 708.66 108.467 705.881 112.685C701.73 118.945 699.019 123.766 694.165 129.457C691.119 133.039 681.979 144.019 676.958 143.182C674.648 142.814 677.36 120.017 687.47 106.593Z" fill="#90C6C9"/>
<path d="M626.008 230.421C626.008 230.421 680.44 145.894 700.124 172.909C700.124 172.909 724.427 194.534 615.597 247.393L626.008 230.421Z" fill="#90C6C9"/>
<path d="M606.324 262.457C606.324 262.457 588.615 196.978 602.106 185.697C602.106 185.697 615.597 184.86 610.575 255.896L606.324 262.457Z" fill="#90C6C9"/>
<path d="M609.403 258.608L604.382 267.11L664.203 258.239C664.203 258.239 671.869 257.838 676.255 253.854C679.904 250.54 678.33 244.38 673.543 243.075C670.631 242.271 666.279 242.07 659.952 243.577L609.403 258.608Z" fill="#90C6C9"/>
<path d="M512.691 140.135H303.165C300.821 140.135 298.88 138.227 298.88 135.85C298.88 133.507 300.788 131.565 303.165 131.565H512.691C515.035 131.565 516.976 133.474 516.976 135.85C516.976 138.194 515.035 140.135 512.691 140.135Z" fill="#90C6C9"/>
<path d="M370.652 227.441H300.855C299.918 227.441 299.181 226.704 299.181 225.767V155.936C299.181 154.999 299.918 154.262 300.855 154.262H370.652C371.59 154.262 372.326 154.999 372.326 155.936V225.734C372.326 226.671 371.59 227.441 370.652 227.441Z" fill="#EAF5FA"/>
<path d="M467.901 228.345H398.103C397.166 228.345 396.429 227.608 396.429 226.671V156.873C396.429 155.936 397.166 155.199 398.103 155.199H467.901C468.838 155.199 469.574 155.936 469.574 156.873V226.671C469.574 227.608 468.838 228.345 467.901 228.345Z" fill="#EAF5FA"/>
<path d="M565.115 229.282H495.317C494.38 229.282 493.644 228.545 493.644 227.608V157.811C493.644 156.873 494.38 156.137 495.317 156.137H565.115C566.052 156.137 566.789 156.873 566.789 157.811V227.608C566.789 228.545 566.052 229.282 565.115 229.282Z" fill="#EAF5FA"/>
<path d="M370.652 387.155H300.855C299.918 387.155 299.181 386.419 299.181 385.481V252.715C299.181 251.778 299.918 251.042 300.855 251.042H370.652C371.59 251.042 372.326 251.778 372.326 252.715V385.481C372.326 386.419 371.59 387.155 370.652 387.155Z" fill="#EAF5FA"/>
<path d="M516.809 253.82H401.049C398.773 253.82 396.898 255.694 396.898 257.971C396.898 260.247 398.773 262.122 401.049 262.122H516.809C519.085 262.122 520.96 260.247 520.96 257.971C520.96 255.694 519.085 253.82 516.809 253.82Z" fill="#90C6C9"/>
<path d="M562.169 251.979H541.782C538.468 251.979 535.756 254.69 535.756 258.004C535.756 261.319 538.468 264.03 541.782 264.03H562.169C565.483 264.03 568.195 261.319 568.195 258.004C568.195 254.69 565.483 251.979 562.169 251.979Z" fill="#90C6C9"/>
<path d="M559.792 130.126H539.406C536.091 130.126 533.38 132.838 533.38 136.152C533.38 139.466 536.091 142.177 539.406 142.177H559.792C563.107 142.177 565.818 139.466 565.818 136.152C565.818 132.838 563.107 130.126 559.792 130.126Z" fill="#90C6C9"/>
<path d="M604.851 375.171H410.857C402.388 375.171 395.492 368.241 395.492 359.805V296.636C395.492 288.167 402.421 281.271 410.857 281.271H604.851C613.32 281.271 620.216 288.2 620.216 296.636V359.772C620.216 368.241 613.32 375.171 604.851 375.171Z" fill="white"/>
<path d="M604.851 376.342H410.857C401.718 376.342 394.32 368.911 394.32 359.805V296.636C394.32 287.497 401.752 280.099 410.857 280.099H604.851C613.99 280.099 621.388 287.53 621.388 296.636V359.772C621.388 368.911 613.99 376.342 604.851 376.342ZM410.857 282.442C403.024 282.442 396.663 288.802 396.663 296.636V359.772C396.663 367.605 403.024 373.965 410.857 373.965H604.851C612.684 373.965 619.044 367.605 619.044 359.772V296.636C619.044 288.802 612.684 282.442 604.851 282.442H410.857Z" fill="#99BFD4"/>
<path d="M496.991 340.992H437.27C430.441 340.992 424.85 335.401 424.85 328.572C424.85 321.743 430.441 316.152 437.27 316.152H496.991C503.82 316.152 509.411 321.743 509.411 328.572C509.411 335.401 503.82 340.992 496.991 340.992Z" fill="#74B8BB"/>
<path d="M595.277 354.918L587.678 316.889C587.242 314.78 585.401 313.274 583.259 313.274H582.589C582.623 312.905 582.623 312.571 582.623 312.236C582.623 303.365 575.392 296.134 566.521 296.134C557.65 296.134 550.419 303.365 550.419 312.236C550.419 312.571 550.419 312.905 550.452 313.274H550.117C548.008 313.274 546.234 314.68 545.732 316.722L536.593 354.75C536.258 356.089 536.593 357.495 537.43 358.6C538.3 359.705 539.572 360.307 540.978 360.307H590.858C592.23 360.307 593.502 359.705 594.339 358.667C595.21 357.596 595.544 356.223 595.277 354.918ZM552.461 312.236C552.461 304.469 558.788 298.142 566.554 298.142C574.321 298.142 580.648 304.469 580.648 312.236C580.648 312.571 580.648 312.905 580.614 313.274H552.528C552.461 312.905 552.461 312.571 552.461 312.236ZM592.799 357.361C592.331 357.931 591.628 358.265 590.858 358.265H541.045C540.275 358.265 539.572 357.931 539.07 357.328C538.602 356.725 538.434 355.955 538.602 355.186L547.741 317.157C548.008 316.019 549.013 315.249 550.184 315.249H550.753H582.388H583.292C584.464 315.249 585.502 316.086 585.736 317.257L593.335 355.286C593.469 356.022 593.268 356.792 592.799 357.361Z" fill="#99BFD4"/>
<path d="M577.769 322.379L562.169 345.21L553.766 329.911L547.875 334.263L562.068 353.679L585.133 323.015L577.769 322.379Z" fill="#74B8BB"/>
<path d="M370.318 232.529H301.458C300.152 232.529 299.081 233.199 299.081 234.036C299.081 234.873 300.152 235.542 301.458 235.542H370.318C371.624 235.542 372.695 234.873 372.695 234.036C372.695 233.199 371.624 232.529 370.318 232.529Z" fill="#EAF5FA"/>
<path d="M370.518 237.149H301.692C300.386 237.149 299.315 237.819 299.315 238.656C299.315 239.492 300.386 240.162 301.692 240.162H370.552C371.858 240.162 372.929 239.492 372.929 238.656C372.929 237.819 371.858 237.149 370.518 237.149Z" fill="#EAF5FA"/>
<path d="M370.753 241.769H301.926C300.621 241.769 299.549 242.439 299.549 243.275C299.549 244.112 300.621 244.782 301.926 244.782H370.786C372.092 244.782 373.163 244.112 373.163 243.275C373.163 242.472 372.092 241.769 370.753 241.769Z" fill="#EAF5FA"/>
<path d="M467.231 233.132H398.371C397.065 233.132 395.994 233.801 395.994 234.638C395.994 235.475 397.065 236.144 398.371 236.144H467.231C468.537 236.144 469.608 235.475 469.608 234.638C469.608 233.801 468.537 233.132 467.231 233.132Z" fill="#EAF5FA"/>
<path d="M467.465 237.785H398.605C397.299 237.785 396.228 238.454 396.228 239.291C396.228 240.128 397.299 240.798 398.605 240.798H467.465C468.771 240.798 469.842 240.128 469.842 239.291C469.842 238.454 468.771 237.785 467.465 237.785Z" fill="#EAF5FA"/>
<path d="M467.699 242.405H398.839C397.534 242.405 396.462 243.074 396.462 243.911C396.462 244.748 397.534 245.417 398.839 245.417H467.699C469.005 245.417 470.076 244.748 470.076 243.911C470.076 243.074 469.005 242.405 467.699 242.405Z" fill="#EAF5FA"/>
<path d="M565.383 233.433H496.523C495.217 233.433 494.146 234.103 494.146 234.94C494.146 235.776 495.217 236.446 496.523 236.446H565.383C566.689 236.446 567.76 235.776 567.76 234.94C567.76 234.103 566.689 233.433 565.383 233.433Z" fill="#EAF5FA"/>
<path d="M565.617 238.086H496.757C495.452 238.086 494.38 238.756 494.38 239.593C494.38 240.43 495.452 241.099 496.757 241.099H565.617C566.923 241.099 567.994 240.43 567.994 239.593C567.994 238.756 566.923 238.086 565.617 238.086Z" fill="#EAF5FA"/>
<path d="M565.851 242.706H496.991C495.685 242.706 494.614 243.376 494.614 244.212C494.614 245.049 495.685 245.719 496.991 245.719H565.851C567.157 245.719 568.228 245.049 568.228 244.212C568.228 243.376 567.157 242.706 565.851 242.706Z" fill="#EAF5FA"/>
<path d="M369.682 392.11H300.822C299.516 392.11 298.445 392.779 298.445 393.616C298.445 394.453 299.516 395.122 300.822 395.122H369.682C370.987 395.122 372.059 394.453 372.059 393.616C372.059 392.779 370.987 392.11 369.682 392.11Z" fill="#EAF5FA"/>
<path d="M369.916 396.729H301.056C299.75 396.729 298.679 397.399 298.679 398.235C298.679 399.072 299.75 399.742 301.056 399.742H369.916C371.222 399.742 372.293 399.072 372.293 398.235C372.293 397.399 371.222 396.729 369.916 396.729Z" fill="#EAF5FA"/>
<path d="M370.15 401.382H301.29C299.984 401.382 298.913 402.052 298.913 402.889C298.913 403.726 299.984 404.395 301.29 404.395H370.15C371.456 404.395 372.527 403.726 372.527 402.889C372.527 402.052 371.456 401.382 370.15 401.382Z" fill="#EAF5FA"/>
<mask id="mask0_331_3071" style="mask-type:luminance" maskUnits="userSpaceOnUse" x="21" y="73" width="793" height="489">
<path d="M24.5775 404.596C13.1956 454.944 31.6074 514.899 77.7374 537.998C132.638 565.515 197.381 532.977 249.804 500.94C302.228 468.903 366.334 435.662 421.771 462.074C462.578 481.49 484.638 528.122 524.542 549.346C562.202 569.365 609.571 562.636 647.265 542.685C684.959 522.699 714.987 491.198 744.312 460.233C770.858 432.18 798.242 402.755 809.523 365.831C820.805 328.907 810.494 282.308 776.282 264.398C754.422 252.983 728.344 255.326 703.739 254.188C679.101 253.016 651.349 245.685 640.202 223.692C627.313 198.317 643.047 167.619 639.063 139.432C634.879 109.773 608.5 86.9419 579.71 78.5729C550.954 70.2039 520.157 73.6185 490.631 78.7738C396.128 95.244 288.569 126.611 211.273 185.864C141.174 239.66 44.9978 314.177 24.5775 404.596Z" fill="white"/>
</mask>
<g mask="url(#mask0_331_3071)">
<path d="M481.96 420.698L483.199 407.676C483.701 402.353 484.404 395.959 488.22 392.176C491.869 388.561 510.08 386.385 522.466 387.724C528.291 388.36 534.183 388.293 539.974 387.356L540.61 387.255L498.029 431.109C498.029 431.142 482.831 432.013 481.96 420.698Z" fill="#E1A789"/>
<path d="M584.665 426.69L598.758 477.373L606.86 488.554C606.86 488.554 606.592 488.654 606.123 488.821C601.336 490.696 573.484 501.944 553.532 517.711C552.628 518.414 551.725 519.151 550.888 519.854L539.305 506.229C539.305 506.229 511.286 482.461 504.021 480.185C504.021 480.185 484.806 472.686 473.725 445.202C473.725 445.202 460.603 427.359 451.163 415.074C449.757 413.266 448.451 411.559 447.279 410.086C442.961 404.596 441.756 400.445 443.329 397.365C443.631 396.762 444.066 396.193 444.601 395.658C446.878 393.381 451.096 392.98 454.912 394.72C454.912 394.72 468.738 398.637 479.684 418.856C479.684 418.856 495.451 433.151 497.862 429.703C497.862 429.703 484.806 389.431 481.124 384.175C481.124 384.175 464.386 359.805 462.176 343.971C461.741 340.891 461.875 338.112 462.745 335.903C462.745 335.903 464.486 330.379 467.901 328.973C470.043 328.103 472.889 328.839 476.37 333.56L482.362 343.502L499.736 372.291L500.607 373.697L502.147 376.275L502.214 376.442L502.582 377.145L511.754 395.624C511.754 395.624 518.249 385.581 531.338 391.272C531.338 391.272 541.347 382.669 551.658 391.004C551.658 391.004 556.177 387.456 561.567 388.695C565.015 389.465 568.797 392.21 572.045 398.972L572.647 399.943C578.037 408.211 582.054 417.216 584.665 426.69Z" fill="#EBC0B0"/>
<path d="M482.429 343.301C480.387 345.644 477.542 348.423 471.817 347.151C471.817 347.151 466.695 340.456 466.059 333.928C465.926 332.656 465.959 331.417 466.227 330.212C466.361 329.609 466.595 329.04 466.829 328.505C467.432 327.3 468.704 326.53 470.043 326.731C471.282 326.931 472.654 327.668 474.194 329.308C474.897 330.045 475.634 330.982 476.404 332.087L481.291 340.857L482.429 343.301Z" fill="#EFCDC0"/>
<path d="M553.599 517.711C552.695 518.414 551.792 519.151 550.955 519.854L539.372 506.229C539.372 506.229 511.352 482.461 504.088 480.185C504.088 480.185 484.873 472.686 473.792 445.202C473.792 445.202 460.67 427.359 451.23 415.074C449.824 413.266 448.518 411.559 447.346 410.086C443.028 404.596 441.823 400.445 443.396 397.365C443.697 396.762 444.133 396.193 444.668 395.658C446.945 393.381 451.163 392.98 454.979 394.72C454.979 394.72 468.804 398.637 479.751 418.857C479.751 418.857 495.518 433.151 497.929 429.703C497.929 429.703 484.873 389.431 481.191 384.175C481.191 384.175 464.453 359.805 462.243 343.971C463.95 351.436 466.394 358.533 470.679 365.261C476.136 373.831 484.572 381.497 494.715 382.033C491.669 383.305 490.196 386.987 490.53 390.268C490.832 393.549 492.539 396.528 494.28 399.34C498.364 405.935 502.883 412.295 507.737 418.321C508.775 419.627 509.88 420.999 510.181 422.639C510.649 425.284 508.976 427.761 507.837 430.171C503.452 439.679 507.603 450.96 513.261 459.798C518.918 468.602 526.216 476.737 528.894 486.88C529.63 489.692 530.032 492.671 531.405 495.249C532.576 497.458 534.417 499.199 536.225 500.906C541.414 505.861 546.569 510.782 551.758 515.736C552.428 516.339 553.097 516.975 553.599 517.711Z" fill="#EBBBA9"/>
<path d="M584.665 426.69L598.758 477.373L606.859 488.554C606.859 488.554 606.592 488.654 606.123 488.822C602.441 486.445 598.725 484.068 595.042 481.725C590.289 485.34 585.502 488.989 580.748 492.638C583.928 485.608 589.351 479.482 590.791 471.916C593.101 459.764 584.665 448.483 581.083 436.633C578.873 429.335 578.539 421.568 576.698 414.204C575.191 408.245 572.68 402.554 569.333 397.399C568.429 395.993 564.278 391.942 561.633 388.695C565.081 389.465 568.864 392.21 572.111 398.972L572.714 399.943C578.037 408.211 582.054 417.216 584.665 426.69Z" fill="#EFCDC0"/>
<path d="M459.833 404.931C459.833 404.931 457.557 411.894 449.623 413.166C448.284 411.358 446.878 409.785 445.873 408.178C444.066 405.299 442.927 402.889 442.425 400.847C442.024 399.206 441.99 397.767 442.325 396.428C442.727 394.787 444.635 393.649 446.442 393.917C446.878 393.984 447.38 394.084 447.915 394.185C448.92 394.386 450.091 394.888 451.33 395.658C453.975 397.298 457.021 400.311 459.833 404.931Z" fill="#EFCDC0"/>
<path d="M502.749 377.481C500.439 378.518 497.627 379.924 494.313 381.799C494.313 381.799 497.527 378.619 501.879 376.041L502.749 377.481Z" fill="#E1A789"/>
<path d="M501.008 374.97L493.979 378.083L500.64 374.267L501.008 374.97Z" fill="#E1A789"/>
<path d="M503.754 379.154L496.724 382.268L503.385 378.451L503.754 379.154Z" fill="#E1A789"/>
<path d="M459.598 426.054C461.741 424.749 464.385 423.008 467.398 420.698C467.398 420.698 464.62 424.28 460.602 427.36L459.598 426.054Z" fill="#E1A789"/>
<path d="M461.641 428.331L468.235 424.347L462.076 429L461.641 428.331Z" fill="#E1A789"/>
<path d="M458.393 424.514L464.988 420.531L458.828 425.184L458.393 424.514Z" fill="#E1A789"/>
<path d="M560.06 567.39L543.556 526.08C543.556 526.08 576.028 488.52 615.228 483.834L656.136 547.84L560.06 567.39Z" fill="#2567B2"/>
<path opacity="0.22" d="M459.833 404.931C459.833 404.931 448.317 404.261 449.355 413.3C449.388 413.3 455.046 414.505 459.833 404.931Z" fill="#F5E1D9"/>
<path opacity="0.22" d="M482.463 343.536C480.454 345.645 477.609 348.423 471.951 347.285C471.951 347.285 475.868 340.824 481.057 341.561L481.257 341.594L482.463 343.536Z" fill="#F5E1D9"/>
<path d="M451.296 395.658C444.032 394.185 442.425 399.809 442.425 399.809C442.425 399.809 442.425 400.211 442.425 400.847C442.024 399.206 441.99 397.767 442.325 396.428C442.727 394.787 444.635 393.649 446.442 393.917C446.878 393.984 447.38 394.084 447.915 394.185C448.886 394.386 450.058 394.888 451.296 395.658Z" fill="#F5E1D9"/>
<path d="M474.194 329.342C473.458 328.974 467.8 326.463 466.059 333.962C465.926 332.689 465.959 331.451 466.227 330.246C466.361 329.643 466.595 329.074 466.829 328.538C467.432 327.333 468.704 326.563 470.043 326.764C471.282 326.965 472.654 327.735 474.194 329.342Z" fill="#F5E1D9"/>
</g>
<path d="M636.72 325.258C636.686 325.258 636.619 325.258 636.586 325.258C635.581 325.024 634.544 324.823 633.539 324.622C633.205 324.555 632.97 324.22 633.037 323.885C633.104 323.551 633.439 323.316 633.774 323.383C634.812 323.584 635.849 323.785 636.854 324.019C637.188 324.086 637.389 324.421 637.322 324.756C637.255 325.057 636.988 325.258 636.72 325.258Z" fill="#018288"/>
<path d="M654.496 507.635C654.261 507.635 654.027 507.501 653.926 507.267C653.793 506.965 653.926 506.564 654.228 506.43C656.136 505.593 658.011 504.622 659.852 503.651C660.153 503.484 660.521 503.584 660.689 503.919C660.856 504.22 660.756 504.622 660.421 504.756C658.546 505.76 656.638 506.731 654.696 507.568C654.663 507.601 654.562 507.635 654.496 507.635ZM665.643 501.609C665.442 501.609 665.241 501.509 665.107 501.308C664.907 501.007 665.007 500.638 665.308 500.438C667.083 499.333 668.823 498.128 670.531 496.889C670.798 496.688 671.2 496.755 671.401 497.023C671.602 497.291 671.535 497.693 671.267 497.893C669.56 499.132 667.786 500.337 665.978 501.475C665.877 501.576 665.743 501.609 665.643 501.609ZM675.887 494.144C675.719 494.144 675.518 494.077 675.418 493.91C675.184 493.642 675.217 493.24 675.485 493.039C677.092 491.7 678.665 490.294 680.205 488.855C680.473 488.621 680.841 488.621 681.109 488.888C681.343 489.156 681.343 489.524 681.075 489.792C679.536 491.265 677.929 492.671 676.322 494.044C676.155 494.111 676.021 494.144 675.887 494.144ZM685.059 485.44C684.892 485.44 684.758 485.373 684.624 485.273C684.356 485.039 684.356 484.637 684.59 484.369C686.03 482.829 687.402 481.256 688.741 479.615C688.976 479.348 689.344 479.314 689.612 479.515C689.88 479.749 689.913 480.118 689.712 480.385C688.373 482.026 686.967 483.633 685.528 485.173C685.427 485.373 685.227 485.44 685.059 485.44ZM693.127 475.665C692.993 475.665 692.859 475.632 692.759 475.531C692.491 475.331 692.424 474.929 692.625 474.661C693.83 472.987 695.035 471.213 696.173 469.439C696.374 469.138 696.742 469.071 697.044 469.238C697.345 469.439 697.412 469.807 697.244 470.108C696.106 471.916 694.901 473.69 693.663 475.398C693.495 475.565 693.328 475.665 693.127 475.665ZM699.889 464.953C699.789 464.953 699.688 464.92 699.588 464.886C699.286 464.719 699.186 464.35 699.353 464.049C700.358 462.208 701.328 460.333 702.232 458.425C702.366 458.124 702.768 457.99 703.069 458.124C703.371 458.258 703.504 458.66 703.371 458.961C702.467 460.869 701.496 462.777 700.458 464.652C700.324 464.853 700.123 464.953 699.889 464.953ZM705.312 453.504C705.245 453.504 705.145 453.504 705.078 453.471C704.743 453.337 704.609 452.969 704.71 452.667C705.48 450.726 706.216 448.717 706.852 446.742C706.952 446.407 707.321 446.24 707.655 446.34C707.99 446.441 708.158 446.809 708.057 447.144C707.421 449.152 706.685 451.161 705.881 453.136C705.814 453.337 705.546 453.504 705.312 453.504ZM709.229 441.453C709.162 441.453 709.128 441.453 709.061 441.419C708.727 441.319 708.526 440.984 708.593 440.649C709.095 438.607 709.564 436.532 709.932 434.49C709.999 434.155 710.334 433.921 710.668 433.988C711.003 434.055 711.237 434.389 711.17 434.724C710.802 436.8 710.334 438.909 709.798 440.951C709.764 441.252 709.53 441.453 709.229 441.453ZM711.539 429C711.505 429 711.505 429 711.472 429C711.137 428.966 710.869 428.632 710.936 428.297C711.17 426.221 711.338 424.112 711.438 422.037C711.438 421.702 711.706 421.401 712.108 421.434C712.443 421.434 712.71 421.735 712.71 422.104C712.61 424.213 712.443 426.355 712.208 428.464C712.141 428.765 711.84 429 711.539 429ZM712.108 416.346C711.773 416.346 711.505 416.078 711.472 415.743C711.438 414.706 711.405 413.668 711.338 412.63C711.271 411.559 711.17 410.521 711.07 409.45C711.037 409.115 711.271 408.78 711.639 408.747C711.974 408.713 712.309 408.948 712.342 409.316C712.442 410.387 712.543 411.458 712.61 412.53C712.677 413.567 712.71 414.639 712.744 415.676C712.744 416.045 712.443 416.346 712.108 416.346ZM710.836 403.759C710.534 403.759 710.267 403.558 710.233 403.223C709.865 401.181 709.43 399.106 708.928 397.064C708.861 396.729 709.061 396.394 709.396 396.294C709.731 396.193 710.066 396.428 710.166 396.762C710.668 398.804 711.137 400.913 711.472 402.989C711.539 403.324 711.304 403.658 710.97 403.725C710.903 403.725 710.869 403.759 710.836 403.759ZM707.789 391.44C707.522 391.44 707.287 391.272 707.187 391.004C706.551 389.029 705.814 387.021 705.044 385.079C704.91 384.744 705.078 384.376 705.413 384.276C705.747 384.142 706.116 384.309 706.216 384.644C706.986 386.619 707.722 388.628 708.392 390.636C708.492 390.971 708.325 391.306 707.99 391.44C707.89 391.44 707.823 391.44 707.789 391.44ZM703.103 379.69C702.868 379.69 702.634 379.556 702.534 379.321C701.63 377.447 700.659 375.539 699.655 373.731C699.487 373.43 699.588 373.061 699.889 372.894C700.19 372.727 700.559 372.827 700.726 373.128C701.764 374.969 702.734 376.878 703.638 378.786C703.772 379.087 703.638 379.489 703.337 379.623C703.27 379.656 703.17 379.69 703.103 379.69ZM696.943 368.609C696.742 368.609 696.541 368.509 696.408 368.308C695.269 366.567 694.098 364.793 692.859 363.119C692.658 362.851 692.725 362.449 692.993 362.249C693.261 362.048 693.662 362.115 693.863 362.382C695.102 364.09 696.341 365.864 697.479 367.638C697.68 367.939 697.579 368.308 697.278 368.509C697.177 368.576 697.044 368.609 696.943 368.609ZM689.444 358.365C689.277 358.365 689.076 358.298 688.976 358.131C687.637 356.524 686.231 354.917 684.791 353.411C684.557 353.143 684.557 352.775 684.825 352.507C685.093 352.273 685.461 352.273 685.729 352.541C687.168 354.08 688.608 355.687 689.947 357.328C690.181 357.595 690.148 357.997 689.88 358.198C689.746 358.332 689.578 358.365 689.444 358.365ZM680.774 349.159C680.607 349.159 680.473 349.092 680.339 348.992C678.799 347.553 677.226 346.147 675.619 344.808C675.351 344.573 675.318 344.205 675.552 343.937C675.786 343.669 676.155 343.636 676.422 343.87C678.029 345.209 679.636 346.615 681.209 348.088C681.477 348.323 681.477 348.724 681.243 348.959C681.109 349.093 680.942 349.159 680.774 349.159ZM671.033 341.058C670.899 341.058 670.765 341.025 670.664 340.924C668.957 339.686 667.216 338.481 665.442 337.376C665.141 337.175 665.074 336.807 665.241 336.506C665.442 336.204 665.81 336.137 666.112 336.305C667.886 337.443 669.66 338.648 671.367 339.887C671.635 340.087 671.702 340.489 671.501 340.757C671.401 340.991 671.2 341.058 671.033 341.058ZM660.32 334.263C660.22 334.263 660.119 334.229 660.019 334.196C658.178 333.191 656.303 332.254 654.395 331.35C654.094 331.216 653.96 330.848 654.094 330.513C654.228 330.212 654.629 330.045 654.931 330.212C656.839 331.116 658.78 332.053 660.622 333.091C660.923 333.258 661.023 333.627 660.856 333.928C660.756 334.162 660.555 334.263 660.32 334.263ZM648.838 328.94C648.771 328.94 648.671 328.94 648.604 328.906C646.629 328.17 644.654 327.467 642.645 326.864C642.31 326.764 642.143 326.396 642.243 326.094C642.344 325.76 642.679 325.592 643.013 325.693C645.022 326.295 647.064 326.998 649.039 327.768C649.374 327.902 649.541 328.27 649.407 328.572C649.307 328.806 649.072 328.94 648.838 328.94Z" fill="#018288"/>
<path d="M645.591 511.083C645.323 511.083 645.089 510.916 644.988 510.648C644.888 510.313 645.055 509.978 645.39 509.845C646.394 509.51 647.365 509.175 648.336 508.84C648.671 508.74 649.039 508.874 649.139 509.208C649.273 509.543 649.106 509.911 648.771 510.012C647.767 510.38 646.796 510.715 645.792 511.05C645.725 511.05 645.658 511.083 645.591 511.083Z" fill="#018288"/>
<path d="M2.71763 283.279C1.47902 283.279 0.441264 282.509 0.106504 281.304C-0.228257 280.098 0.240408 278.893 1.31164 278.257L39.4743 255.293L73.8877 277.454C74.8919 278.09 75.3606 279.329 75.0259 280.467C74.6911 281.638 73.6533 282.408 72.4482 282.442L2.75111 283.279H2.71763ZM39.4408 258.607L3.15282 280.433L72.0465 279.596L39.4408 258.607Z" fill="#74B8BB"/>
<path d="M39.4739 258.373C38.704 258.373 38.0679 257.736 38.0679 256.967V249.836L43.7588 243.375C45.0644 241.869 45.3322 239.76 44.3949 238.186C43.3571 236.479 40.9134 235.408 38.8044 235.709C36.8293 236.011 35.4568 237.383 34.8542 239.726C34.486 241.166 35.6242 242.84 37.3314 243.342C38.0679 243.576 38.5031 244.346 38.2688 245.116C38.0344 245.852 37.2645 246.288 36.4945 246.053C33.3143 245.083 31.3058 241.936 32.0757 239.023C32.9796 235.609 35.2559 233.366 38.3357 232.931C41.5829 232.462 45.1314 234.069 46.7382 236.747C48.3116 239.358 47.9433 242.873 45.8009 245.25L40.8129 250.907V256.967C40.8799 257.736 40.2773 258.373 39.4739 258.373Z" fill="#74B8BB"/>
<path d="M328.406 74.6897L327.468 73.7524C326.665 72.949 307.985 53.9011 307.985 43.3896C307.985 32.6103 316.756 23.8062 327.569 23.8062C338.382 23.8062 347.152 32.5769 347.152 43.3896C347.152 53.8676 330.013 72.9155 329.276 73.7189L328.406 74.6897ZM327.569 26.3169C318.129 26.3169 310.463 33.9829 310.463 43.4231C310.463 51.6917 324.523 67.0907 328.305 71.0743C331.82 67.0237 344.642 51.6917 344.642 43.4231C344.642 33.9829 336.976 26.3169 327.569 26.3169Z" fill="#74B8BB"/>
<path d="M327.569 50.4198C322.615 50.4198 318.564 46.3692 318.564 41.4147C318.564 36.4603 322.615 32.4097 327.569 32.4097C332.523 32.4097 336.574 36.4603 336.574 41.4147C336.574 46.3692 332.523 50.4198 327.569 50.4198ZM327.569 34.8869C323.954 34.8869 321.041 37.8328 321.041 41.4147C321.041 44.9967 323.987 47.9425 327.569 47.9425C331.184 47.9425 334.097 44.9967 334.097 41.4147C334.097 37.8328 331.151 34.8869 327.569 34.8869Z" fill="#74B8BB"/>
<path d="M111.648 176.155C111.515 176.155 111.381 176.155 111.18 176.122C109.305 176.021 107.564 175.151 106.326 173.745C105.154 172.439 104.518 170.765 104.518 169.025C104.518 168.958 104.518 168.891 104.518 168.824C104.552 167.016 105.288 165.342 106.527 164.037C107.732 162.798 109.339 162.028 111.079 161.894C111.247 161.894 111.448 161.861 111.648 161.861C113.456 161.861 115.163 162.53 116.469 163.735C117.875 165.041 118.712 166.882 118.779 168.79C118.779 168.857 118.779 168.924 118.779 168.991C118.779 171.167 117.808 173.209 116.101 174.548C114.829 175.619 113.255 176.155 111.648 176.155ZM111.648 163.836C111.515 163.836 111.381 163.836 111.247 163.836C109.975 163.936 108.803 164.472 107.933 165.376C107.029 166.313 106.493 167.552 106.46 168.857V168.891C106.46 168.924 106.46 168.958 106.46 168.991C106.46 170.263 106.928 171.502 107.765 172.439C108.703 173.477 109.941 174.08 111.314 174.18H111.347C111.414 174.18 111.515 174.18 111.648 174.18C112.82 174.18 113.958 173.778 114.862 173.042C116.101 172.038 116.804 170.565 116.804 168.991C116.804 168.958 116.804 168.924 116.804 168.891V168.857C116.77 167.451 116.168 166.112 115.13 165.175C114.193 164.338 112.954 163.836 111.648 163.836Z" fill="#74B8BB"/>
<path d="M130.629 192.693H92.6676C90.0899 192.693 87.981 190.584 87.981 188.006V150.044C87.981 147.466 90.0899 145.357 92.6676 145.357H130.629C133.207 145.357 135.316 147.466 135.316 150.044V188.006C135.316 190.584 133.207 192.693 130.629 192.693ZM92.6676 147.299C91.1612 147.299 89.9226 148.538 89.9226 150.044V188.006C89.9226 189.512 91.1612 190.751 92.6676 190.751H130.629C132.136 190.751 133.374 189.512 133.374 188.006V150.044C133.374 148.538 132.136 147.299 130.629 147.299H92.6676Z" fill="#74B8BB"/>
<path d="M111.715 187.537C111.615 187.537 111.548 187.537 111.448 187.537C111.381 187.537 111.28 187.537 111.213 187.537H111.18C106.192 187.403 101.539 185.294 98.1242 181.645C94.9105 178.197 93.1362 173.712 93.1362 168.992V168.757C93.2032 163.769 95.2117 159.083 98.7937 155.635C102.275 152.287 106.861 150.412 111.682 150.412C121.926 150.412 130.228 158.748 130.228 168.958C130.228 179.168 121.926 187.537 111.715 187.537ZM111.213 185.596C111.28 185.596 111.381 185.596 111.448 185.596C111.515 185.596 111.615 185.596 111.682 185.596C120.854 185.596 128.32 178.131 128.32 168.958C128.32 159.786 120.854 152.32 111.682 152.32C107.33 152.32 103.246 153.994 100.133 157.007C96.919 160.12 95.1113 164.271 95.0444 168.757V168.958C95.0444 173.176 96.6177 177.193 99.4967 180.273C102.61 183.587 106.761 185.462 111.213 185.596Z" fill="#74B8BB"/>
<path d="M111.716 179.068C111.448 179.068 111.281 179.068 111.08 179.035C108.402 178.867 105.958 177.662 104.184 175.654C102.544 173.812 101.64 171.436 101.64 168.958C101.64 168.858 101.64 168.791 101.64 168.691C101.707 166.146 102.711 163.736 104.485 161.895C106.192 160.154 108.469 159.049 110.913 158.882C111.147 158.849 111.415 158.849 111.716 158.849C114.26 158.849 116.67 159.786 118.545 161.527C120.554 163.368 121.725 165.979 121.792 168.691C121.792 168.791 121.792 168.858 121.792 168.958C121.792 172.038 120.42 174.917 117.976 176.859C116.202 178.298 114.026 179.068 111.716 179.068ZM111.716 160.824C111.482 160.824 111.281 160.824 111.08 160.857C109.105 161.025 107.23 161.861 105.858 163.301C104.418 164.774 103.581 166.716 103.548 168.791V168.824C103.548 168.891 103.548 168.925 103.548 168.992C103.548 171 104.284 172.909 105.59 174.415C107.029 176.055 109.038 177.026 111.18 177.127H111.214C111.348 177.127 111.482 177.16 111.682 177.16C113.557 177.16 115.298 176.557 116.771 175.386C118.712 173.812 119.851 171.503 119.851 168.992C119.851 168.925 119.851 168.891 119.851 168.824V168.791C119.817 166.548 118.88 164.506 117.206 163C115.733 161.56 113.758 160.824 111.716 160.824Z" fill="#74B8BB"/>
<path d="M111.716 179.068C111.448 179.068 111.281 179.068 111.08 179.034C108.402 178.867 105.958 177.662 104.184 175.653C102.544 173.812 101.64 171.435 101.64 168.958C101.64 168.858 101.64 168.791 101.64 168.69C101.707 166.146 102.711 163.736 104.485 161.895C106.192 160.154 108.469 159.049 110.913 158.882C111.147 158.848 111.415 158.848 111.716 158.848C114.26 158.848 116.67 159.786 118.545 161.526C120.554 163.368 121.725 165.979 121.792 168.69C121.792 168.791 121.792 168.858 121.792 168.958C121.792 172.038 120.42 174.917 117.976 176.858C116.202 178.298 114.026 179.068 111.716 179.068ZM111.716 160.823C111.482 160.823 111.281 160.823 111.08 160.857C109.105 161.024 107.23 161.861 105.858 163.301C104.418 164.774 103.581 166.715 103.548 168.791V168.824C103.548 168.891 103.548 168.925 103.548 168.992C103.548 171 104.284 172.908 105.59 174.415C107.029 176.055 109.038 177.026 111.18 177.126H111.214C111.348 177.126 111.482 177.16 111.682 177.16C113.557 177.16 115.298 176.557 116.771 175.386C118.712 173.812 119.851 171.502 119.851 168.992C119.851 168.925 119.851 168.891 119.851 168.824V168.791C119.817 166.548 118.88 164.506 117.206 162.999C115.733 161.56 113.758 160.823 111.716 160.823Z" fill="#74B8BB"/>
<path d="M129.056 167.786H120.821V169.728H129.056V167.786Z" fill="#74B8BB"/>
<path d="M102.711 168.222H94.0068V170.163H102.711V168.222Z" fill="#74B8BB"/>
<path d="M112.99 178.062L111.048 178.077L111.119 186.781L113.06 186.765L112.99 178.062Z" fill="#74B8BB"/>
<path d="M112.452 151.818H110.51V159.719H112.452V151.818Z" fill="#74B8BB"/>
<path d="M99.6308 182.081L98.2583 180.708L98.3587 180.608L104.418 174.649L105.757 176.055L99.6308 182.081Z" fill="#74B8BB"/>
<path d="M123.116 155.761L117.195 161.58L118.556 162.965L124.477 157.145L123.116 155.761Z" fill="#74B8BB"/>
<path d="M119.102 174.686L117.691 176.02L123.418 182.076L124.829 180.742L119.102 174.686Z" fill="#74B8BB"/>
<path d="M104.452 163.267L98.5933 156.773L99.9993 155.467L100.2 155.668L105.891 161.962L104.452 163.267Z" fill="#74B8BB"/>
<path d="M111.716 172.574C109.741 172.574 108.101 170.967 108.101 168.958C108.101 166.983 109.707 165.343 111.716 165.343C113.691 165.343 115.331 166.95 115.331 168.958C115.298 170.967 113.691 172.574 111.716 172.574ZM111.716 167.284C110.779 167.284 110.042 168.021 110.042 168.958C110.042 169.896 110.779 170.632 111.716 170.632C112.653 170.632 113.39 169.896 113.39 168.958C113.39 168.054 112.62 167.284 111.716 167.284Z" fill="#74B8BB"/>
<path d="M247.227 84.2974H209.533C207.323 84.2974 205.516 86.239 205.516 88.6492V100.6H196.912C194.636 100.6 192.761 102.542 192.761 104.952V120.652C192.761 123.063 194.602 125.004 196.912 125.004H235.945C238.222 125.004 240.096 123.063 240.096 120.652V108.701H247.227C249.436 108.701 251.244 106.76 251.244 104.35V88.6492C251.244 86.239 249.436 84.2974 247.227 84.2974ZM238.155 120.686C238.155 122.025 237.184 123.096 235.979 123.096H196.912C195.707 123.096 194.736 122.025 194.736 120.686V104.986C194.736 103.647 195.707 102.575 196.912 102.575H235.945C237.15 102.575 238.121 103.647 238.121 104.986V120.686H238.155ZM249.302 104.35C249.302 105.689 248.365 106.76 247.227 106.76H240.096V104.952C240.096 102.542 238.255 100.6 235.945 100.6H207.457V88.6492C207.457 87.3102 208.395 86.239 209.533 86.239H247.193C248.331 86.239 249.269 87.3102 249.269 88.6492V104.35H249.302Z" fill="#74B8BB"/>
<path d="M215.625 119.246C211.876 119.246 208.796 116.2 208.796 112.417C208.796 108.668 211.843 105.588 215.625 105.588C219.375 105.588 222.455 108.634 222.455 112.417C222.455 116.2 219.375 119.246 215.625 119.246ZM215.625 107.128C212.713 107.128 210.336 109.505 210.336 112.417C210.336 115.329 212.713 117.706 215.625 117.706C218.538 117.706 220.915 115.329 220.915 112.417C220.915 109.505 218.538 107.128 215.625 107.128Z" fill="#74B8BB"/>
<path d="M231.962 100.633C232.932 99.6291 233.468 98.2231 233.468 96.8506C233.468 93.9382 231.091 91.5614 228.179 91.5614C225.266 91.5614 222.889 93.9382 222.889 96.8506C222.889 98.2566 223.425 99.5956 224.429 100.6L222.454 100.767C221.751 99.6626 221.35 98.1896 221.35 96.8506C221.35 93.1013 224.396 90.0215 228.179 90.0215C231.961 90.0215 235.008 93.0678 235.008 96.8506C235.008 98.1896 234.606 99.5287 233.87 100.633H231.962Z" fill="#74B8BB"/>
<path d="M221.249 67.5928C221.249 66.5551 220.713 65.6512 219.91 65.0152C220.713 64.3791 221.249 63.4753 221.249 62.4375C221.249 60.5628 219.542 59.0229 217.433 59.0229H198.418C196.309 59.0229 194.602 60.5628 194.602 62.4375C194.602 63.4753 195.138 64.3791 195.941 65.0152C195.338 65.4838 194.903 66.0864 194.702 66.7894H181.781C179.672 66.7894 177.964 68.3293 177.964 70.2039C177.964 71.2417 178.5 72.1455 179.303 72.7816C178.5 73.4176 177.964 74.3215 177.964 75.3593C177.964 76.3635 178.467 77.3009 179.27 77.9034C178.467 78.5395 177.964 79.4433 177.964 80.4476C177.964 81.4854 178.466 82.3892 179.303 83.0253C178.5 83.6613 177.964 84.5652 177.964 85.6029C177.964 87.4776 179.672 89.0175 181.781 89.0175H200.795C202.904 89.0175 204.611 87.4776 204.611 85.6029C204.611 84.5652 204.109 83.6613 203.272 83.0253C203.875 82.5566 204.31 81.9206 204.511 81.2176H217.433C219.542 81.2176 221.249 79.6777 221.249 77.803C221.249 76.7652 220.747 75.8614 219.91 75.2253C220.713 74.5893 221.249 73.6854 221.249 72.6477C221.249 71.6434 220.747 70.7061 219.943 70.1035C220.747 69.5009 221.249 68.5971 221.249 67.5928ZM198.418 60.6968H217.433C218.604 60.6968 219.575 61.4667 219.575 62.4375C219.575 63.4083 218.604 64.1783 217.433 64.1783H198.418C197.247 64.1783 196.276 63.4083 196.276 62.4375C196.276 61.4667 197.247 60.6968 198.418 60.6968ZM181.781 68.4632H200.795C201.967 68.4632 202.937 69.2331 202.937 70.2039C202.937 71.1747 201.967 71.9447 200.795 71.9447H181.781C180.609 71.9447 179.638 71.1747 179.638 70.2039C179.605 69.2331 180.575 68.4632 181.781 68.4632ZM179.605 75.3593C179.605 74.3884 180.576 73.6185 181.747 73.6185H200.762C201.933 73.6185 202.904 74.3884 202.904 75.3593C202.904 76.2631 202.034 76.9996 200.929 77.1C200.862 77.1 200.795 77.1 200.728 77.1H181.781C181.714 77.1 181.647 77.1 181.58 77.1C180.475 76.9996 179.605 76.2631 179.605 75.3593ZM202.937 85.6029C202.937 86.5737 201.967 87.3437 200.795 87.3437H181.781C180.609 87.3437 179.638 86.5737 179.638 85.6029C179.638 84.6321 180.609 83.8622 181.781 83.8622H200.795C201.967 83.8622 202.937 84.6321 202.937 85.6029ZM181.781 82.1884C180.609 82.1884 179.638 81.4184 179.638 80.4476C179.638 79.5438 180.509 78.8073 181.613 78.7069C181.68 78.7069 181.747 78.7069 181.814 78.7069H200.828C200.895 78.7069 200.962 78.7069 201.029 78.7069C202.134 78.7738 203.004 79.5438 203.004 80.4476C203.004 81.4184 202.034 82.1884 200.862 82.1884H181.781ZM219.575 77.8365C219.575 78.8073 218.604 79.5772 217.433 79.5772H204.444C204.243 78.9412 203.841 78.3386 203.272 77.9369C203.875 77.4682 204.31 76.8322 204.477 76.1292H217.399C218.604 76.0957 219.575 76.8657 219.575 77.8365ZM219.575 72.7146C219.575 73.6854 218.604 74.4554 217.433 74.4554H204.444C204.243 73.7859 203.808 73.2168 203.239 72.7816C203.841 72.3129 204.277 71.7104 204.477 71.0074H217.433C217.5 71.0074 217.566 71.0074 217.633 71.0074C218.705 71.0408 219.575 71.7773 219.575 72.7146ZM217.433 69.3001H204.477C204.042 67.8606 202.569 66.7894 200.795 66.7894H196.51C196.878 66.2203 197.581 65.8521 198.418 65.8521H217.433C218.604 65.8521 219.575 66.622 219.575 67.5928C219.575 68.4967 218.705 69.2331 217.6 69.3336C217.567 69.3001 217.5 69.3001 217.433 69.3001Z" fill="#74B8BB"/>
<path d="M47.8767 197.915C47.5754 197.747 47.2072 197.814 47.0398 198.115C45.9686 199.89 44.9643 201.764 44.0939 203.639C43.96 203.94 44.0939 204.309 44.3952 204.476C44.4956 204.509 44.5626 204.543 44.663 204.543C44.8973 204.543 45.1317 204.409 45.2321 204.175C46.1025 202.333 47.0733 200.492 48.111 198.752C48.2449 198.45 48.1445 198.082 47.8767 197.915Z" fill="#74B8BB"/>
<path d="M42.5208 209.096C42.1861 208.995 41.8513 209.163 41.7174 209.498C41.0479 211.473 40.4788 213.515 40.0436 215.557C39.9766 215.891 40.1775 216.226 40.5123 216.293C40.5457 216.293 40.6127 216.293 40.6462 216.293C40.9474 216.293 41.1818 216.092 41.2487 215.791C41.6839 213.782 42.253 211.807 42.8891 209.866C43.023 209.565 42.8221 209.196 42.5208 209.096Z" fill="#74B8BB"/>
<path d="M39.7084 221.18C39.3401 221.147 39.0723 221.381 39.0389 221.716C38.8045 223.792 38.7041 225.901 38.7041 227.976C38.7041 228.311 38.9719 228.612 39.3401 228.612C39.6749 228.612 39.9762 228.344 39.9762 227.976C39.9762 225.934 40.0766 223.859 40.311 221.85C40.311 221.515 40.0431 221.214 39.7084 221.18Z" fill="#74B8BB"/>
<path d="M64.1794 180.072C62.4386 181.244 60.7648 182.516 59.1914 183.855C58.9236 184.089 58.8901 184.457 59.1245 184.725C59.2584 184.859 59.4258 184.959 59.5931 184.959C59.727 184.959 59.8609 184.926 59.9949 184.825C61.5682 183.52 63.2086 182.248 64.8824 181.11C65.1502 180.909 65.2506 180.541 65.0497 180.239C64.8489 179.938 64.4806 179.871 64.1794 180.072Z" fill="#74B8BB"/>
<path d="M75.2602 174.214C73.3186 174.984 71.4104 175.854 69.5692 176.825C69.268 176.992 69.1341 177.361 69.3014 177.662C69.4019 177.863 69.6362 177.997 69.837 177.997C69.9375 177.997 70.0379 177.963 70.1383 177.93C71.946 176.992 73.8207 176.122 75.7288 175.352C76.0636 175.218 76.1975 174.85 76.0636 174.549C75.9632 174.247 75.5949 174.113 75.2602 174.214Z" fill="#74B8BB"/>
<path d="M54.6058 188.14C53.1663 189.646 51.7938 191.253 50.5217 192.927C50.3208 193.194 50.3543 193.596 50.6221 193.797C50.7226 193.898 50.8565 193.931 50.9904 193.931C51.1912 193.931 51.3586 193.831 51.4925 193.697C52.7311 192.09 54.0702 190.516 55.4762 189.01C55.7105 188.776 55.7105 188.374 55.4427 188.14C55.2418 187.905 54.8736 187.905 54.6058 188.14Z" fill="#74B8BB"/>
<path d="M87.3787 170.933C85.3032 171.268 83.2612 171.703 81.2526 172.238C80.9179 172.339 80.717 172.674 80.8174 173.008C80.8844 173.276 81.1522 173.477 81.42 173.477C81.487 173.477 81.5204 173.477 81.5874 173.444C83.5625 172.908 85.571 172.473 87.5796 172.138C87.9144 172.071 88.1487 171.77 88.0817 171.435C88.0148 171.1 87.7135 170.866 87.3787 170.933Z" fill="#74B8BB"/>
<path d="M115.733 142.88C115.398 142.88 115.097 142.612 115.097 142.244C115.097 140.169 115.197 138.06 115.431 135.984C115.465 135.649 115.766 135.382 116.101 135.449C116.436 135.482 116.704 135.783 116.637 136.118C116.402 138.127 116.302 140.202 116.302 142.244C116.335 142.612 116.067 142.88 115.733 142.88ZM117.072 130.561C117.038 130.561 116.971 130.561 116.938 130.561C116.603 130.494 116.402 130.159 116.469 129.825C116.904 127.783 117.473 125.741 118.143 123.765C118.243 123.431 118.612 123.263 118.946 123.364C119.281 123.464 119.449 123.832 119.348 124.167C118.712 126.109 118.143 128.084 117.708 130.092C117.607 130.36 117.34 130.561 117.072 130.561ZM121.022 118.811C120.922 118.811 120.855 118.778 120.754 118.744C120.453 118.61 120.319 118.242 120.453 117.907C121.323 116.032 122.328 114.158 123.399 112.384C123.566 112.082 123.968 111.982 124.236 112.183C124.537 112.35 124.637 112.752 124.436 113.02C123.365 114.76 122.394 116.602 121.558 118.443C121.491 118.677 121.256 118.811 121.022 118.811ZM127.449 108.199C127.315 108.199 127.182 108.166 127.081 108.065C126.813 107.864 126.746 107.463 126.981 107.195C128.253 105.554 129.625 103.948 131.065 102.408C131.299 102.173 131.701 102.14 131.935 102.374C132.169 102.609 132.203 103.01 131.969 103.245C130.563 104.718 129.224 106.291 127.985 107.931C127.818 108.132 127.617 108.199 127.449 108.199ZM135.986 99.2275C135.818 99.2275 135.617 99.1606 135.517 98.9932C135.283 98.7254 135.316 98.3237 135.584 98.1228C137.191 96.7838 138.865 95.5117 140.572 94.34C140.873 94.1391 141.241 94.2396 141.442 94.5074C141.643 94.7752 141.543 95.1769 141.275 95.3778C139.601 96.5159 137.927 97.7546 136.387 99.0936C136.287 99.1605 136.153 99.2275 135.986 99.2275ZM146.263 92.298C146.029 92.298 145.828 92.1641 145.727 91.9632C145.56 91.6619 145.694 91.2937 145.995 91.1263C147.836 90.1555 149.744 89.2851 151.686 88.5152C152.021 88.3813 152.356 88.5486 152.489 88.8499C152.623 89.1847 152.456 89.5194 152.155 89.6534C150.247 90.3898 148.372 91.2602 146.564 92.231C146.464 92.2645 146.363 92.298 146.263 92.298ZM157.812 87.7452C157.544 87.7452 157.276 87.5778 157.21 87.2766C157.109 86.9418 157.31 86.607 157.645 86.5066C159.653 85.971 161.729 85.5023 163.771 85.201C164.106 85.1341 164.44 85.3684 164.474 85.7032C164.541 86.0379 164.306 86.3727 163.972 86.4062C161.963 86.7409 159.921 87.1761 157.979 87.7117C157.913 87.7452 157.846 87.7452 157.812 87.7452ZM170.031 85.8036C169.696 85.8036 169.428 85.5358 169.395 85.201C169.361 84.8663 169.629 84.565 169.997 84.565C170.935 84.5315 171.906 84.498 172.876 84.498C173.211 84.498 173.512 84.7659 173.512 85.1341C173.512 85.5023 173.245 85.7701 172.876 85.7701C171.939 85.7367 171.002 85.7367 170.031 85.8036C170.064 85.8036 170.064 85.8036 170.031 85.8036Z" fill="#74B8BB"/>
<path d="M214.487 58.3868C214.152 58.3868 213.851 58.119 213.851 57.7508C213.851 55.6753 213.951 53.5663 214.185 51.4908C214.219 51.156 214.52 50.8882 214.855 50.9551C215.19 50.9886 215.457 51.2899 215.39 51.6247C215.156 53.6332 215.056 55.7087 215.056 57.7508C215.123 58.119 214.855 58.3868 214.487 58.3868ZM215.826 46.0676C215.792 46.0676 215.725 46.0676 215.692 46.0676C215.357 46.0007 215.156 45.6659 215.223 45.3312C215.658 43.2891 216.227 41.2471 216.897 39.272C216.997 38.9373 217.366 38.7699 217.7 38.8703C218.035 38.9707 218.202 39.339 218.102 39.6737C217.466 41.6153 216.897 43.5904 216.462 45.599C216.361 45.8668 216.127 46.0676 215.826 46.0676ZM219.809 34.3176C219.709 34.3176 219.642 34.2841 219.542 34.2506C219.24 34.1167 219.106 33.7485 219.24 33.4137C220.111 31.5391 221.115 29.6644 222.186 27.8902C222.354 27.5889 222.755 27.4885 223.023 27.6893C223.324 27.8567 223.425 28.2584 223.224 28.5262C222.153 30.267 221.182 32.1081 220.345 33.9493C220.245 34.1837 220.044 34.3176 219.809 34.3176ZM317.425 24.1743C317.225 24.1743 317.057 24.0739 316.923 23.94C315.685 22.2997 314.379 20.7263 312.973 19.2199C312.739 18.9855 312.739 18.5838 313.007 18.3495C313.241 18.1152 313.643 18.1152 313.877 18.383C315.316 19.9229 316.655 21.5297 317.894 23.2035C318.095 23.4713 318.028 23.873 317.76 24.0739C317.66 24.1074 317.526 24.1743 317.425 24.1743ZM226.203 23.7057C226.069 23.7057 225.935 23.6722 225.835 23.5718C225.567 23.3709 225.5 22.9692 225.735 22.7014C227.007 21.0611 228.379 19.4542 229.819 17.9143C230.053 17.68 230.455 17.6465 230.689 17.8808C230.923 18.1152 230.957 18.5169 230.723 18.7512C229.317 20.2242 227.977 21.7975 226.739 23.4379C226.571 23.6387 226.404 23.7057 226.203 23.7057ZM308.956 15.1023C308.822 15.1023 308.655 15.0688 308.554 14.9684C307.014 13.6294 305.374 12.3573 303.7 11.2191C303.432 11.0182 303.332 10.65 303.533 10.3487C303.734 10.0809 304.102 9.98049 304.403 10.1813C306.111 11.353 307.784 12.6586 309.358 14.0311C309.625 14.2654 309.659 14.6337 309.425 14.9015C309.291 15.0354 309.123 15.1023 308.956 15.1023ZM234.773 14.7341C234.606 14.7341 234.405 14.6671 234.304 14.4998C234.07 14.2319 234.104 13.8302 234.371 13.6294C235.978 12.2903 237.652 11.0182 239.359 9.84659C239.661 9.64573 240.029 9.74616 240.23 10.014C240.431 10.2818 240.33 10.6835 240.062 10.8843C238.389 12.0225 236.715 13.2611 235.175 14.6002C235.041 14.7006 234.907 14.7341 234.773 14.7341ZM298.746 8.07236C298.645 8.07236 298.545 8.03888 298.445 8.0054C296.637 7.0346 294.762 6.16422 292.887 5.39427C292.586 5.26037 292.419 4.89213 292.553 4.59085C292.687 4.25609 293.055 4.12219 293.356 4.25609C295.298 5.02604 297.206 5.92989 299.047 6.93417C299.348 7.10155 299.449 7.46979 299.315 7.77107C299.181 7.93845 298.947 8.07236 298.746 8.07236ZM245.05 7.80455C244.816 7.80455 244.615 7.67064 244.515 7.46979C244.347 7.1685 244.481 6.80027 244.782 6.63289C246.624 5.66208 248.532 4.79171 250.473 4.02176C250.808 3.88785 251.143 4.05523 251.277 4.35652C251.411 4.69128 251.243 5.02604 250.942 5.15994C249.034 5.89641 247.159 6.76679 245.352 7.7376C245.251 7.77107 245.151 7.80455 245.05 7.80455ZM287.264 3.41919C287.197 3.41919 287.163 3.41919 287.096 3.38571C285.121 2.81662 283.112 2.38143 281.104 2.04667C280.769 1.97972 280.535 1.67844 280.602 1.34368C280.669 1.00892 280.97 0.774583 281.305 0.841535C283.38 1.1763 285.422 1.64496 287.431 2.21405C287.766 2.31448 287.967 2.64924 287.866 2.984C287.766 3.21833 287.531 3.41919 287.264 3.41919ZM256.566 3.25181C256.298 3.25181 256.03 3.08443 255.963 2.78314C255.863 2.44838 256.064 2.11362 256.399 2.0132C258.407 1.47758 260.483 1.00892 262.525 0.707631C262.859 0.640679 263.194 0.875011 263.228 1.20977C263.295 1.54453 263.06 1.87929 262.726 1.91277C260.717 2.24753 258.675 2.68272 256.733 3.21833C256.666 3.25181 256.633 3.25181 256.566 3.25181ZM275.011 1.34368H274.978C272.936 1.20977 270.86 1.20977 268.852 1.3102C268.483 1.3102 268.216 1.07587 268.216 0.707631C268.216 0.372871 268.45 0.0715864 268.818 0.0715864C270.894 -0.0288416 273.036 -0.0288416 275.078 0.105062C275.413 0.138538 275.681 0.406347 275.647 0.774583C275.614 1.07587 275.346 1.34368 275.011 1.34368Z" fill="#74B8BB"/>
<path d="M658.814 325.659C658.814 325.626 658.814 325.559 658.814 325.492C659.116 322.78 659.517 320.069 660.053 317.424C660.153 316.989 660.555 316.688 661.024 316.788C661.459 316.889 661.727 317.29 661.66 317.759C661.124 320.37 660.723 323.015 660.421 325.693C660.388 326.128 659.986 326.463 659.517 326.396C659.149 326.362 658.848 326.028 658.814 325.659ZM662.028 309.825C662.028 309.725 662.028 309.624 662.062 309.524C662.832 306.946 663.769 304.335 664.807 301.824C664.974 301.423 665.443 301.222 665.878 301.389C666.28 301.557 666.48 302.025 666.313 302.461C665.309 304.938 664.405 307.482 663.635 310.026C663.501 310.461 663.066 310.696 662.631 310.562C662.262 310.428 662.062 310.16 662.028 309.825ZM668.154 294.861C668.154 294.728 668.188 294.56 668.255 294.426C669.527 292.016 670.899 289.639 672.372 287.363C672.607 286.995 673.109 286.894 673.477 287.129C673.845 287.363 673.946 287.865 673.711 288.233C672.272 290.476 670.899 292.786 669.661 295.163C669.46 295.564 668.958 295.698 668.556 295.498C668.322 295.397 668.188 295.129 668.154 294.861ZM676.958 281.304C676.958 281.103 676.992 280.902 677.126 280.735C678.8 278.626 680.607 276.55 682.482 274.575C682.783 274.24 683.319 274.24 683.62 274.542C683.955 274.843 683.955 275.345 683.654 275.68C681.812 277.621 680.038 279.63 678.398 281.739C678.13 282.074 677.628 282.141 677.26 281.873C677.092 281.739 676.992 281.538 676.958 281.304ZM688.106 269.621C688.073 269.386 688.173 269.118 688.374 268.951C690.416 267.177 692.558 265.47 694.768 263.896C695.136 263.628 695.638 263.729 695.906 264.097C696.174 264.465 696.073 264.967 695.705 265.235C693.529 266.775 691.42 268.449 689.412 270.223C689.077 270.524 688.575 270.491 688.273 270.156C688.206 269.955 688.139 269.788 688.106 269.621ZM701.229 260.18C701.195 259.879 701.362 259.578 701.63 259.41C703.974 258.038 706.417 256.766 708.861 255.628C709.263 255.427 709.731 255.628 709.932 256.029C710.133 256.431 709.932 256.9 709.531 257.101C707.12 258.205 704.744 259.477 702.434 260.816C702.032 261.051 701.563 260.917 701.329 260.515C701.296 260.415 701.262 260.314 701.229 260.18ZM715.891 253.385C715.858 253.016 716.058 252.682 716.427 252.548C718.971 251.644 721.615 250.841 724.227 250.171C724.662 250.071 725.097 250.338 725.197 250.774C725.298 251.209 725.03 251.644 724.595 251.744C722.017 252.38 719.44 253.184 716.929 254.054C716.494 254.188 716.058 253.987 715.891 253.552C715.925 253.519 715.891 253.452 715.891 253.385Z" fill="#74B8BB"/>
<path d="M401.986 210.803H434.927L452.133 197.513C452.133 197.513 454.745 202.635 454.745 210.803H458.025C458.025 210.803 465.725 185.864 453.941 177.662L426.959 200.125C426.926 200.125 404.832 196.509 401.986 210.803Z" fill="url(#paint0_linear_331_3071)"/>
<path d="M346.952 293.422L349.295 279.195H355.89V269.152C355.89 265.503 352.944 262.557 349.295 262.557H343.37C343.37 266.373 340.257 269.487 336.44 269.487C332.624 269.487 329.511 266.373 329.511 262.557H323.954H323.586C320.138 262.557 317.359 265.336 317.359 268.784V279.128H324.255L326.465 293.054L310.798 372.158C316.69 374.133 325.695 376.409 336.842 376.342C347.621 376.275 356.325 374.099 362.117 372.158C358.97 358.332 358.233 355.654 346.952 293.422Z" fill="url(#paint1_linear_331_3071)"/>
<path d="M319.736 220.578L352.642 220.21L352.207 188.04H360.71V175.118C360.71 170.431 356.894 166.615 352.207 166.615H344.541C344.541 171.536 340.558 175.553 335.603 175.553C330.682 175.553 326.665 171.569 326.665 166.615H319.501H318.999C314.547 166.615 310.965 170.23 310.965 174.649V188.006H319.869L319.736 220.578Z" fill="#FD655A"/>
<path d="M508.002 223.244L555.973 223.298L555.999 199.965L508.028 199.911L508.002 223.244Z" fill="#99BFD4"/>
<path d="M508.038 198.484L556.009 198.551V190.483C556.009 189.579 555.272 188.843 554.368 188.843L509.41 188.776C508.64 188.776 508.038 189.378 508.038 190.148V198.484Z" fill="#99BFD4"/>
<path d="M533.981 186.131L547.238 183.018C548.577 182.717 549.313 181.277 548.811 180.005L543.656 166.916C543.355 166.146 542.25 166.113 541.915 166.916L533.981 186.131Z" fill="#99BFD4"/>
<path d="M532.911 186.131L538.233 167.284C538.601 166.012 537.564 164.74 536.225 164.84L521.796 166.079C520.558 166.179 519.922 167.585 520.625 168.59L532.911 186.131Z" fill="#99BFD4"/>
<path d="M531.337 186.131L518.583 171.803C517.947 171.067 516.942 171.334 516.574 172.305L515.402 175.753C514.833 177.394 515.536 179.369 516.909 179.938L531.337 186.131Z" fill="#99BFD4"/>
<defs>
<linearGradient id="paint0_linear_331_3071" x1="401.982" y1="194.25" x2="460.487" y2="194.25" gradientUnits="userSpaceOnUse">
<stop stop-color="#FEBF3E"/>
<stop offset="0.3272" stop-color="#FEB52D"/>
<stop offset="0.9699" stop-color="#FF9B02"/>
<stop offset="1" stop-color="white"/>
</linearGradient>
<linearGradient id="paint1_linear_331_3071" x1="257.746" y1="375.319" x2="426.232" y2="259.368" gradientUnits="userSpaceOnUse">
<stop stop-color="#487685"/>
<stop offset="1" stop-color="#74B8BB"/>
</linearGradient>
</defs>
</svg>
